# Blender 5.2.2 LTS
# www.blender.org
mtllib BigBro3.mtl
o Turret_Turret_MAT_0
v 2.544224 1.205043 2.091069
v 2.372023 0.769792 2.367093
v 2.644670 0.769792 2.367093
v 2.975106 1.205043 2.091069
v 5.615032 4.141191 1.908925
v 5.615032 4.141191 2.001469
v 5.761771 4.141191 2.001469
v 5.761771 4.141191 1.908925
v 2.372023 0.769792 1.543301
v 2.544224 1.205043 1.819326
v 2.975106 1.205043 1.819326
v 2.644670 0.769792 1.543301
v 2.372023 0.769792 2.367093
v 2.372023 0.769792 1.543301
v 2.644670 0.769792 1.543301
v 2.644670 0.769792 2.367093
v 2.644670 0.769792 2.367093
v 2.644670 0.769792 1.543301
v 2.975106 1.205043 1.819326
v 2.975106 1.205043 2.091069
v 1.644670 0.769792 1.543301
v 1.644670 0.769792 2.367093
v 1.975105 1.205043 2.091069
v 1.975105 1.205043 1.819326
v 1.644670 0.769792 1.543301
v 1.644670 0.769792 2.367093
v 1.975105 1.205043 1.819326
v 1.644670 0.769792 1.543301
v 1.975105 1.205043 2.091069
v 2.544224 1.205043 2.091069
v 2.544224 1.205043 1.819326
v 1.975105 1.205043 1.819326
v 1.644670 0.769792 2.367093
v 1.975105 1.205043 2.091069
v 2.544224 1.205043 1.819326
v 2.544224 1.205043 2.091069
v 5.615032 4.141191 2.001469
v 5.615032 4.141191 1.908925
v 2.544224 1.205043 2.091069
v 2.975106 1.205043 2.091069
v 5.761771 4.141191 2.001469
v 5.615032 4.141191 2.001469
v 2.975106 1.205043 2.091069
v 2.975106 1.205043 1.819326
v 5.761771 4.141191 1.908925
v 5.761771 4.141191 2.001469
v 2.975106 1.205043 1.819326
v 2.544224 1.205043 1.819326
v 5.615032 4.141191 1.908925
v 5.761771 4.141191 1.908925
v -1.810242 0.830688 2.752237
v -2.902395 -0.800768 3.570575
v 2.242548 -0.800768 3.570575
v 1.952022 0.830688 2.752237
v 1.952022 0.830688 -0.523704
v -1.810242 0.830688 -0.523704
v -1.810242 0.830688 0.000959
v 1.952022 0.830688 0.000959
v -2.902395 -0.800768 -3.568656
v -1.810242 0.830688 -2.750318
v 1.952022 0.830688 -2.750318
v 2.242548 -0.800768 -3.568656
v 2.090781 -1.149878 0.000959
v -2.741057 -1.149878 0.000959
v -2.741058 -1.149878 -0.638333
v 2.090781 -1.149878 -0.638333
v 3.035938 0.830688 0.000959
v 3.920514 -0.800768 0.000959
v 3.920514 -0.800768 -0.449565
v 3.035938 0.830688 -0.436351
v -2.577903 0.830688 -0.424441
v -4.650022 -0.800768 -0.399048
v -4.650022 -0.800768 0.000959
v -2.577903 0.830688 0.000959
v -2.741057 -1.149878 -3.351421
v -2.902395 -0.800768 -3.568656
v 2.242548 -0.800768 -3.568656
v 2.090781 -1.149878 -3.351421
v 3.624957 -1.149878 -0.422147
v 3.920514 -0.800768 -0.449565
v 3.920514 -0.800768 0.000959
v 3.624957 -1.149878 0.000959
v 2.090781 -1.149878 3.353340
v 2.242548 -0.800768 3.570575
v -2.902395 -0.800768 3.570575
v -2.741057 -1.149878 3.353340
v -4.382329 -1.149878 0.000959
v -4.650022 -0.800768 0.000959
v -4.650022 -0.800768 -0.399048
v -4.382329 -1.149878 -0.322420
v -4.650022 -0.800768 1.806610
v -4.382329 -1.149878 1.696724
v -4.382329 -1.149878 -0.322420
v -4.382329 -1.149878 0.000959
v -4.650022 -0.800768 -1.804691
v -4.382329 -1.149878 -1.694805
v -2.577903 0.830688 -1.937850
v -1.810242 0.830688 -2.750318
v -2.902395 -0.800768 -3.568656
v -4.650022 -0.800768 -1.804691
v -2.577903 0.830688 0.000959
v -2.577903 0.830688 -0.424441
v -4.650022 -0.800768 1.806610
v -2.902395 -0.800768 3.570575
v -1.810242 0.830688 2.752237
v -2.577903 0.830688 1.939768
v 3.920514 -0.800768 2.363461
v 3.035938 0.830688 2.294170
v 3.035938 0.830688 -0.436351
v 3.035938 0.830688 0.000959
v 3.035938 0.830688 -2.292252
v 3.920514 -0.800768 -2.361542
v 3.920514 -0.800768 -2.361542
v 3.624957 -1.149878 -2.217767
v 3.624957 -1.149878 0.000959
v 3.624957 -1.149878 -0.422147
v 3.920514 -0.800768 2.363461
v 3.624957 -1.149878 2.219686
v -2.577903 0.830688 1.939768
v -1.810242 0.830688 2.752237
v -1.810242 0.830688 1.861386
v -2.577903 0.830688 1.604461
v 1.952022 0.830688 1.861386
v 1.952022 0.830688 2.752237
v 3.035938 0.830688 1.551639
v 3.035938 0.830688 2.294170
v 3.920514 -0.800768 2.363461
v 3.920514 -0.800768 1.598494
v 3.035938 0.830688 1.551639
v 3.035938 0.830688 2.294170
v 3.624957 -1.149878 1.501272
v 3.920514 -0.800768 1.598494
v 3.920514 -0.800768 2.363461
v 3.624957 -1.149878 2.219686
v 2.090781 -1.149878 3.353340
v 2.090780 -1.149878 2.267855
v 3.624957 -1.149878 1.501272
v 3.624957 -1.149878 2.219686
v -2.741057 -1.149878 3.353340
v -2.741057 -1.149878 2.267855
v -4.382329 -1.149878 1.147643
v -4.382329 -1.149878 1.696724
v -4.650022 -0.800768 1.806610
v -4.650023 -0.800768 1.514418
v -4.382329 -1.149878 1.147643
v -4.382329 -1.149878 1.696724
v -2.577903 0.830688 1.604461
v -4.650023 -0.800768 1.514418
v -4.650022 -0.800768 -1.512500
v -4.382329 -1.149878 -1.145725
v -4.382329 -1.149878 -1.145725
v -2.741057 -1.149878 -2.265936
v 2.090780 -1.149878 -2.265936
v 3.624957 -1.149878 -1.499354
v 3.624957 -1.149878 -1.499354
v 3.920514 -0.800768 -1.596575
v 2.117666 0.557626 -0.740271
v 3.002242 -0.685836 -0.746562
v 3.002242 -0.685836 -1.292656
v 2.117666 0.557626 -1.270348
v 3.035938 0.830688 -1.549721
v 1.952022 0.830688 -1.859468
v -1.810242 0.830688 -1.859468
v -2.577903 0.830688 -1.602542
v -1.439415 0.523858 -1.423291
v -3.511535 -0.503247 -1.360071
v -3.511535 -0.503247 -0.578299
v -1.439415 0.523858 -0.596128
v -4.382329 -1.149878 0.324338
v -4.650023 -0.800768 0.400967
v -2.741057 -1.149878 0.640252
v -4.382329 -1.149878 0.324338
v 2.090781 -1.149878 0.640251
v 3.624957 -1.149878 0.424066
v 3.920514 -0.800768 0.451484
v 3.624957 -1.149878 0.424066
v 3.035938 0.830688 0.438270
v 3.920514 -0.800768 0.451484
v 1.952022 0.830688 0.525622
v 3.035938 0.830688 0.438270
v -1.810242 0.830688 0.525622
v -2.577903 0.830688 0.426360
v -4.650023 -0.800768 0.400967
v -2.577903 0.830688 0.426360
v -4.650022 -0.800768 -1.804691
v -4.382329 -1.149878 -1.694805
v -4.382329 -1.149878 -1.694805
v -2.741057 -1.149878 -3.351421
v 2.090781 -1.149878 -3.351421
v 3.624957 -1.149878 -2.217767
v 3.920514 -0.800768 -2.361542
v 3.624957 -1.149878 -2.217767
v 3.035938 0.830688 -1.549721
v 3.920514 -0.800768 -1.596575
v 3.920514 -0.800768 -2.361542
v 3.035938 0.830688 -2.292252
v 1.952022 0.830688 -2.750318
v 3.035938 0.830688 -2.292252
v -1.810242 0.830688 -2.750318
v -2.577903 0.830688 -1.937850
v -4.650022 -0.800768 -1.512500
v -2.577903 0.830688 -1.602542
v 2.117666 0.557627 1.272267
v 3.002242 -0.685836 1.294574
v 3.002242 -0.685836 0.748480
v 2.117666 0.557627 0.742189
v -1.439415 0.523858 0.598047
v -3.511535 -0.503247 0.580218
v -3.511535 -0.503247 1.361989
v -1.439415 0.523858 1.425210
v 3.035938 0.830688 -0.436351
v 3.920514 -0.800768 -0.449565
v 3.002242 -0.685836 -0.746562
v 2.117666 0.557626 -0.740271
v 3.920514 -0.800768 -0.449565
v 3.920514 -0.800768 -1.596575
v 3.002242 -0.685836 -1.292656
v 3.002242 -0.685836 -0.746562
v 3.920514 -0.800768 -1.596575
v 3.035938 0.830688 -1.549721
v 2.117666 0.557626 -1.270348
v 3.002242 -0.685836 -1.292656
v 3.035938 0.830688 -1.549721
v 3.035938 0.830688 -0.436351
v 2.117666 0.557626 -0.740271
v 2.117666 0.557626 -1.270348
v 3.035938 0.830688 1.551639
v 3.920514 -0.800768 1.598494
v 3.002242 -0.685836 1.294574
v 2.117666 0.557627 1.272267
v 3.920514 -0.800768 1.598494
v 3.920514 -0.800768 0.451484
v 3.002242 -0.685836 0.748480
v 3.002242 -0.685836 1.294574
v 3.920514 -0.800768 0.451484
v 3.035938 0.830688 0.438270
v 2.117666 0.557627 0.742189
v 3.002242 -0.685836 0.748480
v 3.035938 0.830688 0.438270
v 3.035938 0.830688 1.551639
v 2.117666 0.557627 1.272267
v 2.117666 0.557627 0.742189
v -2.577903 0.830688 -1.602542
v -4.650022 -0.800768 -1.512500
v -3.511535 -0.503247 -1.360071
v -1.439415 0.523858 -1.423291
v -4.650022 -0.800768 -1.512500
v -4.650022 -0.800768 -0.399048
v -3.511535 -0.503247 -0.578299
v -3.511535 -0.503247 -1.360071
v -4.650022 -0.800768 -0.399048
v -2.577903 0.830688 -0.424441
v -1.439415 0.523858 -0.596128
v -3.511535 -0.503247 -0.578299
v -2.577903 0.830688 -0.424441
v -2.577903 0.830688 -1.602542
v -1.439415 0.523858 -1.423291
v -1.439415 0.523858 -0.596128
v -2.577903 0.830688 0.426360
v -4.650023 -0.800768 0.400967
v -3.511535 -0.503247 0.580218
v -1.439415 0.523858 0.598047
v -4.650023 -0.800768 0.400967
v -4.650023 -0.800768 1.514418
v -3.511535 -0.503247 1.361989
v -3.511535 -0.503247 0.580218
v -4.650023 -0.800768 1.514418
v -2.577903 0.830688 1.604461
v -1.439415 0.523858 1.425210
v -3.511535 -0.503247 1.361989
v -2.577903 0.830688 1.604461
v -2.577903 0.830688 0.426360
v -1.439415 0.523858 0.598047
v -1.439415 0.523858 1.425210
v -1.794957 -0.735026 2.298548
v -1.208916 0.907533 2.179984
v 1.673405 0.907533 2.179984
v 1.673405 -0.735026 2.298548
v -1.208916 0.907533 2.179984
v -1.208916 0.907533 2.805038
v 1.673405 0.907533 2.805038
v 1.673405 0.907533 2.179984
v -1.208916 0.907533 2.805038
v -1.794957 -0.735026 3.604001
v 1.673405 -0.735026 3.604001
v 1.673405 0.907533 2.805038
v -1.794957 -0.735026 3.604001
v -1.794957 -0.735026 2.298548
v 1.673405 -0.735026 2.298548
v 1.673405 -0.735026 3.604001
v 1.673405 -0.735026 2.298548
v 1.673405 0.907533 2.179984
v 1.673405 0.907533 2.805038
v 1.673405 -0.735026 3.604001
v -1.794957 -0.735026 3.604001
v -1.208916 0.907533 2.805038
v -1.208916 0.907533 2.179984
v -1.794957 -0.735026 2.298548
v -1.794957 -0.735026 -2.298547
v 1.673405 -0.735026 -2.298547
v 1.673405 0.907533 -2.179983
v -1.208916 0.907533 -2.179983
v -1.208916 0.907533 -2.179983
v 1.673405 0.907533 -2.179983
v 1.673405 0.907533 -2.805038
v -1.208916 0.907533 -2.805038
v -1.208916 0.907533 -2.805038
v 1.673405 0.907533 -2.805038
v 1.673405 -0.735026 -3.604001
v -1.794957 -0.735026 -3.604001
v -1.794957 -0.735026 -3.604001
v 1.673405 -0.735026 -3.604001
v 1.673405 -0.735026 -2.298547
v -1.794957 -0.735026 -2.298547
v 1.673405 -0.735026 -2.298547
v 1.673405 -0.735026 -3.604001
v 1.673405 0.907533 -2.805038
v 1.673405 0.907533 -2.179983
v -1.794957 -0.735026 -3.604001
v -1.794957 -0.735026 -2.298547
v -1.208916 0.907533 -2.179983
v -1.208916 0.907533 -2.805038
vn -0.0000 0.5356 0.8445
vn -0.0000 1.0000 -0.0000
vn -0.0000 0.5356 -0.8445
vn -0.0000 -1.0000 -0.0000
vn 0.7965 -0.6047 -0.0000
vn -0.7965 0.6047 -0.0000
vn -0.6911 0.7228 -0.0000
vn -0.0000 0.0305 0.9995
vn 0.7253 -0.6884 -0.0000
vn -0.0000 0.0305 -0.9995
vn -0.1439 0.5207 0.8415
vn -0.2512 0.5659 0.7853
vn 0.1285 0.4425 0.8875
vn 0.1194 0.4432 0.8885
vn -0.2512 0.5659 -0.7853
vn -0.1439 0.5207 -0.8415
vn 0.1194 0.4432 -0.8884
vn 0.1285 0.4425 -0.8875
vn 0.8791 0.4766 -0.0000
vn -0.6186 0.7857 -0.0000
vn -0.1807 -0.5785 -0.7954
vn -0.2311 -0.5888 -0.7746
vn 0.1698 -0.5800 -0.7967
vn 0.1244 -0.5680 -0.8136
vn 0.7632 -0.6461 -0.0000
vn 0.1244 -0.5680 0.8136
vn 0.1698 -0.5800 0.7967
vn -0.2311 -0.5888 0.7746
vn -0.1808 -0.5785 0.7954
vn -0.7936 -0.6085 -0.0000
vn -0.5639 -0.6082 0.5587
vn -0.5639 -0.6082 -0.5587
vn -0.5671 0.6741 -0.4733
vn -0.2512 0.5660 -0.7852
vn -0.5852 0.7039 -0.4025
vn -0.5852 0.7039 0.4025
vn -0.2513 0.5660 0.7852
vn -0.5671 0.6741 0.4733
vn 0.7010 0.4675 0.5385
vn 0.6438 0.4496 0.6192
vn 0.6438 0.4496 -0.6192
vn 0.7011 0.4675 -0.5385
vn 0.4610 -0.6224 -0.6325
vn 0.4610 -0.6224 0.6326
vn 0.4610 -0.6224 0.6325
vn 0.7011 0.4674 0.5385
vn 0.8149 0.5797 -0.0000
vn -0.4441 0.8960 -0.0000
vn 0.6438 0.4495 -0.6192
vn 0.2911 0.1855 -0.9385
vn 0.1242 0.9923 -0.0000
vn 0.2870 0.1539 0.9455
vn 0.2850 -0.9585 -0.0000
vn 0.2870 0.1539 -0.9455
vn 0.2871 0.1539 -0.9455
vn 0.2911 0.1855 0.9385
vn -0.1377 0.2696 0.9531
vn -0.1378 0.2697 0.9531
vn -0.2528 0.9675 -0.0000
vn -0.1479 0.2149 -0.9654
vn -0.2602 -0.9655 -0.0000
vn -0.1479 0.2149 0.9654
vn -0.1377 0.2697 -0.9531
vn -0.1377 0.2696 -0.9531
vn -0.1378 0.2697 -0.9531
vn -0.0000 -0.0720 -0.9974
vn -0.0000 0.4374 0.8993
vn 1.0000 -0.0000 -0.0000
vn -0.9418 0.3360 -0.0000
vn -0.0000 -0.0720 0.9974
vn -0.0000 0.4374 -0.8993
vt 0.161644 0.472066
vt 0.151884 0.465977
vt 0.151884 0.475618
vt 0.161644 0.487302
vt 0.168085 0.580652
vt 0.164812 0.580652
vt 0.164812 0.585841
vt 0.168085 0.585841
vt 0.181014 0.465977
vt 0.171253 0.472066
vt 0.171253 0.487302
vt 0.181014 0.475618
vt 0.146207 0.465976
vt 0.117077 0.465976
vt 0.117077 0.475618
vt 0.146207 0.475618
vt 0.126838 0.487302
vt 0.136447 0.487302
vt 0.181014 0.440257
vt 0.151884 0.440257
vt 0.161644 0.451941
vt 0.171253 0.451941
vt 0.117077 0.440257
vt 0.146207 0.440257
vt 0.307599 0.243899
vt 0.307599 0.259136
vt 0.411424 0.357675
vt 0.411424 0.352486
vt 0.130006 0.585841
vt 0.133279 0.585841
vt 0.521416 0.315941
vt 0.521416 0.300705
vt 0.417591 0.409292
vt 0.417591 0.414481
vt 0.671471 0.482042
vt 0.613781 0.443422
vt 0.613781 0.625352
vt 0.671471 0.615079
vt 0.821925 0.646358
vt 0.821925 0.513321
vt 0.803372 0.513321
vt 0.803372 0.646358
vt 0.608105 0.443422
vt 0.550415 0.482042
vt 0.550415 0.615079
vt 0.608105 0.625352
vt 0.603319 0.926741
vt 0.603319 0.755882
vt 0.580713 0.755882
vt 0.580713 0.926741
vt 0.256725 0.502301
vt 0.199035 0.502301
vt 0.199035 0.518232
vt 0.256725 0.517765
vt 0.818415 0.486176
vt 0.817517 0.412904
vt 0.803372 0.412904
vt 0.803372 0.486176
vt 0.484776 0.755882
vt 0.477094 0.750177
vt 0.477094 0.932107
vt 0.484776 0.926741
vt 0.186690 0.517262
vt 0.186690 0.502301
vt 0.721863 0.926741
vt 0.729544 0.932107
vt 0.729544 0.750177
vt 0.721863 0.755882
vt 0.603319 0.697845
vt 0.603319 0.688379
vt 0.589175 0.688379
vt 0.591884 0.697845
vt 0.667169 0.688379
vt 0.663283 0.697845
vt 0.539470 0.688379
vt 0.543356 0.697845
vt 0.871930 0.486176
vt 0.900660 0.513321
vt 0.929597 0.474702
vt 0.867222 0.412904
vt 0.739523 0.412904
vt 0.677147 0.474702
vt 0.706084 0.513321
vt 0.734814 0.486176
vt 0.613781 0.684687
vt 0.671471 0.653407
vt 0.818836 0.684687
vt 0.803372 0.684687
vt 0.550415 0.653407
vt 0.608105 0.684687
vt 0.519779 0.991442
vt 0.524863 0.980991
vt 0.603319 0.980991
vt 0.588358 0.980991
vt 0.686860 0.991442
vt 0.681776 0.980991
vt 0.737586 0.513321
vt 0.746671 0.486176
vt 0.737586 0.646358
vt 0.706084 0.646358
vt 0.748539 0.684687
vt 0.722282 0.684687
vt 0.199035 0.418761
vt 0.199035 0.445811
vt 0.256725 0.447467
vt 0.256725 0.421211
vt 0.186690 0.449248
vt 0.186690 0.423845
vt 0.683479 0.926741
vt 0.656372 0.980991
vt 0.683479 0.755882
vt 0.643867 0.697845
vt 0.656837 0.688379
vt 0.749855 0.412904
vt 0.549802 0.688379
vt 0.562772 0.697845
vt 0.523160 0.755882
vt 0.523160 0.926741
vt 0.550267 0.980991
vt 0.186690 0.555353
vt 0.199035 0.558791
vt 0.097895 0.150565
vt 0.098117 0.181845
vt 0.117428 0.181845
vt 0.116639 0.150565
vt 0.858206 0.684687
vt 0.869159 0.646358
vt 0.869159 0.513321
vt 0.860074 0.486176
vt 0.563801 0.439729
vt 0.561565 0.366457
vt 0.533921 0.366457
vt 0.534551 0.439729
vt 0.614754 0.697845
vt 0.617464 0.688379
vt 0.625925 0.755882
vt 0.625925 0.926741
vt 0.618281 0.980991
vt 0.199035 0.486370
vt 0.186690 0.487339
vt 0.256725 0.486837
vt 0.784820 0.646358
vt 0.787908 0.684687
vt 0.784820 0.513321
vt 0.788330 0.486176
vt 0.789228 0.412904
vt 0.199035 0.585841
vt 0.186690 0.580757
vt 0.256725 0.557134
vt 0.256725 0.583391
vt 0.900660 0.646358
vt 0.884462 0.684687
vt 0.856889 0.412904
vt 0.146033 0.150565
vt 0.145244 0.181845
vt 0.164554 0.181845
vt 0.164777 0.150565
vt 0.605065 0.439729
vt 0.605695 0.366457
vt 0.578051 0.366457
vt 0.575816 0.439729
vt 0.181379 0.143312
vt 0.239068 0.174591
vt 0.235004 0.142120
vt 0.191034 0.110841
vt 0.087615 0.214316
vt 0.128174 0.214316
vt 0.246292 0.162409
vt 0.303982 0.131130
vt 0.294326 0.098659
vt 0.250356 0.129938
vt 0.302381 0.094966
vt 0.302381 0.055596
vt 0.269910 0.066343
vt 0.269910 0.085087
vt 0.311205 0.131130
vt 0.368895 0.162409
vt 0.364831 0.129938
vt 0.320861 0.098659
vt 0.134497 0.214316
vt 0.175056 0.214316
vt 0.376118 0.162409
vt 0.433808 0.131130
vt 0.424152 0.098659
vt 0.380182 0.129938
vt 0.264234 0.094966
vt 0.264234 0.055596
vt 0.231763 0.065475
vt 0.231763 0.084219
vt 0.675429 0.368953
vt 0.617740 0.295681
vt 0.628260 0.335939
vt 0.664580 0.409211
vt 0.566955 0.326199
vt 0.527582 0.326199
vt 0.740343 0.295681
vt 0.682653 0.368953
vt 0.693503 0.409211
vt 0.729822 0.335939
vt 0.793736 0.110352
vt 0.793736 0.152011
vt 0.833994 0.145673
vt 0.833994 0.116423
vt 0.805256 0.368953
vt 0.747566 0.295681
vt 0.758087 0.335939
vt 0.794406 0.409211
vt 0.612034 0.326199
vt 0.572661 0.326199
vt 0.870169 0.295681
vt 0.812479 0.368953
vt 0.823329 0.409211
vt 0.859649 0.335939
vt 0.747802 0.113727
vt 0.747802 0.155386
vt 0.788060 0.149315
vt 0.788060 0.120065
vt 0.183564 0.292423
vt 0.125481 0.313146
vt 0.125481 0.415068
vt 0.183564 0.415068
vt 0.929597 0.307289
vt 0.907495 0.307289
vt 0.907495 0.409211
vt 0.929597 0.409211
vt 0.248477 0.313146
vt 0.190394 0.292423
vt 0.190394 0.415068
vt 0.248477 0.415068
vt 0.301470 0.255194
vt 0.255308 0.255194
vt 0.255308 0.377839
vt 0.301470 0.377839
vt 0.602595 0.210541
vt 0.606787 0.152459
vt 0.584685 0.152459
vt 0.556433 0.210541
vt 0.664488 0.210541
vt 0.636236 0.152459
vt 0.614133 0.152459
vt 0.618326 0.210541
vt 0.053319 0.463197
vt 0.053319 0.585841
vt 0.111401 0.585841
vt 0.111401 0.483920
vt 0.877393 0.307289
vt 0.877393 0.409211
vt 0.899495 0.409211
vt 0.899495 0.307289
vt 0.008096 0.357582
vt 0.008096 0.459504
vt 0.066179 0.459504
vt 0.066179 0.336859
vt 0.073190 0.313919
vt 0.073190 0.436564
vt 0.119352 0.436564
vt 0.119352 0.313919
vt 0.445224 0.219215
vt 0.491386 0.219215
vt 0.463134 0.161133
vt 0.441032 0.161133
vt 0.498732 0.219215
vt 0.544894 0.219215
vt 0.549087 0.161133
vt 0.526984 0.161133
s 0
usemtl Turret_MAT
f 1/1/1 2/2/1 3/3/1
f 1/1/1 3/3/1 4/4/1
f 5/5/2 6/6/2 7/7/2
f 5/5/2 7/7/2 8/8/2
f 9/9/3 10/10/3 11/11/3
f 9/9/3 11/11/3 12/12/3
f 13/13/4 14/14/4 15/15/4
f 13/13/4 15/15/4 16/16/4
s 1
f 17/16/5 18/15/5 19/17/5
f 17/16/5 19/17/5 20/18/5
s 0
f 21/19/6 22/20/6 23/21/6
f 21/19/6 23/21/6 24/22/6
f 25/23/4 14/14/4 13/13/4
f 25/23/4 13/13/4 26/24/4
f 27/22/3 10/10/3 9/9/3
f 27/22/3 9/9/3 28/19/3
f 29/21/2 30/1/2 31/10/2
f 29/21/2 31/10/2 32/22/2
f 33/20/1 2/2/1 1/1/1
f 33/20/1 1/1/1 34/21/1
f 35/10/7 36/1/7 37/6/7
f 35/10/7 37/6/7 38/5/7
f 39/25/8 40/26/8 41/27/8
f 39/25/8 41/27/8 42/28/8
f 43/18/9 44/17/9 45/29/9
f 43/18/9 45/29/9 46/30/9
f 47/31/10 48/32/10 49/33/10
f 47/31/10 49/33/10 50/34/10
s 1
f 51/35/11 52/36/12 53/37/13
f 51/35/11 53/37/13 54/38/14
s 0
f 55/39/2 56/40/2 57/41/2
f 55/39/2 57/41/2 58/42/2
s 1
f 59/43/15 60/44/16 61/45/17
f 59/43/15 61/45/17 62/46/18
s 0
f 63/47/4 64/48/4 65/49/4
f 63/47/4 65/49/4 66/50/4
f 67/51/19 68/52/19 69/53/19
f 67/51/19 69/53/19 70/54/19
f 71/55/20 72/56/20 73/57/20
f 71/55/20 73/57/20 74/58/20
s 1
f 75/59/21 76/60/22 77/61/23
f 75/59/21 77/61/23 78/62/24
f 79/63/25 80/53/25 81/52/25
s 0
f 79/63/25 81/52/25 82/64/25
s 1
f 83/65/26 84/66/27 85/67/28
f 83/65/26 85/67/28 86/68/29
s 0
f 87/69/30 88/70/30 89/71/30
f 87/69/30 89/71/30 90/72/30
s 1
f 86/68/29 85/67/28 91/73/31
f 86/68/29 91/73/31 92/74/31
s 0
f 93/72/4 65/49/4 64/48/4
f 93/72/4 64/48/4 94/69/4
s 1
f 95/75/32 76/60/22 75/59/21
f 95/75/32 75/59/21 96/76/32
f 97/77/33 98/78/16 99/79/34
f 97/77/33 99/79/34 100/80/35
s 0
f 101/58/2 57/41/2 56/40/2
f 101/58/2 56/40/2 102/55/2
s 1
f 103/81/36 104/82/37 105/83/11
f 103/81/36 105/83/11 106/84/38
f 54/38/14 53/37/13 107/85/39
f 54/38/14 107/85/39 108/86/40
s 0
f 109/87/2 55/39/2 58/42/2
f 109/87/2 58/42/2 110/88/2
s 1
f 62/46/18 61/45/17 111/89/41
f 62/46/18 111/89/41 112/90/42
f 78/62/24 77/61/23 113/91/43
f 78/62/24 113/91/43 114/92/43
s 0
f 115/93/4 63/47/4 66/50/4
f 115/93/4 66/50/4 116/94/4
s 1
f 117/95/44 84/66/27 83/65/26
f 117/95/44 83/65/26 118/96/45
s 0
f 119/84/2 120/83/2 121/97/2
f 119/84/2 121/97/2 122/98/2
f 123/99/2 121/97/2 120/83/2
f 123/99/2 120/83/2 124/100/2
f 125/101/2 123/99/2 124/100/2
f 125/101/2 124/100/2 126/102/2
s 1
f 127/103/46 128/104/19 129/105/19
f 127/103/46 129/105/19 130/106/40
s 0
f 131/107/25 132/104/25 133/103/25
f 131/107/25 133/103/25 134/108/25
f 135/65/4 136/109/4 137/110/4
f 135/65/4 137/110/4 138/96/4
f 139/68/4 140/111/4 136/109/4
f 139/68/4 136/109/4 135/65/4
f 141/112/4 140/111/4 139/68/4
f 141/112/4 139/68/4 142/74/4
s 1
f 143/73/30 144/113/30 145/112/30
s 0
f 143/73/30 145/112/30 146/74/30
s 1
f 147/98/20 148/114/20 103/81/36
f 147/98/20 103/81/36 106/84/38
s 0
f 90/72/30 89/71/30 149/115/30
f 90/72/30 149/115/30 150/116/30
f 151/116/4 152/117/4 65/49/4
f 151/116/4 65/49/4 93/72/4
f 66/50/4 65/49/4 152/117/4
f 66/50/4 152/117/4 153/118/4
f 116/94/4 66/50/4 153/118/4
f 116/94/4 153/118/4 154/119/4
f 155/120/25 156/121/25 80/53/25
f 155/120/25 80/53/25 79/63/25
f 157/122/47 158/123/47 159/124/47
f 157/122/47 159/124/47 160/125/47
f 161/126/2 162/127/2 55/39/2
f 161/126/2 55/39/2 109/87/2
f 162/127/2 163/128/2 56/40/2
f 162/127/2 56/40/2 55/39/2
f 102/55/2 56/40/2 163/128/2
f 102/55/2 163/128/2 164/129/2
f 165/130/48 166/131/48 167/132/48
f 165/130/48 167/132/48 168/133/48
f 169/134/30 170/135/30 88/70/30
f 169/134/30 88/70/30 87/69/30
f 94/69/4 64/48/4 171/136/4
f 94/69/4 171/136/4 172/134/4
f 173/137/4 171/136/4 64/48/4
f 173/137/4 64/48/4 63/47/4
f 174/138/4 173/137/4 63/47/4
f 174/138/4 63/47/4 115/93/4
f 82/64/25 81/52/25 175/139/25
s 1
f 82/64/25 175/139/25 176/140/25
s 0
f 177/141/19 178/139/19 68/52/19
f 177/141/19 68/52/19 67/51/19
f 110/88/2 58/42/2 179/142/2
f 110/88/2 179/142/2 180/143/2
f 58/42/2 57/41/2 181/144/2
f 58/42/2 181/144/2 179/142/2
f 182/145/2 181/144/2 57/41/2
f 182/145/2 57/41/2 101/58/2
f 74/58/20 73/57/20 183/146/20
f 74/58/20 183/146/20 184/145/20
f 150/116/30 149/115/30 185/75/30
f 150/116/30 185/75/30 186/76/30
f 187/76/4 188/59/4 152/117/4
f 187/76/4 152/117/4 151/116/4
f 153/118/4 152/117/4 188/59/4
f 153/118/4 188/59/4 189/62/4
f 154/119/4 153/118/4 189/62/4
f 154/119/4 189/62/4 190/92/4
f 191/147/25 156/121/25 155/120/25
f 191/147/25 155/120/25 192/148/25
s 1
f 193/149/19 194/121/19 195/147/42
f 193/149/19 195/147/42 196/150/49
s 0
f 197/151/2 162/127/2 161/126/2
f 197/151/2 161/126/2 198/152/2
f 199/78/2 163/128/2 162/127/2
f 199/78/2 162/127/2 197/151/2
f 164/129/2 163/128/2 199/78/2
f 164/129/2 199/78/2 200/77/2
s 1
f 100/80/35 201/153/20 202/129/20
f 100/80/35 202/129/20 97/77/33
s 0
f 145/112/30 144/113/30 170/135/30
f 145/112/30 170/135/30 169/134/30
f 172/134/4 171/136/4 140/111/4
f 172/134/4 140/111/4 141/112/4
f 136/109/4 140/111/4 171/136/4
f 136/109/4 171/136/4 173/137/4
f 137/110/4 136/109/4 173/137/4
f 137/110/4 173/137/4 174/138/4
f 176/140/25 175/139/25 132/104/25
f 176/140/25 132/104/25 131/107/25
f 203/154/47 204/155/47 205/156/47
f 203/154/47 205/156/47 206/157/47
f 180/143/2 179/142/2 123/99/2
f 180/143/2 123/99/2 125/101/2
f 179/142/2 181/144/2 121/97/2
f 179/142/2 121/97/2 123/99/2
f 122/98/2 121/97/2 181/144/2
f 122/98/2 181/144/2 182/145/2
f 207/158/48 208/159/48 209/160/48
f 207/158/48 209/160/48 210/161/48
s 1
f 211/162/50 212/163/50 213/164/50
f 211/162/50 213/164/50 214/165/50
s 0
f 215/166/51 216/167/51 217/124/51
f 215/166/51 217/124/51 218/123/51
s 1
f 219/168/52 220/169/52 221/170/52
f 219/168/52 221/170/52 222/171/52
s 0
f 223/172/53 224/173/53 225/174/53
f 223/172/53 225/174/53 226/175/53
s 1
f 227/176/54 228/177/54 229/178/55
f 227/176/54 229/178/55 230/179/54
s 0
f 231/180/51 232/181/51 233/156/51
f 231/180/51 233/156/51 234/155/51
s 1
f 235/182/56 236/183/56 237/184/56
f 235/182/56 237/184/56 238/185/56
s 0
f 239/186/53 240/187/53 241/188/53
f 239/186/53 241/188/53 242/189/53
s 1
f 243/190/57 244/191/58 245/192/57
f 243/190/57 245/192/57 246/193/57
s 0
f 247/194/59 248/195/59 249/132/59
f 247/194/59 249/132/59 250/131/59
s 1
f 251/196/60 252/197/60 253/198/60
f 251/196/60 253/198/60 254/199/60
s 0
f 255/200/61 256/201/61 257/202/61
f 255/200/61 257/202/61 258/203/61
s 1
f 259/204/62 260/205/62 261/206/62
f 259/204/62 261/206/62 262/207/62
s 0
f 263/208/59 264/209/59 265/160/59
f 263/208/59 265/160/59 266/159/59
s 1
f 267/210/63 268/211/64 269/212/64
f 267/210/63 269/212/64 270/213/65
s 0
f 271/214/61 272/215/61 273/216/61
f 271/214/61 273/216/61 274/217/61
f 275/218/66 276/219/66 277/220/66
f 275/218/66 277/220/66 278/221/66
f 279/222/2 280/223/2 281/224/2
f 279/222/2 281/224/2 282/225/2
f 283/226/67 284/227/67 285/228/67
f 283/226/67 285/228/67 286/229/67
f 287/230/4 288/231/4 289/232/4
f 287/230/4 289/232/4 290/233/4
f 291/234/68 292/235/68 293/236/68
f 291/234/68 293/236/68 294/237/68
f 295/238/69 296/239/69 297/240/69
f 295/238/69 297/240/69 298/241/69
f 299/242/70 300/243/70 301/244/70
f 299/242/70 301/244/70 302/245/70
f 303/246/2 304/247/2 305/248/2
f 303/246/2 305/248/2 306/249/2
f 307/250/71 308/251/71 309/252/71
f 307/250/71 309/252/71 310/253/71
f 311/254/4 312/255/4 313/256/4
f 311/254/4 313/256/4 314/257/4
f 315/258/68 316/259/68 317/260/68
f 315/258/68 317/260/68 318/261/68
f 319/262/69 320/263/69 321/264/69
f 319/262/69 321/264/69 322/265/69
