# Blender 5.2.2 LTS
# www.blender.org
mtllib F2 Glase.mtl
o Object_8
v 0.328252 1.459092 2.442335
v 0.268729 1.389933 1.928165
v 0.242076 1.357689 1.721501
v 0.302633 1.429764 2.202235
v 0.140870 1.465817 1.928165
v 0.131618 1.423034 1.721501
v 0.155548 1.519306 2.202235
v 0.165779 1.553129 2.395774
v 0.405779 1.266335 2.470170
v 0.410567 1.266283 2.537800
v 0.389111 1.259470 2.286878
v 0.322486 1.310223 1.928165
v 0.375834 1.275789 2.202235
v 0.218058 1.331005 1.558543
v 0.270897 1.324656 1.721501
v 0.121204 1.388804 1.555848
v 0.422226 1.203991 2.568643
v 0.412321 1.221817 2.475156
v -0.000000 1.583908 2.380534
v -0.000000 1.492653 1.928165
v -0.000000 1.449587 1.721501
v -0.000000 1.550345 2.202235
v -0.328252 1.459092 2.442335
v -0.268729 1.389933 1.928165
v -0.242076 1.357689 1.721501
v -0.302633 1.429764 2.202235
v -0.140870 1.465817 1.928165
v -0.131618 1.423034 1.721501
v -0.155548 1.519306 2.202235
v -0.165779 1.553129 2.395774
v -0.405779 1.266335 2.470170
v -0.410567 1.266283 2.537800
v -0.389111 1.259470 2.286878
v -0.322486 1.310223 1.928165
v -0.375834 1.275789 2.202235
v -0.218058 1.331005 1.558543
v -0.000000 1.413352 1.554703
v -0.270897 1.324656 1.721501
v -0.121204 1.388804 1.555848
v -0.422226 1.203991 2.568643
v -0.412321 1.221817 2.475156
v 0.159392 1.429740 4.066185
v 0.211740 1.004567 4.789264
v 0.421297 1.010048 3.946862
v 0.322740 1.336263 4.039339
v 0.106861 1.014634 4.881360
v 0.294794 0.999261 4.584460
v 0.240667 1.094393 4.584400
v 0.287603 1.224914 4.292230
v 0.143288 1.314032 4.292230
v 0.121291 1.165034 4.584400
v 0.354232 1.067150 4.292230
v 0.404661 1.141605 3.983433
v 0.369229 1.003002 4.292230
v -0.000000 1.470693 4.077948
v -0.159392 1.429740 4.066185
v -0.211740 1.004567 4.789264
v -0.421297 1.010048 3.946862
v -0.322740 1.336263 4.039339
v -0.106861 1.014634 4.881360
v -0.000000 1.022184 4.914273
v -0.294794 0.999261 4.584460
v -0.000000 1.200825 4.584400
v -0.000000 1.356657 4.292230
v -0.240667 1.094393 4.584400
v -0.287603 1.224914 4.292230
v -0.143288 1.314032 4.292230
v -0.121291 1.165034 4.584400
v -0.354232 1.067150 4.292230
v -0.404661 1.141605 3.983433
v -0.369229 1.003002 4.292230
v 0.427369 1.180069 3.822721
v 0.454889 1.066522 3.231619
v 0.454861 1.042712 3.408410
v 0.441793 1.144000 2.753041
v 0.171535 1.579007 2.528588
v 0.452251 1.092592 3.059624
v 0.368380 1.479704 3.584925
v 0.357017 1.503096 2.877806
v 0.368961 1.511555 3.231353
v 0.342828 1.397527 3.890008
v 0.359566 1.445586 3.744052
v 0.370202 1.498579 3.408138
v 0.178819 1.631739 2.877729
v 0.181978 1.648893 3.231271
v 0.169098 1.497105 3.920822
v 0.176639 1.566369 3.753738
v 0.181346 1.636073 3.408056
v 0.180713 1.609047 3.584848
v 0.443271 1.223762 3.585078
v 0.433971 1.265175 2.877948
v 0.447533 1.254423 3.231507
v 0.436733 1.200717 3.723572
v 0.447418 1.241566 3.408291
v 0.439529 1.002182 3.767435
v 0.449569 1.019512 3.585200
v 0.447273 1.122282 2.879533
v 0.443600 1.007296 3.704851
v 0.338943 1.473978 2.582780
v 0.421051 1.265923 2.690131
v 0.442409 1.259653 3.059525
v 0.180363 1.645378 3.059295
v 0.364491 1.512015 3.059374
v -0.000000 1.542800 3.934962
v -0.427369 1.180069 3.822721
v -0.454889 1.066522 3.231619
v -0.454861 1.042712 3.408410
v -0.441793 1.144000 2.753041
v -0.171535 1.579007 2.528588
v -0.452251 1.092592 3.059624
v -0.000000 1.651186 3.584823
v -0.000000 1.671095 2.877705
v -0.000000 1.689685 3.231247
v -0.000000 1.608938 3.763083
v -0.000000 1.677023 3.408031
v -0.368380 1.479704 3.584925
v -0.357017 1.503096 2.877806
v -0.368961 1.511555 3.231353
v -0.342828 1.397527 3.890008
v -0.359566 1.445586 3.744052
v -0.370202 1.498579 3.408138
v -0.178819 1.631739 2.877729
v -0.181978 1.648893 3.231271
v -0.169098 1.497105 3.920822
v -0.176639 1.566369 3.753738
v -0.181346 1.636073 3.408056
v -0.180713 1.609047 3.584848
v -0.443271 1.223762 3.585078
v -0.433971 1.265175 2.877948
v -0.447533 1.254423 3.231507
v -0.436733 1.200717 3.723572
v -0.447418 1.241566 3.408291
v -0.439529 1.002182 3.767435
v -0.449569 1.019512 3.585200
v -0.447273 1.122282 2.879533
v -0.443600 1.007296 3.704851
v -0.338943 1.473978 2.582780
v -0.000000 1.608551 2.513344
v -0.421051 1.265923 2.690131
v -0.442409 1.259653 3.059525
v -0.000000 1.685217 3.059271
v -0.180363 1.645378 3.059295
v -0.364491 1.512015 3.059374
vn 0.7944 0.5919 -0.1366
vn 0.9721 0.2232 -0.0717
vn 0.9619 0.2591 -0.0871
vn 0.7701 0.6083 -0.1920
vn 0.5365 0.8173 -0.2101
vn 0.6439 0.7381 -0.2014
vn 0.9868 0.1398 -0.0823
vn 0.9236 0.3662 -0.1133
vn -0.7944 0.5919 -0.1366
vn -0.9619 0.2591 -0.0871
vn -0.9721 0.2232 -0.0717
vn -0.7701 0.6083 -0.1920
vn -0.6439 0.7381 -0.2014
vn -0.5365 0.8173 -0.2101
vn -0.9868 0.1398 -0.0823
vn -0.9236 0.3662 -0.1133
vn 0.6775 0.6312 0.3775
vn 0.5292 0.7446 0.4069
vn 0.8526 0.4245 0.3048
vn 0.9632 0.1731 0.2059
vn 0.9306 0.2757 0.2407
vn -0.6775 0.6312 0.3775
vn -0.8526 0.4245 0.3048
vn -0.5292 0.7446 0.4069
vn -0.9306 0.2757 0.2407
vn -0.9632 0.1731 0.2059
vn 0.3576 0.9152 -0.1859
vn 0.3500 0.9152 -0.1999
vn -0.0000 0.9786 -0.2055
vn -0.0000 0.9811 -0.1934
vn 0.3517 0.9129 -0.2072
vn -0.0000 0.9776 -0.2103
vn 0.3528 0.9114 -0.2116
vn -0.0000 0.9770 -0.2131
vn 0.6872 0.7037 -0.1805
vn 0.7339 0.6604 -0.1589
vn 0.9869 0.1433 -0.0741
vn 0.3791 0.9088 -0.1745
vn -0.0000 0.9830 -0.1835
vn 0.8387 0.5214 -0.1575
vn 0.8972 0.4229 -0.1271
vn -0.3576 0.9152 -0.1859
vn -0.3500 0.9152 -0.1999
vn -0.3520 0.9128 -0.2072
vn -0.3528 0.9115 -0.2116
vn -0.6872 0.7037 -0.1805
vn -0.7339 0.6604 -0.1589
vn -0.9869 0.1433 -0.0741
vn -0.3791 0.9087 -0.1745
vn -0.8387 0.5214 -0.1575
vn -0.8972 0.4229 -0.1271
vn 0.3533 0.8246 0.4419
vn 0.3701 0.8178 0.4407
vn -0.0000 0.8827 0.4699
vn -0.0000 0.8828 0.4697
vn 0.3739 0.8170 0.4390
vn -0.0000 0.8826 0.4702
vn 0.3073 0.8407 0.4458
vn 0.9502 0.2306 0.2095
vn 0.7311 0.5848 0.3514
vn 0.7168 0.5964 0.3612
vn -0.0000 0.8832 0.4690
vn 0.9775 0.1264 0.1689
vn -0.3533 0.8246 0.4419
vn -0.3701 0.8178 0.4408
vn -0.3739 0.8170 0.4390
vn -0.3073 0.8407 0.4458
vn -0.7169 0.5964 0.3612
vn -0.7311 0.5848 0.3514
vn -0.9502 0.2306 0.2095
vn -0.9775 0.1264 0.1689
vn 0.4112 0.9113 0.0221
vn 0.4088 0.9114 -0.0462
vn -0.0000 0.9987 -0.0506
vn -0.0000 0.9997 0.0239
vn 0.3990 0.9106 -0.1080
vn 0.3733 0.9161 -0.1465
vn -0.0000 0.9869 -0.1615
vn -0.0000 0.9929 -0.1188
vn 0.4077 0.9079 0.0974
vn -0.0000 0.9939 0.1099
vn 0.3938 0.8729 0.2881
vn 0.4009 0.8989 0.1767
vn -0.0000 0.9812 0.1931
vn -0.0000 0.9515 0.3078
vn 0.3921 0.8495 0.3529
vn -0.0000 0.9266 0.3760
vn 0.9849 0.1623 0.0596
vn 0.9862 0.1639 0.0250
vn 0.8121 0.5803 0.0612
vn 0.8013 0.5851 0.1250
vn 0.9747 0.1744 0.1398
vn 0.9805 0.1637 0.1086
vn 0.7841 0.5801 0.2205
vn 0.7667 0.5795 0.2764
vn 0.9854 0.1703 -0.0042
vn 0.8123 0.5832 0.0100
vn 0.9776 0.2042 -0.0512
vn 0.9660 0.2489 -0.0694
vn 0.7529 0.6484 -0.1127
vn 0.8018 0.5919 -0.0826
vn 0.9831 0.1805 -0.0287
vn 0.8100 0.5851 -0.0390
vn 0.9956 0.0335 0.0880
vn 0.9970 0.0320 0.0702
vn 0.9992 0.0360 0.0186
vn 0.9991 0.0429 -0.0058
vn 0.9950 0.0925 -0.0386
vn 0.9921 0.1154 -0.0498
vn 0.9979 0.0600 -0.0233
vn 0.9986 0.0322 0.0424
vn -0.4112 0.9113 0.0221
vn -0.4089 0.9114 -0.0463
vn -0.3990 0.9106 -0.1080
vn -0.3733 0.9161 -0.1465
vn -0.4077 0.9079 0.0974
vn -0.3938 0.8729 0.2881
vn -0.4009 0.8989 0.1767
vn -0.3921 0.8495 0.3529
vn -0.9849 0.1623 0.0596
vn -0.8013 0.5851 0.1250
vn -0.8121 0.5803 0.0612
vn -0.9862 0.1639 0.0250
vn -0.9747 0.1744 0.1399
vn -0.7667 0.5795 0.2764
vn -0.7841 0.5801 0.2205
vn -0.9805 0.1637 0.1086
vn -0.8123 0.5832 0.0099
vn -0.9854 0.1703 -0.0042
vn -0.9776 0.2042 -0.0512
vn -0.8018 0.5919 -0.0826
vn -0.7529 0.6484 -0.1127
vn -0.9660 0.2489 -0.0694
vn -0.8100 0.5851 -0.0390
vn -0.9831 0.1805 -0.0287
vn -0.9956 0.0335 0.0880
vn -0.9970 0.0320 0.0702
vn -0.9992 0.0360 0.0186
vn -0.9991 0.0429 -0.0058
vn -0.9950 0.0925 -0.0386
vn -0.9921 0.1154 -0.0498
vn -0.9979 0.0600 -0.0233
vn -0.9986 0.0322 0.0424
vt 0.794659 0.258001
vt 0.788643 0.270151
vt 0.792905 0.270147
vt 0.840080 0.266472
vt 0.850348 0.266072
vt 0.840080 0.264391
vt 0.792590 0.272953
vt 0.804454 0.270580
vt 0.659682 0.280982
vt 0.646773 0.286642
vt 0.659678 0.286976
vt 0.678092 0.286741
vt 0.678092 0.282698
vt 0.809788 0.254207
vt 0.827058 0.257578
vt 0.827058 0.255887
vt 0.809788 0.252251
vt 0.840080 0.260274
vt 0.840080 0.258600
vt 0.850518 0.262430
vt 0.850590 0.260884
vt 0.827058 0.262359
vt 0.809788 0.259849
vt 0.786700 0.274076
vt 0.797592 0.252076
vt 0.798553 0.250136
vt 0.827058 0.267382
vt 0.809788 0.269552
vt 0.659682 0.276531
vt 0.678092 0.267142
vt 0.678092 0.264456
vt 0.659682 0.274275
vt 0.692336 0.259851
vt 0.691595 0.257270
vt 0.640970 0.286008
vt 0.697551 0.278007
vt 0.694028 0.265741
vt 0.678092 0.272758
vt 0.638896 0.285532
vt 0.699855 0.286297
vt 0.744927 0.246083
vt 0.755764 0.246298
vt 0.755764 0.243788
vt 0.744927 0.243513
vt 0.767205 0.247151
vt 0.789207 0.250460
vt 0.790167 0.248598
vt 0.767205 0.244671
vt 0.733788 0.246898
vt 0.733788 0.244317
vt 0.712008 0.251303
vt 0.722649 0.248607
vt 0.722649 0.245952
vt 0.711418 0.248621
vt 0.701483 0.255674
vt 0.700590 0.252795
vt 0.722649 0.272885
vt 0.733788 0.271756
vt 0.733788 0.255561
vt 0.722649 0.256757
vt 0.707676 0.275647
vt 0.713923 0.274342
vt 0.712623 0.258913
vt 0.703428 0.261947
vt 0.744927 0.270940
vt 0.744927 0.254737
vt 0.767205 0.270249
vt 0.779040 0.270195
vt 0.785796 0.257081
vt 0.767205 0.255257
vt 0.755764 0.270603
vt 0.755764 0.254702
vt 0.711166 0.286854
vt 0.715110 0.286529
vt 0.733788 0.284287
vt 0.744927 0.282780
vt 0.767111 0.279253
vt 0.775080 0.277880
vt 0.755764 0.281130
vt 0.722649 0.285755
s 1
usemtl GLASS
f 1/1/1 10/2/2 9/3/3
f 15/4/4 14/5/5 3/6/6
f 18/7/7 11/8/8 9/3/3
f 23/1/9 31/3/10 32/2/11
f 38/4/12 25/6/13 36/5/14
f 41/7/15 31/3/10 33/8/16
f 48/9/17 43/10/18 47/11/19
f 47/11/19 54/12/20 52/13/21
f 65/9/22 62/11/23 57/10/24
f 62/11/23 69/13/25 71/12/26
f 7/14/27 5/15/28 20/16/29
f 7/14/27 20/16/29 22/17/30
f 5/15/28 6/18/31 21/19/32
f 5/15/28 21/19/32 20/16/29
f 6/18/31 16/20/33 37/21/34
f 6/18/31 37/21/34 21/19/32
f 3/6/6 14/5/5 16/20/33
f 3/6/6 16/20/33 6/18/31
f 2/22/35 3/6/6 6/18/31
f 2/22/35 6/18/31 5/15/28
f 4/23/36 2/22/35 5/15/28
f 4/23/36 5/15/28 7/14/27
f 10/2/2 17/24/37 18/7/7
f 10/2/2 18/7/7 9/3/3
f 8/25/38 1/1/1 4/23/36
f 8/25/38 4/23/36 7/14/27
f 19/26/39 8/25/38 7/14/27
f 19/26/39 7/14/27 22/17/30
f 12/27/40 15/4/4 3/6/6
f 12/27/40 3/6/6 2/22/35
f 13/28/41 12/27/40 2/22/35
f 13/28/41 2/22/35 4/23/36
f 29/14/42 22/17/30 20/16/29
f 29/14/42 20/16/29 27/15/43
f 27/15/43 20/16/29 21/19/32
f 27/15/43 21/19/32 28/18/44
f 28/18/44 21/19/32 37/21/34
f 28/18/44 37/21/34 39/20/45
f 25/6/13 28/18/44 39/20/45
f 25/6/13 39/20/45 36/5/14
f 24/22/46 27/15/43 28/18/44
f 24/22/46 28/18/44 25/6/13
f 26/23/47 29/14/42 27/15/43
f 26/23/47 27/15/43 24/22/46
f 32/2/11 31/3/10 41/7/15
f 32/2/11 41/7/15 40/24/48
f 30/25/49 29/14/42 26/23/47
f 30/25/49 26/23/47 23/1/9
f 19/26/39 22/17/30 29/14/42
f 19/26/39 29/14/42 30/25/49
f 34/27/50 24/22/46 25/6/13
f 34/27/50 25/6/13 38/4/12
f 35/28/51 26/23/47 24/22/46
f 35/28/51 24/22/46 34/27/50
f 51/29/52 50/30/53 64/31/54
f 51/29/52 64/31/54 63/32/55
f 50/30/53 42/33/56 55/34/57
f 50/30/53 55/34/57 64/31/54
f 46/35/58 43/10/18 48/9/17
f 46/35/58 48/9/17 51/29/52
f 52/13/21 53/36/59 45/37/60
f 52/13/21 45/37/60 49/38/61
f 49/38/61 45/37/60 42/33/56
f 49/38/61 42/33/56 50/30/53
f 48/9/17 49/38/61 50/30/53
f 48/9/17 50/30/53 51/29/52
f 61/39/62 46/35/58 51/29/52
f 61/39/62 51/29/52 63/32/55
f 54/12/20 44/40/63 53/36/59
f 54/12/20 53/36/59 52/13/21
f 47/11/19 52/13/21 49/38/61
f 47/11/19 49/38/61 48/9/17
f 68/29/64 63/32/55 64/31/54
f 68/29/64 64/31/54 67/30/65
f 67/30/65 64/31/54 55/34/57
f 67/30/65 55/34/57 56/33/66
f 60/35/67 68/29/64 65/9/22
f 60/35/67 65/9/22 57/10/24
f 69/13/25 66/38/68 59/37/69
f 69/13/25 59/37/69 70/36/70
f 66/38/68 67/30/65 56/33/66
f 66/38/68 56/33/66 59/37/69
f 65/9/22 68/29/64 67/30/65
f 65/9/22 67/30/65 66/38/68
f 61/39/62 63/32/55 68/29/64
f 61/39/62 68/29/64 60/35/67
f 71/12/26 69/13/25 70/36/70
f 71/12/26 70/36/70 58/40/71
f 62/11/23 65/9/22 66/38/68
f 62/11/23 66/38/68 69/13/25
f 85/41/72 102/42/73 141/43/74
f 85/41/72 141/43/74 113/44/75
f 84/45/76 76/46/77 138/47/78
f 84/45/76 138/47/78 112/48/79
f 88/49/80 85/41/72 113/44/75
f 88/49/80 113/44/75 115/50/81
f 87/51/82 89/52/83 111/53/84
f 87/51/82 111/53/84 114/54/85
f 86/55/86 87/51/82 114/54/85
f 86/55/86 114/54/85 104/56/87
f 89/52/83 88/49/80 115/50/81
f 89/52/83 115/50/81 111/53/84
f 90/57/88 94/58/89 83/59/90
f 90/57/88 83/59/90 78/60/91
f 72/61/92 93/62/93 82/63/94
f 72/61/92 82/63/94 81/64/95
f 93/62/93 90/57/88 78/60/91
f 93/62/93 78/60/91 82/63/94
f 94/58/89 92/65/96 80/66/97
f 94/58/89 80/66/97 83/59/90
f 91/67/98 100/68/99 99/69/100
f 91/67/98 99/69/100 79/70/101
f 92/65/96 101/71/102 103/72/103
f 92/65/96 103/72/103 80/66/97
f 78/60/91 83/59/90 88/49/80
f 78/60/91 88/49/80 89/52/83
f 81/64/95 82/63/94 87/51/82
f 81/64/95 87/51/82 86/55/86
f 82/63/94 78/60/91 89/52/83
f 82/63/94 89/52/83 87/51/82
f 83/59/90 80/66/97 85/41/72
f 83/59/90 85/41/72 88/49/80
f 79/70/101 99/69/100 76/46/77
f 79/70/101 76/46/77 84/45/76
f 80/66/97 103/72/103 102/42/73
f 80/66/97 102/42/73 85/41/72
f 95/73/104 98/74/105 93/62/93
f 95/73/104 93/62/93 72/61/92
f 74/75/106 73/76/107 92/65/96
f 74/75/106 92/65/96 94/58/89
f 97/77/108 75/78/109 100/68/99
f 97/77/108 100/68/99 91/67/98
f 73/76/107 77/79/110 101/71/102
f 73/76/107 101/71/102 92/65/96
f 98/74/105 96/80/111 90/57/88
f 98/74/105 90/57/88 93/62/93
f 96/80/111 74/75/106 94/58/89
f 96/80/111 94/58/89 90/57/88
f 103/72/103 101/71/102 91/67/98
f 103/72/103 91/67/98 79/70/101
f 141/43/74 102/42/73 84/45/76
f 141/43/74 84/45/76 112/48/79
f 101/71/102 77/79/110 97/77/108
f 101/71/102 97/77/108 91/67/98
f 102/42/73 103/72/103 79/70/101
f 102/42/73 79/70/101 84/45/76
f 123/41/112 113/44/75 141/43/74
f 123/41/112 141/43/74 142/42/113
f 122/45/114 112/48/79 138/47/78
f 122/45/114 138/47/78 109/46/115
f 126/49/116 115/50/81 113/44/75
f 126/49/116 113/44/75 123/41/112
f 125/51/117 114/54/85 111/53/84
f 125/51/117 111/53/84 127/52/118
f 124/55/119 104/56/87 114/54/85
f 124/55/119 114/54/85 125/51/117
f 127/52/118 111/53/84 115/50/81
f 127/52/118 115/50/81 126/49/116
f 128/57/120 116/60/121 121/59/122
f 128/57/120 121/59/122 132/58/123
f 105/61/124 119/64/125 120/63/126
f 105/61/124 120/63/126 131/62/127
f 131/62/127 120/63/126 116/60/121
f 131/62/127 116/60/121 128/57/120
f 132/58/123 121/59/122 118/66/128
f 132/58/123 118/66/128 130/65/129
f 129/67/130 117/70/131 137/69/132
f 129/67/130 137/69/132 139/68/133
f 130/65/129 118/66/128 143/72/134
f 130/65/129 143/72/134 140/71/135
f 116/60/121 127/52/118 126/49/116
f 116/60/121 126/49/116 121/59/122
f 119/64/125 124/55/119 125/51/117
f 119/64/125 125/51/117 120/63/126
f 120/63/126 125/51/117 127/52/118
f 120/63/126 127/52/118 116/60/121
f 121/59/122 126/49/116 123/41/112
f 121/59/122 123/41/112 118/66/128
f 117/70/131 122/45/114 109/46/115
f 117/70/131 109/46/115 137/69/132
f 118/66/128 123/41/112 142/42/113
f 118/66/128 142/42/113 143/72/134
f 133/73/136 105/61/124 131/62/127
f 133/73/136 131/62/127 136/74/137
f 107/75/138 132/58/123 130/65/129
f 107/75/138 130/65/129 106/76/139
f 135/77/140 129/67/130 139/68/133
f 135/77/140 139/68/133 108/78/141
f 106/76/139 130/65/129 140/71/135
f 106/76/139 140/71/135 110/79/142
f 136/74/137 131/62/127 128/57/120
f 136/74/137 128/57/120 134/80/143
f 134/80/143 128/57/120 132/58/123
f 134/80/143 132/58/123 107/75/138
f 143/72/134 117/70/131 129/67/130
f 143/72/134 129/67/130 140/71/135
f 141/43/74 112/48/79 122/45/114
f 141/43/74 122/45/114 142/42/113
f 140/71/135 129/67/130 135/77/140
f 140/71/135 135/77/140 110/79/142
f 142/42/113 122/45/114 117/70/131
f 142/42/113 117/70/131 143/72/134
f 1/1/1 13/28/41 4/23/36
f 13/28/41 1/1/1 11/8/8
f 11/8/8 1/1/1 9/3/3
f 35/28/51 23/1/9 26/23/47
f 23/1/9 35/28/51 33/8/16
f 23/1/9 33/8/16 31/3/10
