# Blender 5.2.2 LTS
# www.blender.org
mtllib Mcqueen2.mtl
o Mcqueen1
v 0.514713 1.354656 0.172420
v 0.516949 1.345546 0.180958
v 0.632466 1.325255 0.122554
v 0.632466 1.325255 0.122554
v 0.516949 1.345546 0.180958
v 0.636082 1.316431 0.130282
v 0.516949 1.345546 0.180958
v 0.514713 1.354656 0.172420
v 0.357567 1.360348 0.212507
v 0.357567 1.360348 0.212507
v 0.514713 1.354656 0.172420
v 0.356284 1.369618 0.203519
v 0.357567 1.360348 0.212507
v 0.356284 1.369618 0.203519
v 0.183636 1.367354 0.231827
v 0.183636 1.367354 0.231827
v 0.356284 1.369618 0.203519
v 0.183046 1.376681 0.222499
v 0.000000 1.378896 0.229836
v 0.183636 1.367354 0.231827
v 0.183046 1.376681 0.222499
v 0.000000 1.369549 0.239272
v 0.183636 1.367354 0.231827
v 0.000000 1.378896 0.229836
v -0.183046 1.376681 0.222499
v 0.000000 1.369549 0.239272
v 0.000000 1.378896 0.229836
v -0.183636 1.367354 0.231827
v 0.000000 1.369549 0.239272
v -0.183046 1.376681 0.222499
v -0.356284 1.369618 0.203519
v -0.183636 1.367354 0.231827
v -0.183046 1.376681 0.222499
v -0.357567 1.360348 0.212507
v -0.183636 1.367354 0.231827
v -0.356284 1.369618 0.203519
v -0.514713 1.354656 0.172420
v -0.357567 1.360348 0.212507
v -0.356284 1.369618 0.203519
v -0.516949 1.345546 0.180958
v -0.357567 1.360348 0.212507
v -0.514713 1.354656 0.172420
v -0.514713 1.354656 0.172420
v -0.632466 1.325255 0.122554
v -0.516949 1.345546 0.180958
v -0.516949 1.345546 0.180958
v -0.632466 1.325255 0.122554
v -0.636082 1.316431 0.130282
v 0.000000 0.966307 0.645315
v 0.212129 0.964848 0.630661
v 0.000000 1.167928 0.442293
v 0.000000 1.167928 0.442293
v -0.212129 0.964848 0.630661
v 0.000000 0.966307 0.645315
v 0.000000 1.167928 0.442293
v 0.212129 0.964848 0.630661
v 0.197883 1.166101 0.431244
v -0.197883 1.166101 0.431244
v -0.212129 0.964848 0.630661
v 0.000000 1.167928 0.442293
v 0.417735 0.959772 0.596309
v 0.197883 1.166101 0.431244
v 0.212129 0.964848 0.630661
v -0.197883 1.166101 0.431244
v -0.417735 0.959771 0.596309
v -0.212129 0.964848 0.630661
v 0.000000 1.167928 0.442293
v 0.197883 1.166101 0.431244
v 0.000000 1.369549 0.239272
v 0.000000 1.369549 0.239272
v -0.197883 1.166101 0.431244
v 0.000000 1.167928 0.442293
v 0.387651 1.160060 0.404408
v 0.197883 1.166101 0.431244
v 0.417735 0.959772 0.596309
v -0.387651 1.160060 0.404408
v -0.417735 0.959771 0.596309
v -0.197883 1.166101 0.431244
v 0.000000 1.369549 0.239272
v 0.197883 1.166101 0.431244
v 0.183636 1.367354 0.231827
v 0.387651 1.160060 0.404408
v 0.417735 0.959772 0.596309
v 0.566874 1.147958 0.362911
v -0.566874 1.147958 0.362911
v -0.417735 0.959771 0.596309
v -0.387651 1.160060 0.404408
v -0.183636 1.367354 0.231827
v -0.197883 1.166101 0.431244
v 0.000000 1.369549 0.239272
v 0.516949 1.345546 0.180958
v 0.387651 1.160060 0.404408
v 0.566874 1.147958 0.362911
v -0.616798 0.950371 0.544863
v -0.417735 0.959771 0.596309
v -0.566874 1.147958 0.362911
v -0.357567 1.360348 0.212507
v -0.197883 1.166101 0.431244
v -0.183636 1.367354 0.231827
v -0.387651 1.160060 0.404408
v -0.197883 1.166101 0.431244
v -0.357567 1.360348 0.212507
v 0.357567 1.360348 0.212507
v 0.387651 1.160060 0.404408
v 0.516949 1.345546 0.180958
v 0.183636 1.367354 0.231827
v 0.197883 1.166101 0.431244
v 0.357567 1.360348 0.212507
v -0.708187 1.125439 0.300588
v -0.616798 0.950371 0.544863
v -0.566874 1.147958 0.362911
v -0.516949 1.345546 0.180958
v -0.387651 1.160060 0.404408
v -0.357567 1.360348 0.212507
v 0.357567 1.360348 0.212507
v -0.780292 0.934447 0.470893
v -0.616798 0.950371 0.544863
v -0.708187 1.125439 0.300588
v -0.566874 1.147958 0.362911
v -0.387651 1.160060 0.404408
v -0.516949 1.345546 0.180958
v 0.566874 1.147958 0.362911
v 0.636082 1.316431 0.130282
v 0.516949 1.345546 0.180958
v -0.708187 1.125439 0.300588
v -0.566874 1.147958 0.362911
v -0.636082 1.316431 0.130282
v -0.636082 1.316431 0.130282
v -0.566874 1.147958 0.362911
v -0.516949 1.345546 0.180958
v 0.708187 1.125439 0.300588
v 0.636082 1.316431 0.130282
v 0.566874 1.147958 0.362911
v 0.616798 0.950371 0.544863
v 0.708187 1.125439 0.300588
v 0.566874 1.147958 0.362911
v 0.566874 1.147958 0.362911
v 0.417735 0.959772 0.596309
v 0.616798 0.950371 0.544863
v 0.780292 0.934447 0.470893
v 0.708187 1.125439 0.300588
v 0.616798 0.950371 0.544863
vn 0.4246 0.6724 0.6063
vn 0.4197 0.6892 0.5906
vn 0.2011 0.6957 0.6896
vn 0.2010 0.6961 0.6892
vn 0.1067 0.6997 0.7064
vn 0.1055 0.7065 0.6998
vn 0.0368 0.7078 0.7054
vn 0.0370 0.7100 0.7033
vn -0.0368 0.7100 0.7033
vn -0.0371 0.7078 0.7054
vn -0.1055 0.7065 0.6998
vn -0.1067 0.6997 0.7064
vn -0.2010 0.6961 0.6892
vn -0.2011 0.6957 0.6896
vn -0.4246 0.6724 0.6063
vn -0.4197 0.6892 0.5906
vn 0.0535 0.7085 0.7036
vn -0.0535 0.7085 0.7036
vn 0.0460 0.7048 0.7080
vn -0.0460 0.7048 0.7080
vn 0.1341 0.7023 0.6992
vn -0.1342 0.7023 0.6992
vn 0.0458 0.7088 0.7039
vn -0.0458 0.7088 0.7039
vn 0.1222 0.6962 0.7074
vn -0.1222 0.6961 0.7074
vn 0.0371 0.7047 0.7085
vn 0.2067 0.6929 0.6908
vn -0.2067 0.6929 0.6908
vn -0.0371 0.7047 0.7085
vn 0.2071 0.6905 0.6930
vn -0.2114 0.6905 0.6918
vn -0.1064 0.7037 0.7025
vn -0.1222 0.6962 0.7074
vn 0.2014 0.6933 0.6920
vn 0.1064 0.7037 0.7025
vn -0.3849 0.6760 0.6284
vn -0.2014 0.6933 0.6920
vn -0.3520 0.6935 0.6287
vn -0.2071 0.6905 0.6930
vn 0.4233 0.6693 0.6106
vn -0.3809 0.6913 0.6140
vn -0.4233 0.6693 0.6106
vn 0.3809 0.6913 0.6140
vn 0.3849 0.6760 0.6284
vn 0.2114 0.6905 0.6918
vn 0.3520 0.6935 0.6287
vt 0.898926 0.000147
vt 0.898438 0.022822
vt 0.999512 0.000147
vt 0.999512 0.022699
vt 0.773926 0.022867
vt 0.774414 0.000147
vt 0.640137 0.022883
vt 0.640625 0.000147
vt 0.499756 0.000147
vt 0.499756 0.022822
vt 0.359131 0.000147
vt 0.359619 0.022883
vt 0.225220 0.000147
vt 0.225830 0.022867
vt 0.100769 0.000147
vt 0.101318 0.022822
vt 0.000000 0.000147
vt 0.000000 0.022699
vt 0.500000 1.000147
vt 0.631348 1.000147
vt 0.500000 0.511377
vt 0.368164 1.000147
vt 0.635254 0.511377
vt 0.364258 0.511377
vt 0.760742 1.000147
vt 0.239014 1.000147
vt 0.766602 0.511377
vt 0.233032 0.511377
vt 0.893066 0.511377
vt 0.106812 0.511377
vt 0.111572 1.000147
vt 0.000000 0.511377
vt 0.000000 1.000147
vt 1.000000 0.511377
vt 0.888184 0.999659
vt 1.000000 0.999659
s 1
usemtl mat0
f 1/1/1 2/2/1 3/3/1
f 4/3/2 5/2/2 6/4/2
f 7/2/3 8/1/3 9/5/3
f 10/5/4 11/1/4 12/6/4
f 13/5/5 14/6/5 15/7/5
f 16/7/6 17/6/6 18/8/6
f 19/9/7 20/7/7 21/8/7
f 22/10/8 23/7/8 24/9/8
f 25/11/9 26/10/9 27/9/9
f 28/12/10 29/10/10 30/11/10
f 31/13/11 32/12/11 33/11/11
f 34/14/12 35/12/12 36/13/12
f 37/15/13 38/14/13 39/13/13
f 40/16/14 41/14/14 42/15/14
f 43/15/15 44/17/15 45/16/15
f 46/16/16 47/17/16 48/18/16
f 49/19/17 50/20/17 51/21/17
f 52/21/18 53/22/18 54/19/18
f 55/21/19 56/20/19 57/23/19
f 58/24/20 59/22/20 60/21/20
f 61/25/21 62/23/21 63/20/21
f 64/24/22 65/26/22 66/22/22
f 67/21/23 68/23/23 69/10/23
f 70/10/24 71/24/24 72/21/24
f 73/27/25 74/23/25 75/25/25
f 76/28/26 77/26/26 78/24/26
f 79/10/27 80/23/27 81/7/27
f 82/27/28 83/25/28 84/29/28
f 85/30/29 86/26/29 87/28/29
f 88/12/30 89/24/30 90/10/30
f 91/2/31 92/27/31 93/29/31
f 94/31/32 95/26/32 96/30/32
f 97/14/33 98/24/33 99/12/33
f 100/28/34 101/24/34 102/14/34
f 103/5/35 104/27/35 105/2/35
f 106/7/36 107/23/36 108/5/36
f 109/32/37 110/31/37 111/30/37
f 112/16/38 113/28/38 114/14/38
f 115/5/25 74/23/25 73/27/25
f 116/33/39 117/31/39 118/32/39
f 119/30/40 120/28/40 121/16/40
f 122/29/41 123/4/41 124/2/41
f 125/32/42 126/30/42 127/18/42
f 128/18/43 129/30/43 130/16/43
f 131/34/44 132/4/44 133/29/44
f 134/35/45 135/34/45 136/29/45
f 137/29/46 138/25/46 139/35/46
f 140/36/47 141/34/47 142/35/47
