# Blender 5.2.1 LTS
# www.blender.org
mtllib Plane8.mtl
o Wheel3
v 4.745176 -6.544732 -12.950345
v 3.928133 -3.834122 -13.029231
v 4.085262 -6.468318 -12.605914
v 4.581577 -3.802223 -13.391023
v 4.894384 -9.006045 -11.669475
v 8.455696 -6.334752 -12.981303
v 8.604891 -8.796042 -11.700374
v 8.725067 -10.735224 -9.704602
v 9.247265 -8.548409 -11.417464
v 9.362734 -10.410997 -9.500472
v 9.439007 -11.589757 -7.084533
v 9.886658 -9.351248 -8.756139
v 9.951735 -10.356771 -6.695285
v 9.819050 -8.170877 -7.894816
v 9.977009 -10.680519 -4.410495
v 9.871250 -8.977214 -6.242164
v 9.290548 -7.625967 -5.784894
v 9.891552 -9.236840 -4.409965
v 9.305815 -7.821465 -4.405274
v 9.251244 -7.018788 -7.029391
v 9.740074 -6.896755 -9.206161
v 9.191784 -6.059382 -8.016797
v 9.642069 -5.279552 -10.047790
v 9.117960 -4.841647 -8.650544
v 9.534554 -3.477581 -10.337319
v 9.037020 -3.484741 -8.868529
v 9.428133 -1.667235 -10.046437
v 8.956877 -2.121555 -8.649503
v 9.333172 -0.025753 -9.203614
v 8.885380 -0.885524 -8.014844
v 9.258972 1.286265 -7.891316
v 8.829498 0.102399 -7.026711
v 9.212828 2.140301 -6.238063
v 8.794733 0.745494 -5.781816
v 8.784512 0.980814 -4.401998
v 9.199238 2.452790 -4.405641
v 9.113731 3.896496 -4.405103
v 9.130692 3.506781 -6.690167
v 9.219517 2.193174 -2.573421
v 8.799786 0.785311 -3.022332
v 9.139036 3.572727 -2.120332
v 9.271687 1.386843 -0.920774
v 9.204086 2.567231 -0.059486
v 9.350649 0.112717 0.390537
v 8.839060 0.178140 -1.777917
v 8.898546 -0.781277 -0.790500
v 9.448704 -1.504496 1.232150
v 8.972349 -1.999042 -0.156779
v 9.556179 -3.306462 1.521698
v 9.053301 -3.355900 0.061256
v 9.662624 -5.116795 1.230783
v 9.133446 -4.719070 -0.157772
v 9.204950 -5.955126 -0.792457
v 9.757601 -6.758280 0.387992
v 9.831774 -8.070273 -0.924285
v 9.809996 -7.589773 1.572559
v 9.691576 -5.542812 2.623539
v 9.134043 -5.946349 3.839954
v 9.558842 -3.285336 2.986281
v 9.272852 -8.346021 2.607839
v 8.744406 -10.582129 0.904317
v 8.631504 -8.585342 2.901469
v 9.381311 -10.263956 0.689446
v 9.902508 -9.225815 -0.063830
v 8.814665 -11.881973 -1.611933
v 9.448759 -11.512447 -1.727389
v 8.835371 -12.357598 -4.400786
v 9.468657 -11.969303 -4.406095
v 9.960056 -10.290826 -2.125450
v 9.977009 -10.680519 -4.410495
v 9.877945 -8.924335 -2.577557
v 9.891552 -9.236840 -4.409965
v 9.295557 -7.586132 -3.025431
v 9.305815 -7.821465 -4.405274
v 9.260820 -6.943033 -1.780556
v 5.124838 -12.567575 -4.369870
v 5.104153 -12.091962 -1.581007
v 4.449953 -12.253316 -4.364286
v 4.430048 -11.796480 -1.685540
v 3.792818 -11.030506 -4.358972
v 3.775862 -10.640821 -2.073957
v 3.693722 -9.274303 -2.526010
v 3.707329 -9.586822 -4.358415
v 3.961054 -8.005987 -3.670842
v 3.893242 -6.751284 -1.241982
v 3.647570 -8.420265 -0.872753
v 3.573372 -7.108267 0.439548
v 3.718315 -9.575815 -0.012331
v 3.625797 -7.939735 1.624107
v 4.362593 -10.547999 0.731303
v 4.254116 -8.630018 2.649673
v 4.921007 -8.795336 2.932434
v 4.776453 -6.297043 4.215163
v 4.115314 -6.230399 3.881747
v 4.614475 -3.541790 4.657885
v 3.959726 -3.583958 4.306969
v 3.507368 -5.892779 2.675123
v 3.374638 -3.635311 3.037835
v 3.478436 -5.466757 1.282366
v 3.371971 -3.656435 1.573252
v 3.264473 -1.854462 1.283727
v 3.753731 -4.339664 -0.003740
v 3.595814 -1.692329 -0.429121
v 3.166451 -0.237278 0.442065
v 3.479782 0.179564 -2.355617
v 3.087490 1.036845 -0.869242
v 3.118366 0.628395 1.627286
v 3.035320 1.843193 -2.521898
v 3.019886 2.217247 -0.007932
v 3.467548 4.455750 -1.679497
v 2.954828 3.222745 -2.068776
v 3.543829 3.276972 0.736414
v 4.102053 4.828432 -1.574739
v 3.659283 1.414381 2.653369
v 4.181450 3.601231 0.940550
v 4.301672 1.662036 2.936309
v 7.892008 3.811214 0.909638
v 7.812588 5.038414 -1.605662
v 8.486248 4.739765 -1.721351
v 8.456596 5.119291 -4.399808
v 7.781683 5.433558 -4.394202
v 4.071186 5.223585 -4.363242
v 8.476467 4.662469 -7.078502
v 7.802393 4.957947 -7.183061
v 4.091879 4.747966 -7.152137
v 7.872648 3.658133 -9.699292
v 8.543949 3.413944 -9.495385
v 9.188234 2.441792 -8.751765
v 9.280750 0.805733 -10.388181
v 8.652401 1.496028 -11.413753
v 7.985580 1.661333 -11.696496
v 9.399178 -1.241232 -11.439191
v 8.791204 -0.903621 -12.645812
v 8.946829 -3.550091 -13.071088
v 9.531889 -3.498729 -11.801929
v 8.130098 -0.836991 -12.979285
v 4.419559 -1.046965 -12.948365
v 8.292097 -3.592234 -13.421948
v 4.275019 1.451340 -11.665576
v 4.162123 3.448138 -9.668328
v 3.525257 3.129954 -9.453513
v 3.633703 1.212018 -11.371869
v 3.772526 -1.187636 -12.603995
v 3.004044 2.091816 -8.700246
v 3.096548 0.455750 -10.336654
v 3.148975 -0.375730 -9.152091
v 3.214947 -1.591207 -11.387610
v 3.243904 -2.017225 -9.994880
v 3.657314 -3.105366 -8.714519
v 3.517801 -0.693757 -7.476274
v 3.350363 -3.827569 -10.285756
v 3.347685 -3.848684 -11.750350
v 3.457867 -5.629509 -9.996215
v 3.555876 -7.246736 -9.154609
v 3.815228 -5.752681 -8.289145
v 3.481739 -6.095736 -11.389285
v 4.228577 -8.832424 -11.375611
v 3.603973 -8.112385 -10.339797
v 4.344002 -10.695030 -9.458653
v 3.702480 -9.701240 -8.704577
v 3.634855 -8.520851 -7.843297
v 3.687054 -9.327207 -6.190669
v 3.931257 -7.624564 -6.362624
v 3.961054 -8.005987 -3.670842
v 3.707329 -9.586822 -4.358415
v 3.767540 -10.706737 -6.643769
v 3.792818 -11.030506 -4.358972
v 4.449953 -12.253316 -4.364286
v 4.420301 -11.873779 -7.042718
v 5.124838 -12.567575 -4.369870
v 5.093977 -12.172416 -7.158406
v 8.835371 -12.357598 -4.400786
v 8.804495 -11.962454 -7.189353
v 9.468657 -11.969303 -4.406095
v 5.014580 -10.945214 -9.673701
v 3.449987 0.560971 -5.047421
v 3.074799 0.936272 -7.839786
v 2.946480 3.156806 -6.638579
v 3.028608 1.790298 -6.186534
v 2.929508 3.546514 -4.353580
v 3.015030 2.102820 -4.354089
v 3.437904 4.835258 -4.357951
v 3.457775 4.378452 -7.036683
v 9.103987 -6.184292 -12.647801
v 9.665955 -5.745775 -11.440869
v 9.788177 -7.762418 -10.391347
v 8.562544 3.560998 0.694571
v 8.677996 1.698396 2.611556
v 8.012190 1.872026 2.905377
v 8.161388 -0.589298 4.186285
v 4.450851 -0.799277 4.217209
v 3.802589 -0.949726 3.883699
v 3.240597 -1.388242 2.676772
v 8.325012 -3.331798 4.626963
v 8.821280 -0.665713 3.841850
v 8.978413 -3.299931 4.265154
v 9.424801 -1.038282 2.625223
v 9.302567 0.978368 1.575731
v 8.486992 -6.087067 4.184242
v 5.033899 -10.792132 0.935218
v 3.931257 -7.624564 -6.362624
v 3.893242 -6.751284 -1.241982
v 3.961054 -8.005987 -3.670842
v 3.595814 -1.692329 -0.429121
v 3.657314 -3.105366 -8.714519
v 3.815228 -5.752681 -8.289145
v 3.449987 0.560971 -5.047421
v 3.517801 -0.693757 -7.476274
v 3.479782 0.179564 -2.355617
v 3.753731 -4.339664 -0.003740
v 9.628914 -1.975123 -5.141623
v 9.649673 -2.240716 -3.267206
v 9.621597 -1.807036 -4.156053
v 9.759632 -4.084168 -2.971027
v 9.726049 -3.654427 -6.003881
v 9.668819 -2.680763 -5.847421
v 8.896976 -0.899896 -3.998683
v 8.908657 -1.168783 -5.575374
v 8.784512 0.980814 -4.401998
v 8.794733 0.745494 -5.781816
v 8.829498 0.102399 -7.026711
v 8.972519 -2.297711 -6.704535
v 9.064098 -3.855415 -6.954829
v 8.885380 -0.885524 -8.014844
v 8.956877 -2.121555 -8.649503
v 9.037020 -3.484741 -8.868529
v 9.117960 -4.841647 -8.650544
v 9.148472 -5.246931 -6.230657
v 9.191784 -6.059382 -8.016797
v 9.251244 -7.018788 -7.029391
v 9.290548 -7.625967 -5.784894
v 9.193352 -5.940764 -4.808612
v 9.806850 -4.957880 -4.662335
v 9.799519 -4.789796 -3.676802
v 9.181633 -5.671839 -3.231875
v 9.305815 -7.821465 -4.405274
v 9.295557 -7.586132 -3.025431
v 9.260820 -6.943033 -1.780556
v 9.117804 -4.542941 -2.102734
v 9.204950 -5.955126 -0.792457
v 9.133446 -4.719070 -0.157772
v 9.026205 -2.985231 -1.852474
v 9.053301 -3.355900 0.061256
v 8.972349 -1.999042 -0.156779
v 8.941877 -1.593720 -2.576634
v 8.898546 -0.781277 -0.790500
v 8.839060 0.178140 -1.777917
v 8.799786 0.785311 -3.022332
v 9.702412 -3.110524 -2.814589
v 9.778782 -4.524209 -5.551240
v -1.056984 4.972754 7.129901
v -0.740105 2.826093 8.035803
v -0.925129 3.626201 7.414613
v -0.754032 3.204737 8.528154
v -1.058712 4.813631 5.719577
v -1.037436 4.232980 4.964603
v -0.876978 2.313448 5.707642
v -0.980944 2.902677 4.438142
v -0.678043 1.134732 5.836423
v -0.691916 1.513387 6.328852
v -0.513508 0.714992 6.163613
v -0.527439 1.093707 6.656004
v -0.120394 0.798493 6.891969
v -0.106440 0.419833 6.399589
v 0.434101 0.328171 6.481125
v 0.949451 0.843302 6.878724
v 0.963322 0.464665 6.386419
v 0.420235 0.706831 6.973553
v 1.339396 0.792705 6.140765
v 1.461504 1.224380 5.810066
v 1.325472 1.171323 6.633133
v 1.447624 1.603036 6.302424
v 1.604069 2.417451 5.677107
v 1.669197 3.013758 4.405450
v 1.612764 4.344105 4.931945
v 1.555830 3.730144 7.384046
v 1.591446 4.924719 5.686923
v 1.593208 5.083820 7.097191
v 1.385567 3.294459 8.501774
v 1.399448 2.915756 8.009400
v 1.263411 2.862761 8.832476
v 1.277344 2.484091 8.340096
v 0.901245 2.156029 8.585759
v 0.887379 2.534674 9.078162
v 0.372025 2.019550 8.680459
v 0.358110 2.398203 9.172878
v -0.168570 2.111203 8.598948
v -0.182446 2.489833 9.091289
v -0.589495 2.785077 8.855345
v -0.575611 2.406425 8.362951
v 3.752167 -1.493614 -4.607034
v 2.942541 -2.349674 -5.336711
v 3.756668 -1.873798 -5.658126
v 2.939213 -2.064566 -4.548430
v 3.778519 -1.679819 -3.512148
v 3.828684 -2.382517 -2.666947
v 2.958958 -2.204224 -3.727273
v 2.996597 -2.731248 -3.093352
v 1.420454 -2.810746 -3.060009
v 1.382822 -2.283713 -3.693939
v 1.363070 -2.144079 -4.515082
v 1.366409 -2.429250 -5.303432
v 1.382822 -2.283713 -3.693939
v 1.392025 -3.062749 -5.847665
v 1.420454 -2.810746 -3.060009
v 1.433001 -3.874969 -6.002049
v 1.465834 -3.583976 -2.783157
v 1.478413 -4.648164 -5.725242
v 1.506811 -4.396135 -2.937535
v 1.516018 -5.175161 -5.091268
v 1.532431 -5.029719 -3.481831
v 1.535824 -5.314834 -4.270163
v 2.968161 -2.983241 -5.880979
v 1.392025 -3.062749 -5.847665
v 1.433001 -3.874969 -6.002049
v 3.009144 -3.795396 -6.035392
v 3.054569 -4.568625 -5.758533
v 3.905954 -4.832379 -6.220544
v 3.845438 -3.801442 -6.589669
v 3.790808 -2.718544 -6.383780
v 3.956125 -5.535089 -5.375302
v 3.982517 -5.721235 -4.280469
v 3.092155 -5.095658 -5.124610
v 1.516018 -5.175161 -5.091268
v 3.111954 -5.235298 -4.303459
v 1.535824 -5.314834 -4.270163
v 1.478413 -4.648164 -5.725242
v 1.465834 -3.583976 -2.783157
v 3.041975 -3.504421 -2.816492
v 1.506811 -4.396135 -2.937535
v 3.082972 -4.316622 -2.970879
v 1.532431 -5.029719 -3.481831
v 3.108568 -4.950148 -3.515141
v 1.535824 -5.314834 -4.270163
v 3.111954 -5.235298 -4.303459
v 3.978014 -5.341073 -3.229369
v 3.982517 -5.721235 -4.280469
v 3.943859 -4.496323 -2.503645
v 3.889181 -3.413441 -2.297763
v -0.821205 15.007172 -4.787612
v -0.789860 3.718369 1.216125
v -1.389086 14.451946 -5.618106
v -0.222004 4.273637 2.046600
v 0.913692 4.315336 2.010541
v 0.314491 15.048925 -4.823665
v 0.882357 14.535412 -5.690211
v 1.481533 3.801831 1.144011
v 0.314461 13.980146 -6.520728
v 0.913670 3.246593 0.313451
v -0.821239 13.938461 -6.484674
v -0.222054 3.204831 0.349503
v -1.389086 14.451946 -5.618106
v -0.789860 3.718369 1.216125
v 0.913670 3.246593 0.313451
v -0.222054 3.204831 0.349503
v -0.789860 3.718369 1.216125
v -0.222004 4.273637 2.046600
v -0.740105 2.826093 8.035803
v 1.555830 3.730144 7.384046
v -0.925129 3.626201 7.414613
v 1.399448 2.915756 8.009400
v -0.575611 2.406425 8.362951
v 0.372025 2.019550 8.680459
v -0.168570 2.111203 8.598948
v 1.277344 2.484091 8.340096
v 0.901245 2.156029 8.585759
v -0.876978 2.313448 5.707642
v 1.447624 1.603036 6.302424
v 1.604069 2.417451 5.677107
v -0.691916 1.513387 6.328852
v 1.325472 1.171323 6.633133
v 0.420235 0.706831 6.973553
v -0.527439 1.093707 6.656004
v -0.120394 0.798493 6.891969
v 0.949451 0.843302 6.878724
v 1.281971 -1.197489 3.321544
v 1.338224 -1.405219 5.936786
v 1.302565 -2.676657 4.081689
v 1.311024 -0.162574 4.831479
v 1.276966 -0.519655 3.181954
v 1.297554 0.212049 4.249597
v 1.283447 0.064175 3.566367
v 1.297554 0.212049 4.249597
v 1.751713 -0.162642 4.818934
v 1.738310 0.212030 4.237106
v 1.778959 -1.405220 5.924282
v 1.738310 0.212030 4.237106
v 1.722721 -1.197523 3.308957
v 1.743340 -2.676677 4.069203
v 1.717688 -0.519710 3.169401
v 1.724197 0.064170 3.553901
v 1.283447 0.064175 3.566367
v 1.724197 0.064170 3.553901
v 1.717688 -0.519710 3.169401
v 1.276966 -0.519655 3.181954
v 1.281971 -1.197489 3.321544
v 1.722721 -1.197523 3.308957
v 1.302565 -2.676657 4.081689
v 1.743340 -2.676677 4.069203
v -0.641981 -0.503926 9.335901
v -0.784992 1.317097 8.938900
v -0.707699 0.529120 9.668959
v -0.796528 1.072028 7.875821
v -0.572512 -1.933501 8.092985
v -0.763962 0.018558 6.284477
v 2.258385 -1.735879 7.997159
v 2.066978 0.216115 6.188660
v 2.188959 -0.306307 9.240086
v 2.034441 1.269635 7.779985
v 2.045946 1.514715 8.843084
v 2.123201 0.726754 9.573100
v -0.035416 -0.461559 9.315400
v -0.165697 0.344136 6.705819
v 0.013451 -1.483211 8.399869
v -0.189201 1.106082 7.860260
v -0.101128 0.571489 9.648425
v -0.177803 1.349905 8.915260
v 1.451969 0.457038 6.651111
v 1.631138 -1.370261 8.345074
v 1.428480 1.219007 7.805474
v 1.582291 -0.348665 9.260632
v 1.439894 1.462803 8.860526
v 1.516533 0.684387 9.593646
v 1.385210 -1.431264 3.838367
v 1.311550 -0.310645 2.732581
v 1.341795 -1.100788 3.047133
v 1.343124 0.799036 3.883339
v 1.416790 -0.321580 4.989093
v 1.416256 -1.108503 4.642760
v 1.386463 0.468588 4.674580
v 1.312046 0.476300 3.078891
v -0.130863 0.786442 3.931098
v 1.386463 0.468588 4.674580
v -0.057190 -0.334191 5.036824
v -0.087465 0.455964 4.722295
v 1.416790 -0.321580 4.989093
v -0.057772 -1.121182 4.690484
v 1.416256 -1.108503 4.642760
v -0.161924 0.463692 3.126665
v -0.087465 0.455964 4.722295
v -0.057772 -1.121182 4.690484
v -0.057190 -0.334191 5.036824
v -0.132160 -1.113442 3.094861
v -0.088816 -1.443934 3.886086
v -0.162498 -0.323304 2.780322
v 1.311550 -0.310645 2.732581
v -0.162498 -0.323304 2.780322
v 1.341795 -1.100788 3.047133
v -0.132160 -1.113442 3.094861
v 1.385210 -1.431264 3.838367
v -0.088816 -1.443934 3.886086
v 1.416256 -1.108503 4.642760
v -0.057772 -1.121182 4.690484
v -0.980944 2.902677 4.438142
v 1.612764 4.344105 4.931945
v -1.037436 4.232980 4.964603
v 1.669197 3.013758 4.405450
v -0.678043 1.134732 5.836423
v 1.461504 1.224380 5.810066
v -0.513508 0.714992 6.163613
v 0.434101 0.328171 6.481125
v -0.106440 0.419833 6.399589
v 1.339396 0.792705 6.140765
v 0.963322 0.464665 6.386419
v -1.058712 4.813631 5.719577
v -1.056984 4.972754 7.129901
v 1.593208 5.083820 7.097191
v 1.591446 4.924719 5.686923
v 1.385567 3.294459 8.501774
v -0.754032 3.204737 8.528154
v 0.887379 2.534674 9.078162
v 1.263411 2.862761 8.832476
v -0.589495 2.785077 8.855345
v -0.182446 2.489833 9.091289
v 0.358110 2.398203 9.172878
v 0.345291 4.681575 9.199137
v 0.287922 4.147255 9.061732
v 0.141064 4.507480 9.327181
v 0.492109 4.321413 8.933659
v -0.177095 4.840923 9.276845
v 0.027096 5.015057 9.148846
v -0.276062 5.126404 8.812159
v -0.480209 4.952284 8.940193
v -0.590687 4.776277 8.514376
v -0.386526 4.950445 8.386288
v -0.439835 4.329059 7.429839
v -0.644070 4.154943 7.557956
v 0.435362 3.382076 8.230383
v 0.639595 3.556265 8.102301
v -0.439835 4.329059 7.429839
v -0.386526 4.950445 8.386288
v 0.345291 4.681575 9.199137
v -0.276062 5.126404 8.812159
v 0.027096 5.015057 9.148846
v -0.590687 4.776277 8.514376
v -0.644070 4.154943 7.557956
v 0.141064 4.507480 9.327181
v -0.480209 4.952284 8.940193
v -0.177095 4.840923 9.276845
v 0.143404 0.262936 4.326649
v -0.258554 -0.126709 4.928866
v -0.296730 0.248680 4.348727
v 0.181602 -0.112525 4.906688
v -0.320843 0.101979 3.665609
v 0.119232 0.116208 3.643495
v 0.123295 -0.466777 3.257411
v -0.316790 -0.481000 3.279589
v -0.286913 -1.158689 3.416851
v 0.153255 -1.144531 3.394616
v -0.202000 -2.638369 4.171426
v 0.238180 -2.624184 4.149354
v -0.167171 -1.370599 6.029076
v 0.273046 -1.356393 6.006933
v 0.238180 -2.624184 4.149354
v 0.153255 -1.144531 3.394616
v 0.143404 0.262936 4.326649
v 0.123295 -0.466777 3.257411
v 0.119232 0.116208 3.643495
v -0.286913 -1.158689 3.416851
v -0.202000 -2.638369 4.171426
v -0.296730 0.248680 4.348727
v -0.316790 -0.481000 3.279589
v -0.320843 0.101979 3.665609
v -0.101128 0.571489 9.648425
v -0.641981 -0.503926 9.335901
v -0.707699 0.529120 9.668959
v -0.035416 -0.461559 9.315400
v -0.177803 1.349905 8.915260
v -0.784992 1.317097 8.938900
v -0.189201 1.106082 7.860260
v -0.796528 1.072028 7.875821
v -0.165697 0.344136 6.705819
v -0.763962 0.018558 6.284477
v 2.066978 0.216115 6.188660
v 1.451969 0.457038 6.651111
v 2.034441 1.269635 7.779985
v 1.428480 1.219007 7.805474
v 1.439894 1.462803 8.860526
v 2.123201 0.726754 9.573100
v 1.516533 0.684387 9.593646
v 2.045946 1.514715 8.843084
v 1.582291 -0.348665 9.260632
v 2.188959 -0.306307 9.240086
v 2.258385 -1.735879 7.997159
v 1.631138 -1.370261 8.345074
v 0.013451 -1.483211 8.399869
v -0.572512 -1.933501 8.092985
v 1.578846 -0.330465 9.183308
v -0.113041 0.712600 9.588671
v 1.504642 0.825485 9.533871
v -0.038839 -0.443354 9.238106
v 1.548704 -0.374963 7.972956
v -0.068972 -0.487872 8.027704
v -0.237453 1.306050 6.634893
v 1.380249 1.418939 6.580130
v -0.281616 2.509013 8.199177
v 1.336063 2.621916 8.144401
v -0.068972 -0.487872 8.027704
v -0.237453 1.306050 6.634893
v 0.514383 1.968363 6.133780
v 0.470137 3.173879 7.701347
v 1.380249 1.418939 6.580130
v 1.336063 2.621916 8.144401
v 1.548704 -0.374963 7.972956
v 1.504642 0.825485 9.533871
v 0.209745 -0.591603 3.201410
v -0.381018 3.877639 1.111191
v -0.149654 -0.266608 3.749869
v -0.021618 3.552586 0.562694
v 0.928534 -0.565203 3.178608
v 0.697170 3.579021 0.539905
v 1.287935 -0.213723 3.704295
v 1.056580 3.930468 1.065575
v 0.928549 0.111229 4.252702
v 0.697189 4.255437 1.613977
v 0.209753 0.084840 4.275537
v -0.021601 4.229025 1.636789
v -0.149654 -0.266608 3.749869
v -0.381018 3.877639 1.111191
v -0.300684 -2.344674 3.559161
v 0.653030 0.109456 6.272310
v -0.351109 -0.441423 6.740022
v 0.699600 -1.686022 3.237151
v 0.557217 -3.286741 -6.144280
v -0.038950 -3.692073 -6.090169
v -0.199963 -3.515368 4.132028
v 0.015333 -4.415767 -6.024119
v 0.665871 -4.734106 -6.012208
v 0.901001 -4.027406 4.382870
v -0.258034 -1.396412 7.604440
v 0.839203 -1.800566 8.001034
v 1.207781 -3.605049 -6.132377
v -0.038950 -3.692073 -6.090169
v 0.570543 -3.578309 -6.428336
v 0.205044 -4.071069 -6.372359
v 1.005842 -4.015181 -6.399501
v 0.601360 -4.064916 -6.591077
v 0.640335 -4.507944 -6.343562
v 0.015333 -4.415767 -6.024119
v 0.665871 -4.734106 -6.012208
v 1.262112 -4.328758 -6.066314
v 1.800694 -2.198039 3.488050
v 1.262112 -4.328758 -6.066314
v 1.901409 -3.368670 4.060818
v 0.665871 -4.734106 -6.012208
v 0.901001 -4.027406 4.382870
v 1.843426 -1.249740 7.533257
v 0.839203 -1.800566 8.001034
v 1.750338 -0.294672 6.668905
v -8.444366 16.085190 5.389667
v -0.843781 7.129704 5.046374
v -0.984060 7.070759 4.978186
v -8.304078 16.144096 5.457807
v -0.740368 7.222416 4.954085
v -8.200689 16.236883 5.365546
v -0.777260 7.256302 4.793648
v -8.237526 16.270700 5.205048
v -0.917561 7.197361 4.725451
v -8.377810 16.211769 5.136884
v -1.020981 7.104614 4.817756
v -8.481226 16.119038 5.229184
v -8.444366 16.085190 5.389667
v -0.984060 7.070759 4.978186
v 0.639374 4.267233 9.052704
v 0.056698 5.209063 9.426655
v 0.484158 4.748547 9.439257
v -0.600544 5.158991 8.463074
v -0.017881 4.217160 8.089051
v 0.431404 4.047153 8.493414
v -0.445305 4.677683 8.076518
v 0.067898 5.138384 7.694886
v -0.087337 5.619652 8.081423
v -0.445305 4.677683 8.076518
v -0.392603 5.379084 9.022353
v 0.569935 5.669735 9.045107
v 0.056698 5.209063 9.426655
v 0.120634 5.839722 8.640683
v 0.067898 5.138384 7.694886
v 0.944618 4.507876 8.111841
v 0.997341 5.209211 9.057604
v 0.569935 5.669735 9.045107
v 1.152573 4.727969 8.671088
v 0.495358 4.677871 7.707458
v 0.484158 4.748547 9.439257
v 0.639374 4.267233 9.052704
v 0.997341 5.209211 9.057604
v 1.152573 4.727969 8.671088
v 0.495358 4.677871 7.707458
v -0.017881 4.217160 8.089051
v 0.944618 4.507876 8.111841
v 0.431404 4.047153 8.493414
v 1.152573 4.727969 8.671088
v 0.639374 4.267233 9.052704
v -6.512009 14.201126 11.498989
v 0.209162 5.186049 9.058888
v -0.119781 5.047901 8.899039
v -6.183105 14.339268 11.658801
v 0.451630 5.403528 8.842513
v -5.940632 14.556759 11.442388
v 0.365173 5.482904 8.466274
v -6.027053 14.636103 11.066203
v 0.036203 5.344748 8.306426
v -6.355988 14.497934 10.906298
v -0.206266 5.127266 8.522835
v -6.598454 14.280487 11.122692
v -6.512009 14.201126 11.498989
v -0.119781 5.047901 8.899039
v -0.279449 6.580254 4.721117
v 0.676512 7.715130 4.589553
v 0.675610 7.345699 4.099417
v -0.263844 6.961660 5.208390
v -0.646242 6.873766 4.515948
v -0.279449 6.580254 4.721117
v -0.624323 7.246492 5.005580
v 0.059120 7.802231 4.552599
v -0.646242 6.873766 4.515948
v 0.040451 7.431343 4.058519
v 0.040451 7.431343 4.058519
v 0.675610 7.345699 4.099417
v 1.175255 3.879361 4.921788
v -1.021561 11.474096 -0.828811
v -0.672789 3.830971 4.973945
v 0.826433 11.522491 -0.880977
v 1.437195 4.045934 5.128223
v 1.088423 11.689035 -0.674556
v 1.436932 4.604774 5.876642
v 1.088196 12.247877 0.073806
v 1.174870 4.757554 6.097862
v 0.826057 12.400723 0.295080
v -0.673164 4.709142 6.149997
v -1.021942 12.352327 0.347249
v -0.935127 4.542590 5.943547
v -1.283903 12.185768 0.140803
v -0.934902 3.983777 5.195180
v -1.283648 11.626938 -0.607587
v -0.672789 3.830971 4.973945
v -1.021561 11.474096 -0.828811
v 1.078325 3.984516 7.735664
v 0.080143 5.402674 7.997425
v 0.959089 4.775506 8.546457
v -0.001453 4.755095 7.061179
v 1.163553 4.942301 8.409105
v 1.282827 4.151322 7.598387
v 0.284597 5.569546 7.860139
v 0.203056 4.921888 6.923869
v 1.027567 5.312338 8.666468
v 0.406025 5.755821 8.278325
v 0.713799 5.649279 8.612316
v 1.027567 5.312338 8.666468
v 0.823051 5.145540 8.803811
v 0.509291 5.482477 8.749627
v 0.713799 5.649279 8.612316
v 0.406025 5.755821 8.278325
v 0.201569 5.588999 8.415619
v 0.080143 5.402674 7.997425
v 0.284597 5.569546 7.860139
v -0.001453 4.755095 7.061179
v 0.203056 4.921888 6.923869
v 0.201569 5.588999 8.415619
v 0.823051 5.145540 8.803811
v 0.509291 5.482477 8.749627
vn -0.7178 -0.0423 -0.6949
vn -0.2477 -0.0149 -0.9687
vn -0.2306 -0.3183 -0.9195
vn -0.7058 -0.2604 -0.6589
vn -0.2139 -0.5916 -0.7774
vn 0.2513 -0.2906 -0.9233
vn 0.2679 -0.5645 -0.7808
vn 0.7358 -0.3748 -0.5640
vn 0.7447 -0.5301 -0.4054
vn 0.2810 -0.7792 -0.5603
vn 0.9814 -0.1340 -0.1372
vn 0.9834 -0.1670 -0.0712
vn 0.7500 -0.6279 -0.2080
vn 0.9804 0.1790 0.0826
vn 0.9788 0.2004 0.0413
vn 0.9840 -0.1780 0.0010
vn 0.9717 0.2310 0.0501
vn 0.9709 0.2396 -0.0055
vn 0.9781 0.2080 -0.0045
vn 0.9735 0.2053 0.1007
vn 0.9825 0.1460 0.1155
vn 0.9761 0.1651 0.1414
vn 0.9850 0.1046 0.1369
vn 0.9792 0.1143 0.1678
vn 0.9877 0.0587 0.1449
vn 0.9825 0.0579 0.1773
vn 0.9903 0.0126 0.1386
vn 0.9856 0.0017 0.1690
vn 0.9925 -0.0292 0.1184
vn 0.9884 -0.0487 0.1440
vn 0.9943 -0.0626 0.0862
vn 0.9905 -0.0888 0.1049
vn 0.9954 -0.0840 0.0451
vn 0.9919 -0.1145 0.0553
vn 0.9958 -0.0914 -0.0007
vn 0.9923 -0.1236 0.0001
vn 0.9954 -0.0839 -0.0467
vn 0.9566 0.2808 -0.0777
vn 0.9563 0.2924 -0.0063
vn 0.9918 -0.1151 -0.0555
vn 0.9941 -0.0625 -0.0882
vn 0.9574 0.2813 0.0657
vn 0.9903 -0.0896 -0.1064
vn 0.9598 0.2482 0.1313
vn 0.9922 -0.0294 -0.1212
vn 0.9879 -0.0492 -0.1471
vn 0.9897 0.0122 -0.1427
vn 0.9848 0.0018 -0.1737
vn 0.9869 0.0583 -0.1507
vn 0.9813 0.0584 -0.1832
vn 0.9840 0.1045 -0.1443
vn 0.9779 0.1147 -0.1748
vn 0.9814 0.1463 -0.1239
vn 0.9748 0.1652 -0.1496
vn 0.9795 0.1796 -0.0916
vn 0.9790 -0.0810 0.1872
vn 0.9755 -0.0156 0.2197
vn 0.7289 -0.1749 0.6619
vn 0.9714 0.0572 0.2304
vn 0.7382 -0.3696 0.5643
vn 0.2865 -0.7680 0.5728
vn 0.7454 -0.5237 0.4125
vn 0.2767 -0.5555 0.7841
vn 0.9817 -0.1327 0.1365
vn 0.7500 -0.6234 0.2212
vn 0.2922 -0.9055 0.3078
vn 0.2934 -0.9559 0.0127
vn 0.7517 -0.6595 0.0079
vn 0.9834 -0.1661 0.0725
vn 0.9783 0.2009 -0.0504
vn 0.9711 0.2307 -0.0606
vn 0.9725 0.2051 -0.1102
vn -0.1828 -0.9831 0.0141
vn -0.1828 -0.9333 0.3091
vn -0.6703 -0.7420 0.0121
vn -0.6705 -0.7069 0.2253
vn -0.9563 -0.2924 0.0063
vn -0.9566 -0.2808 0.0777
vn -0.9990 0.0321 -0.0315
vn -0.9993 0.0378 0.0048
vn -0.9978 0.0644 -0.0185
vn -0.9984 0.0214 -0.0520
vn -0.9959 0.0295 -0.0855
vn -0.9970 -0.0050 -0.0775
vn -0.9584 -0.2477 0.1420
vn -0.6753 -0.6082 0.4172
vn -0.9614 -0.1961 0.1929
vn -0.6843 -0.4547 0.5701
vn -0.1998 -0.5844 0.7865
vn -0.2152 -0.3152 0.9243
vn -0.6965 -0.2600 0.6688
vn -0.2330 -0.0135 0.9724
vn -0.7103 -0.0421 0.7027
vn -0.9654 -0.1308 0.2257
vn -0.9699 -0.0578 0.2367
vn -0.9938 -0.0623 -0.0926
vn -0.9958 -0.0259 -0.0877
vn -0.9924 -0.0855 -0.0886
vn -0.9921 -0.0389 -0.1194
vn -0.9876 -0.1153 -0.1066
vn -0.9904 -0.1181 -0.0717
vn -0.9894 -0.1347 -0.0551
vn -0.9841 -0.1698 -0.0515
vn -0.9784 0.0818 0.1901
vn -0.9814 0.1340 0.1372
vn -0.9882 -0.1517 -0.0225
vn -0.7447 0.5301 0.4054
vn -0.9834 0.1670 0.0712
vn -0.7500 0.6279 0.2080
vn -0.2897 0.9133 0.2863
vn -0.2811 0.7792 0.5603
vn -0.7358 0.3748 0.5640
vn 0.1993 0.8058 0.5576
vn -0.2679 0.5645 0.7807
vn 0.1885 0.9400 0.2844
vn 0.6747 0.7096 0.2030
vn 0.6703 0.7420 -0.0120
vn 0.1828 0.9831 -0.0140
vn -0.2934 0.9559 -0.0126
vn 0.1828 0.9333 -0.3091
vn 0.6705 0.7069 -0.2253
vn -0.2922 0.9055 -0.3078
vn 0.1887 0.7964 -0.5746
vn 0.6753 0.6082 -0.4172
vn 0.9584 0.2477 -0.1420
vn 0.9614 0.1962 -0.1930
vn 0.6843 0.4547 -0.5701
vn 0.1998 0.5844 -0.7865
vn 0.6965 0.2600 -0.6688
vn 0.9654 0.1308 -0.2257
vn 0.2152 0.3152 -0.9243
vn 0.9699 0.0578 -0.2367
vn 0.7103 0.0421 -0.7027
vn -0.2767 0.5555 -0.7841
vn -0.2635 0.2864 -0.9212
vn 0.2330 0.0135 -0.9724
vn -0.2865 0.7680 -0.5728
vn -0.7454 0.5237 -0.4125
vn -0.7382 0.3696 -0.5643
vn -0.7289 0.1749 -0.6619
vn -0.9790 0.0810 -0.1872
vn -0.9817 0.1327 -0.1365
vn -0.9914 -0.0918 0.0931
vn -0.9902 -0.1128 0.0829
vn -0.9754 0.0157 -0.2197
vn -0.9850 -0.1468 0.0909
vn -0.9936 -0.0554 0.0981
vn -0.9891 -0.0784 0.1250
vn -0.9714 -0.0572 -0.2304
vn -0.9950 -0.0322 0.0942
vn -0.9970 0.0006 0.0772
vn -0.9937 -0.0019 0.1121
vn -0.9672 -0.1302 -0.2182
vn -0.6937 -0.4570 -0.5567
vn -0.9632 -0.1961 -0.1840
vn -0.6829 -0.6118 -0.3992
vn -0.9598 -0.2482 -0.1313
vn -0.9980 0.0172 0.0605
vn -0.9990 0.0342 0.0278
vn -0.9970 0.0527 0.0570
vn -0.9978 0.0643 -0.0185
vn -0.9574 -0.2813 -0.0657
vn -0.6703 -0.7420 0.0119
vn -0.6747 -0.7096 -0.2030
vn -0.1828 -0.9831 0.0139
vn 0.2934 -0.9559 0.0125
vn -0.1885 -0.9400 -0.2844
vn 0.7517 -0.6595 0.0077
vn 0.2897 -0.9133 -0.2863
vn -0.1993 -0.8058 -0.5576
vn -0.9886 -0.1391 0.0573
vn -0.9831 -0.1815 0.0238
vn -0.9880 -0.1498 0.0368
vn -0.9834 0.1661 -0.0725
vn -0.9840 0.1780 -0.0010
vn -0.9878 -0.1554 0.0005
vn -0.7517 0.6595 -0.0078
vn -0.7500 0.6234 -0.2212
vn 0.7240 -0.1771 -0.6667
vn 0.9744 -0.0156 -0.2245
vn 0.9784 -0.0818 -0.1901
vn 0.6829 0.6118 0.3992
vn 0.6937 0.4570 0.5567
vn 0.2139 0.5916 0.7774
vn 0.2306 0.3183 0.9195
vn -0.2513 0.2906 0.9233
vn -0.7240 0.1771 0.6667
vn -0.9744 0.0156 0.2245
vn 0.2477 0.0149 0.9687
vn 0.7058 0.2604 0.6589
vn 0.9632 0.1961 0.1840
vn 0.9672 0.1302 0.2182
vn 0.7178 0.0423 0.6949
vn 0.2634 -0.2864 0.9212
vn -0.1886 -0.7964 0.5746
vn -0.9876 -0.1153 -0.1064
vn -0.9970 0.0526 0.0570
vn -0.9959 0.0294 -0.0854
vn -0.9978 0.0642 -0.0185
vn -0.9891 -0.0784 0.1249
vn -0.9937 -0.0020 0.1120
vn -0.9831 -0.1814 0.0238
vn -0.9850 -0.1467 0.0908
vn -0.9841 -0.1697 -0.0515
vn -0.9921 -0.0389 -0.1193
vn 0.9449 -0.1055 0.3100
vn 0.9148 0.3686 -0.1652
vn 0.9210 0.3060 0.2411
vn 0.9139 0.4033 0.0461
vn 0.9539 0.2982 0.0327
vn 0.9368 -0.0000 -0.3497
vn 0.9236 0.2163 -0.3164
vn 0.9543 0.2755 -0.1156
vn 0.9609 0.1678 -0.2205
vn 0.9924 -0.1234 0.0001
vn 0.9919 -0.1143 0.0553
vn 0.9905 -0.0886 0.1047
vn 0.9703 0.0187 -0.2410
vn 0.9856 0.0017 0.1688
vn 0.9884 -0.0487 0.1438
vn 0.9825 0.0579 0.1771
vn 0.9792 0.1143 0.1676
vn 0.9784 -0.1152 -0.1717
vn 0.9761 0.1650 0.1412
vn 0.9735 0.2052 0.1007
vn 0.9821 -0.1845 -0.0378
vn 0.9717 0.2308 0.0501
vn 0.9545 -0.2937 -0.0518
vn 0.9528 -0.2582 0.1595
vn 0.9808 -0.1607 0.1107
vn 0.9709 0.2394 -0.0055
vn 0.9712 0.2305 -0.0606
vn 0.9726 0.2050 -0.1101
vn 0.9753 -0.0525 0.2145
vn 0.9749 0.1651 -0.1494
vn 0.9779 0.1147 -0.1746
vn 0.9674 0.0959 0.2343
vn 0.9814 0.0584 -0.1830
vn 0.9848 0.0018 -0.1735
vn 0.9593 0.2288 0.1655
vn 0.9879 -0.0491 -0.1470
vn 0.9903 -0.0894 -0.1063
vn 0.9918 -0.1149 -0.0555
vn 0.9330 0.1103 0.3427
vn 0.9487 -0.1965 -0.2476
vn -0.6938 -0.5544 -0.4596
vn -0.7203 0.2925 0.6289
vn -0.6602 0.6796 0.3198
vn -0.8800 -0.4656 0.0935
vn -0.6955 0.6645 -0.2735
vn -0.6882 0.4181 -0.5929
vn -0.6307 -0.1547 -0.7605
vn -0.8858 -0.1824 0.4267
vn -0.6882 -0.5648 -0.4554
vn -0.7124 0.2796 0.6437
vn -0.6286 -0.7250 -0.2815
vn -0.6530 0.0717 0.7539
vn -0.3649 -0.1366 0.9210
vn -0.3417 -0.9329 -0.1141
vn 0.0419 -0.9976 -0.0549
vn 0.3947 -0.1025 0.9131
vn 0.0196 -0.2006 0.9795
vn 0.4174 -0.9007 -0.1207
vn 0.6827 -0.6694 -0.2929
vn 0.6586 0.1294 0.7413
vn 0.7261 -0.5059 -0.4657
vn 0.6985 0.3401 0.6297
vn 0.6372 -0.1072 -0.7632
vn 0.9045 -0.1920 0.3809
vn 0.6436 0.4743 -0.6007
vn 0.6354 0.7192 -0.2809
vn 0.9098 -0.4113 0.0553
vn 0.6122 0.7275 0.3098
vn 0.6901 0.3403 0.6388
vn 0.7154 -0.5241 -0.4621
vn 0.6587 0.1294 0.7412
vn 0.4173 -0.9007 -0.1208
vn 0.3946 -0.1024 0.9131
vn 0.0419 -0.9976 -0.0550
vn 0.0195 -0.2005 0.9795
vn -0.6530 0.0718 0.7539
vn -0.3402 0.7706 -0.5389
vn -0.3398 0.9370 -0.0810
vn -0.5767 0.8142 -0.0669
vn -0.5763 0.6661 -0.4735
vn -0.5680 0.7388 0.3629
vn -0.3280 0.8537 0.4045
vn -0.5497 0.4549 0.7006
vn -0.6628 0.4004 0.6328
vn -0.3058 0.5330 0.7889
vn -0.6821 0.6535 0.3280
vn -0.6932 0.7186 -0.0565
vn -0.6820 0.6536 0.3280
vn -0.6931 0.5867 -0.4189
vn -0.6816 0.2925 -0.6708
vn -0.6627 0.4004 0.6329
vn -0.6621 -0.0939 -0.7436
vn -0.6410 0.0253 0.7672
vn -0.6400 -0.4677 -0.6096
vn -0.6230 -0.3620 0.6934
vn -0.6221 -0.7206 -0.3062
vn -0.6129 -0.6561 0.4403
vn -0.6125 -0.7866 0.0775
vn -0.3297 0.3980 -0.8561
vn -0.6817 0.2924 -0.6706
vn -0.3092 -0.0903 -0.9467
vn -0.6622 -0.0939 -0.7434
vn -0.5270 -0.5092 -0.6805
vn -0.2822 -0.5623 -0.7773
vn -0.5504 -0.0958 -0.8294
vn -0.5675 0.3344 -0.7524
vn -0.5032 -0.7919 -0.3459
vn -0.2562 -0.8824 -0.3947
vn -0.4874 -0.8694 0.0814
vn -0.6223 -0.7205 -0.3061
vn -0.2396 -0.9667 0.0894
vn -0.6126 -0.7865 0.0776
vn -0.6401 -0.4677 -0.6096
vn -0.6411 0.0253 0.7671
vn -0.2778 0.0592 0.9588
vn -0.6231 -0.3620 0.6933
vn -0.2524 -0.4301 0.8668
vn -0.6131 -0.6560 0.4403
vn -0.2381 -0.8020 0.5478
vn -0.6127 -0.7865 0.0775
vn -0.2396 -0.9667 0.0896
vn -0.4863 -0.7243 0.4888
vn -0.4874 -0.8694 0.0816
vn -0.5006 -0.3938 0.7709
vn -0.5248 0.0384 0.8504
vn -0.7615 -0.5471 0.3475
vn -0.3668 -0.1625 0.9160
vn -0.4996 0.4452 0.7431
vn -0.9989 -0.0397 0.0253
vn 0.4306 -0.1332 0.8927
vn 0.5074 0.4828 0.7138
vn 0.9989 0.0380 -0.0279
vn 0.8197 -0.4848 0.3051
vn 0.4986 -0.4456 -0.7435
vn 0.4247 -0.8657 -0.2651
vn -0.5056 -0.4833 -0.7147
vn -0.3724 -0.8962 -0.2410
vn -0.7615 -0.5470 0.3477
vn 0.4247 -0.8656 -0.2652
vn -0.3725 -0.8962 -0.2411
vn -0.7616 -0.5469 0.3476
vn -0.3669 -0.1624 0.9160
vn 0.9098 -0.4114 0.0553
vn 0.7156 -0.5240 -0.4620
vn -0.6940 -0.5544 -0.4594
vn -0.8800 -0.4657 0.0934
vn -0.6286 -0.7250 -0.2813
vn 0.0420 -0.9976 -0.0548
vn -0.3417 -0.9329 -0.1139
vn 0.6828 -0.6694 -0.2927
vn 0.4174 -0.9007 -0.1206
vn -0.8858 -0.1825 0.4268
vn -0.7125 0.2795 0.6436
vn 0.6986 0.3400 0.6296
vn 0.9044 -0.1920 0.3810
vn 0.6587 0.1292 0.7412
vn 0.0196 -0.2008 0.9794
vn -0.6532 0.0716 0.7538
vn -0.3649 -0.1367 0.9209
vn 0.3948 -0.1027 0.9130
vn -0.6642 0.4887 0.5657
vn -0.6666 0.5583 0.4940
vn -0.6945 -0.2457 -0.6763
vn -0.6928 -0.3372 -0.6374
vn -0.6491 0.1449 -0.7467
vn -0.6277 0.7631 0.1534
vn -0.6426 0.6385 -0.4235
vn 0.6887 0.5590 0.4618
vn -0.6279 0.7631 0.1534
vn 0.6325 0.7646 0.1237
vn 0.6606 -0.2434 -0.7101
vn 0.6893 0.4899 0.5338
vn 0.6323 0.7647 0.1237
vn 0.6109 0.1477 -0.7778
vn 0.6607 -0.3358 -0.6714
vn 0.6191 0.6413 -0.4532
vn -0.6428 0.6384 -0.4234
vn 0.6193 0.6412 -0.4531
vn 0.6110 0.1477 -0.7777
vn -0.6492 0.1449 -0.7467
vn -0.6946 -0.2456 -0.6762
vn 0.6608 -0.2434 -0.7100
vn 0.6608 -0.3357 -0.6713
vn -0.6930 -0.3372 -0.6373
vn -0.6487 0.7175 0.2538
vn -0.7191 0.6379 -0.2757
vn -0.6149 -0.4170 0.6694
vn -0.5955 0.1309 0.7926
vn -0.5070 -0.8611 0.0377
vn -0.5981 0.0599 -0.7992
vn 0.6250 -0.7807 -0.0005
vn 0.5343 0.1397 -0.8337
vn 0.7084 -0.3163 0.6310
vn 0.6035 0.7332 -0.3133
vn 0.5547 0.8031 0.2175
vn 0.6180 0.2175 0.7555
vn 0.1921 0.9440 -0.2682
vn 0.6158 0.7248 -0.3090
vn 0.7072 -0.3220 0.6294
vn 0.3405 -0.3394 0.8769
vn 0.6180 0.2185 0.7552
vn 0.5674 0.7954 0.2130
vn -0.3387 0.9056 -0.2552
vn -0.2380 -0.3858 0.8913
vn -0.7299 0.6275 -0.2710
vn -0.6166 -0.4138 0.6698
vn -0.6603 0.7080 0.2503
vn -0.5957 0.1319 0.7923
vn 0.6195 0.7848 -0.0208
vn 0.6412 -0.7667 -0.0326
vn 0.5979 0.0236 -0.8012
vn 0.6145 -0.5347 -0.5800
vn 0.6599 -0.0031 0.7513
vn 0.6599 -0.5485 0.5135
vn 0.6428 0.5556 0.5273
vn 0.6011 0.5663 -0.5639
vn -0.6413 0.7666 0.0326
vn 0.6430 0.5555 0.5272
vn -0.5980 -0.0237 0.8012
vn 0.6601 -0.0031 0.7512
vn -0.6146 0.5347 0.5799
vn -0.6012 -0.5663 0.5638
vn 0.6600 -0.5486 0.5133
vn -0.6599 0.5486 -0.5134
vn -0.6145 0.5347 0.5801
vn -0.6011 -0.5664 0.5639
vn -0.5979 -0.0238 0.8013
vn -0.6429 -0.5557 -0.5272
vn -0.6193 -0.7849 0.0207
vn -0.6600 0.0031 -0.7513
vn 0.5980 0.0237 -0.8011
vn -0.6601 0.0031 -0.7512
vn 0.6146 -0.5346 -0.5800
vn -0.6430 -0.5556 -0.5272
vn 0.6414 -0.7665 -0.0326
vn -0.6195 -0.7847 0.0208
vn 0.6600 -0.5485 0.5134
vn -0.6012 -0.5662 0.5639
vn 0.6438 0.4743 -0.6005
vn 0.6373 -0.1072 -0.7631
vn -0.6307 -0.1547 -0.7604
vn -0.6884 0.4179 -0.5928
vn -0.6883 -0.5648 -0.4553
vn 0.7263 -0.5058 -0.4655
vn 0.0420 -0.9976 -0.0547
vn 0.6828 -0.6694 -0.2928
vn 0.4175 -0.9007 -0.1205
vn -0.6956 0.6643 -0.2735
vn 0.6356 0.7191 -0.2809
vn -0.6603 0.6795 0.3198
vn 0.6123 0.7274 0.3097
vn 0.6902 0.3402 0.6387
vn -0.7205 0.2924 0.6289
vn -0.6531 0.0716 0.7538
vn 0.3947 -0.1026 0.9131
vn 0.6588 0.1292 0.7412
vn -0.3649 -0.1368 0.9209
vn 0.0195 -0.2007 0.9795
vn 0.0436 -0.6606 0.7495
vn 0.9745 0.1420 0.1738
vn 0.8113 0.4189 0.4078
vn -0.0530 -0.3237 0.9447
vn -0.4658 0.1109 0.8779
vn 0.3981 0.8514 0.3414
vn 0.0098 0.9960 -0.0885
vn -0.8574 0.2532 0.4480
vn -0.9897 0.0848 0.1156
vn -0.0566 0.8866 -0.4590
vn -0.9987 0.0416 0.0287
vn -0.0667 0.8384 -0.5410
vn 0.0612 -0.7290 0.6818
vn 0.9915 0.0782 0.1040
vn -0.0669 0.8384 -0.5410
vn -0.0568 0.8866 -0.4590
vn 0.8112 0.4189 0.4080
vn 0.0096 0.9960 -0.0884
vn 0.3980 0.8514 0.3415
vn -0.9897 0.0850 0.1155
vn -0.9987 0.0418 0.0286
vn -0.0528 -0.3237 0.9447
vn -0.8574 0.2534 0.4480
vn -0.4657 0.1110 0.8779
vn -0.6733 0.5352 0.5102
vn 0.6803 0.5797 0.4485
vn 0.6100 0.7844 0.1123
vn -0.6487 0.7420 0.1692
vn -0.6721 0.6182 -0.4075
vn 0.5882 0.6620 -0.4645
vn 0.5888 0.1693 -0.7904
vn -0.6697 0.1256 -0.7319
vn -0.7010 -0.2661 -0.6617
vn 0.6526 -0.2200 -0.7250
vn 0.6564 -0.3126 -0.6866
vn -0.6954 -0.3578 -0.6233
vn -0.6671 0.4655 0.5816
vn 0.6848 0.5104 0.5202
vn 0.6562 -0.3127 -0.6867
vn 0.6525 -0.2201 -0.7251
vn 0.6098 0.7845 0.1122
vn 0.5886 0.1692 -0.7905
vn 0.5880 0.6621 -0.4646
vn -0.7009 -0.2661 -0.6618
vn -0.6952 -0.3579 -0.6234
vn -0.6486 0.7421 0.1693
vn -0.6695 0.1257 -0.7321
vn -0.6719 0.6183 -0.4076
vn -0.6150 -0.4170 0.6693
vn 0.7074 -0.3219 0.6293
vn 0.6181 0.2185 0.7551
vn -0.5956 0.1309 0.7925
vn 0.5675 0.7953 0.2130
vn -0.6488 0.7174 0.2538
vn 0.6160 0.7246 -0.3090
vn -0.7192 0.6377 -0.2757
vn 0.1920 0.9440 -0.2683
vn -0.5981 0.0598 -0.7992
vn 0.5343 0.1396 -0.8337
vn -0.3386 0.9057 -0.2553
vn 0.6036 0.7331 -0.3133
vn -0.7300 0.6274 -0.2710
vn -0.6605 0.7079 0.2503
vn -0.5958 0.1319 0.7922
vn 0.6181 0.2174 0.7554
vn 0.5548 0.8031 0.2175
vn -0.6167 -0.4138 0.6697
vn 0.7086 -0.3163 0.6308
vn 0.6250 -0.7806 -0.0006
vn -0.2379 -0.3860 0.8913
vn 0.3404 -0.3395 0.8769
vn -0.5070 -0.8611 0.0376
vn -0.4726 0.1241 0.8725
vn 0.0757 -0.7876 0.6115
vn 0.0758 -0.7906 0.6076
vn 0.5042 0.1934 0.8416
vn 0.5332 -0.7532 -0.3852
vn -0.4450 -0.8223 -0.3548
vn -0.8210 -0.0763 -0.5658
vn 0.7888 0.0398 -0.6134
vn -0.8400 0.5077 0.1914
vn 0.7696 0.6222 0.1435
vn -0.8210 -0.0762 -0.5658
vn -0.0720 0.7897 -0.6093
vn -0.0778 0.7892 -0.6091
vn 0.7696 0.6222 0.1434
vn 0.7888 0.0398 -0.6133
vn 0.5042 0.1935 0.8416
vn -0.5074 -0.4828 -0.7137
vn -0.9989 -0.0380 0.0279
vn 0.4996 -0.4452 -0.7431
vn 0.4987 -0.4456 -0.7435
vn 0.9989 0.0397 -0.0252
vn 0.5056 0.4833 0.7147
vn 0.5074 0.4828 0.7137
vn -0.4987 0.4456 0.7435
vn -0.0789 0.8554 -0.5119
vn -0.0771 0.9385 -0.3366
vn -0.9315 0.3347 -0.1427
vn -0.9266 0.3161 -0.2039
vn -0.7996 -0.5757 0.1709
vn -0.0774 0.8976 -0.4339
vn -0.8415 0.3647 -0.3985
vn -0.7739 -0.5577 -0.3001
vn 0.0852 -0.9602 -0.2660
vn 0.0769 -0.9469 0.3122
vn -0.8014 -0.5156 0.3032
vn 0.0744 -0.8487 0.5236
vn 0.7558 0.4795 -0.4459
vn -0.0638 0.5098 -0.8579
vn -0.8415 0.3647 -0.3987
vn -0.5987 -0.1181 -0.7922
vn -0.0252 -0.0959 -0.9951
vn 0.5616 -0.0707 -0.8244
vn 0.1240 -0.6885 -0.7146
vn 0.0851 -0.9602 -0.2659
vn -0.7739 -0.5577 -0.3002
vn 0.7994 -0.4624 -0.3837
vn 0.8644 0.4649 -0.1914
vn 0.7994 -0.4624 -0.3836
vn 0.8821 -0.4546 0.1236
vn 0.8822 -0.3943 0.2573
vn 0.8573 0.4477 -0.2543
vn 0.1128 0.0480 0.9925
vn 0.0462 -0.0074 0.9989
vn -0.6711 -0.5766 0.4660
vn -0.5838 -0.5119 0.6302
vn 0.6780 0.5382 0.5007
vn 0.7112 0.5698 0.4117
vn 0.6711 0.5766 -0.4660
vn 0.5839 0.5120 -0.6301
vn -0.0461 0.0074 -0.9989
vn -0.1128 -0.0481 -0.9925
vn -0.7113 -0.5699 -0.4115
vn -0.6780 -0.5383 -0.5006
vn -0.6710 -0.5766 0.4661
vn -0.5838 -0.5118 0.6303
vn -0.9985 0.0499 0.0215
vn 0.1762 -0.7942 0.5815
vn -0.3715 0.0945 0.9236
vn 0.0351 -0.3461 0.9375
vn -0.4480 -0.8347 -0.3203
vn -0.0192 -0.9977 0.0643
vn -0.8550 -0.3969 -0.3337
vn -0.8027 0.2563 0.5385
vn -0.0348 0.3462 -0.9375
vn -0.8550 -0.3971 -0.3336
vn -0.1761 0.7942 -0.5816
vn -0.3716 0.0944 0.9236
vn 0.4480 0.8347 0.3202
vn 0.0192 0.9977 -0.0644
vn -0.0349 0.3461 -0.9376
vn 0.8027 -0.2564 -0.5385
vn 0.8550 0.3970 0.3338
vn 0.4479 0.8347 0.3204
vn 0.9985 -0.0498 -0.0214
vn 0.3716 -0.0946 -0.9236
vn 0.0349 -0.3462 0.9375
vn 0.8550 0.3971 0.3336
vn 0.1760 -0.7942 0.5816
vn 0.9985 -0.0498 -0.0216
vn 0.3716 -0.0944 -0.9236
vn -0.4481 -0.8347 -0.3201
vn 0.8027 -0.2562 -0.5385
vn -0.0193 -0.9977 0.0644
vn 0.9985 -0.0497 -0.0215
vn 0.2043 -0.1328 0.9699
vn 0.1678 -0.1591 0.9729
vn -0.6267 -0.5841 0.5158
vn -0.5934 -0.5745 0.5637
vn 0.7918 0.4296 0.4341
vn 0.7953 0.4357 0.4216
vn 0.6267 0.5842 -0.5157
vn 0.5935 0.5746 -0.5636
vn -0.1678 0.1592 -0.9729
vn -0.2043 0.1328 -0.9699
vn -0.7953 -0.4357 -0.4215
vn -0.7918 -0.4297 -0.4341
vn -0.6267 -0.5842 0.5158
vn 0.8012 0.5377 0.2624
vn 0.0297 -0.2930 0.9557
vn 0.0200 -0.7871 0.6165
vn 0.9474 0.2548 -0.1939
vn -0.7954 0.3547 0.4914
vn -0.9991 0.0070 0.0407
vn 0.0202 -0.7871 0.6165
vn -0.9991 0.0070 0.0409
vn -0.2340 0.9709 0.0506
vn -0.3235 0.7629 -0.5597
vn 0.9473 0.2550 -0.1939
vn -0.3898 -0.5680 -0.7248
vn 0.3816 -0.5478 -0.7445
vn 0.3824 -0.5476 -0.7442
vn -0.3918 -0.5676 -0.7241
vn 0.9251 -0.2019 -0.3216
vn 0.9238 -0.2038 -0.3240
vn 0.9247 0.2561 0.2818
vn 0.9261 0.2540 0.2789
vn 0.3899 0.5681 0.7248
vn 0.3919 0.5676 0.7240
vn -0.3817 0.5478 0.7445
vn -0.3824 0.5476 0.7442
vn -0.9239 0.2038 0.3240
vn -0.9251 0.2019 0.3216
vn -0.9261 -0.2540 -0.2789
vn -0.9247 -0.2561 -0.2817
vn -0.3920 -0.5676 -0.7240
vn -0.3900 -0.5680 -0.7248
vn -0.9858 0.1047 0.1315
vn -0.9972 0.0594 0.0458
vn 0.0632 -0.7097 0.7017
vn 0.0479 -0.6390 0.7677
vn 0.9798 0.1311 0.1511
vn 0.9944 0.0653 0.0827
vn -0.0636 0.8233 -0.5640
vn -0.0515 0.8737 -0.4837
vn 0.8256 0.4174 0.3797
vn 0.0240 0.9927 -0.1181
vn 0.4183 0.8544 0.3083
vn 0.8256 0.4175 0.3795
vn -0.0396 -0.2947 0.9548
vn -0.4467 0.1445 0.8829
vn 0.4184 0.8544 0.3081
vn 0.0242 0.9927 -0.1181
vn -0.8443 0.2805 0.4566
vn -0.9858 0.1045 0.1315
vn -0.0513 0.8737 -0.4837
vn -0.9972 0.0592 0.0460
vn -0.0634 0.8233 -0.5640
vn -0.8442 0.2807 0.4566
vn -0.0395 -0.2947 0.9548
vn -0.4466 0.1447 0.8829
vt 0.731732 0.345146
vt 0.731269 0.348340
vt 0.720624 0.347004
vt 0.721216 0.343953
vt 0.709695 0.345366
vt 0.718616 0.364064
vt 0.707483 0.362331
vt 0.707546 0.365403
vt 0.696221 0.363724
vt 0.695973 0.360477
vt 0.696916 0.370171
vt 0.686121 0.369981
vt 0.684405 0.362929
vt 0.697870 0.377033
vt 0.688428 0.377056
vt 0.675765 0.372746
vt 0.690294 0.384277
vt 0.683766 0.386311
vt 0.679987 0.379720
vt 0.698221 0.384296
vt 0.707752 0.378290
vt 0.707306 0.385437
vt 0.717965 0.379913
vt 0.717221 0.386983
vt 0.728441 0.381478
vt 0.727660 0.388526
vt 0.739097 0.382818
vt 0.738401 0.389872
vt 0.749862 0.383875
vt 0.749305 0.390946
vt 0.760685 0.384647
vt 0.760286 0.391733
vt 0.771536 0.385143
vt 0.771298 0.392240
vt 0.782392 0.385375
vt 0.782312 0.392481
vt 0.793244 0.385369
vt 0.771752 0.378515
vt 0.782482 0.378737
vt 0.793319 0.392469
vt 0.804080 0.385102
vt 0.793205 0.378732
vt 0.804305 0.392201
vt 0.803917 0.378470
vt 0.814881 0.384591
vt 0.815246 0.391682
vt 0.825625 0.383838
vt 0.826108 0.390919
vt 0.836274 0.382852
vt 0.836820 0.389926
vt 0.846760 0.381661
vt 0.847249 0.388756
vt 0.856994 0.380431
vt 0.857165 0.387593
vt 0.866896 0.379584
vt 0.857364 0.373757
vt 0.846677 0.375072
vt 0.846642 0.368901
vt 0.835999 0.376285
vt 0.857676 0.367537
vt 0.869410 0.363150
vt 0.869056 0.366369
vt 0.857838 0.364453
vt 0.868116 0.372771
vt 0.880895 0.366067
vt 0.881518 0.362029
vt 0.894246 0.361871
vt 0.892998 0.368207
vt 0.878903 0.373035
vt 0.889135 0.376227
vt 0.884634 0.383019
vt 0.876316 0.380005
vt 0.874153 0.387141
vt 0.880586 0.389446
vt 0.866252 0.386826
vt 0.892021 0.341209
vt 0.879642 0.343996
vt 0.889363 0.335087
vt 0.878191 0.340070
vt 0.883560 0.327961
vt 0.874557 0.333662
vt 0.870092 0.327502
vt 0.877225 0.322307
vt 0.868413 0.319346
vt 0.861406 0.330337
vt 0.854405 0.324163
vt 0.852119 0.332022
vt 0.864418 0.336724
vt 0.866820 0.342813
vt 0.854072 0.338429
vt 0.855691 0.344440
vt 0.856364 0.347409
vt 0.845353 0.348661
vt 0.844879 0.345579
vt 0.834667 0.349613
vt 0.834316 0.346405
vt 0.843766 0.339434
vt 0.833556 0.340152
vt 0.832727 0.333530
vt 0.842474 0.332875
vt 0.822861 0.333952
vt 0.836676 0.325792
vt 0.817531 0.326607
vt 0.812959 0.334275
vt 0.803020 0.334490
vt 0.797948 0.326998
vt 0.813291 0.341001
vt 0.803194 0.341267
vt 0.793085 0.334600
vt 0.803366 0.347750
vt 0.793121 0.341401
vt 0.793156 0.347912
vt 0.793160 0.351397
vt 0.803443 0.351198
vt 0.813613 0.347401
vt 0.803751 0.368718
vt 0.813775 0.350793
vt 0.793187 0.368950
vt 0.793180 0.372365
vt 0.782569 0.372376
vt 0.782629 0.368962
vt 0.782902 0.351408
vt 0.772067 0.368758
vt 0.771955 0.372163
vt 0.772648 0.351220
vt 0.761495 0.368326
vt 0.761336 0.371707
vt 0.761026 0.378035
vt 0.750309 0.377285
vt 0.750705 0.370989
vt 0.750904 0.367650
vt 0.740047 0.370017
vt 0.739607 0.376255
vt 0.740252 0.366753
vt 0.728932 0.374925
vt 0.729339 0.368732
vt 0.752080 0.350217
vt 0.741723 0.349420
vt 0.729506 0.365546
vt 0.762382 0.350827
vt 0.762581 0.347380
vt 0.752361 0.346829
vt 0.742090 0.346109
vt 0.752878 0.340401
vt 0.762939 0.340899
vt 0.743544 0.333067
vt 0.753407 0.333658
vt 0.742804 0.339753
vt 0.758773 0.326369
vt 0.733756 0.332290
vt 0.739476 0.325226
vt 0.732701 0.338906
vt 0.724029 0.331378
vt 0.714518 0.330041
vt 0.720992 0.323477
vt 0.722539 0.337862
vt 0.710469 0.342403
vt 0.712311 0.336432
vt 0.699419 0.340326
vt 0.702036 0.334384
vt 0.705251 0.328217
vt 0.696793 0.324827
vt 0.704852 0.320211
vt 0.690074 0.319355
vt 0.694411 0.311883
vt 0.692071 0.330821
vt 0.683375 0.324683
vt 0.677244 0.331576
vt 0.688178 0.337063
vt 0.674325 0.337602
vt 0.671235 0.358169
vt 0.686576 0.340920
vt 0.672225 0.364566
vt 0.683940 0.358858
vt 0.698365 0.343399
vt 0.763297 0.334123
vt 0.778316 0.326980
vt 0.773212 0.334434
vt 0.772996 0.341229
vt 0.783056 0.341397
vt 0.783147 0.334600
vt 0.782964 0.347916
vt 0.772776 0.347739
vt 0.718535 0.367169
vt 0.718281 0.373334
vt 0.707632 0.371615
vt 0.803789 0.372117
vt 0.814412 0.371650
vt 0.814324 0.368286
vt 0.824978 0.367702
vt 0.824173 0.350366
vt 0.823920 0.347051
vt 0.823408 0.340663
vt 0.835756 0.366892
vt 0.825071 0.370964
vt 0.814621 0.377973
vt 0.825313 0.377240
vt 0.835803 0.370086
vt 0.846683 0.365795
vt 0.867780 0.345967
vt 0.621726 0.322656
vt 0.599416 0.354099
vt 0.599149 0.330273
vt 0.595412 0.342229
vt 0.622158 0.361207
vt 0.609632 0.361348
vt 0.635946 0.341774
vt 0.632210 0.353730
vt 0.631942 0.329905
vt 0.609200 0.322796
vt 0.642881 0.376189
vt 0.655867 0.371952
vt 0.650913 0.378787
vt 0.654501 0.376174
vt 0.658735 0.379242
vt 0.650896 0.365129
vt 0.654490 0.367733
vt 0.661096 0.371945
vt 0.658717 0.364654
vt 0.667409 0.381472
vt 0.669432 0.375220
vt 0.669424 0.368650
vt 0.652506 0.360154
vt 0.663517 0.357093
vt 0.667386 0.362403
vt 0.658196 0.353238
vt 0.651945 0.351216
vt 0.644836 0.360164
vt 0.645374 0.351224
vt 0.639128 0.353262
vt 0.638637 0.364680
vt 0.633816 0.357131
vt 0.642870 0.367747
vt 0.641505 0.371970
vt 0.636275 0.371977
vt 0.629962 0.362450
vt 0.627939 0.368703
vt 0.627948 0.375272
vt 0.638655 0.379267
vt 0.629986 0.381519
vt 0.633854 0.386828
vt 0.644866 0.383767
vt 0.639176 0.390683
vt 0.645426 0.392706
vt 0.652535 0.383757
vt 0.651997 0.392697
vt 0.658243 0.390660
vt 0.663554 0.386791
vt 0.646475 0.378793
vt 0.646458 0.365134
vt 0.661119 0.261366
vt 0.661252 0.264154
vt 0.650858 0.264661
vt 0.656425 0.261692
vt 0.647307 0.259260
vt 0.647222 0.254887
vt 0.650565 0.249231
vt 0.656241 0.252103
vt 0.660978 0.249394
vt 0.660940 0.252185
vt 0.663521 0.249405
vt 0.663498 0.252198
vt 0.666053 0.252200
vt 0.666058 0.249407
vt 0.668588 0.249399
vt 0.671159 0.252170
vt 0.668605 0.252192
vt 0.671115 0.249378
vt 0.673646 0.249339
vt 0.673722 0.252130
vt 0.676180 0.249274
vt 0.676293 0.252061
vt 0.686620 0.248780
vt 0.681035 0.251839
vt 0.690150 0.254321
vt 0.690216 0.258697
vt 0.681178 0.261426
vt 0.686845 0.264220
vt 0.676394 0.264035
vt 0.676452 0.261246
vt 0.673859 0.263972
vt 0.673900 0.261179
vt 0.671348 0.261138
vt 0.671333 0.263931
vt 0.668798 0.261131
vt 0.668814 0.263924
vt 0.666245 0.261165
vt 0.666297 0.263958
vt 0.663777 0.264035
vt 0.663684 0.261244
vt 0.314446 0.033984
vt 0.318718 0.033975
vt 0.318906 0.038640
vt 0.314266 0.038650
vt 0.323529 0.038272
vt 0.322977 0.033636
vt 0.328111 0.037547
vt 0.325730 0.025681
vt 0.327194 0.032967
vt 0.322095 0.026258
vt 0.318340 0.026551
vt 0.321160 0.024867
vt 0.314821 0.026559
vt 0.311994 0.024888
vt 0.322831 0.021958
vt 0.310309 0.021986
vt 0.322824 0.018602
vt 0.310301 0.018631
vt 0.321139 0.015701
vt 0.311973 0.015721
vt 0.318230 0.014029
vt 0.314875 0.014037
vt 0.310187 0.033657
vt 0.311081 0.026279
vt 0.305975 0.032987
vt 0.307473 0.025701
vt 0.300461 0.036458
vt 0.301854 0.031967
vt 0.305025 0.037569
vt 0.309631 0.038296
vt 0.295929 0.034893
vt 0.297913 0.030602
vt 0.291531 0.032496
vt 0.300473 0.023576
vt 0.294305 0.028909
vt 0.296960 0.022141
vt 0.303939 0.024807
vt 0.329300 0.024818
vt 0.331342 0.031969
vt 0.332778 0.023660
vt 0.335381 0.030642
vt 0.336164 0.022189
vt 0.339223 0.029019
vt 0.339570 0.020513
vt 0.342702 0.027084
vt 0.341480 0.033184
vt 0.345712 0.030484
vt 0.337065 0.035022
vt 0.332629 0.036464
vt 0.362681 0.048733
vt 0.362659 0.053953
vt 0.304155 0.053698
vt 0.304178 0.048479
vt 0.362636 0.059171
vt 0.304133 0.058920
vt 0.304112 0.064142
vt 0.362617 0.064390
vt 0.304091 0.069364
vt 0.362595 0.069610
vt 0.304070 0.074585
vt 0.362574 0.074829
vt 0.304047 0.079806
vt 0.362552 0.080049
vt 0.367131 0.067014
vt 0.371660 0.064417
vt 0.371675 0.059197
vt 0.367163 0.056574
vt 0.977549 0.016240
vt 0.972900 0.015280
vt 0.973029 0.005486
vt 0.977698 0.004883
vt 0.970559 0.006110
vt 0.968042 0.010319
vt 0.968733 0.007879
vt 0.970448 0.014592
vt 0.968669 0.012776
vt 0.987375 0.005011
vt 0.992027 0.005736
vt 0.991898 0.015530
vt 0.987225 0.016369
vt 0.994367 0.014907
vt 0.996884 0.010699
vt 0.994479 0.006424
vt 0.996258 0.008241
vt 0.996193 0.013138
vt 0.727589 0.134064
vt 0.732692 0.133470
vt 0.733953 0.138845
vt 0.729176 0.140663
vt 0.735670 0.137593
vt 0.734766 0.133794
vt 0.736006 0.135501
vt 0.732534 0.132107
vt 0.734839 0.133220
vt 0.734681 0.131857
vt 0.732527 0.126586
vt 0.727430 0.132700
vt 0.734478 0.131316
vt 0.734486 0.127411
vt 0.727461 0.125914
vt 0.735293 0.129371
vt 0.736963 0.132974
vt 0.736804 0.131611
vt 0.738938 0.131362
vt 0.739097 0.132725
vt 0.741236 0.132476
vt 0.741077 0.131113
vt 0.746223 0.130515
vt 0.746382 0.131878
vt 0.241749 0.090869
vt 0.246038 0.088457
vt 0.245976 0.098336
vt 0.241718 0.095808
vt 0.254475 0.099439
vt 0.254552 0.087204
vt 0.267511 0.099519
vt 0.267589 0.087284
vt 0.276023 0.098523
vt 0.276086 0.088645
vt 0.280344 0.091111
vt 0.280312 0.096050
vt 0.307106 0.117504
vt 0.300955 0.116474
vt 0.301064 0.106639
vt 0.307240 0.106047
vt 0.296760 0.109088
vt 0.296741 0.114005
vt 0.314555 0.117592
vt 0.314689 0.106135
vt 0.320728 0.116707
vt 0.320850 0.106873
vt 0.324999 0.114338
vt 0.325095 0.109422
vt 0.978981 0.113803
vt 0.976888 0.106611
vt 0.981531 0.109160
vt 0.979738 0.106925
vt 0.974339 0.111253
vt 0.974652 0.108404
vt 0.976132 0.113490
vt 0.981217 0.112010
vt 0.981232 0.116612
vt 0.976744 0.115594
vt 0.976755 0.120196
vt 0.974506 0.117385
vt 0.978994 0.118405
vt 0.974516 0.121988
vt 0.972267 0.119176
vt 0.983470 0.114818
vt 0.980919 0.119462
vt 0.985563 0.122014
vt 0.982713 0.121700
vt 0.988114 0.117369
vt 0.987800 0.120220
vt 0.986320 0.115132
vt 0.983452 0.110216
vt 0.985707 0.113022
vt 0.985686 0.108420
vt 0.987942 0.111226
vt 0.987919 0.106623
vt 0.990176 0.109428
vt 0.990152 0.104826
vt 0.992409 0.107631
vt 0.269307 0.058624
vt 0.262792 0.058519
vt 0.262993 0.046340
vt 0.269500 0.046445
vt 0.252587 0.047151
vt 0.252420 0.056983
vt 0.250105 0.047767
vt 0.247562 0.051983
vt 0.248266 0.049536
vt 0.249960 0.056282
vt 0.248182 0.054452
vt 0.273791 0.046512
vt 0.273608 0.058691
vt 0.280192 0.046605
vt 0.280021 0.058784
vt 0.290435 0.057566
vt 0.290567 0.047733
vt 0.293028 0.048424
vt 0.294749 0.055165
vt 0.292916 0.056940
vt 0.294813 0.050248
vt 0.295442 0.052715
vt 0.758449 0.139540
vt 0.758291 0.138177
vt 0.760437 0.137927
vt 0.760596 0.139290
vt 0.762720 0.139043
vt 0.762561 0.137680
vt 0.764695 0.137432
vt 0.764854 0.138795
vt 0.766993 0.138546
vt 0.766834 0.137183
vt 0.772139 0.137948
vt 0.771980 0.136585
vt 0.753346 0.140134
vt 0.753187 0.138771
vt 0.753218 0.131984
vt 0.758284 0.132656
vt 0.760235 0.137386
vt 0.760243 0.133481
vt 0.761051 0.135441
vt 0.759710 0.144915
vt 0.754933 0.146733
vt 0.760523 0.139864
vt 0.761427 0.143663
vt 0.761764 0.141571
vt 0.313182 0.088103
vt 0.313145 0.090890
vt 0.308219 0.090914
vt 0.308225 0.088127
vt 0.303319 0.090871
vt 0.303289 0.088084
vt 0.298474 0.091027
vt 0.298353 0.088241
vt 0.292267 0.091351
vt 0.289768 0.088686
vt 0.290388 0.101662
vt 0.292661 0.098802
vt 0.298938 0.101537
vt 0.298922 0.098748
vt 0.303812 0.098737
vt 0.308729 0.098670
vt 0.308752 0.101458
vt 0.303834 0.101526
vt 0.313676 0.098624
vt 0.313687 0.101412
vt 0.322272 0.101332
vt 0.319836 0.098608
vt 0.319366 0.091143
vt 0.321699 0.088333
vt 0.869212 0.072700
vt 0.874701 0.072623
vt 0.874805 0.080042
vt 0.869314 0.080119
vt 0.880260 0.079966
vt 0.880155 0.072546
vt 0.890567 0.072400
vt 0.890672 0.079820
vt 0.858800 0.072843
vt 0.858901 0.080263
vt 0.869153 0.063851
vt 0.858742 0.063974
vt 0.853624 0.064014
vt 0.853681 0.072901
vt 0.848563 0.072908
vt 0.848507 0.064040
vt 0.838094 0.064051
vt 0.838150 0.072900
vt 0.362603 0.087195
vt 0.362493 0.090497
vt 0.339917 0.089752
vt 0.340026 0.086450
vt 0.339807 0.093054
vt 0.362384 0.093800
vt 0.339698 0.096356
vt 0.362275 0.097103
vt 0.339589 0.099657
vt 0.362165 0.100405
vt 0.339479 0.102959
vt 0.362056 0.103707
vt 0.339370 0.106261
vt 0.361946 0.107009
vt 0.391046 0.297441
vt 0.407170 0.297143
vt 0.406887 0.303165
vt 0.390167 0.302507
vt 0.406277 0.309247
vt 0.450238 0.296651
vt 0.450619 0.299743
vt 0.451394 0.302921
vt 0.452107 0.306147
vt 0.406172 0.314941
vt 0.388337 0.307967
vt 0.387243 0.313501
vt 0.450452 0.293232
vt 0.451704 0.295927
vt 0.453508 0.298481
vt 0.454387 0.296385
vt 0.453532 0.294890
vt 0.452675 0.293407
vt 0.455348 0.293837
vt 0.456766 0.293006
vt 0.456633 0.296718
vt 0.453467 0.291292
vt 0.406670 0.291125
vt 0.451130 0.290062
vt 0.405845 0.285060
vt 0.451738 0.286813
vt 0.405548 0.279377
vt 0.387966 0.287021
vt 0.386672 0.281529
vt 0.389988 0.292410
vt 0.696443 0.059806
vt 0.718943 0.059806
vt 0.718943 0.061590
vt 0.696443 0.061590
vt 0.696443 0.058021
vt 0.718943 0.058021
vt 0.696443 0.056237
vt 0.718943 0.056237
vt 0.696443 0.054452
vt 0.718943 0.054452
vt 0.696443 0.052667
vt 0.718943 0.052667
vt 0.718943 0.050883
vt 0.696443 0.050883
vt 0.832845 0.041277
vt 0.826658 0.041348
vt 0.826591 0.038567
vt 0.832862 0.038519
vt 0.826687 0.043647
vt 0.823921 0.043691
vt 0.823875 0.041346
vt 0.826670 0.046414
vt 0.831213 0.043620
vt 0.831219 0.046398
vt 0.833493 0.045208
vt 0.835153 0.042785
vt 0.520637 0.240165
vt 0.520917 0.248652
vt 0.476861 0.250099
vt 0.476583 0.241614
vt 0.476917 0.251799
vt 0.520971 0.250355
vt 0.477055 0.256008
vt 0.521110 0.254568
vt 0.477110 0.257708
vt 0.521165 0.256271
vt 0.477386 0.266193
vt 0.521441 0.264758
vt 0.477441 0.267894
vt 0.521496 0.266460
vt 0.477578 0.272104
vt 0.521633 0.270671
vt 0.477633 0.273805
vt 0.521688 0.272373
s 1
usemtl mat_1_013
f 2/1/1 4/2/2 1/3/3
f 1/3/3 3/4/4 2/1/1
f 3/4/4 1/3/3 5/5/5
f 6/6/6 1/3/3 4/2/2
f 7/7/7 5/5/5 1/3/3
f 1/3/3 6/6/6 7/7/7
f 9/8/8 7/7/7 6/6/6
f 10/9/9 8/10/10 7/7/7
f 5/5/5 7/7/7 8/10/10
f 7/7/7 9/8/8 10/9/9
f 12/11/11 10/9/9 9/8/8
f 13/12/12 11/13/13 10/9/9
f 8/10/10 10/9/9 11/13/13
f 10/9/9 12/11/11 13/12/12
f 13/12/12 12/11/11 14/14/14
f 14/14/14 16/15/15 13/12/12
f 15/16/16 13/12/12 16/15/15
f 11/13/13 13/12/12 15/16/16
f 17/17/17 16/15/15 14/14/14
f 16/15/15 17/17/17 19/18/18
f 16/15/15 18/19/19 15/16/16
f 19/18/18 18/19/19 16/15/15
f 14/14/14 20/20/20 17/17/17
f 21/21/21 22/22/22 20/20/20
f 20/20/20 14/14/14 21/21/21
f 22/22/22 21/21/21 23/23/23
f 23/23/23 24/24/24 22/22/22
f 24/24/24 23/23/23 25/25/25
f 25/25/25 26/26/26 24/24/24
f 26/26/26 25/25/25 27/27/27
f 27/27/27 28/28/28 26/26/26
f 28/28/28 27/27/27 29/29/29
f 29/29/29 30/30/30 28/28/28
f 30/30/30 29/29/29 31/31/31
f 31/31/31 32/32/32 30/30/30
f 32/32/32 31/31/31 33/33/33
f 33/33/33 34/34/34 32/32/32
f 36/35/35 35/36/36 34/34/34
f 34/34/34 33/33/33 36/35/35
f 35/36/36 36/35/35 39/37/37
f 38/38/38 37/39/39 36/35/35
f 39/37/37 36/35/35 37/39/39
f 36/35/35 33/33/33 38/38/38
f 39/37/37 40/40/40 35/36/36
f 40/40/40 39/37/37 42/41/41
f 37/39/39 41/42/42 39/37/37
f 42/41/41 39/37/37 41/42/42
f 42/41/41 45/43/43 40/40/40
f 41/42/42 43/44/44 42/41/41
f 44/45/45 42/41/41 43/44/44
f 45/43/43 42/41/41 44/45/45
f 44/45/45 46/46/46 45/43/43
f 46/46/46 44/45/45 47/47/47
f 47/47/47 48/48/48 46/46/46
f 48/48/48 47/47/47 49/49/49
f 49/49/49 50/50/50 48/48/48
f 50/50/50 49/49/49 51/51/51
f 51/51/51 52/52/52 50/50/50
f 54/53/53 53/54/54 52/52/52
f 52/52/52 51/51/51 54/53/53
f 53/54/54 54/53/53 55/55/55
f 55/55/55 54/53/53 56/56/56
f 57/57/57 56/56/56 54/53/53
f 54/53/53 51/51/51 57/57/57
f 58/58/58 57/57/57 59/59/59
f 57/57/57 58/58/58 60/60/60
f 60/60/60 56/56/56 57/57/57
f 59/59/59 57/57/57 51/51/51
f 61/61/61 63/62/62 60/60/60
f 60/60/60 62/63/63 61/61/61
f 62/63/63 60/60/60 58/58/58
f 56/56/56 60/60/60 63/62/62
f 63/62/62 64/64/64 56/56/56
f 64/64/64 63/62/62 66/65/65
f 65/66/66 66/65/65 63/62/62
f 63/62/62 61/61/61 65/66/66
f 66/65/65 65/66/66 67/67/67
f 67/67/67 68/68/68 66/65/65
f 69/69/69 66/65/65 68/68/68
f 66/65/65 69/69/69 64/64/64
f 68/68/68 70/70/16 69/69/69
f 69/69/69 70/70/16 72/71/19
f 64/64/64 69/69/69 71/72/70
f 72/71/19 71/72/70 69/69/69
f 73/73/71 71/72/70 72/71/19
f 72/71/19 74/74/18 73/73/71
f 71/72/70 73/73/71 75/75/72
f 75/75/72 55/55/55 71/72/70
f 55/55/55 75/75/72 53/54/54
f 71/72/70 55/55/55 64/64/64
f 76/76/73 67/67/67 65/66/66
f 65/66/66 77/77/74 76/76/73
f 78/78/75 76/76/73 77/77/74
f 77/77/74 79/79/76 78/78/75
f 80/80/77 78/78/75 79/79/76
f 79/79/76 81/81/78 80/80/77
f 80/80/77 81/81/78 82/82/79
f 82/82/79 83/83/80 80/80/77
f 82/82/79 84/84/81 83/83/80
f 86/85/82 85/86/83 84/84/81
f 84/84/81 82/82/79 86/85/82
f 87/87/84 85/86/83 86/85/82
f 87/87/84 86/85/82 88/88/85
f 81/81/78 88/88/85 86/85/82
f 86/85/82 82/82/79 81/81/78
f 90/89/86 88/88/85 81/81/78
f 88/88/85 89/90/87 87/87/84
f 91/91/88 89/90/87 88/88/85
f 88/88/85 90/89/86 91/91/88
f 92/92/89 91/91/88 90/89/86
f 91/91/88 92/92/89 93/93/90
f 93/93/90 94/94/91 91/91/88
f 89/90/87 91/91/88 94/94/91
f 94/94/91 93/93/90 95/95/92
f 95/95/92 96/96/93 94/94/91
f 97/97/94 94/94/91 96/96/93
f 94/94/91 97/97/94 89/90/87
f 96/96/93 98/98/95 97/97/94
f 97/97/94 98/98/95 100/99/96
f 89/90/87 97/97/94 99/100/97
f 100/99/96 99/100/97 97/97/94
f 101/101/98 100/99/96 98/98/95
f 102/102/99 100/99/96 101/101/98
f 100/99/96 102/102/99 99/100/97
f 101/101/98 103/103/100 102/102/99
f 99/100/97 102/102/99 85/86/83
f 104/104/101 103/103/100 101/101/98
f 103/103/100 104/104/101 106/105/102
f 106/105/102 105/106/103 103/103/100
f 107/107/104 109/108/105 106/105/102
f 106/105/102 104/104/101 107/107/104
f 108/109/106 105/106/103 106/105/102
f 108/109/106 106/105/102 109/108/105
f 112/110/107 109/108/105 107/107/104
f 109/108/105 111/111/108 108/109/106
f 110/112/109 111/111/108 109/108/105
f 109/108/105 112/110/107 110/112/109
f 113/113/110 110/112/109 112/110/107
f 112/110/107 115/114/111 113/113/110
f 107/107/104 114/115/112 112/110/107
f 115/114/111 112/110/107 114/115/112
f 117/116/113 115/114/111 116/117/114
f 114/115/112 116/117/114 115/114/111
f 118/118/115 113/113/110 115/114/111
f 115/114/111 117/116/113 118/118/115
f 119/119/116 118/118/115 117/116/113
f 118/118/115 119/119/116 120/120/117
f 120/120/117 121/121/118 118/118/115
f 113/113/110 118/118/115 121/121/118
f 121/121/118 122/122/119 113/113/110
f 122/122/119 121/121/118 124/123/120
f 121/121/118 120/120/117 123/124/121
f 123/124/121 124/123/120 121/121/118
f 125/125/122 124/123/120 126/126/123
f 124/123/120 125/125/122 122/122/119
f 127/127/124 126/126/123 124/123/120
f 124/123/120 123/124/121 127/127/124
f 127/127/124 128/128/125 129/129/126
f 128/128/125 127/127/124 123/124/121
f 126/126/123 127/127/124 130/130/127
f 129/129/126 130/130/127 127/127/124
f 131/131/128 130/130/127 133/132/129
f 130/130/127 131/131/128 126/126/123
f 130/130/127 129/129/126 132/133/130
f 132/133/130 133/132/129 130/130/127
f 133/132/129 136/134/131 131/131/128
f 133/132/129 132/133/130 135/135/132
f 135/135/132 134/136/133 133/132/129
f 136/134/131 133/132/129 134/136/133
f 139/137/134 131/131/128 136/134/131
f 137/138/135 136/134/131 138/139/136
f 136/134/131 137/138/135 139/137/134
f 134/136/133 138/139/136 136/134/131
f 131/131/128 139/137/134 140/140/137
f 141/141/138 140/140/137 139/137/134
f 139/137/134 142/142/139 141/141/138
f 142/142/139 139/137/134 137/138/135
f 137/138/135 143/143/140 142/142/139
f 145/144/141 142/142/139 143/143/140
f 142/142/139 145/144/141 144/145/142
f 144/145/142 141/141/138 142/142/139
f 148/146/143 146/147/144 145/144/141
f 144/145/142 145/144/141 146/147/144
f 145/144/141 147/148/145 148/146/143
f 143/143/140 147/148/145 145/144/141
f 150/149/146 146/147/144 148/146/143
f 151/150/147 148/146/143 147/148/145
f 148/146/143 149/151/148 150/149/146
f 151/150/147 149/151/148 148/146/143
f 147/148/145 152/152/149 151/150/147
f 153/153/150 151/150/147 152/152/149
f 149/151/148 151/150/147 153/153/150
f 154/154/151 155/155/152 153/153/150
f 154/154/151 153/153/150 156/156/153
f 153/153/150 155/155/152 149/151/148
f 152/152/149 156/156/153 153/153/150
f 157/157/154 158/158/155 156/156/153
f 156/156/153 3/4/4 157/157/154
f 3/4/4 156/156/153 152/152/149
f 156/156/153 158/158/155 154/154/151
f 158/158/155 157/157/154 159/159/156
f 159/159/156 160/160/157 158/158/155
f 158/158/155 160/160/157 161/161/158
f 161/161/158 154/154/151 158/158/155
f 162/162/159 161/161/158 160/160/157
f 162/162/159 163/163/160 161/161/158
f 155/155/152 154/154/151 161/161/158
f 161/161/158 163/163/160 155/155/152
f 165/164/80 164/165/161 163/163/160
f 163/163/160 162/162/159 165/164/80
f 166/166/162 167/167/77 165/164/80
f 165/164/80 162/162/159 166/166/162
f 168/168/163 167/167/77 166/166/162
f 166/166/162 169/169/164 168/168/163
f 170/170/165 168/168/163 169/169/164
f 172/171/166 170/170/165 171/172/167
f 169/169/164 171/172/167 170/170/165
f 174/173/168 172/171/166 173/174/169
f 171/172/167 173/174/169 172/171/166
f 173/174/169 11/13/13 174/173/168
f 15/16/16 174/173/168 11/13/13
f 11/13/13 173/174/169 8/10/10
f 175/175/170 8/10/10 173/174/169
f 173/174/169 171/172/167 175/175/170
f 157/157/154 5/5/5 175/175/170
f 175/175/170 159/159/156 157/157/154
f 159/159/156 175/175/170 171/172/167
f 8/10/10 175/175/170 5/5/5
f 171/172/167 169/169/164 159/159/156
f 160/160/157 159/159/156 169/169/164
f 169/169/164 166/166/162 160/160/157
f 160/160/157 166/166/162 162/162/159
f 5/5/5 157/157/154 3/4/4
f 2/1/1 152/152/149 147/148/145
f 152/152/149 2/1/1 3/4/4
f 146/147/144 150/149/146 177/176/171
f 177/176/171 150/149/146 176/177/172
f 177/176/171 179/178/173 178/179/174
f 178/179/174 144/145/142 177/176/171
f 176/177/172 179/178/173 177/176/171
f 146/147/144 177/176/171 144/145/142
f 180/180/175 178/179/174 179/178/173
f 179/178/173 176/177/172 181/181/176
f 179/178/173 181/181/176 180/180/175
f 181/181/176 108/109/106 111/111/108
f 111/111/108 180/180/175 181/181/176
f 105/106/103 108/109/106 181/181/176
f 181/181/176 176/177/172 105/106/103
f 180/180/175 182/182/177 183/183/178
f 182/182/177 180/180/175 111/111/108
f 183/183/178 178/179/174 180/180/175
f 125/125/122 183/183/178 182/182/177
f 183/183/178 125/125/122 140/140/137
f 178/179/174 183/183/178 141/141/138
f 140/140/137 141/141/138 183/183/178
f 182/182/177 122/122/119 125/125/122
f 122/122/119 182/182/177 110/112/109
f 111/111/108 110/112/109 182/182/177
f 141/141/138 144/145/142 178/179/174
f 147/148/145 143/143/140 2/1/1
f 143/143/140 137/138/135 4/2/2
f 4/2/2 2/1/1 143/143/140
f 126/126/123 140/140/137 125/125/122
f 140/140/137 126/126/123 131/131/128
f 138/139/136 4/2/2 137/138/135
f 184/184/179 6/6/6 138/139/136
f 4/2/2 138/139/136 6/6/6
f 138/139/136 134/136/133 184/184/179
f 185/185/180 184/184/179 134/136/133
f 186/186/181 9/8/8 184/184/179
f 6/6/6 184/184/179 9/8/8
f 184/184/179 185/185/180 186/186/181
f 186/186/181 185/185/180 23/23/23
f 12/11/11 186/186/181 21/21/21
f 9/8/8 186/186/181 12/11/11
f 23/23/23 21/21/21 186/186/181
f 185/185/180 135/135/132 25/25/25
f 25/25/25 23/23/23 185/185/180
f 134/136/133 135/135/132 185/185/180
f 135/135/132 132/133/130 27/27/27
f 27/27/27 25/25/25 135/135/132
f 132/133/130 129/129/126 29/29/29
f 29/29/29 27/27/27 132/133/130
f 129/129/126 128/128/125 31/31/31
f 31/31/31 29/29/29 129/129/126
f 33/33/33 31/31/31 128/128/125
f 128/128/125 38/38/38 33/33/33
f 123/124/121 38/38/38 128/128/125
f 38/38/38 123/124/121 120/120/117
f 110/112/109 113/113/110 122/122/119
f 120/120/117 37/39/39 38/38/38
f 37/39/39 120/120/117 119/119/116
f 119/119/116 41/42/42 37/39/39
f 41/42/42 119/119/116 187/187/182
f 117/116/113 187/187/182 119/119/116
f 43/44/44 187/187/182 188/188/183
f 189/189/184 188/188/183 187/187/182
f 187/187/182 117/116/113 189/189/184
f 187/187/182 43/44/44 41/42/42
f 188/188/183 189/189/184 190/190/185
f 191/191/186 190/190/185 189/189/184
f 189/189/184 116/117/114 191/191/186
f 116/117/114 189/189/184 117/116/113
f 96/96/93 95/95/92 191/191/186
f 190/190/185 191/191/186 95/95/92
f 191/191/186 192/192/187 96/96/93
f 192/192/187 191/191/186 116/117/114
f 116/117/114 114/115/112 192/192/187
f 193/193/188 192/192/187 114/115/112
f 192/192/187 193/193/188 98/98/95
f 98/98/95 96/96/93 192/192/187
f 114/115/112 107/107/104 193/193/188
f 98/98/95 193/193/188 101/101/98
f 104/104/101 101/101/98 193/193/188
f 193/193/188 107/107/104 104/104/101
f 95/95/92 194/194/189 190/190/185
f 195/195/190 190/190/185 194/194/189
f 190/190/185 195/195/190 188/188/183
f 198/196/191 188/188/183 195/195/190
f 197/197/192 195/195/190 196/198/193
f 194/194/189 196/198/193 195/195/190
f 195/195/190 197/197/192 198/196/191
f 188/188/183 198/196/191 43/44/44
f 198/196/191 197/197/192 47/47/47
f 47/47/47 44/45/45 198/196/191
f 43/44/44 198/196/191 44/45/45
f 197/197/192 59/59/59 49/49/49
f 196/198/193 59/59/59 197/197/192
f 49/49/49 47/47/47 197/197/192
f 199/199/194 58/58/58 196/198/193
f 196/198/193 194/194/189 199/199/194
f 59/59/59 196/198/193 58/58/58
f 93/93/90 199/199/194 194/194/189
f 199/199/194 93/93/90 92/92/89
f 58/58/58 199/199/194 62/63/63
f 92/92/89 62/63/63 199/199/194
f 194/194/189 95/95/92 93/93/90
f 99/100/97 87/87/84 89/90/87
f 85/86/83 87/87/84 99/100/97
f 62/63/63 92/92/89 200/200/195
f 90/89/86 200/200/195 92/92/89
f 61/61/61 200/200/195 77/77/74
f 79/79/76 77/77/74 200/200/195
f 200/200/195 90/89/86 79/79/76
f 200/200/195 61/61/61 62/63/63
f 81/81/78 79/79/76 90/89/86
f 77/77/74 65/66/66 61/61/61
f 56/56/56 64/64/64 55/55/55
f 51/51/51 49/49/49 59/59/59
f 21/21/21 14/14/14 12/11/11
f 204/201/196 201/202/197 202/203/198
f 201/202/197 203/204/199 202/203/198
f 204/201/196 205/205/200 201/202/197
f 205/205/200 206/206/201 201/202/197
f 204/201/196 207/207/202 205/205/200
f 207/207/202 208/208/203 205/205/200
f 204/201/196 209/209/204 207/207/202
f 204/201/196 202/203/198 210/210/205
f 214/211/206 211/212/207 212/213/208
f 211/212/207 213/214/209 212/213/208
f 217/215/210 213/214/209 211/212/207
f 214/211/206 215/216/211 211/212/207
f 215/216/211 216/217/212 211/212/207
f 218/218/213 211/212/207 216/217/212
f 211/212/207 218/218/213 217/215/210
f 216/217/212 222/219/214 218/218/213
f 219/220/215 217/215/210 218/218/213
f 218/218/213 220/221/216 219/220/215
f 218/218/213 221/222/217 220/221/216
f 221/222/217 218/218/213 222/219/214
f 222/219/214 216/217/212 215/216/211
f 215/216/211 223/223/218 222/219/214
f 225/224/219 222/219/214 223/223/218
f 222/219/214 224/225/220 221/222/217
f 222/219/214 225/224/219 224/225/220
f 223/223/218 226/226/221 225/224/219
f 223/223/218 227/227/222 226/226/221
f 227/227/222 223/223/218 228/228/223
f 228/228/223 229/229/224 227/227/222
f 228/228/223 230/230/225 229/229/224
f 232/231/226 231/232/227 230/230/225
f 230/230/225 228/228/223 232/231/226
f 232/231/226 233/233/228 234/234/229
f 233/233/228 232/231/226 228/228/223
f 234/234/229 235/235/230 232/231/226
f 236/236/231 232/231/226 235/235/230
f 232/231/226 236/236/231 231/232/227
f 235/235/230 237/237/232 236/236/231
f 235/235/230 238/238/233 237/237/232
f 238/238/233 235/235/230 239/239/234
f 239/239/234 240/240/235 238/238/233
f 239/239/234 241/241/236 240/240/235
f 241/241/236 239/239/234 242/242/237
f 242/242/237 243/243/238 241/241/236
f 242/242/237 244/244/239 243/243/238
f 244/244/239 242/242/237 245/245/240
f 245/245/240 246/246/241 244/244/239
f 245/245/240 247/247/242 246/246/241
f 247/247/242 245/245/240 217/215/210
f 217/215/210 248/248/243 247/247/242
f 217/215/210 219/220/215 248/248/243
f 213/214/209 217/215/210 245/245/240
f 212/213/208 245/245/240 242/242/237
f 245/245/240 212/213/208 213/214/209
f 249/249/244 242/242/237 239/239/234
f 242/242/237 249/249/244 212/213/208
f 239/239/234 214/211/206 249/249/244
f 214/211/206 212/213/208 249/249/244
f 214/211/206 239/239/234 235/235/230
f 235/235/230 234/234/229 214/211/206
f 214/211/206 234/234/229 233/233/228
f 214/211/206 233/233/228 215/216/211
f 233/233/228 250/250/245 215/216/211
f 228/228/223 250/250/245 233/233/228
f 223/223/218 215/216/211 250/250/245
f 250/250/245 228/228/223 223/223/218
f 252/251/246 254/252/247 251/253/248
f 251/253/248 253/254/249 252/251/246
f 251/253/248 255/255/250 253/254/249
f 253/254/249 255/255/250 256/256/251
f 256/256/251 258/257/252 257/258/253
f 256/256/251 257/258/253 253/254/249
f 257/258/253 258/257/252 259/259/254
f 259/259/254 260/260/255 257/258/253
f 260/260/255 259/259/254 261/261/256
f 261/261/256 262/262/257 260/260/255
f 263/263/258 262/262/257 261/261/256
f 261/261/256 264/264/259 263/263/258
f 263/263/258 264/264/259 265/265/260
f 266/266/261 268/267/262 265/265/260
f 265/265/260 267/268/263 266/266/261
f 265/265/260 268/267/262 263/263/258
f 266/266/261 267/268/263 269/269/264
f 271/270/265 269/269/264 270/271/266
f 269/269/264 271/270/265 266/266/261
f 270/271/266 272/272/267 271/270/265
f 274/273/268 273/274/269 272/272/267
f 272/272/267 270/271/266 274/273/268
f 273/274/269 274/273/268 275/275/270
f 275/275/270 277/276/271 276/277/272
f 276/277/272 273/274/269 275/275/270
f 278/278/273 276/277/272 277/276/271
f 276/277/272 278/278/273 279/279/274
f 279/279/274 280/280/275 276/277/272
f 280/280/275 279/279/274 281/281/276
f 281/281/276 282/282/264 280/280/275
f 283/283/277 282/282/264 281/281/276
f 281/281/276 284/284/278 283/283/277
f 285/285/279 283/283/277 284/284/278
f 284/284/278 286/286/280 285/285/279
f 287/287/259 285/285/279 286/286/280
f 286/286/280 288/288/258 287/287/259
f 287/287/259 288/288/258 289/289/281
f 289/289/281 254/252/247 252/251/246
f 289/289/281 290/290/256 287/287/259
f 252/251/246 290/290/256 289/289/281
f 292/291/282 294/292/283 291/293/284
f 291/293/284 293/294/285 292/291/282
f 295/295/286 291/293/284 294/292/283
f 294/292/283 297/296/287 295/295/286
f 296/297/288 295/295/286 297/296/287
f 299/298/289 298/299/290 297/296/287
f 297/296/287 298/299/290 296/297/288
f 297/296/287 300/300/291 299/298/289
f 300/300/291 297/296/287 294/292/283
f 294/292/283 301/301/292 300/300/291
f 301/301/292 294/292/283 292/291/282
f 303/302/293 301/301/292 302/303/294
f 292/291/282 302/303/294 301/301/292
f 303/302/293 302/303/294 304/304/295
f 305/305/296 303/302/293 304/304/295
f 305/305/296 304/304/295 306/306/297
f 307/307/298 305/305/296 306/306/297
f 307/307/298 306/306/297 308/308/299
f 309/309/300 307/307/298 308/308/299
f 309/309/300 308/308/299 310/310/301
f 309/309/300 310/310/301 311/311/302
f 310/310/301 312/312/303 311/311/302
f 313/313/304 314/314/305 302/303/294
f 302/303/294 292/291/282 313/313/304
f 316/315/306 315/316/307 314/314/305
f 314/314/305 313/313/304 316/315/306
f 318/317/308 317/318/309 316/315/306
f 315/316/307 316/315/306 317/318/309
f 319/319/310 316/315/306 313/313/304
f 316/315/306 319/319/310 318/317/308
f 313/313/304 320/320/311 319/319/310
f 320/320/311 313/313/304 292/291/282
f 292/291/282 293/294/285 320/320/311
f 317/318/309 318/317/308 321/321/312
f 321/321/312 323/322/313 317/318/309
f 323/322/313 321/321/312 322/323/314
f 317/318/309 323/322/313 324/324/315
f 324/324/315 323/322/313 325/325/316
f 322/323/314 325/325/316 323/322/313
f 325/325/316 326/326/317 324/324/315
f 324/324/315 327/327/318 317/318/309
f 317/318/309 327/327/318 315/316/307
f 298/299/290 299/298/289 328/328/319
f 328/328/319 329/329/320 298/299/290
f 329/329/320 328/328/319 330/330/321
f 330/330/321 331/331/322 329/329/320
f 331/331/322 330/330/321 332/332/323
f 332/332/323 333/333/324 331/331/322
f 333/333/324 332/332/323 334/334/325
f 334/334/325 335/335/326 333/333/324
f 336/336/327 333/333/324 335/335/326
f 335/335/326 337/337/328 336/336/327
f 333/333/324 336/336/327 338/338/329
f 338/338/329 331/331/322 333/333/324
f 331/331/322 338/338/329 339/339/330
f 339/339/330 329/329/320 331/331/322
f 329/329/320 339/339/330 296/297/288
f 296/297/288 298/299/290 329/329/320
f 341/340/331 343/341/332 340/342/333
f 340/342/333 342/343/334 341/340/331
f 340/342/333 343/341/332 344/344/335
f 344/344/335 345/345/336 340/342/333
f 346/346/337 345/345/336 344/344/335
f 344/344/335 347/347/338 346/346/337
f 348/348/339 346/346/337 347/347/338
f 347/347/338 349/349/340 348/348/339
f 350/350/341 348/348/339 349/349/340
f 349/349/340 351/351/342 350/350/341
f 352/352/334 350/350/341 351/351/342
f 351/351/342 353/353/343 352/352/334
f 344/344/335 354/354/344 347/347/338
f 344/344/335 355/355/345 354/354/344
f 344/344/335 356/356/346 355/355/345
f 344/344/335 357/357/347 356/356/346
f 359/358/348 361/359/349 358/360/350
f 358/360/350 360/361/351 359/358/348
f 361/359/349 362/362/352 358/360/350
f 361/359/349 363/363/353 362/362/352
f 363/363/353 364/364/354 362/362/352
f 361/359/349 365/365/355 363/363/353
f 365/365/355 366/366/356 363/363/353
f 359/358/348 360/361/351 367/367/357
f 367/367/357 370/368/358 368/369/359
f 368/369/359 369/370/360 367/367/357
f 367/367/357 369/370/360 359/358/348
f 370/368/358 371/371/361 368/369/359
f 370/368/358 372/372/362 371/371/361
f 370/368/358 373/373/363 372/372/362
f 373/373/363 374/374/364 372/372/362
f 372/372/362 375/375/365 371/371/361
f 377/376/366 379/377/367 376/378/368
f 376/378/368 378/379/369 377/376/366
f 380/380/370 376/378/368 379/377/367
f 381/381/371 382/382/372 380/380/370
f 379/377/367 381/381/371 380/380/370
f 384/383/373 379/377/367 377/376/366
f 383/384/374 379/377/367 384/383/373
f 384/383/373 385/385/375 383/384/374
f 388/386/376 384/383/373 386/387/377
f 377/376/366 386/387/377 384/383/373
f 387/388/378 384/383/373 388/386/376
f 388/386/376 390/389/379 387/388/378
f 386/387/377 389/390/380 388/386/376
f 390/389/379 391/391/381 387/388/378
f 392/392/382 383/384/374 385/385/375
f 385/385/375 393/393/383 392/392/382
f 392/392/382 393/393/383 394/394/384
f 394/394/384 395/395/385 392/392/382
f 396/396/386 395/395/385 394/394/384
f 394/394/384 397/397/387 396/396/386
f 397/397/387 399/398/388 398/399/389
f 398/399/389 396/396/386 397/397/387
f 401/400/390 403/401/391 400/402/392
f 400/402/392 402/403/393 401/400/390
f 404/404/394 400/402/392 403/401/391
f 403/401/391 405/405/395 404/404/394
f 406/406/396 404/404/394 405/405/395
f 405/405/395 407/407/397 406/406/396
f 408/408/398 406/406/396 407/407/397
f 407/407/397 409/409/399 408/408/398
f 408/408/398 409/409/399 410/410/400
f 410/410/400 411/411/401 408/408/398
f 413/412/402 415/413/403 412/414/404
f 412/414/404 414/415/405 413/412/402
f 416/416/406 412/414/404 415/413/403
f 415/413/403 417/417/407 416/416/406
f 418/418/408 413/412/402 414/415/405
f 414/415/405 419/419/409 418/418/408
f 420/420/410 418/418/408 419/419/409
f 419/419/409 421/421/411 420/420/410
f 422/422/412 420/420/410 421/421/411
f 421/421/411 423/423/413 422/422/412
f 427/424/414 424/425/415 425/426/416
f 424/425/415 426/427/417 425/426/416
f 427/424/414 428/428/418 424/425/415
f 428/428/418 429/429/419 424/425/415
f 427/424/414 430/430/420 428/428/418
f 427/424/414 425/426/416 431/431/421
f 432/432/422 427/424/414 431/431/421
f 433/433/423 427/424/414 432/432/422
f 434/434/424 436/435/425 433/433/423
f 433/433/423 435/436/426 434/434/424
f 432/432/422 435/436/426 433/433/423
f 436/435/425 434/434/424 437/437/427
f 437/437/427 438/438/428 436/435/425
f 431/431/421 439/439/429 432/432/422
f 439/439/429 440/440/430 432/432/422
f 439/439/429 441/441/431 440/440/430
f 441/441/431 442/442/432 440/440/430
f 439/439/429 443/443/433 441/441/431
f 443/443/433 444/444/434 441/441/431
f 439/439/429 445/445/435 443/443/433
f 439/439/429 431/431/421 446/446/436
f 446/446/436 447/447/437 439/439/429
f 447/447/437 446/446/436 448/448/438
f 448/448/438 449/449/439 447/447/437
f 449/449/439 448/448/438 450/450/440
f 450/450/440 451/451/441 449/449/439
f 451/451/441 450/450/440 452/452/442
f 452/452/442 453/453/443 451/451/441
f 455/454/444 457/455/445 454/456/446
f 454/456/446 456/457/447 455/454/444
f 458/458/448 454/456/446 457/455/445
f 457/455/445 459/459/449 458/458/448
f 459/459/449 460/460/352 458/458/448
f 459/459/449 461/461/450 460/460/352
f 461/461/450 462/462/354 460/460/352
f 459/459/449 463/463/451 461/461/450
f 463/463/451 464/464/452 461/461/450
f 455/454/444 456/457/447 465/465/453
f 465/465/453 468/466/454 455/454/444
f 465/465/453 466/467/455 467/468/456
f 467/468/456 468/466/454 465/465/453
f 469/469/457 467/468/456 466/467/455
f 466/467/455 470/470/458 469/469/457
f 470/470/458 473/471/459 469/469/457
f 473/471/459 471/472/460 469/469/457
f 471/472/460 472/473/461 469/469/457
f 473/471/459 474/474/462 471/472/460
f 474/474/462 475/475/463 471/472/460
f 477/476/464 479/477/465 476/478/466
f 476/478/466 478/479/467 477/476/464
f 480/480/468 478/479/467 476/478/466
f 476/478/466 481/481/469 480/480/468
f 480/480/468 481/481/469 482/482/470
f 482/482/470 483/483/471 480/480/468
f 484/484/472 483/483/471 482/482/470
f 482/482/470 485/485/473 484/484/472
f 487/486/474 484/484/472 485/485/473
f 485/485/473 486/487/475 487/486/474
f 479/477/465 477/476/464 488/488/476
f 488/488/476 489/489/477 479/477/465
f 479/477/465 489/489/477 490/490/478
f 490/490/478 491/491/479 479/477/465
f 492/492/480 479/477/465 491/491/479
f 491/491/479 493/493/481 492/492/480
f 493/493/481 494/494/482 492/492/480
f 488/488/476 477/476/464 495/495/483
f 495/495/483 496/496/484 488/488/476
f 495/495/483 477/476/464 497/497/485
f 497/497/485 498/498/486 495/495/483
f 497/497/485 499/499/487 498/498/486
f 501/476/488 503/477/489 500/478/490
f 500/478/490 502/479/491 501/476/488
f 504/480/492 502/479/491 500/478/490
f 500/478/490 505/481/493 504/480/492
f 504/480/492 505/481/493 506/482/494
f 506/482/494 507/483/495 504/480/492
f 508/484/496 507/483/495 506/482/494
f 506/482/494 509/485/497 508/484/496
f 509/485/497 511/487/498 510/486/499
f 510/486/499 508/484/496 509/485/497
f 503/477/489 501/476/488 512/488/500
f 512/488/500 513/489/501 503/477/489
f 503/477/489 513/489/501 514/490/502
f 514/490/502 515/491/503 503/477/489
f 516/492/504 503/477/489 515/491/503
f 515/491/503 517/493/505 516/492/504
f 517/493/505 518/494/506 516/492/504
f 512/488/500 501/476/488 519/495/507
f 519/495/507 520/496/508 512/488/500
f 519/495/507 501/476/488 521/497/509
f 521/497/509 522/498/510 519/495/507
f 521/497/509 523/499/511 522/498/510
f 525/500/512 527/501/513 524/502/514
f 524/502/514 526/503/515 525/500/512
f 526/503/515 524/502/514 528/504/516
f 528/504/516 529/505/517 526/503/515
f 529/505/517 528/504/516 530/506/518
f 530/506/518 531/507/519 529/505/517
f 531/507/519 530/506/518 532/508/520
f 532/508/520 533/509/521 531/507/519
f 534/510/522 533/509/521 532/508/520
f 532/508/520 535/511/523 534/510/522
f 536/512/524 534/510/522 535/511/523
f 535/511/523 537/513/525 536/512/524
f 536/512/524 537/513/525 538/514/526
f 538/514/526 540/515/527 539/516/528
f 539/516/528 541/517/529 538/514/526
f 538/514/526 541/517/529 536/512/524
f 539/516/528 540/515/527 542/518/530
f 542/518/530 543/519/531 539/516/528
f 544/520/532 543/519/531 542/518/530
f 542/518/530 545/521/533 544/520/532
f 544/520/532 545/521/533 546/522/534
f 546/522/534 527/501/513 525/500/512
f 525/500/512 547/523/535 546/522/534
f 546/522/534 547/523/535 544/520/532
f 549/524/536 551/525/537 548/526/538
f 548/526/538 550/527/539 549/524/536
f 552/528/540 548/526/538 551/525/537
f 551/525/537 553/529/541 552/528/540
f 552/528/540 553/529/541 554/530/542
f 554/530/542 555/531/543 552/528/540
f 556/532/544 549/524/536 550/527/539
f 550/527/539 557/533/545 556/532/544
f 558/534/541 549/524/536 556/532/544
f 556/532/544 559/535/546 558/534/541
f 560/536/547 559/535/546 556/532/544
f 556/532/544 561/537/548 560/536/547
f 561/537/548 563/538/549 562/539/550
f 562/539/550 560/536/547 561/537/548
f 564/540/540 562/539/550 563/538/549
f 563/538/549 565/541/551 564/540/540
f 567/542/334 569/543/341 566/544/552
f 566/544/552 568/545/553 567/542/334
f 570/546/554 566/544/552 569/543/341
f 569/543/341 571/547/555 570/546/554
f 572/548/556 570/546/554 571/547/555
f 571/547/555 573/549/337 572/548/556
f 574/550/557 572/548/556 573/549/337
f 573/549/337 575/551/558 574/550/557
f 576/552/559 574/550/557 575/551/558
f 575/551/558 577/553/333 576/552/559
f 578/554/553 576/552/559 577/553/333
f 577/553/333 579/555/334 578/554/553
f 581/556/560 583/557/561 580/558/562
f 580/558/562 582/559/563 581/556/560
f 582/559/563 580/558/562 586/560/564
f 580/558/562 583/557/561 584/561/565
f 584/561/565 585/562/566 580/558/562
f 580/558/562 585/562/566 587/563/567
f 587/563/567 586/560/564 580/558/562
f 586/560/564 587/563/567 588/564/568
f 588/564/568 589/565/569 586/560/564
f 590/566/570 586/560/564 589/565/569
f 589/565/569 591/567/571 590/566/570
f 586/560/564 590/566/570 582/559/563
f 592/568/572 584/561/565 583/557/561
f 594/569/573 584/561/565 592/568/572
f 593/570/574 584/561/565 594/569/573
f 594/569/573 595/571/575 593/570/574
f 594/569/573 597/572/576 595/571/575
f 596/573/577 597/572/576 594/569/573
f 592/568/572 596/573/577 594/569/573
f 596/573/577 598/574/578 597/572/576
f 598/574/578 595/571/575 597/572/576
f 600/575/579 598/574/578 596/573/577
f 599/576/580 595/571/575 598/574/578
f 598/574/578 600/575/579 599/576/580
f 596/573/577 601/577/581 600/575/579
f 601/577/581 596/573/577 592/568/572
f 595/571/575 599/576/580 593/570/574
f 583/557/561 602/578/582 592/568/572
f 603/579/583 592/568/572 602/578/582
f 602/578/582 604/580/584 603/579/583
f 605/581/579 603/579/583 604/580/584
f 604/580/584 606/582/569 605/581/579
f 606/582/569 604/580/584 607/583/585
f 607/583/585 608/584/571 606/582/569
f 609/585/586 607/583/585 604/580/584
f 581/556/560 609/585/586 602/578/582
f 604/580/584 602/578/582 609/585/586
f 602/578/582 583/557/561 581/556/560
f 611/586/587 613/587/588 610/588/589
f 610/588/589 612/589/590 611/586/587
f 613/587/588 611/586/587 614/590/591
f 614/590/591 615/591/592 613/587/588
f 615/591/592 614/590/591 616/592/593
f 616/592/593 617/593/594 615/591/592
f 617/593/594 616/592/593 618/594/595
f 618/594/595 619/595/596 617/593/594
f 620/596/597 621/597/598 619/595/596
f 619/595/596 618/594/595 620/596/597
f 622/598/599 621/597/598 620/596/597
f 620/596/597 623/599/600 622/598/599
f 627/439/601 624/441/602 625/440/603
f 624/441/602 626/442/604 625/440/603
f 627/439/601 628/443/605 624/441/602
f 628/443/605 629/444/606 624/441/602
f 627/439/601 630/445/607 628/443/605
f 627/439/601 625/440/603 634/432/608
f 631/446/609 633/447/610 627/439/601
f 627/439/601 632/431/611 631/446/609
f 632/431/611 627/439/601 634/432/608
f 634/432/608 636/436/612 635/433/613
f 635/433/613 637/424/614 634/432/608
f 634/432/608 637/424/614 632/431/611
f 637/424/614 638/426/615 632/431/611
f 637/424/614 639/425/616 638/426/615
f 637/424/614 640/428/617 639/425/616
f 637/424/614 641/430/618 640/428/617
f 640/428/617 642/429/619 639/425/616
f 639/425/616 643/427/620 638/426/615
f 635/433/613 636/436/612 644/434/621
f 646/435/622 644/434/621 645/437/623
f 644/434/621 646/435/622 635/433/613
f 645/437/623 647/438/624 646/435/622
f 633/447/610 631/446/609 648/448/625
f 648/448/625 649/449/626 633/447/610
f 649/449/626 648/448/625 650/450/627
f 650/450/627 651/451/628 649/449/626
f 651/451/628 650/450/627 652/452/629
f 652/452/629 653/453/623 651/451/628
f 655/586/630 657/587/631 654/588/632
f 654/588/632 656/589/633 655/586/630
f 657/587/631 655/586/630 658/590/634
f 658/590/634 659/591/635 657/587/631
f 659/591/635 658/590/634 660/592/636
f 660/592/636 661/593/637 659/591/635
f 661/593/637 660/592/636 662/594/638
f 662/594/638 663/595/639 661/593/637
f 663/595/639 662/594/638 664/596/640
f 664/596/640 665/597/641 663/595/639
f 666/598/642 665/597/641 664/596/640
f 664/596/640 667/599/633 666/598/642
f 669/600/643 671/601/644 668/602/645
f 668/602/645 670/603/646 669/600/643
f 674/604/647 671/601/644 669/600/643
f 671/601/644 674/604/647 672/605/648
f 672/605/648 673/606/649 671/601/644
f 676/607/650 674/604/647 675/608/651
f 669/600/643 675/608/651 674/604/647
f 675/608/651 677/609/652 676/607/650
f 678/610/652 675/608/651 669/600/643
f 669/600/643 679/611/653 678/610/652
f 681/612/654 683/613/655 680/614/656
f 680/614/656 682/615/657 681/612/654
f 684/616/658 680/614/656 683/613/655
f 683/613/655 685/617/659 684/616/658
f 686/618/660 684/616/658 685/617/659
f 685/617/659 687/619/661 686/618/660
f 688/620/662 686/618/660 687/619/661
f 687/619/661 689/621/663 688/620/662
f 690/622/664 688/620/662 689/621/663
f 689/621/663 691/623/665 690/622/664
f 692/624/666 690/622/664 691/623/665
f 691/623/665 693/625/667 692/624/666
f 694/626/668 692/624/666 693/625/667
f 693/625/667 695/627/669 694/626/668
f 696/628/670 694/626/668 695/627/669
f 695/627/669 697/629/671 696/628/670
f 699/378/672 701/379/673 698/376/674
f 698/376/674 700/377/675 699/378/672
f 702/383/676 700/377/675 698/376/674
f 698/376/674 703/387/677 702/383/676
f 703/387/677 705/390/678 704/386/679
f 704/386/679 702/383/676 703/387/677
f 706/388/680 702/383/676 704/386/679
f 704/386/679 707/389/681 706/388/680
f 707/389/681 708/391/682 706/388/680
f 702/383/676 709/385/683 710/384/684
f 710/384/684 700/377/675 702/383/676
f 711/392/685 710/384/684 709/385/683
f 709/385/683 712/393/686 711/392/685
f 711/392/685 712/393/686 713/394/687
f 713/394/687 714/395/688 711/392/685
f 715/396/689 714/395/688 713/394/687
f 713/394/687 716/397/690 715/396/689
f 717/399/691 715/396/689 716/397/690
f 716/397/690 718/398/692 717/399/691
f 719/380/693 699/378/672 700/377/675
f 700/377/675 720/381/694 719/380/693
f 720/381/694 721/382/695 719/380/693
