# Blender 5.2.1 LTS
# www.blender.org
mtllib Plane5.mtl
o Skladka4
v 6.545187 11.639608 7.245825
v 6.146726 10.672935 -7.162990
v 6.600804 10.508017 -7.153348
v 6.091112 11.804190 7.232388
v 6.474360 11.966871 11.151591
v 6.020341 12.131147 11.134426
v -2.335185 -3.253808 -7.754975
v -0.871975 -2.852329 -7.758188
v -1.137483 -2.156568 0.158773
v 0.034918 -0.811610 8.040655
v 1.580035 0.411766 7.984959
v 0.797107 -2.083242 -7.786449
v 1.965684 -1.020619 -7.842638
v 2.486585 0.464736 -7.933290
v 2.765180 1.236885 -7.979076
v 2.464263 1.752275 7.909250
v 3.103573 3.532434 7.789883
v 3.958035 5.898069 7.629666
v 3.499223 3.340672 -6.703787
v 6.146726 10.672935 -7.162990
v 6.091112 11.804190 7.232388
v 5.057007 9.463824 11.312907
v 6.020341 12.131147 11.134426
v 2.939236 0.296535 -7.917982
v 1.938880 0.088586 8.010807
v 2.895785 1.534823 7.921832
v 3.218810 1.070623 -7.969797
v 2.366715 -1.288659 -7.811932
v 0.325995 -1.196308 8.076014
v 1.066124 -2.483302 -7.747704
v -0.705375 -3.304781 -7.719380
v -2.206607 -3.718453 -7.716049
v -0.939198 -2.596094 0.197405
v 3.557602 3.367358 7.799275
v 3.952561 3.173661 -6.694098
v 4.412117 5.733326 7.640930
v 6.600804 10.508017 -7.153348
v 6.545187 11.639608 7.245825
v 5.511050 9.299565 11.330071
v 6.474360 11.966871 11.151591
v 3.557602 3.367358 7.799275
v 3.958035 5.898069 7.629666
v 4.412117 5.733326 7.640930
v 3.103573 3.532434 7.789883
v 2.895785 1.534823 7.921832
v 2.464263 1.752275 7.909250
v 1.938880 0.088586 8.010807
v 0.325995 -1.196308 8.076014
v 1.580035 0.411766 7.984959
v 0.034918 -0.811610 8.040655
v 5.057007 9.463824 11.312907
v 5.511050 9.299565 11.330071
v 6.020341 12.131147 11.134426
v 6.474360 11.966871 11.151591
v 3.952561 3.173661 -6.694098
v 2.765180 1.236885 -7.979076
v 3.218810 1.070623 -7.969797
v 3.499223 3.340672 -6.703787
v 6.600804 10.508017 -7.153348
v 6.146726 10.672935 -7.162990
v 2.486585 0.464736 -7.933290
v 2.939236 0.296535 -7.917982
v 1.965684 -1.020619 -7.842638
v 2.366715 -1.288659 -7.811932
v 0.797107 -2.083242 -7.786449
v 1.066124 -2.483302 -7.747704
v -0.705375 -3.304781 -7.719380
v -0.871975 -2.852329 -7.758188
v -2.335185 -3.253808 -7.754975
v -2.206607 -3.718453 -7.716049
v -2.206607 -3.718453 -7.716049
v -1.137483 -2.156568 0.158773
v -0.939198 -2.596094 0.197405
v -2.335185 -3.253808 -7.754975
v 0.034918 -0.811610 8.040655
v 0.325995 -1.196308 8.076014
vn -0.3461 0.6975 -0.6275
vn -0.4220 0.9032 -0.0780
vn 0.9066 0.4213 -0.0242
vn 0.7406 0.3038 -0.5993
vn 0.7302 0.3917 0.5599
vn -0.3548 0.7812 0.5137
vn -0.7488 0.3335 -0.5728
vn -0.9273 0.3664 0.0763
vn -0.2194 0.5818 -0.7832
vn -0.7785 0.2022 0.5941
vn -0.5094 0.4969 0.7026
vn -0.5108 0.2928 -0.8083
vn -0.3506 0.4895 -0.7985
vn -0.6562 0.1936 -0.7294
vn -0.5333 0.3795 -0.7560
vn -0.6085 0.3494 0.7125
vn -0.6664 0.2867 0.6882
vn -0.8483 0.0833 0.5230
vn -0.6658 0.3942 -0.6336
vn -0.3460 0.6975 -0.6275
vn -0.4218 0.9033 -0.0780
vn -0.7089 -0.0369 0.7043
vn -0.3549 0.7812 0.5136
vn 0.5381 -0.4449 0.7159
vn 0.6447 -0.4696 -0.6032
vn 0.6732 -0.2929 -0.6789
vn 0.6523 -0.2817 0.7037
vn 0.6854 -0.0628 -0.7255
vn -0.0597 -0.7279 0.6831
vn 0.4287 -0.6684 -0.6079
vn 0.2645 -0.7357 -0.6235
vn -0.4453 -0.7587 -0.4755
vn -0.3416 -0.9169 0.2067
vn 0.6640 -0.1915 0.7228
vn 0.7952 -0.1353 -0.5910
vn 0.6811 -0.4589 0.5705
vn 0.7407 0.3038 -0.5993
vn 0.9065 0.4215 -0.0242
vn 0.4675 -0.4589 0.7555
vn 0.7301 0.3917 0.5600
vn -0.8483 0.0833 0.5229
vn -0.6666 0.2867 0.6881
vn 0.6812 -0.4588 0.5705
vn 0.6524 -0.2817 0.7036
vn -0.6085 0.3495 0.7124
vn 0.5382 -0.4451 0.7157
vn -0.0596 -0.7280 0.6830
vn -0.5094 0.4971 0.7024
vn -0.7786 0.2022 0.5940
vn -0.7090 -0.0368 0.7042
vn 0.4676 -0.4589 0.7555
vn -0.3550 0.7812 0.5136
vn 0.7301 0.3917 0.5599
vn -0.5335 0.3795 -0.7559
vn -0.6658 0.3942 -0.6334
vn 0.7953 -0.1353 -0.5909
vn 0.6855 -0.0628 -0.7254
vn 0.7407 0.3037 -0.5993
vn -0.6563 0.1937 -0.7293
vn 0.6733 -0.2930 -0.6788
vn 0.6448 -0.4697 -0.6031
vn -0.5108 0.2930 -0.8082
vn -0.3506 0.4896 -0.7984
vn 0.4288 -0.6685 -0.6077
vn 0.2645 -0.7359 -0.6233
vn -0.2195 0.5820 -0.7830
vn -0.7487 0.3335 -0.5729
vn -0.4454 -0.7587 -0.4755
vn -0.9273 0.3666 0.0763
vn -0.3414 -0.9169 0.2067
vn -0.7786 0.2023 0.5941
vn -0.0596 -0.7278 0.6832
vt 0.895890 0.045668
vt 0.960853 0.045573
vt 0.960863 0.043365
vt 0.895887 0.043460
vt 0.978492 0.043542
vt 0.978470 0.045750
vt 0.639432 0.773061
vt 0.643475 0.792586
vt 0.643186 0.772991
vt 0.647870 0.812036
vt 0.652815 0.811921
vt 0.651694 0.772759
vt 0.647741 0.772859
vt 0.655606 0.772679
vt 0.657661 0.772634
vt 0.656819 0.811842
vt 0.661568 0.811710
vt 0.667881 0.811528
vt 0.663087 0.775967
vt 0.682635 0.775497
vt 0.683631 0.811080
vt 0.676791 0.820929
vt 0.683903 0.820729
vt 0.584662 0.919070
vt 0.528980 0.919386
vt 0.529005 0.925355
vt 0.584701 0.925216
vt 0.529011 0.928292
vt 0.584634 0.911717
vt 0.528952 0.913090
vt 0.528939 0.906127
vt 0.528934 0.900574
vt 0.556807 0.905978
vt 0.584720 0.932168
vt 0.533985 0.935861
vt 0.584743 0.941144
vt 0.534165 0.963675
vt 0.584799 0.963550
vt 0.598514 0.953398
vt 0.598539 0.963516
vt 0.913871 0.062308
vt 0.902371 0.062763
vt 0.902456 0.064969
vt 0.913967 0.064512
vt 0.893633 0.065327
vt 0.893631 0.063127
vt 0.885828 0.065044
vt 0.876791 0.062483
vt 0.886156 0.062863
vt 0.877447 0.060376
vt 0.937462 0.060934
vt 0.937569 0.063138
vt 0.950443 0.060425
vt 0.950530 0.062630
vt 0.662075 0.152826
vt 0.650482 0.152029
vt 0.650367 0.154232
vt 0.661958 0.155029
vt 0.614740 0.152892
vt 0.614823 0.150688
vt 0.665807 0.152980
vt 0.665743 0.155185
vt 0.673229 0.155494
vt 0.673224 0.153333
vt 0.680800 0.153040
vt 0.680951 0.155225
vt 0.689666 0.154326
vt 0.689329 0.152147
vt 0.696162 0.150746
vt 0.696606 0.152907
vt 0.913266 0.054478
vt 0.876808 0.054181
vt 0.876791 0.056386
vt 0.913298 0.056681
vt 0.949723 0.054148
vt 0.949833 0.056345
s 1
usemtl mat_1_013
f 2/1/1 4/2/2 1/3/3
f 1/3/3 3/4/4 2/1/1
f 5/5/5 1/3/3 4/2/2
f 4/2/2 6/6/6 5/5/5
f 7/7/7 9/8/8 8/9/9
f 8/9/9 9/8/8 10/10/10
f 10/10/10 11/11/11 13/12/12
f 10/10/10 12/13/13 8/9/9
f 13/12/12 12/13/13 10/10/10
f 14/14/14 13/12/12 11/11/11
f 15/15/15 14/14/14 16/16/16
f 11/11/11 16/16/16 14/14/14
f 16/16/16 17/17/17 15/15/15
f 17/17/17 18/18/18 19/19/19
f 19/19/19 15/15/15 17/17/17
f 20/20/20 19/19/19 18/18/18
f 18/18/18 21/21/21 20/20/20
f 21/21/21 18/18/18 22/22/22
f 22/22/22 23/23/23 21/21/21
f 25/24/24 28/25/25 24/26/26
f 24/26/26 26/27/27 25/24/24
f 26/27/27 24/26/26 27/28/28
f 28/25/25 25/24/24 29/29/29
f 29/29/29 30/30/30 28/25/25
f 31/31/31 30/30/30 29/29/29
f 32/32/32 31/31/31 33/33/33
f 29/29/29 33/33/33 31/31/31
f 27/28/28 34/34/34 26/27/27
f 34/34/34 27/28/28 35/35/35
f 36/36/36 35/35/35 37/37/37
f 35/35/35 36/36/36 34/34/34
f 37/37/37 38/38/38 36/36/36
f 39/39/39 36/36/36 38/38/38
f 38/38/38 40/40/40 39/39/39
f 42/41/41 44/42/42 41/43/34
f 41/43/34 43/44/43 42/41/41
f 45/45/44 41/43/34 44/42/42
f 44/42/42 46/46/45 45/45/44
f 47/47/46 45/45/44 46/46/45
f 48/48/47 47/47/46 49/49/48
f 46/46/45 49/49/48 47/47/46
f 49/49/48 50/50/49 48/48/47
f 51/51/50 42/41/41 43/44/43
f 43/44/43 52/52/51 51/51/50
f 53/53/52 51/51/50 52/52/51
f 52/52/51 54/54/53 53/53/52
f 56/55/54 58/56/55 55/57/56
f 55/57/56 57/58/57 56/55/54
f 59/59/58 55/57/56 58/56/55
f 58/56/55 60/60/20 59/59/58
f 61/61/59 56/55/54 57/58/57
f 57/58/57 62/62/60 61/61/59
f 62/62/60 64/63/61 63/64/62
f 63/64/62 61/61/59 62/62/60
f 65/65/63 63/64/62 64/63/61
f 64/63/61 66/66/64 65/65/63
f 66/66/64 67/67/65 68/68/66
f 68/68/66 65/65/63 66/66/64
f 69/69/67 68/68/66 67/67/65
f 67/67/65 70/70/68 69/69/67
f 72/71/69 74/72/67 71/73/32
f 71/73/32 73/74/70 72/71/69
f 75/75/71 72/71/69 73/74/70
f 73/74/70 76/76/72 75/75/71
