# Blender 5.2.1 LTS
# www.blender.org
mtllib Plane4.mtl
o Skladka3
v -2.511212 10.308896 -1.025421
v -2.160846 9.342217 -15.440482
v -2.058179 10.473479 -1.046365
v -2.613914 9.177297 -15.423276
v -2.427747 10.636182 2.879083
v -1.974760 10.800462 2.854352
v 5.225750 -3.487265 -8.240875
v 4.934790 -4.183056 -16.153263
v 6.400349 -4.584496 -16.174406
v 4.074871 -2.142310 -0.339676
v 3.261154 -3.413937 -16.153605
v 2.086185 -2.351308 -16.190329
v 2.522440 -0.918954 -0.369601
v 1.630100 0.421567 -0.430482
v 1.556246 -0.865968 -16.272188
v 1.272934 -0.093809 -16.313301
v 0.979913 2.201709 -0.539129
v 0.531311 2.009958 -15.025698
v 0.111008 4.567387 -0.684935
v -2.160846 9.342217 -15.440482
v -2.058179 10.473479 -1.046365
v -0.995159 8.133104 3.016592
v -1.974760 10.800462 2.854352
v -1.448141 7.968822 3.041326
v -2.511212 10.308896 -1.025421
v -2.427747 10.636182 2.879083
v -0.342066 4.402611 -0.666159
v -2.613914 9.177297 -15.423276
v 0.079021 1.842949 -15.008510
v 0.526878 2.036634 -0.522217
v 0.820335 -0.260070 -16.296478
v 1.199902 0.204148 -0.410692
v 1.104630 -1.034176 -16.249390
v 2.165590 -1.242126 -0.337758
v 1.686852 -2.619354 -16.152958
v 3.786226 -2.526986 -0.299456
v 2.994657 -3.814028 -16.110458
v 4.770976 -4.635483 -16.111677
v 5.030211 -3.926811 -8.199009
v 6.274622 -5.049152 -16.133366
v 1.199902 0.204148 -0.410692
v 0.979913 2.201709 -0.539129
v 1.630100 0.421567 -0.430482
v 0.526878 2.036634 -0.522217
v 2.165590 -1.242126 -0.337758
v 3.786226 -2.526986 -0.299456
v 2.522440 -0.918954 -0.369601
v 4.074871 -2.142310 -0.339676
v 0.111008 4.567387 -0.684935
v -0.342066 4.402611 -0.666159
v -0.995159 8.133104 3.016592
v -1.448141 7.968822 3.041326
v -1.974760 10.800462 2.854352
v -2.427747 10.636182 2.879083
v 0.079021 1.842949 -15.008510
v 1.272934 -0.093809 -16.313301
v 0.531311 2.009958 -15.025698
v 0.820335 -0.260070 -16.296478
v -2.613914 9.177297 -15.423276
v -2.160846 9.342217 -15.440482
v 1.556246 -0.865968 -16.272188
v 1.104630 -1.034176 -16.249390
v 2.086185 -2.351308 -16.190329
v 1.686852 -2.619354 -16.152958
v 3.261154 -3.413937 -16.153605
v 2.994657 -3.814028 -16.110458
v 4.770976 -4.635483 -16.111677
v 4.934790 -4.183056 -16.153263
v 6.400349 -4.584496 -16.174406
v 6.274622 -5.049152 -16.133366
v 6.274622 -5.049152 -16.133366
v 5.225750 -3.487265 -8.240875
v 6.400349 -4.584496 -16.174406
v 5.030211 -3.926811 -8.199009
v 4.074871 -2.142310 -0.339676
v 3.786226 -2.526986 -0.299456
vn 0.3382 0.6978 -0.6315
vn -0.7479 0.3022 -0.5911
vn -0.9082 0.4181 -0.0210
vn 0.4186 0.9047 -0.0795
vn -0.7255 0.3891 0.5676
vn 0.3570 0.7827 0.5098
vn 0.7841 0.2050 0.5858
vn 0.9261 0.3702 0.0728
vn 0.2062 0.5838 -0.7853
vn 0.7416 0.3351 -0.5812
vn 0.3374 0.4931 -0.8019
vn 0.4994 0.2980 -0.8135
vn 0.5177 0.4960 0.6972
vn 0.6471 0.1983 -0.7362
vn 0.6154 0.3500 0.7062
vn 0.5240 0.3831 -0.7607
vn 0.6726 0.2884 0.6814
vn 0.6565 0.4002 -0.6394
vn 0.8515 0.0892 0.5167
vn 0.3382 0.6978 -0.6314
vn 0.4184 0.9048 -0.0795
vn 0.3569 0.7827 0.5099
vn 0.7161 -0.0341 0.6972
vn -0.9081 0.4183 -0.0210
vn -0.6721 -0.4653 0.5760
vn -0.4586 -0.4615 0.7594
vn -0.7255 0.3892 0.5676
vn -0.7995 -0.1401 -0.5841
vn -0.6549 -0.1962 0.7298
vn -0.6925 -0.0652 -0.7185
vn -0.6428 -0.2861 0.7106
vn -0.6793 -0.2948 -0.6721
vn -0.5275 -0.4484 0.7216
vn -0.6498 -0.4708 -0.5968
vn 0.0678 -0.7280 0.6822
vn -0.4357 -0.6676 -0.6037
vn -0.2734 -0.7348 -0.6208
vn 0.3461 -0.9154 0.2057
vn 0.4435 -0.7570 -0.4798
vn 0.6727 0.2885 0.6813
vn -0.6551 -0.1962 0.7296
vn -0.6429 -0.2862 0.7104
vn 0.6156 0.3500 0.7061
vn -0.5277 -0.4484 0.7214
vn 0.5177 0.4960 0.6971
vn 0.0678 -0.7281 0.6821
vn 0.7841 0.2051 0.5857
vn 0.8515 0.0893 0.5167
vn -0.6722 -0.4654 0.5759
vn 0.7163 -0.0341 0.6970
vn -0.4587 -0.4615 0.7593
vn 0.5242 0.3831 -0.7606
vn -0.6926 -0.0654 -0.7184
vn -0.7996 -0.1401 -0.5840
vn 0.6567 0.4002 -0.6392
vn 0.3383 0.6978 -0.6314
vn 0.6472 0.1984 -0.7361
vn -0.6794 -0.2948 -0.6720
vn 0.4995 0.2980 -0.8134
vn -0.6499 -0.4708 -0.5966
vn 0.3375 0.4932 -0.8018
vn -0.4357 -0.6677 -0.6035
vn 0.2062 0.5840 -0.7852
vn -0.2735 -0.7348 -0.6207
vn 0.4434 -0.7570 -0.4799
vn 0.9260 0.3704 0.0728
vn 0.3459 -0.9155 0.2056
vn 0.4435 -0.7569 -0.4799
vn 0.7841 0.2051 0.5858
vn 0.0677 -0.7280 0.6822
vt 0.895890 0.045668
vt 0.895887 0.043460
vt 0.960863 0.043365
vt 0.960853 0.045573
vt 0.978492 0.043542
vt 0.978470 0.045750
vt 0.647870 0.812036
vt 0.643475 0.792586
vt 0.643186 0.772991
vt 0.639432 0.773061
vt 0.647741 0.772859
vt 0.651694 0.772759
vt 0.652815 0.811921
vt 0.655606 0.772679
vt 0.656819 0.811842
vt 0.657661 0.772634
vt 0.661568 0.811710
vt 0.663087 0.775967
vt 0.667881 0.811528
vt 0.682635 0.775497
vt 0.683631 0.811080
vt 0.683903 0.820729
vt 0.676791 0.820929
vt 0.584799 0.963550
vt 0.584743 0.941144
vt 0.598514 0.953398
vt 0.598539 0.963516
vt 0.534165 0.963675
vt 0.533985 0.935861
vt 0.584720 0.932168
vt 0.529011 0.928292
vt 0.584701 0.925216
vt 0.529005 0.925355
vt 0.584662 0.919070
vt 0.528980 0.919386
vt 0.584634 0.911717
vt 0.528952 0.913090
vt 0.528939 0.906127
vt 0.556807 0.905978
vt 0.528934 0.900574
vt 0.902371 0.062763
vt 0.902456 0.064969
vt 0.893633 0.065327
vt 0.893631 0.063127
vt 0.885828 0.065044
vt 0.886156 0.062863
vt 0.876791 0.062483
vt 0.877447 0.060376
vt 0.913871 0.062308
vt 0.913967 0.064512
vt 0.937462 0.060934
vt 0.937569 0.063138
vt 0.950443 0.060425
vt 0.950530 0.062630
vt 0.662075 0.152826
vt 0.661958 0.155029
vt 0.650367 0.154232
vt 0.650482 0.152029
vt 0.614740 0.152892
vt 0.614823 0.150688
vt 0.665807 0.152980
vt 0.665743 0.155185
vt 0.673224 0.153333
vt 0.673229 0.155494
vt 0.680800 0.153040
vt 0.680951 0.155225
vt 0.689329 0.152147
vt 0.689666 0.154326
vt 0.696162 0.150746
vt 0.696606 0.152907
vt 0.913266 0.054478
vt 0.913298 0.056681
vt 0.876791 0.056386
vt 0.876808 0.054181
vt 0.949723 0.054148
vt 0.949833 0.056345
s 1
usemtl mat_1_013
f 2/1/1 4/2/2 1/3/3
f 1/3/3 3/4/4 2/1/1
f 3/4/4 1/3/3 5/5/5
f 5/5/5 6/6/6 3/4/4
f 10/7/7 7/8/8 8/9/9
f 7/8/8 9/10/10 8/9/9
f 10/7/7 11/11/11 12/12/12
f 8/9/9 11/11/11 10/7/7
f 12/12/12 13/13/13 10/7/7
f 13/13/13 12/12/12 15/14/14
f 15/14/14 14/15/15 13/13/13
f 14/15/15 15/14/14 16/16/16
f 16/16/16 17/17/17 14/15/15
f 17/17/17 16/16/16 18/18/18
f 18/18/18 19/19/19 17/17/17
f 19/19/19 18/18/18 20/20/20
f 20/20/20 21/21/21 19/19/19
f 21/21/21 23/22/22 22/23/23
f 22/23/23 19/19/19 21/21/21
f 25/24/24 27/25/25 24/26/26
f 24/26/26 26/27/27 25/24/24
f 27/25/25 25/24/24 28/28/2
f 28/28/2 29/29/28 27/25/25
f 30/30/29 27/25/25 29/29/28
f 29/29/28 31/31/30 30/30/29
f 32/32/31 30/30/29 31/31/30
f 31/31/30 33/33/32 32/32/31
f 34/34/33 32/32/31 33/33/32
f 33/33/32 35/35/34 34/34/33
f 36/36/35 34/34/33 35/35/34
f 35/35/34 37/37/36 36/36/35
f 36/36/35 37/37/36 38/38/37
f 38/38/37 39/39/38 36/36/35
f 38/38/37 40/40/39 39/39/38
f 42/41/40 44/42/41 41/43/42
f 41/43/42 43/44/43 42/41/40
f 43/44/43 41/43/42 45/45/44
f 45/45/44 47/46/45 43/44/43
f 47/46/45 45/45/44 46/47/46
f 46/47/46 48/48/47 47/46/45
f 44/42/41 42/41/40 49/49/48
f 49/49/48 50/50/49 44/42/41
f 50/50/49 49/49/48 51/51/50
f 51/51/50 52/52/51 50/50/49
f 53/53/22 54/54/5 52/52/51
f 52/52/51 51/51/50 53/53/22
f 56/55/52 58/56/53 55/57/54
f 55/57/54 57/58/55 56/55/52
f 57/58/55 55/57/54 59/59/2
f 59/59/2 60/60/56 57/58/55
f 58/56/53 56/55/52 61/61/57
f 61/61/57 62/62/58 58/56/53
f 62/62/58 61/61/57 63/63/59
f 63/63/59 64/64/60 62/62/58
f 64/64/60 63/63/59 65/65/61
f 65/65/61 66/66/62 64/64/60
f 66/66/62 65/65/61 68/67/63
f 68/67/63 67/68/64 66/66/62
f 67/68/64 68/67/63 69/69/10
f 69/69/10 70/70/65 67/68/64
f 72/71/66 74/72/67 71/73/68
f 71/73/68 73/74/10 72/71/66
f 74/72/67 72/71/66 75/75/69
f 75/75/69 76/76/70 74/72/67
