# Blender 5.2.1 LTS
# www.blender.org
mtllib Plane7.mtl
o wheel2
v -3.883783 -5.108569 -13.030788
v -3.082937 -2.397939 -13.123102
v -3.737925 -2.366056 -13.473997
v -3.223045 -5.032135 -12.697300
v -4.013741 -7.569887 -11.747538
v -7.595509 -4.898585 -12.999872
v -7.725491 -7.359891 -11.716648
v -7.826864 -9.299065 -9.719027
v -8.368271 -7.112241 -11.423018
v -8.465614 -8.974833 -9.504292
v -8.525969 -10.153590 -7.087181
v -8.992979 -7.915079 -8.751179
v -9.044470 -8.920593 -6.689329
v -8.929110 -6.734699 -7.890987
v -8.970369 -7.541030 -6.237509
v -9.059340 -9.244369 -4.404265
v -8.982300 -7.800686 -4.405080
v -8.543390 -10.533133 -4.408358
v -7.889668 -10.526278 -7.202562
v -7.907827 -10.921442 -4.413608
v -4.177923 -10.736261 -7.233461
v -4.196070 -11.131425 -4.444503
v -3.505585 -10.437613 -7.128963
v -3.523001 -10.817158 -4.450172
v -2.858213 -9.270579 -6.740828
v -2.873079 -9.594327 -4.455709
v -2.796061 -8.150645 -4.456512
v -2.784111 -7.891033 -6.289038
v -3.038969 -6.188401 -6.456854
v -3.056475 -6.569820 -3.764694
v -2.742842 -7.084690 -7.942450
v -2.941114 -4.316516 -8.385136
v -2.800310 -1.669187 -8.813002
v -2.676252 -5.810561 -9.254974
v -2.590860 -4.193341 -10.098106
v -2.497683 -2.412524 -11.853937
v -2.495005 -2.391388 -10.389318
v -2.617172 -4.659572 -11.490778
v -3.347879 -7.396266 -11.464806
v -2.723665 -6.676225 -10.439365
v -3.445238 -9.258867 -9.546041
v -2.806736 -8.265065 -8.802639
v -4.115088 -9.509050 -9.749918
v -2.376852 -0.155036 -11.493317
v -2.398119 -0.581052 -10.100142
v -2.309643 1.060453 -9.258877
v -2.670340 0.742423 -7.577005
v -2.266529 1.891919 -10.444258
v -2.177515 3.527986 -8.809336
v -2.811964 2.648159 -11.470497
v -2.941307 0.248540 -12.700335
v -3.590452 0.389194 -13.033915
v -3.455780 2.887516 -11.753454
v -7.302197 0.599189 -13.003021
v -7.449652 -2.156065 -13.443106
v -8.103312 -2.113928 -13.081348
v -8.243423 -4.748130 -12.655588
v -8.803442 -4.309615 -11.439342
v -8.909933 -6.326252 -10.387896
v -8.777090 -3.843380 -10.046659
v -8.862501 -5.460558 -9.203480
v -8.364836 -5.582632 -7.034946
v -8.314665 -4.623206 -8.023252
v -8.250372 -3.405470 -8.658155
v -8.178217 -2.048579 -8.877428
v -8.681265 -2.041409 -10.337879
v -8.683924 -2.062550 -11.802498
v -8.584391 -0.231065 -10.048683
v -8.563097 0.194953 -11.441849
v -8.495893 1.410423 -9.207413
v -8.105249 -0.685391 -8.659685
v -8.038641 0.550655 -8.026152
v -8.424520 2.722424 -7.896322
v -7.984896 1.538579 -7.038952
v -8.377214 3.576464 -6.243856
v -7.949259 2.181677 -5.794634
v -8.358591 3.888975 -4.411678
v -7.935255 2.416977 -4.415051
v -8.370527 3.629356 -2.579185
v -7.944242 2.221490 -3.035192
v -8.411821 2.823009 -0.925778
v -7.975330 1.614316 -1.790150
v -8.025480 0.654902 -0.801802
v -8.478415 1.548883 0.386745
v -8.347940 4.003397 -0.065592
v -8.430971 2.414540 1.571115
v -8.563820 -0.068328 1.229907
v -8.537470 0.397897 2.622559
v -8.659672 -1.870295 1.521122
v -8.089781 -0.562851 -0.166937
v -8.161932 -1.919725 0.052358
v -8.234892 -3.282904 -0.165380
v -8.756552 -3.680618 1.231912
v -8.777813 -4.106659 2.625095
v -8.656981 -1.849167 2.985717
v -8.845032 -5.322107 0.390675
v -8.888144 -6.153597 1.576024
v -8.916405 -6.634103 -0.920417
v -8.301508 -4.518957 -0.798915
v -8.355255 -5.506877 -1.786115
v -8.963701 -7.488161 -2.572908
v -8.390890 -6.149961 -3.030402
v -8.982300 -7.800686 -4.405080
v -8.404881 -6.385290 -4.410039
v -9.036167 -8.854650 -2.119543
v -9.059340 -9.244369 -4.404265
v -8.543390 -10.533133 -4.408358
v -7.907827 -10.921442 -4.413608
v -8.516188 -10.076286 -1.730033
v -7.879498 -10.445807 -1.625182
v -8.447048 -8.827797 0.685657
v -8.977137 -7.789637 -0.058866
v -8.342682 -6.909842 2.602270
v -7.807529 -9.145945 0.889913
v -4.167749 -10.655787 -1.656071
v -4.095747 -9.355951 0.858994
v -7.698881 -7.149189 2.885221
v -3.987120 -7.359176 2.854369
v -7.564213 -4.650886 4.165660
v -8.213366 -4.510182 3.832156
v -8.071714 -1.863751 4.254886
v -7.931604 0.770473 3.829114
v -7.416777 -1.895619 4.605801
v -3.852457 -4.860866 4.134767
v -3.704985 -2.105613 4.574921
v -7.270905 0.846887 4.162550
v -3.559134 0.636907 4.131659
v -7.140932 3.308208 2.879309
v -7.806780 3.134576 2.596546
v -7.709412 4.997179 0.677828
v -7.039583 5.247383 0.881720
v -7.649073 6.175950 -1.739236
v -8.296453 5.008904 -2.127399
v -8.281576 5.332674 -4.412492
v -7.631643 6.555470 -4.418086
v -8.304777 4.942966 -6.697233
v -7.658850 6.098652 -7.096384
v -8.363771 3.877963 -8.757845
v -8.452784 2.241905 -10.392759
v -7.728003 4.850112 -9.512131
v -6.986921 6.394115 -7.212162
v -7.058924 5.094297 -9.727205
v -7.832357 2.932209 -11.428720
v -7.167566 3.097508 -11.722576
v -7.961676 0.532563 -12.658546
v -3.347132 4.884293 -9.758081
v -3.275148 6.184134 -7.243052
v -2.638460 5.814617 -7.138163
v -2.707613 4.566121 -9.553885
v -2.118540 4.592978 -6.748671
v -2.190943 3.226476 -6.295315
v -2.238268 2.372454 -7.947792
v -2.095320 4.982677 -4.464021
v -2.172369 3.538989 -4.463150
v -2.110212 4.658915 -2.178865
v -2.611258 6.271435 -4.459829
v -2.628687 5.891930 -1.780982
v -3.246824 6.659748 -4.454605
v -3.264973 6.264605 -1.665654
v -6.958601 6.869730 -4.423713
v -6.976742 6.474585 -1.634762
v -3.327803 5.037386 0.850801
v -3.429182 3.098216 2.848419
v -2.786402 2.850551 2.554795
v -2.689026 4.713152 0.636070
v -2.244715 2.064562 1.519685
v -2.161671 3.653425 -0.117023
v -2.225573 2.473038 -0.977248
v -2.184252 3.279369 -2.630677
v -2.618362 1.615726 -2.457099
v -2.600824 1.997146 -5.149282
v -2.716192 -0.256157 -0.528809
v -2.292170 1.198905 0.335277
v -2.856991 -2.903484 -0.100939
v -2.377544 -0.418312 1.178444
v -2.470716 -2.199135 2.934282
v -2.351202 0.047923 2.571098
v -2.473398 -2.220278 1.469666
v -2.591555 -4.456616 2.573656
v -2.570288 -4.030590 1.180476
v -2.986990 -5.315108 -1.336974
v -2.658751 -5.672104 0.339190
v -2.701864 -6.503584 1.524536
v -3.192999 -4.794215 3.790345
v -2.790882 -8.139640 -0.110392
v -3.322313 -7.193874 2.560494
v -3.426668 -9.111818 0.643909
v -3.495829 -10.360308 -1.771790
v -2.849865 -9.204647 -2.171026
v -2.873079 -9.594327 -4.455709
v -2.730127 -6.984104 -0.971908
v -2.777445 -7.838146 -2.624372
v -3.056475 -6.569820 -3.764694
v -2.796061 -8.150645 -4.456512
v -3.523001 -10.817158 -4.450172
v -4.196070 -11.131425 -4.444503
v -3.051352 -2.147773 4.213100
v -2.911253 0.486451 3.787361
v -8.395922 -6.189786 -5.789871
v -8.404881 -6.385290 -4.410039
v 1.575689 6.408928 6.623419
v 1.258810 4.262267 7.529320
v 1.443834 5.062375 6.908131
v 1.272738 4.640911 8.021672
v 1.108200 4.221251 8.348864
v 1.094316 3.842599 7.856469
v -0.880743 4.351931 7.502918
v -0.744705 4.298935 8.325993
v -0.866861 4.730634 7.995291
v -0.758638 3.920265 7.833614
v -1.037125 5.166318 6.877564
v -1.074503 6.519995 6.590709
v 1.577417 6.249805 5.213095
v -0.382540 3.592203 8.079277
v -0.368673 3.970848 8.571680
v 0.687275 3.547378 8.092466
v 0.701151 3.926007 8.584806
v 0.146681 3.455725 8.173977
v 0.160595 3.834377 8.666396
v -1.072741 6.360893 5.180441
v 1.556141 5.669154 4.458121
v 1.395683 3.749622 5.201160
v -1.094059 5.780279 4.425463
v -1.085363 3.853625 5.170625
v 1.499649 4.338851 3.931660
v -1.150492 4.449932 3.898968
v -0.928919 3.039210 5.795942
v 1.196749 2.570907 5.329941
v 1.210621 2.949561 5.822370
v -0.942799 2.660554 5.303584
v -0.806767 2.607497 6.126651
v -0.820690 2.228879 5.634283
v 1.032213 2.151166 5.657131
v 1.046144 2.529881 6.149522
v -0.430746 2.279476 6.372242
v -0.444616 1.900840 5.879937
v 0.639099 2.234668 6.385487
v 0.625145 1.856008 5.893107
v 0.084604 1.764345 5.974643
v 0.098471 2.143005 6.467071
v -3.233461 -0.057440 -5.113516
v -3.237963 -0.437624 -6.164608
v -2.423836 -0.913500 -5.843193
v -2.420507 -0.628391 -5.054913
v -3.259813 -0.243645 -4.018630
v -3.309978 -0.946342 -3.173429
v -2.440252 -0.768049 -4.233755
v -2.477892 -1.295074 -3.599834
v -0.901749 -1.374572 -3.566491
v -0.864117 -0.847539 -4.200421
v -0.844364 -0.707905 -5.021564
v -0.847704 -0.993075 -5.809914
v -0.864117 -0.847539 -4.200421
v -0.873320 -1.626575 -6.354147
v -0.901749 -1.374572 -3.566491
v -0.914295 -2.438794 -6.508532
v -0.947128 -2.147801 -3.289639
v -0.959707 -3.211989 -6.231724
v -0.988106 -2.959960 -3.444017
v -0.997313 -3.738986 -5.597750
v -1.013725 -3.593544 -3.988313
v -1.017118 -3.878659 -4.776645
v -2.449455 -1.547067 -6.387461
v -0.873320 -1.626575 -6.354147
v -2.490438 -2.359221 -6.541874
v -0.914295 -2.438794 -6.508532
v -2.535864 -3.132451 -6.265015
v -0.959707 -3.211989 -6.231724
v -0.997313 -3.738986 -5.597750
v -2.573450 -3.659483 -5.631092
v -2.593248 -3.799123 -4.809941
v -1.017118 -3.878659 -4.776645
v -3.463812 -4.285060 -4.786951
v -3.437420 -4.098915 -5.881784
v -3.387249 -3.396204 -6.727026
v -3.326733 -2.365267 -7.096151
v -3.272102 -1.282370 -6.890263
v -0.947128 -2.147801 -3.289639
v -2.523270 -2.068246 -3.322974
v -0.988106 -2.959960 -3.444017
v -2.564266 -2.880447 -3.477361
v -1.013725 -3.593544 -3.988313
v -2.589863 -3.513973 -4.021623
v -1.017118 -3.878659 -4.776645
v -2.593248 -3.799123 -4.809941
v -3.463812 -4.285060 -4.786951
v -3.459309 -3.904898 -3.735851
v -3.425154 -3.060148 -3.010127
v -3.370476 -1.977266 -2.804245
v 1.339911 16.443346 -5.294094
v 1.907791 15.888121 -6.124588
v 1.308565 5.154543 0.709643
v 0.740709 5.709811 1.540118
v -0.394987 5.751511 1.504059
v 0.204214 16.485100 -5.330147
v -0.363651 15.971586 -6.196693
v -0.962828 5.238006 0.637528
v 0.204245 15.416321 -7.027210
v -0.394964 4.682768 -0.193031
v 1.339945 15.374636 -6.991156
v 0.740759 4.641006 -0.156980
v 1.907791 15.888121 -6.124588
v 1.308565 5.154543 0.709643
v -0.394964 4.682768 -0.193031
v 0.740759 4.641006 -0.156980
v 1.308565 5.154543 0.709643
v 0.740709 5.709811 1.540118
v 1.160686 0.932248 8.829419
v 1.226404 1.965295 9.162477
v 1.303698 2.753271 8.432418
v 1.315233 2.508203 7.369339
v 1.091217 -0.497327 7.586503
v 1.282667 1.454732 5.777995
v -1.739679 -0.299705 7.490677
v -1.548273 1.652289 5.682178
v -1.670254 1.129868 8.733603
v -1.515736 2.705810 7.273503
v -1.527241 2.950890 8.336602
v -1.604496 2.162929 9.066618
v -0.866505 0.004910 3.331885
v -0.823090 0.335386 2.540651
v -0.792845 1.125529 2.226099
v -0.824419 2.235210 3.376857
v -0.898085 1.114594 4.482611
v -0.897551 0.327671 4.136278
v -0.867758 1.904762 4.168098
v -0.793341 1.912475 2.572409
v 0.649569 2.222616 3.424616
v -0.867758 1.904762 4.168098
v 0.606171 1.892138 4.215813
v 0.575895 1.101983 4.530342
v -0.898085 1.114594 4.482611
v 0.576477 0.314992 4.184002
v -0.897551 0.327671 4.136278
v 0.680630 1.899866 2.620183
v 0.606171 1.892138 4.215813
v 0.576477 0.314992 4.184002
v 0.575895 1.101983 4.530342
v 0.650866 0.322732 2.588379
v 0.607521 -0.007760 3.379604
v 0.681204 1.112870 2.273840
v -0.792845 1.125529 2.226099
v 0.681204 1.112870 2.273840
v -0.823090 0.335386 2.540651
v 0.650866 0.322732 2.588379
v -0.866505 0.004910 3.331885
v 0.607521 -0.007760 3.379604
v -0.897551 0.327671 4.136278
v 0.576477 0.314992 4.184002
v 0.173414 6.117749 8.692656
v 0.377642 5.943654 8.820700
v 0.230783 5.583429 8.555250
v 0.026596 5.757587 8.427176
v 0.491610 6.451231 8.642365
v 0.695801 6.277098 8.770363
v 0.794767 6.562578 8.305676
v 0.998915 6.388458 8.433711
v 1.109392 6.212451 8.007895
v 1.162775 5.591117 7.051474
v 0.905231 6.386620 7.879805
v 0.958540 5.765233 6.923357
v 0.083344 4.818251 7.723901
v -0.120890 4.992439 7.595818
v 0.958540 5.765233 6.923357
v 0.905231 6.386620 7.879805
v 0.173414 6.117749 8.692656
v 0.794767 6.562578 8.305676
v 0.491610 6.451231 8.642365
v 1.109392 6.212451 8.007895
v 1.162775 5.591117 7.051474
v 0.377642 5.943654 8.820700
v 0.998915 6.388458 8.433711
v 0.695801 6.277098 8.770363
v 0.375301 1.699110 3.820167
v 0.815435 1.684855 3.842245
v 0.777260 1.309465 4.422384
v 0.337103 1.323649 4.400206
v 0.399473 1.552382 3.137013
v 0.839548 1.538154 3.159127
v 0.395411 0.969398 2.750929
v 0.835495 0.955174 2.773107
v 0.805618 0.277486 2.910369
v 0.720705 -1.202194 3.664944
v 0.365450 0.291643 2.888134
v 0.280525 -1.188009 3.642872
v 0.685877 0.065576 5.522594
v 0.245659 0.079782 5.500451
v 0.280525 -1.188009 3.642872
v 0.365450 0.291643 2.888134
v 0.375301 1.699110 3.820167
v 0.395411 0.969398 2.750929
v 0.399473 1.552382 3.137013
v 0.805618 0.277486 2.910369
v 0.720705 -1.202194 3.664944
v 0.815435 1.684855 3.842245
v 0.835495 0.955174 2.773107
v 0.839548 1.538154 3.159127
v 7.030714 15.637300 10.992507
v 0.638487 6.484076 8.392557
v 0.309544 6.622223 8.552406
v 6.701811 15.775442 11.152319
v 0.067076 6.839703 8.336031
v 6.459337 15.992933 10.935905
v 0.153532 6.919079 7.959792
v 6.545758 16.072277 10.559721
v 0.482502 6.780922 7.799944
v 6.874693 15.934109 10.399816
v 0.724972 6.563440 8.016352
v 7.117160 15.716661 10.616210
v 7.030714 15.637300 10.992507
v 0.638487 6.484076 8.392557
v -1.060141 1.105709 8.676825
v -0.985937 2.261660 9.027390
v 0.631746 2.148774 9.082188
v 0.557545 0.992821 8.731623
v -1.029999 1.061212 7.466474
v 0.587677 0.948302 7.521222
v 0.756159 2.742225 6.128411
v -0.861544 2.855113 6.073648
v 0.800322 3.945188 7.692694
v 0.587677 0.948302 7.521222
v 0.756159 2.742225 6.128411
v 0.004322 3.404537 5.627298
v 0.048569 4.610053 7.194865
v -0.861544 2.855113 6.073648
v -1.029999 1.061212 7.466474
v -0.817358 4.058090 7.637918
v -0.985937 2.261660 9.027390
v -0.817358 4.058090 7.637918
v 0.308960 0.844571 2.694928
v 0.668360 1.169566 3.243387
v 0.899723 5.313813 0.604709
v 0.540323 4.988760 0.056211
v -0.409828 0.870972 2.672126
v -0.178465 5.015196 0.033422
v -0.769230 1.222451 3.197813
v -0.537874 5.366642 0.559093
v -0.409843 1.547403 3.746220
v -0.178484 5.691611 1.107495
v 0.308952 1.521014 3.769055
v 0.540306 5.665199 1.130307
v 0.668360 1.169566 3.243387
v 0.899723 5.313813 0.604709
v 0.819389 -0.908500 3.052679
v 0.869814 0.994751 6.233540
v -0.134325 1.545630 5.765828
v -0.180895 -0.249847 2.730669
v -0.038511 -1.850566 -6.650763
v 0.557655 -2.255898 -6.596651
v 0.718668 -2.079193 3.625546
v 0.503372 -2.979592 -6.530602
v -0.147165 -3.297931 -6.518690
v -0.382296 -2.591231 3.876388
v 0.776739 0.039762 7.097958
v -0.320498 -0.364391 7.494552
v -0.689075 -2.168874 -6.638859
v 0.557655 -2.255898 -6.596651
v -0.051838 -2.142134 -6.934818
v 0.313662 -2.634894 -6.878841
v -0.487137 -2.579006 -6.905983
v -0.082655 -2.628741 -7.097559
v -0.121630 -3.071769 -6.850044
v -0.147165 -3.297931 -6.518690
v 0.503372 -2.979592 -6.530602
v -0.743406 -2.892583 -6.572796
v -1.281988 -0.761865 2.981567
v -0.743406 -2.892583 -6.572796
v -1.382704 -1.932495 3.554336
v -0.147165 -3.297931 -6.518690
v -0.382296 -2.591231 3.876388
v -1.324720 0.186435 7.026775
v -0.320498 -0.364391 7.494552
v -1.231632 1.141502 6.162423
v -0.656549 5.315536 4.415306
v 1.191494 5.267145 4.467463
v 1.540266 12.910271 -1.335293
v -0.307728 12.958666 -1.387459
v -0.918489 5.482108 4.621741
v -0.569717 13.125210 -1.181038
v -0.918226 6.040948 5.370160
v -0.569490 13.684052 -0.432676
v -0.656164 6.193728 5.591380
v -0.307352 13.836897 -0.211402
v 1.191870 6.145316 5.643515
v 1.540648 13.788502 -0.159233
v 1.453833 5.978765 5.437065
v 1.802608 13.621943 -0.365679
v 1.453608 5.419951 4.688698
v 1.802353 13.063112 -1.114069
v 1.191494 5.267145 4.467463
v 1.540266 12.910271 -1.335293
v -2.600824 1.997146 -5.149282
v -2.716192 -0.256157 -0.528809
v -2.618362 1.615726 -2.457099
v -2.800310 -1.669187 -8.813002
v -2.670340 0.742423 -7.577005
v -3.038969 -6.188401 -6.456854
v -2.941114 -4.316516 -8.385136
v -2.986990 -5.315108 -1.336974
v -3.056475 -6.569820 -3.764694
v -2.856991 -2.903484 -0.100939
v -8.923693 -3.521690 -4.658607
v -8.875269 -2.647991 -2.968093
v -8.913671 -3.353632 -3.673235
v -8.855528 -2.218248 -6.001396
v -8.901464 -3.088022 -5.547909
v -8.269457 -3.810768 -6.237864
v -8.304968 -4.504583 -4.815139
v -8.404881 -6.385290 -4.410039
v -8.288988 -4.235671 -3.238634
v -8.364836 -5.582632 -7.034946
v -8.395922 -6.189786 -5.789871
v -8.314665 -4.623206 -8.023252
v -8.250372 -3.405470 -8.658155
v -8.195978 -2.419231 -6.963337
v -8.178217 -2.048579 -8.877428
v -8.105249 -0.685391 -8.659685
v -8.112587 -0.861538 -6.714527
v -8.038641 0.550655 -8.026152
v -7.984896 1.538579 -7.038952
v -8.051184 0.267382 -5.586405
v -7.949259 2.181677 -5.794634
v -7.935255 2.416977 -4.415051
v -8.035158 0.536270 -4.009920
v -7.944242 2.221490 -3.035192
v -7.975330 1.614316 -1.790150
v -8.070692 -0.157534 -2.587202
v -8.025480 0.654902 -0.801802
v -8.089781 -0.562851 -0.166937
v -8.161932 -1.919725 0.052358
v -8.144190 -1.549056 -1.861733
v -8.823162 -1.674356 -2.812569
v -8.234892 -3.282904 -0.165380
v -8.227533 -3.106784 -2.110526
v -8.777224 -0.804544 -3.266003
v -8.765047 -0.538946 -5.140717
v -8.755035 -0.370850 -4.155260
v -8.803442 -1.244594 -5.845863
v -8.355255 -5.506877 -1.786115
v -8.301508 -4.518957 -0.798915
v -8.390890 -6.149961 -3.030402
v 1.258810 4.262267 7.529320
v 1.443834 5.062375 6.908131
v -1.037125 5.166318 6.877564
v -0.880743 4.351931 7.502918
v 1.094316 3.842599 7.856469
v 0.146681 3.455725 8.173977
v 0.687275 3.547378 8.092466
v -0.758638 3.920265 7.833614
v -0.382540 3.592203 8.079277
v 1.395683 3.749622 5.201160
v -1.085363 3.853625 5.170625
v -0.928919 3.039210 5.795942
v 1.210621 2.949561 5.822370
v -0.806767 2.607497 6.126651
v 0.098471 2.143005 6.467071
v -0.430746 2.279476 6.372242
v 1.046144 2.529881 6.149522
v 0.639099 2.234668 6.385487
v -0.763266 0.238686 2.815062
v -0.783859 -1.240482 3.575207
v -0.819519 0.030955 5.430304
v -0.792318 1.273601 4.324997
v -0.758261 0.916519 2.675472
v -0.778849 1.648223 3.743115
v -0.764742 1.500349 3.059885
v -0.778849 1.648223 3.743115
v -1.233007 1.273532 4.312452
v -1.219604 1.648205 3.730624
v -1.260254 0.030954 5.417800
v -1.219604 1.648205 3.730624
v -1.204016 0.238651 2.802475
v -1.198982 0.916465 2.662919
v -1.224634 -1.240502 3.562721
v -1.205492 1.500344 3.047419
v -1.205492 1.500344 3.047419
v -0.764742 1.500349 3.059885
v -1.198982 0.916465 2.662919
v -0.758261 0.916519 2.675472
v -0.763266 0.238686 2.815062
v -0.783859 -1.240482 3.575207
v -1.204016 0.238651 2.802475
v -1.224634 -1.240502 3.562721
v 0.554121 0.974615 8.808918
v 0.505255 -0.047036 7.893387
v 0.684402 1.780311 6.199337
v 0.707907 2.542256 7.353778
v 0.619833 2.007664 9.141943
v 0.696508 2.786079 8.408778
v -0.933264 1.893212 6.144629
v -1.112432 0.065913 7.838592
v -0.909775 2.655181 7.298992
v -0.921188 2.898977 8.354044
v -1.063585 1.087509 8.754149
v -0.997828 2.120562 9.087164
v 1.499649 4.338851 3.931660
v 1.556141 5.669154 4.458121
v -1.094059 5.780279 4.425463
v -1.150492 4.449932 3.898968
v 1.196749 2.570907 5.329941
v -0.942799 2.660554 5.303584
v 1.032213 2.151166 5.657131
v 0.084604 1.764345 5.974643
v 0.625145 1.856008 5.893107
v -0.820690 2.228879 5.634283
v -0.444616 1.900840 5.879937
v 1.577417 6.249805 5.213095
v -1.072741 6.360893 5.180441
v -1.074503 6.519995 6.590709
v -0.866861 4.730634 7.995291
v 1.575689 6.408928 6.623419
v 1.272738 4.640911 8.021672
v 1.108200 4.221251 8.348864
v -0.368673 3.970848 8.571680
v 0.701151 3.926007 8.584806
v 0.160595 3.834377 8.666396
v -0.744705 4.298935 8.325993
v -0.559620 5.420691 7.229182
v -0.440384 6.211680 8.039975
v 0.438562 6.838848 7.490943
v 0.520159 6.191270 6.554697
v -0.764122 5.587497 7.091905
v -0.644848 6.378475 7.902623
v -0.508862 6.748512 8.159986
v 0.234108 7.005720 7.353657
v -0.304346 6.581715 8.297329
v -0.508862 6.748512 8.159986
v -0.195093 7.085453 8.105834
v 0.009415 6.918652 8.243145
v 0.112680 7.191996 7.771843
v 0.317137 7.025173 7.909137
v 0.438562 6.838848 7.490943
v 0.520159 6.191270 6.554697
v 0.234108 7.005720 7.353657
v 0.315649 6.358063 6.417387
v 0.112680 7.191996 7.771843
v 0.315649 6.358063 6.417387
v -0.195093 7.085453 8.105834
v 0.317137 7.025173 7.909137
v -0.304346 6.581715 8.297329
v 0.009415 6.918652 8.243145
v -0.120668 5.703407 8.546223
v 0.034548 6.184721 8.932774
v 0.462008 6.645237 8.920172
v 1.119249 6.595165 7.956591
v 0.536587 5.653335 7.582569
v 0.087301 5.483327 7.986932
v 0.964010 6.113857 7.570036
v 0.606043 7.055826 7.574940
v 0.450808 6.574558 7.188404
v 0.964010 6.113857 7.570036
v 0.911308 6.815258 8.515871
v -0.051229 7.105909 8.538626
v 0.398071 7.275896 8.134201
v 0.462008 6.645237 8.920172
v 0.034548 6.184721 8.932774
v -0.478636 6.645386 8.551121
v -0.120668 5.703407 8.546223
v -0.633867 6.164144 8.164606
v -0.425913 5.944051 7.605359
v 0.450808 6.574558 7.188404
v -0.478636 6.645386 8.551121
v -0.051229 7.105909 8.538626
v -0.633867 6.164144 8.164606
v 0.023348 6.114045 7.200976
v 0.023348 6.114045 7.200976
v 0.536587 5.653335 7.582569
v -0.425913 5.944051 7.605359
v 0.087301 5.483327 7.986932
v -0.633867 6.164144 8.164606
v -0.120668 5.703407 8.546223
v 0.619833 2.007664 9.141943
v 1.226404 1.965295 9.162477
v 1.160686 0.932248 8.829419
v 0.554121 0.974615 8.808918
v 0.696508 2.786079 8.408778
v 1.303698 2.753271 8.432418
v 0.707907 2.542256 7.353778
v 1.315233 2.508203 7.369339
v 0.684402 1.780311 6.199337
v 1.282667 1.454732 5.777995
v -1.548273 1.652289 5.682178
v -0.933264 1.893212 6.144629
v -0.909775 2.655181 7.298992
v -1.515736 2.705810 7.273503
v -0.921188 2.898977 8.354044
v -1.527241 2.950890 8.336602
v -1.604496 2.162929 9.066618
v -0.997828 2.120562 9.087164
v -1.063585 1.087509 8.754149
v -1.670254 1.129868 8.733603
v -1.739679 -0.299705 7.490677
v -1.112432 0.065913 7.838592
v 0.505255 -0.047036 7.893387
v 1.091217 -0.497327 7.586503
v 8.963072 17.521364 4.883185
v 1.502766 8.506933 4.471704
v 1.362486 8.565878 4.539892
v 8.822783 17.580271 4.951325
v 1.259073 8.658590 4.447603
v 8.719395 17.673058 4.859064
v 1.295965 8.692476 4.287166
v 8.756231 17.706875 4.698566
v 1.436266 8.633535 4.218969
v 8.896515 17.647943 4.630402
v 1.539686 8.540789 4.311274
v 8.999931 17.555212 4.722702
v 8.963072 17.521364 4.883185
v 1.502766 8.506933 4.471704
v 0.798155 8.016428 4.214635
v -0.156904 8.781874 3.592935
v -0.157806 9.151304 4.083071
v 0.782549 8.397835 4.701908
v 1.164948 8.309940 4.009466
v 0.798155 8.016428 4.214635
v 1.143028 8.682667 4.499098
v 0.459585 9.238405 4.046117
v 1.164948 8.309940 4.009466
v 0.478254 8.867517 3.552037
v 0.478254 8.867517 3.552037
v -0.156904 8.781874 3.592935
vn 0.7110 -0.0386 -0.7022
vn 0.6998 -0.2581 -0.6660
vn 0.2170 -0.3179 -0.9230
vn 0.2332 -0.0137 -0.9723
vn -0.2647 -0.2911 -0.9193
vn 0.2025 -0.5919 -0.7802
vn -0.2789 -0.5643 -0.7771
vn -0.7400 -0.3766 -0.5573
vn -0.2886 -0.7785 -0.5574
vn -0.7468 -0.5314 -0.3999
vn -0.7499 -0.6294 -0.2038
vn -0.9813 -0.1390 -0.1328
vn -0.9828 -0.1721 -0.0672
vn -0.9810 0.1739 0.0866
vn -0.9797 0.1953 0.0450
vn -0.9830 -0.1833 0.0048
vn -0.9792 0.2027 -0.0010
vn -0.7494 -0.6620 0.0111
vn -0.2930 -0.9128 -0.2844
vn -0.2923 -0.9562 0.0138
vn 0.1848 -0.9403 -0.2857
vn 0.1836 -0.9829 0.0130
vn 0.6746 -0.7087 -0.2068
vn 0.6725 -0.7400 0.0090
vn 0.9585 -0.2766 -0.0697
vn 0.9578 -0.2874 0.0026
vn 0.9990 0.0436 0.0011
vn 0.9989 0.0399 0.0241
vn 0.9969 0.0584 0.0531
vn 0.9973 0.0702 -0.0221
vn 0.9941 0.0039 0.1081
vn 0.9981 0.0229 0.0567
vn 0.9973 0.0063 0.0733
vn 0.9900 -0.0726 0.1210
vn 0.9956 -0.0263 0.0902
vn 0.9705 -0.0517 -0.2353
vn 0.9943 -0.0495 0.0942
vn 0.9667 -0.1252 -0.2231
vn 0.6892 -0.4559 -0.5631
vn 0.9632 -0.1914 -0.1886
vn 0.6804 -0.6112 -0.4043
vn 0.9603 -0.2436 -0.1356
vn 0.1913 -0.8064 -0.5596
vn 0.9743 0.0215 -0.2243
vn 0.9923 -0.0859 0.0893
vn 0.9911 -0.1068 0.0791
vn 0.9862 -0.1410 0.0871
vn 0.9776 0.0870 -0.1916
vn 0.9803 0.1386 -0.1405
vn 0.7316 0.3749 -0.5695
vn 0.7218 0.1797 -0.6683
vn 0.2495 0.2884 -0.9244
vn 0.2646 0.5579 -0.7866
vn -0.2293 0.3134 -0.9215
vn -0.2475 0.0121 -0.9688
vn -0.7174 0.0379 -0.6957
vn -0.7299 -0.1801 -0.6594
vn -0.9754 -0.0211 -0.2196
vn -0.9788 -0.0870 -0.1854
vn -0.9850 0.0991 0.1413
vn -0.9828 0.1408 0.1197
vn -0.9741 0.2004 0.1048
vn -0.9763 0.1601 0.1457
vn -0.9790 0.1089 0.1722
vn -0.9820 0.0523 0.1817
vn -0.9874 0.0530 0.1492
vn -0.9713 0.0520 -0.2319
vn -0.9897 0.0067 0.1428
vn -0.9672 0.1248 -0.2212
vn -0.9919 -0.0352 0.1224
vn -0.9849 -0.0041 0.1733
vn -0.9875 -0.0547 0.1480
vn -0.9936 -0.0686 0.0900
vn -0.9896 -0.0947 0.1088
vn -0.9910 -0.1203 0.0591
vn -0.9948 -0.0899 0.0488
vn -0.9916 -0.1292 0.0039
vn -0.9953 -0.0970 0.0030
vn -0.9914 -0.1206 -0.0516
vn -0.9951 -0.0894 -0.0429
vn -0.9941 -0.0680 -0.0842
vn -0.9902 -0.0950 -0.1022
vn -0.9925 -0.0349 -0.1171
vn -0.9882 -0.0547 -0.1429
vn -0.9603 0.2436 0.1356
vn -0.9632 0.1914 0.1886
vn -0.9903 0.0065 -0.1385
vn -0.9667 0.1252 0.2231
vn -0.9878 0.0524 -0.1465
vn -0.9856 -0.0038 -0.1692
vn -0.9825 0.0525 -0.1789
vn -0.9852 0.0985 -0.1402
vn -0.9793 0.1088 -0.1706
vn -0.9705 0.0517 0.2353
vn -0.9743 -0.0215 0.2243
vn -0.9828 0.1403 -0.1201
vn -0.9776 -0.0870 0.1916
vn -0.9809 0.1737 -0.0879
vn -0.9764 0.1593 -0.1456
vn -0.9741 0.1993 -0.1064
vn -0.9796 0.1953 -0.0468
vn -0.9727 0.2251 -0.0569
vn -0.9722 0.2343 -0.0018
vn -0.9822 -0.1717 0.0762
vn -0.7494 -0.6620 0.0112
vn -0.7458 -0.6272 0.2244
vn -0.2923 -0.9562 0.0140
vn -0.7397 -0.5286 0.4164
vn -0.2868 -0.9068 0.3090
vn -0.9803 -0.1386 0.1405
vn -0.7316 -0.3749 0.5695
vn -0.2773 -0.7701 0.5745
vn 0.1881 -0.9325 0.3083
vn 0.1979 -0.7950 0.5734
vn -0.2646 -0.5579 0.7866
vn 0.2121 -0.5825 0.7846
vn -0.2495 -0.2884 0.9244
vn -0.7218 -0.1797 0.6684
vn -0.7110 0.0386 0.7021
vn -0.2332 0.0137 0.9723
vn -0.6998 0.2581 0.6660
vn 0.2293 -0.3133 0.9215
vn 0.2476 -0.0121 0.9688
vn -0.2170 0.3179 0.9230
vn 0.2647 0.2911 0.9193
vn -0.2025 0.5918 0.7802
vn -0.6893 0.4559 0.5631
vn -0.6804 0.6112 0.4043
vn -0.6745 0.7087 0.2068
vn -0.1914 0.8063 0.5596
vn -0.9585 0.2766 0.0697
vn -0.9578 0.2874 -0.0026
vn -0.9585 0.2755 -0.0741
vn -0.6725 0.7400 -0.0091
vn -0.9604 0.2420 -0.1381
vn -0.6748 0.7037 -0.2225
vn -0.9634 0.1902 -0.1888
vn -0.6813 0.6038 -0.4137
vn -0.6915 0.4496 -0.5654
vn -0.1881 0.9325 -0.3083
vn -0.1979 0.7950 -0.5734
vn -0.7040 0.2549 -0.6628
vn -0.2121 0.5825 -0.7846
vn 0.2773 0.7701 -0.5745
vn 0.2868 0.9068 -0.3090
vn 0.7458 0.6272 -0.2244
vn 0.7397 0.5286 -0.4164
vn 0.9822 0.1717 -0.0762
vn 0.9830 0.1833 -0.0048
vn 0.9890 -0.1440 0.0331
vn 0.9896 -0.1333 0.0537
vn 0.9887 -0.1498 -0.0032
vn 0.9828 0.1721 0.0672
vn 0.7494 0.6620 -0.0111
vn 0.7499 0.6294 0.2038
vn 0.2923 0.9562 -0.0139
vn 0.2930 0.9128 0.2844
vn -0.1836 0.9829 -0.0131
vn -0.1847 0.9403 0.2857
vn 0.2886 0.7785 0.5574
vn 0.2789 0.5643 0.7771
vn 0.7400 0.3766 0.5573
vn 0.7468 0.5314 0.3999
vn 0.9788 0.0870 0.1854
vn 0.9813 0.1390 0.1328
vn 0.9899 -0.1292 -0.0589
vn 0.9889 -0.1462 -0.0262
vn 0.9848 -0.1644 -0.0554
vn 0.9842 -0.1759 0.0201
vn 0.9878 -0.1098 -0.1106
vn 0.9908 -0.1126 -0.0756
vn 0.9925 -0.0798 -0.0926
vn 0.9918 -0.0332 -0.1235
vn 0.9713 -0.0520 0.2320
vn 0.9937 -0.0566 -0.0966
vn 0.9753 0.0211 0.2197
vn 0.9672 -0.1248 0.2212
vn 0.9956 -0.0201 -0.0916
vn 0.9954 0.0353 -0.0894
vn 0.9967 0.0009 -0.0813
vn 0.9634 -0.1902 0.1888
vn 0.7040 -0.2549 0.6628
vn 0.6915 -0.4496 0.5654
vn 0.9604 -0.2420 0.1381
vn 0.6813 -0.6038 0.4138
vn 0.6748 -0.7037 0.2225
vn 0.9584 -0.2755 0.0741
vn 0.9987 0.0380 -0.0352
vn 0.9981 0.0273 -0.0558
vn 0.9973 0.0701 -0.0222
vn 0.6725 -0.7400 0.0092
vn 0.1836 -0.9829 0.0132
vn 0.7174 -0.0379 0.6956
vn 0.7299 0.1801 0.6594
vn -0.9727 0.2259 0.0540
vn 0.6602 0.6796 0.3198
vn 0.6939 -0.5544 -0.4595
vn 0.8800 -0.4657 0.0935
vn 0.7204 0.2925 0.6289
vn 0.6531 0.0717 0.7539
vn 0.6286 -0.7250 -0.2814
vn -0.7155 -0.5240 -0.4621
vn -0.6587 0.1293 0.7412
vn -0.6901 0.3402 0.6388
vn -0.6828 -0.6694 -0.2928
vn -0.9098 -0.4113 0.0553
vn -0.6122 0.7275 0.3098
vn 0.6955 0.6644 -0.2735
vn -0.4174 -0.9007 -0.1207
vn -0.3946 -0.1025 0.9131
vn 0.3417 -0.9329 -0.1140
vn 0.3649 -0.1366 0.9210
vn -0.0419 -0.9976 -0.0549
vn -0.0195 -0.2005 0.9795
vn -0.6355 0.7192 -0.2808
vn 0.6883 0.4180 -0.5930
vn 0.8858 -0.1824 0.4268
vn -0.6436 0.4743 -0.6006
vn -0.9044 -0.1920 0.3810
vn 0.6307 -0.1547 -0.7605
vn -0.6372 -0.1072 -0.7632
vn -0.6985 0.3401 0.6297
vn 0.6882 -0.5649 -0.4553
vn 0.7124 0.2796 0.6437
vn -0.7262 -0.5058 -0.4656
vn -0.3947 -0.1026 0.9131
vn -0.4174 -0.9007 -0.1206
vn -0.0196 -0.2006 0.9795
vn 0.5767 0.8142 -0.0669
vn 0.3402 0.7706 -0.5389
vn 0.5763 0.6661 -0.4735
vn 0.3398 0.9370 -0.0810
vn 0.5680 0.7388 0.3629
vn 0.5497 0.4549 0.7006
vn 0.3280 0.8537 0.4045
vn 0.3058 0.5330 0.7889
vn 0.6628 0.4004 0.6328
vn 0.6821 0.6535 0.3280
vn 0.6932 0.7186 -0.0565
vn 0.6931 0.5867 -0.4189
vn 0.6820 0.6536 0.3280
vn 0.6816 0.2924 -0.6708
vn 0.6627 0.4004 0.6329
vn 0.6621 -0.0939 -0.7435
vn 0.6410 0.0253 0.7672
vn 0.6400 -0.4678 -0.6096
vn 0.6230 -0.3620 0.6934
vn 0.6221 -0.7206 -0.3061
vn 0.6129 -0.6560 0.4404
vn 0.6125 -0.7866 0.0775
vn 0.3297 0.3980 -0.8561
vn 0.6817 0.2924 -0.6707
vn 0.3092 -0.0903 -0.9467
vn 0.6622 -0.0939 -0.7434
vn 0.2822 -0.5623 -0.7773
vn 0.6401 -0.4677 -0.6096
vn 0.6223 -0.7205 -0.3061
vn 0.2562 -0.8824 -0.3947
vn 0.2396 -0.9667 0.0894
vn 0.6127 -0.7865 0.0775
vn 0.4874 -0.8694 0.0814
vn 0.5032 -0.7919 -0.3459
vn 0.5270 -0.5092 -0.6805
vn 0.5504 -0.0958 -0.8294
vn 0.5675 0.3344 -0.7524
vn 0.6411 0.0253 0.7671
vn 0.2778 0.0592 0.9588
vn 0.6231 -0.3619 0.6933
vn 0.2524 -0.4301 0.8668
vn 0.6131 -0.6560 0.4403
vn 0.2381 -0.8020 0.5478
vn 0.6126 -0.7866 0.0774
vn 0.2396 -0.9667 0.0896
vn 0.4863 -0.7243 0.4888
vn 0.4874 -0.8694 0.0816
vn 0.5006 -0.3938 0.7709
vn 0.5248 0.0384 0.8504
vn 0.4996 0.4452 0.7431
vn 0.7615 -0.5471 0.3475
vn 0.9989 -0.0397 0.0253
vn 0.3668 -0.1625 0.9160
vn -0.4306 -0.1332 0.8927
vn -0.5074 0.4828 0.7138
vn -0.9989 0.0380 -0.0279
vn -0.8197 -0.4848 0.3051
vn -0.4986 -0.4456 -0.7435
vn -0.4247 -0.8657 -0.2651
vn 0.5056 -0.4833 -0.7147
vn 0.3724 -0.8962 -0.2410
vn 0.7615 -0.5470 0.3477
vn -0.4247 -0.8656 -0.2652
vn 0.3724 -0.8962 -0.2412
vn 0.7616 -0.5469 0.3475
vn 0.3669 -0.1624 0.9160
vn 0.6149 -0.4170 0.6694
vn 0.6487 0.7175 0.2538
vn 0.5955 0.1309 0.7926
vn 0.7191 0.6379 -0.2757
vn 0.5070 -0.8611 0.0377
vn 0.5981 0.0599 -0.7992
vn -0.6250 -0.7806 -0.0005
vn -0.5342 0.1397 -0.8337
vn -0.7084 -0.3164 0.6309
vn -0.6035 0.7332 -0.3133
vn -0.5547 0.8031 0.2175
vn -0.6180 0.2174 0.7555
vn -0.6412 -0.7667 -0.0326
vn -0.5979 0.0238 -0.8012
vn -0.6145 -0.5347 -0.5800
vn -0.6195 0.7848 -0.0208
vn -0.6599 -0.0031 0.7513
vn -0.6599 -0.5486 0.5134
vn -0.6428 0.5556 0.5273
vn -0.6011 0.5663 -0.5639
vn 0.6413 0.7666 0.0326
vn -0.6430 0.5555 0.5273
vn 0.6146 0.5347 0.5799
vn 0.5980 -0.0237 0.8012
vn -0.6601 -0.0031 0.7512
vn 0.6012 -0.5663 0.5638
vn -0.6600 -0.5485 0.5134
vn 0.6599 0.5486 -0.5134
vn 0.6145 0.5348 0.5800
vn 0.6011 -0.5663 0.5639
vn 0.5979 -0.0236 0.8013
vn 0.6429 -0.5557 -0.5272
vn 0.6193 -0.7849 0.0209
vn 0.6600 0.0031 -0.7513
vn -0.5980 0.0237 -0.8011
vn 0.6601 0.0031 -0.7512
vn -0.6146 -0.5347 -0.5800
vn 0.6430 -0.5556 -0.5272
vn -0.6414 -0.7665 -0.0326
vn 0.6195 -0.7847 0.0208
vn -0.6600 -0.5484 0.5135
vn 0.6012 -0.5662 0.5639
vn 0.4658 0.1109 0.8779
vn -0.8113 0.4190 0.4078
vn 0.0530 -0.3237 0.9447
vn -0.0436 -0.6606 0.7495
vn -0.9745 0.1420 0.1738
vn -0.3981 0.8514 0.3414
vn -0.0098 0.9960 -0.0885
vn 0.8574 0.2532 0.4480
vn 0.9897 0.0848 0.1156
vn 0.9987 0.0416 0.0287
vn 0.0566 0.8866 -0.4590
vn 0.0667 0.8384 -0.5410
vn -0.0612 -0.7290 0.6818
vn -0.9915 0.0782 0.1040
vn 0.0669 0.8384 -0.5410
vn 0.0568 0.8866 -0.4590
vn -0.8113 0.4188 0.4080
vn -0.0097 0.9960 -0.0883
vn -0.3981 0.8514 0.3416
vn 0.9897 0.0850 0.1155
vn 0.9987 0.0418 0.0286
vn 0.0528 -0.3236 0.9447
vn 0.8574 0.2534 0.4480
vn 0.4658 0.1111 0.8779
vn 0.6721 0.6182 -0.4075
vn -0.6100 0.7844 0.1123
vn 0.6487 0.7420 0.1692
vn 0.6733 0.5352 0.5102
vn -0.6803 0.5797 0.4485
vn -0.5882 0.6620 -0.4645
vn -0.5888 0.1693 -0.7904
vn 0.6697 0.1256 -0.7319
vn 0.7010 -0.2661 -0.6617
vn 0.6954 -0.3578 -0.6232
vn -0.6526 -0.2200 -0.7250
vn -0.6564 -0.3126 -0.6866
vn 0.6671 0.4655 0.5816
vn -0.6848 0.5104 0.5202
vn -0.6562 -0.3126 -0.6868
vn -0.6525 -0.2201 -0.7251
vn -0.6098 0.7845 0.1124
vn -0.5886 0.1694 -0.7905
vn -0.5880 0.6621 -0.4646
vn 0.7009 -0.2661 -0.6618
vn 0.6952 -0.3579 -0.6234
vn 0.6486 0.7421 0.1692
vn 0.6695 0.1255 -0.7321
vn 0.6719 0.6183 -0.4076
vn 0.6267 -0.5842 0.5158
vn -0.2043 -0.1328 0.9699
vn 0.5934 -0.5745 0.5637
vn -0.1678 -0.1591 0.9729
vn -0.7918 0.4296 0.4341
vn -0.7953 0.4357 0.4216
vn -0.6267 0.5842 -0.5157
vn -0.5935 0.5746 -0.5636
vn 0.1678 0.1592 -0.9729
vn 0.2043 0.1328 -0.9699
vn 0.7953 -0.4357 -0.4215
vn 0.7918 -0.4297 -0.4341
vn 0.5934 -0.5746 0.5637
vn -0.0758 -0.7906 0.6076
vn 0.4726 0.1241 0.8725
vn -0.5042 0.1934 0.8416
vn -0.0757 -0.7876 0.6115
vn -0.5332 -0.7532 -0.3852
vn 0.4450 -0.8223 -0.3548
vn 0.8210 -0.0762 -0.5659
vn -0.7888 0.0398 -0.6134
vn 0.8400 0.5077 0.1914
vn 0.8210 -0.0762 -0.5658
vn 0.0720 0.7897 -0.6093
vn 0.0778 0.7892 -0.6091
vn -0.7888 0.0398 -0.6133
vn -0.7696 0.6222 0.1434
vn -0.7696 0.6222 0.1435
vn 0.5074 -0.4828 -0.7137
vn 0.9989 -0.0380 0.0279
vn -0.4996 -0.4452 -0.7431
vn -0.4987 -0.4456 -0.7435
vn -0.9989 0.0397 -0.0252
vn -0.5056 0.4833 0.7147
vn -0.5074 0.4828 0.7137
vn 0.4987 0.4456 0.7435
vn 0.9266 0.3161 -0.2039
vn 0.7996 -0.5757 0.1709
vn 0.9315 0.3347 -0.1427
vn 0.0789 0.8554 -0.5119
vn 0.0771 0.9385 -0.3366
vn 0.0774 0.8976 -0.4339
vn 0.8415 0.3647 -0.3985
vn 0.7739 -0.5577 -0.3001
vn -0.0852 -0.9602 -0.2660
vn -0.0769 -0.9469 0.3122
vn 0.8014 -0.5156 0.3032
vn -0.0744 -0.8487 0.5236
vn 0.0638 0.5098 -0.8579
vn -0.7558 0.4795 -0.4459
vn 0.8415 0.3647 -0.3987
vn 0.5987 -0.1181 -0.7922
vn 0.0252 -0.0959 -0.9951
vn -0.5616 -0.0707 -0.8244
vn -0.1240 -0.6885 -0.7146
vn -0.0851 -0.9602 -0.2659
vn 0.7739 -0.5577 -0.3002
vn -0.7993 -0.4624 -0.3837
vn -0.8644 0.4649 -0.1914
vn -0.7994 -0.4624 -0.3836
vn -0.8821 -0.4546 0.1236
vn -0.8822 -0.3943 0.2573
vn -0.8573 0.4477 -0.2543
vn -0.3824 -0.5476 -0.7442
vn 0.3898 -0.5680 -0.7248
vn 0.3918 -0.5676 -0.7241
vn -0.3816 -0.5478 -0.7445
vn -0.9251 -0.2019 -0.3216
vn -0.9238 -0.2038 -0.3240
vn -0.9247 0.2561 0.2818
vn -0.9261 0.2540 0.2789
vn -0.3899 0.5681 0.7248
vn -0.3919 0.5676 0.7240
vn 0.3817 0.5478 0.7445
vn 0.3824 0.5476 0.7442
vn 0.9239 0.2038 0.3240
vn 0.9251 0.2019 0.3216
vn 0.9261 -0.2540 -0.2789
vn 0.9247 -0.2561 -0.2817
vn 0.3920 -0.5676 -0.7240
vn 0.3900 -0.5680 -0.7248
vn 0.9900 -0.0726 0.1209
vn 0.9842 -0.1758 0.0201
vn 0.9878 -0.1098 -0.1105
vn 0.9848 -0.1643 -0.0554
vn 0.9862 -0.1409 0.0870
vn 0.9969 0.0583 0.0530
vn 0.9941 0.0039 0.1080
vn 0.9973 0.0700 -0.0222
vn 0.9918 -0.0332 -0.1234
vn -0.9390 -0.0052 -0.3440
vn -0.9533 -0.2982 -0.0475
vn -0.9425 -0.1111 0.3153
vn -0.9506 -0.2636 0.1638
vn -0.9813 -0.1894 -0.0343
vn -0.9492 -0.2008 -0.2423
vn -0.9787 -0.1198 -0.1670
vn -0.9794 -0.1667 0.1141
vn -0.9722 0.2341 -0.0018
vn -0.9727 0.2257 0.0540
vn -0.9741 0.2003 0.1048
vn -0.9763 0.1599 0.1455
vn -0.9791 0.1089 0.1720
vn -0.9717 0.0131 -0.2357
vn -0.9820 0.0523 0.1815
vn -0.9849 -0.0041 0.1731
vn -0.9630 0.1613 -0.2160
vn -0.9875 -0.0546 0.1479
vn -0.9896 -0.0945 0.1086
vn -0.9564 0.2697 -0.1123
vn -0.9910 -0.1201 0.0591
vn -0.9916 -0.1290 0.0039
vn -0.9552 0.2938 0.0362
vn -0.9914 -0.1204 -0.0516
vn -0.9902 -0.0948 -0.1022
vn -0.9594 0.2247 0.1703
vn -0.9883 -0.0546 -0.1427
vn -0.9856 -0.0038 -0.1691
vn -0.9666 0.0906 0.2397
vn -0.9825 0.0525 -0.1787
vn -0.9739 -0.0588 0.2190
vn -0.9313 0.1056 0.3485
vn -0.9209 0.3022 0.2463
vn -0.9794 0.1088 -0.1704
vn -0.9176 0.3635 -0.1611
vn -0.9154 0.3993 0.0504
vn -0.9266 0.2106 -0.3114
vn -0.9742 0.1992 -0.1063
vn -0.9765 0.1592 -0.1454
vn -0.9727 0.2249 -0.0569
vn 0.6940 -0.5544 -0.4594
vn -0.9098 -0.4114 0.0552
vn -0.7156 -0.5240 -0.4620
vn 0.6287 -0.7250 -0.2814
vn -0.0419 -0.9976 -0.0548
vn 0.3417 -0.9329 -0.1139
vn -0.6828 -0.6694 -0.2927
vn 0.8858 -0.1823 0.4268
vn -0.6986 0.3400 0.6296
vn 0.7125 0.2796 0.6436
vn -0.6588 0.1293 0.7411
vn -0.0197 -0.2008 0.9794
vn -0.3948 -0.1027 0.9130
vn 0.6531 0.0716 0.7539
vn 0.3649 -0.1367 0.9209
vn 0.6945 -0.2456 -0.6763
vn 0.6642 0.4887 0.5657
vn 0.6928 -0.3373 -0.6374
vn 0.6666 0.5583 0.4940
vn 0.6491 0.1449 -0.7467
vn 0.6277 0.7632 0.1534
vn 0.6426 0.6384 -0.4236
vn -0.6887 0.5590 0.4618
vn 0.6279 0.7631 0.1534
vn -0.6325 0.7646 0.1237
vn -0.6893 0.4899 0.5338
vn -0.6606 -0.2434 -0.7101
vn -0.6323 0.7647 0.1237
vn -0.6109 0.1477 -0.7778
vn -0.6607 -0.3359 -0.6714
vn -0.6191 0.6413 -0.4532
vn 0.6428 0.6384 -0.4235
vn -0.6193 0.6412 -0.4531
vn -0.6110 0.1477 -0.7777
vn 0.6492 0.1449 -0.7467
vn 0.6946 -0.2456 -0.6762
vn 0.6930 -0.3373 -0.6372
vn -0.6608 -0.2434 -0.7100
vn -0.6608 -0.3357 -0.6713
vn -0.7072 -0.3220 0.6294
vn -0.1921 0.9440 -0.2682
vn -0.3404 -0.3393 0.8769
vn -0.6158 0.7248 -0.3090
vn -0.6181 0.2184 0.7552
vn -0.5674 0.7954 0.2130
vn 0.3386 0.9057 -0.2551
vn 0.2381 -0.3859 0.8913
vn 0.7299 0.6275 -0.2710
vn 0.6603 0.7080 0.2503
vn 0.6166 -0.4138 0.6698
vn 0.5958 0.1319 0.7923
vn 0.6307 -0.1547 -0.7604
vn -0.6438 0.4742 -0.6006
vn 0.6884 0.4180 -0.5928
vn -0.6373 -0.1071 -0.7631
vn 0.6883 -0.5648 -0.4552
vn -0.7263 -0.5058 -0.4655
vn 0.6286 -0.7250 -0.2813
vn -0.0419 -0.9976 -0.0547
vn 0.3418 -0.9329 -0.1139
vn -0.4174 -0.9007 -0.1205
vn 0.6956 0.6644 -0.2735
vn -0.6356 0.7192 -0.2808
vn -0.6123 0.7274 0.3098
vn -0.6902 0.3401 0.6387
vn 0.6603 0.6795 0.3198
vn 0.7205 0.2924 0.6289
vn 0.6531 0.0716 0.7538
vn -0.3948 -0.1026 0.9130
vn 0.3649 -0.1368 0.9209
vn -0.0195 -0.2007 0.9795
vn -0.6588 0.1292 0.7412
vn -0.9798 0.1311 0.1511
vn -0.0632 -0.7097 0.7017
vn -0.0479 -0.6390 0.7677
vn 0.9858 0.1047 0.1315
vn 0.9972 0.0594 0.0458
vn -0.9944 0.0653 0.0827
vn -0.8256 0.4174 0.3797
vn 0.0515 0.8737 -0.4837
vn 0.0396 -0.2947 0.9548
vn -0.8256 0.4175 0.3795
vn 0.4468 0.1445 0.8829
vn -0.4184 0.8544 0.3081
vn -0.0242 0.9927 -0.1181
vn 0.8443 0.2805 0.4566
vn 0.9858 0.1045 0.1316
vn 0.9972 0.0592 0.0460
vn 0.0513 0.8737 -0.4837
vn 0.0634 0.8233 -0.5640
vn -0.0241 0.9927 -0.1180
vn 0.0636 0.8233 -0.5640
vn -0.4184 0.8544 0.3083
vn 0.8443 0.2807 0.4566
vn 0.0395 -0.2946 0.9548
vn 0.4467 0.1447 0.8829
vn -0.1762 -0.7941 0.5816
vn 0.3716 0.0946 0.9236
vn -0.0350 -0.3461 0.9376
vn 0.9985 0.0499 0.0215
vn 0.4479 -0.8347 -0.3202
vn 0.0191 -0.9977 0.0643
vn 0.8550 -0.3970 -0.3338
vn 0.8027 0.2563 0.5385
vn 0.1761 0.7942 -0.5816
vn 0.0348 0.3462 -0.9375
vn 0.8550 -0.3971 -0.3336
vn -0.4480 0.8347 0.3202
vn 0.3716 0.0944 0.9236
vn -0.0192 0.9977 -0.0644
vn -0.0349 -0.3462 0.9375
vn -0.8550 0.3971 0.3336
vn -0.1760 -0.7943 0.5815
vn -0.9985 -0.0498 -0.0216
vn -0.8027 -0.2564 -0.5385
vn -0.8550 0.3969 0.3337
vn 0.0350 0.3461 -0.9375
vn -0.4480 0.8347 0.3204
vn -0.9985 -0.0499 -0.0215
vn -0.3715 -0.0945 -0.9236
vn -0.3716 -0.0944 -0.9236
vn 0.4481 -0.8347 -0.3201
vn -0.8027 -0.2562 -0.5385
vn 0.0193 -0.9977 0.0643
vn -0.9985 -0.0497 -0.0215
vn -0.1760 -0.7942 0.5816
vn 0.5956 0.1309 0.7925
vn -0.5675 0.7954 0.2129
vn -0.6181 0.2185 0.7551
vn 0.6150 -0.4170 0.6693
vn -0.7074 -0.3219 0.6293
vn 0.6488 0.7174 0.2538
vn -0.6160 0.7246 -0.3090
vn 0.7192 0.6377 -0.2757
vn -0.1921 0.9440 -0.2683
vn 0.5980 0.0598 -0.7992
vn -0.5344 0.1396 -0.8336
vn 0.3385 0.9057 -0.2552
vn -0.6036 0.7331 -0.3133
vn 0.7300 0.6274 -0.2710
vn 0.6605 0.7079 0.2503
vn -0.5548 0.8031 0.2175
vn -0.6181 0.2174 0.7554
vn 0.5958 0.1319 0.7922
vn 0.6167 -0.4138 0.6697
vn -0.7086 -0.3163 0.6308
vn -0.6250 -0.7807 -0.0007
vn 0.2380 -0.3860 0.8913
vn -0.3403 -0.3395 0.8769
vn 0.5070 -0.8611 0.0376
vn 0.6710 -0.5766 0.4660
vn -0.1128 0.0480 0.9925
vn 0.5838 -0.5119 0.6302
vn -0.0462 -0.0074 0.9989
vn -0.6780 0.5382 0.5007
vn -0.7112 0.5698 0.4117
vn -0.6711 0.5766 -0.4660
vn -0.5839 0.5120 -0.6301
vn 0.0461 0.0074 -0.9989
vn 0.1128 -0.0481 -0.9925
vn 0.7113 -0.5699 -0.4115
vn 0.6780 -0.5383 -0.5006
vn 0.6710 -0.5766 0.4661
vn 0.5837 -0.5119 0.6303
vn -0.0200 -0.7871 0.6165
vn -0.8012 0.5377 0.2624
vn -0.9474 0.2548 -0.1939
vn -0.0297 -0.2930 0.9557
vn 0.7954 0.3547 0.4914
vn 0.9991 0.0071 0.0408
vn -0.0202 -0.7871 0.6165
vn 0.2340 0.9709 0.0506
vn 0.9991 0.0070 0.0409
vn 0.3235 0.7629 -0.5597
vn -0.9473 0.2550 -0.1939
vt 0.731732 0.345146
vt 0.721216 0.343953
vt 0.720624 0.347004
vt 0.731269 0.348340
vt 0.718616 0.364064
vt 0.709695 0.345366
vt 0.707483 0.362331
vt 0.707546 0.365403
vt 0.695973 0.360477
vt 0.696221 0.363724
vt 0.684405 0.362929
vt 0.696916 0.370171
vt 0.686121 0.369981
vt 0.697870 0.377033
vt 0.688428 0.377056
vt 0.675765 0.372746
vt 0.679987 0.379720
vt 0.672225 0.364566
vt 0.683940 0.358858
vt 0.671235 0.358169
vt 0.686576 0.340920
vt 0.674325 0.337602
vt 0.688178 0.337063
vt 0.677244 0.331576
vt 0.692071 0.330821
vt 0.683375 0.324683
vt 0.690074 0.319355
vt 0.696793 0.324827
vt 0.704852 0.320211
vt 0.694411 0.311883
vt 0.720992 0.323477
vt 0.705251 0.328217
vt 0.714518 0.330041
vt 0.739476 0.325226
vt 0.724029 0.331378
vt 0.732701 0.338906
vt 0.733756 0.332290
vt 0.722539 0.337862
vt 0.710469 0.342403
vt 0.712311 0.336432
vt 0.699419 0.340326
vt 0.702036 0.334384
vt 0.698365 0.343399
vt 0.742804 0.339753
vt 0.743544 0.333067
vt 0.753407 0.333658
vt 0.758773 0.326369
vt 0.752878 0.340401
vt 0.762939 0.340899
vt 0.752361 0.346829
vt 0.742090 0.346109
vt 0.741723 0.349420
vt 0.752080 0.350217
vt 0.740252 0.366753
vt 0.729506 0.365546
vt 0.729339 0.368732
vt 0.718535 0.367169
vt 0.718281 0.373334
vt 0.707632 0.371615
vt 0.717965 0.379913
vt 0.707752 0.378290
vt 0.698221 0.384296
vt 0.707306 0.385437
vt 0.717221 0.386983
vt 0.727660 0.388526
vt 0.728441 0.381478
vt 0.728932 0.374925
vt 0.739097 0.382818
vt 0.739607 0.376255
vt 0.749862 0.383875
vt 0.738401 0.389872
vt 0.749305 0.390946
vt 0.760685 0.384647
vt 0.760286 0.391733
vt 0.771298 0.392240
vt 0.771536 0.385143
vt 0.782312 0.392481
vt 0.782392 0.385375
vt 0.793319 0.392469
vt 0.793244 0.385369
vt 0.804080 0.385102
vt 0.804305 0.392201
vt 0.814881 0.384591
vt 0.815246 0.391682
vt 0.803917 0.378470
vt 0.814621 0.377973
vt 0.825625 0.383838
vt 0.825313 0.377240
vt 0.836274 0.382852
vt 0.826108 0.390919
vt 0.836820 0.389926
vt 0.846760 0.381661
vt 0.847249 0.388756
vt 0.835999 0.376285
vt 0.846677 0.375072
vt 0.856994 0.380431
vt 0.857364 0.373757
vt 0.866896 0.379584
vt 0.857165 0.387593
vt 0.866252 0.386826
vt 0.876316 0.380005
vt 0.874153 0.387141
vt 0.884634 0.383019
vt 0.880586 0.389446
vt 0.878903 0.373035
vt 0.889135 0.376227
vt 0.892998 0.368207
vt 0.880895 0.366067
vt 0.894246 0.361871
vt 0.869056 0.366369
vt 0.881518 0.362029
vt 0.868116 0.372771
vt 0.857676 0.367537
vt 0.869410 0.363150
vt 0.879642 0.343996
vt 0.867780 0.345967
vt 0.857838 0.364453
vt 0.856364 0.347409
vt 0.846683 0.365795
vt 0.846642 0.368901
vt 0.835803 0.370086
vt 0.835756 0.366892
vt 0.825071 0.370964
vt 0.845353 0.348661
vt 0.834667 0.349613
vt 0.824978 0.367702
vt 0.824173 0.350366
vt 0.814324 0.368286
vt 0.814412 0.371650
vt 0.803789 0.372117
vt 0.793180 0.372365
vt 0.803751 0.368718
vt 0.793205 0.378732
vt 0.782482 0.378737
vt 0.771752 0.378515
vt 0.782569 0.372376
vt 0.761026 0.378035
vt 0.771955 0.372163
vt 0.750309 0.377285
vt 0.761336 0.371707
vt 0.750705 0.370989
vt 0.772067 0.368758
vt 0.761495 0.368326
vt 0.740047 0.370017
vt 0.750904 0.367650
vt 0.762382 0.350827
vt 0.772648 0.351220
vt 0.772776 0.347739
vt 0.762581 0.347380
vt 0.772996 0.341229
vt 0.783056 0.341397
vt 0.773212 0.334434
vt 0.763297 0.334123
vt 0.783147 0.334600
vt 0.793121 0.341401
vt 0.782964 0.347916
vt 0.793156 0.347912
vt 0.782902 0.351408
vt 0.793160 0.351397
vt 0.782629 0.368962
vt 0.793187 0.368950
vt 0.803443 0.351198
vt 0.813775 0.350793
vt 0.813613 0.347401
vt 0.803366 0.347750
vt 0.813291 0.341001
vt 0.803194 0.341267
vt 0.803020 0.334490
vt 0.793085 0.334600
vt 0.797948 0.326998
vt 0.778316 0.326980
vt 0.817531 0.326607
vt 0.812959 0.334275
vt 0.822861 0.333952
vt 0.836676 0.325792
vt 0.833556 0.340152
vt 0.832727 0.333530
vt 0.823408 0.340663
vt 0.843766 0.339434
vt 0.842474 0.332875
vt 0.854405 0.324163
vt 0.852119 0.332022
vt 0.854072 0.338429
vt 0.844879 0.345579
vt 0.855691 0.344440
vt 0.864418 0.336724
vt 0.866820 0.342813
vt 0.878191 0.340070
vt 0.874557 0.333662
vt 0.870092 0.327502
vt 0.883560 0.327961
vt 0.861406 0.330337
vt 0.868413 0.319346
vt 0.877225 0.322307
vt 0.889363 0.335087
vt 0.892021 0.341209
vt 0.834316 0.346405
vt 0.823920 0.347051
vt 0.690294 0.384277
vt 0.683766 0.386311
vt 0.650858 0.264661
vt 0.661119 0.261366
vt 0.656425 0.261692
vt 0.661252 0.264154
vt 0.663777 0.264035
vt 0.663684 0.261244
vt 0.676452 0.261246
vt 0.673859 0.263972
vt 0.676394 0.264035
vt 0.673900 0.261179
vt 0.681178 0.261426
vt 0.686845 0.264220
vt 0.647307 0.259260
vt 0.671348 0.261138
vt 0.671333 0.263931
vt 0.666245 0.261165
vt 0.666297 0.263958
vt 0.668798 0.261131
vt 0.668814 0.263924
vt 0.690216 0.258697
vt 0.647222 0.254887
vt 0.656241 0.252103
vt 0.690150 0.254321
vt 0.681035 0.251839
vt 0.650565 0.249231
vt 0.686620 0.248780
vt 0.676293 0.252061
vt 0.660978 0.249394
vt 0.660940 0.252185
vt 0.676180 0.249274
vt 0.673722 0.252130
vt 0.673646 0.249339
vt 0.663521 0.249405
vt 0.663498 0.252198
vt 0.671159 0.252170
vt 0.671115 0.249378
vt 0.666053 0.252200
vt 0.666058 0.249407
vt 0.668588 0.249399
vt 0.668605 0.252192
vt 0.318906 0.038640
vt 0.314446 0.033984
vt 0.314266 0.038650
vt 0.318718 0.033975
vt 0.323529 0.038272
vt 0.328111 0.037547
vt 0.322977 0.033636
vt 0.327194 0.032967
vt 0.325730 0.025681
vt 0.322095 0.026258
vt 0.318340 0.026551
vt 0.314821 0.026559
vt 0.321160 0.024867
vt 0.311994 0.024888
vt 0.322831 0.021958
vt 0.310309 0.021986
vt 0.322824 0.018602
vt 0.310301 0.018631
vt 0.321139 0.015701
vt 0.311973 0.015721
vt 0.318230 0.014029
vt 0.314875 0.014037
vt 0.310187 0.033657
vt 0.311081 0.026279
vt 0.305975 0.032987
vt 0.307473 0.025701
vt 0.301854 0.031967
vt 0.303939 0.024807
vt 0.300473 0.023576
vt 0.297913 0.030602
vt 0.294305 0.028909
vt 0.296960 0.022141
vt 0.291531 0.032496
vt 0.295929 0.034893
vt 0.300461 0.036458
vt 0.305025 0.037569
vt 0.309631 0.038296
vt 0.329300 0.024818
vt 0.331342 0.031969
vt 0.332778 0.023660
vt 0.335381 0.030642
vt 0.336164 0.022189
vt 0.339223 0.029019
vt 0.339570 0.020513
vt 0.342702 0.027084
vt 0.341480 0.033184
vt 0.345712 0.030484
vt 0.337065 0.035022
vt 0.332629 0.036464
vt 0.304155 0.053698
vt 0.362681 0.048733
vt 0.304178 0.048479
vt 0.362659 0.053953
vt 0.362636 0.059171
vt 0.304133 0.058920
vt 0.304112 0.064142
vt 0.362617 0.064390
vt 0.304091 0.069364
vt 0.362595 0.069610
vt 0.304070 0.074585
vt 0.362574 0.074829
vt 0.304047 0.079806
vt 0.362552 0.080049
vt 0.367131 0.067014
vt 0.371660 0.064417
vt 0.371675 0.059197
vt 0.367163 0.056574
vt 0.245976 0.098336
vt 0.241749 0.090869
vt 0.241718 0.095808
vt 0.246038 0.088457
vt 0.254475 0.099439
vt 0.254552 0.087204
vt 0.267511 0.099519
vt 0.267589 0.087284
vt 0.276023 0.098523
vt 0.276086 0.088645
vt 0.280344 0.091111
vt 0.280312 0.096050
vt 0.976888 0.106611
vt 0.981531 0.109160
vt 0.979738 0.106925
vt 0.978981 0.113803
vt 0.974339 0.111253
vt 0.974652 0.108404
vt 0.976132 0.113490
vt 0.981217 0.112010
vt 0.981232 0.116612
vt 0.976744 0.115594
vt 0.978994 0.118405
vt 0.976755 0.120196
vt 0.974506 0.117385
vt 0.974516 0.121988
vt 0.972267 0.119176
vt 0.983470 0.114818
vt 0.980919 0.119462
vt 0.985563 0.122014
vt 0.982713 0.121700
vt 0.988114 0.117369
vt 0.987800 0.120220
vt 0.986320 0.115132
vt 0.983452 0.110216
vt 0.985707 0.113022
vt 0.985686 0.108420
vt 0.987942 0.111226
vt 0.987919 0.106623
vt 0.990176 0.109428
vt 0.990152 0.104826
vt 0.992409 0.107631
vt 0.762720 0.139043
vt 0.760437 0.137927
vt 0.760596 0.139290
vt 0.758449 0.139540
vt 0.758291 0.138177
vt 0.762561 0.137680
vt 0.764695 0.137432
vt 0.764854 0.138795
vt 0.766993 0.138546
vt 0.772139 0.137948
vt 0.766834 0.137183
vt 0.771980 0.136585
vt 0.753346 0.140134
vt 0.753187 0.138771
vt 0.753218 0.131984
vt 0.758284 0.132656
vt 0.760235 0.137386
vt 0.760243 0.133481
vt 0.761051 0.135441
vt 0.759710 0.144915
vt 0.754933 0.146733
vt 0.760523 0.139864
vt 0.761427 0.143663
vt 0.761764 0.141571
vt 0.718943 0.061590
vt 0.696443 0.059806
vt 0.696443 0.061590
vt 0.718943 0.059806
vt 0.696443 0.058021
vt 0.718943 0.058021
vt 0.696443 0.056237
vt 0.718943 0.056237
vt 0.696443 0.054452
vt 0.718943 0.054452
vt 0.696443 0.052667
vt 0.718943 0.052667
vt 0.718943 0.050883
vt 0.696443 0.050883
vt 0.874805 0.080042
vt 0.869212 0.072700
vt 0.869314 0.080119
vt 0.874701 0.072623
vt 0.880260 0.079966
vt 0.880155 0.072546
vt 0.890567 0.072400
vt 0.890672 0.079820
vt 0.858800 0.072843
vt 0.869153 0.063851
vt 0.858742 0.063974
vt 0.853624 0.064014
vt 0.853681 0.072901
vt 0.848507 0.064040
vt 0.838094 0.064051
vt 0.848563 0.072908
vt 0.838150 0.072900
vt 0.858901 0.080263
vt 0.339917 0.089752
vt 0.362603 0.087195
vt 0.340026 0.086450
vt 0.362493 0.090497
vt 0.339807 0.093054
vt 0.362384 0.093800
vt 0.339698 0.096356
vt 0.362275 0.097103
vt 0.339589 0.099657
vt 0.362165 0.100405
vt 0.339479 0.102959
vt 0.362056 0.103707
vt 0.339370 0.106261
vt 0.361946 0.107009
vt 0.390167 0.302507
vt 0.406277 0.309247
vt 0.406887 0.303165
vt 0.391046 0.297441
vt 0.407170 0.297143
vt 0.450238 0.296651
vt 0.450619 0.299743
vt 0.451394 0.302921
vt 0.452107 0.306147
vt 0.406172 0.314941
vt 0.388337 0.307967
vt 0.387243 0.313501
vt 0.451704 0.295927
vt 0.450452 0.293232
vt 0.453508 0.298481
vt 0.454387 0.296385
vt 0.453532 0.294890
vt 0.452675 0.293407
vt 0.455348 0.293837
vt 0.456766 0.293006
vt 0.456633 0.296718
vt 0.453467 0.291292
vt 0.406670 0.291125
vt 0.451130 0.290062
vt 0.405845 0.285060
vt 0.451738 0.286813
vt 0.405548 0.279377
vt 0.387966 0.287021
vt 0.386672 0.281529
vt 0.389988 0.292410
vt 0.476861 0.250099
vt 0.520637 0.240165
vt 0.476583 0.241614
vt 0.520917 0.248652
vt 0.476917 0.251799
vt 0.520971 0.250355
vt 0.477055 0.256008
vt 0.521110 0.254568
vt 0.477110 0.257708
vt 0.521165 0.256271
vt 0.477386 0.266193
vt 0.521441 0.264758
vt 0.477441 0.267894
vt 0.521496 0.266460
vt 0.477578 0.272104
vt 0.521633 0.270671
vt 0.477633 0.273805
vt 0.521688 0.272373
vt 0.622158 0.361207
vt 0.635946 0.341774
vt 0.621726 0.322656
vt 0.631942 0.329905
vt 0.632210 0.353730
vt 0.599416 0.354099
vt 0.609632 0.361348
vt 0.599149 0.330273
vt 0.595412 0.342229
vt 0.609200 0.322796
vt 0.650896 0.365129
vt 0.642870 0.367747
vt 0.642881 0.376189
vt 0.641505 0.371970
vt 0.638637 0.364680
vt 0.646458 0.365134
vt 0.644836 0.360164
vt 0.636275 0.371977
vt 0.629962 0.362450
vt 0.633816 0.357131
vt 0.639128 0.353262
vt 0.645374 0.351224
vt 0.651945 0.351216
vt 0.652506 0.360154
vt 0.658196 0.353238
vt 0.663517 0.357093
vt 0.658717 0.364654
vt 0.667386 0.362403
vt 0.669424 0.368650
vt 0.661096 0.371945
vt 0.669432 0.375220
vt 0.667409 0.381472
vt 0.658735 0.379242
vt 0.663554 0.386791
vt 0.658243 0.390660
vt 0.652535 0.383757
vt 0.651997 0.392697
vt 0.645426 0.392706
vt 0.644866 0.383767
vt 0.639176 0.390683
vt 0.638655 0.379267
vt 0.646475 0.378793
vt 0.650913 0.378787
vt 0.633854 0.386828
vt 0.655867 0.371952
vt 0.654501 0.376174
vt 0.654490 0.367733
vt 0.627948 0.375272
vt 0.629986 0.381519
vt 0.627939 0.368703
vt 0.973029 0.005486
vt 0.977549 0.016240
vt 0.977698 0.004883
vt 0.972900 0.015280
vt 0.970559 0.006110
vt 0.968042 0.010319
vt 0.968733 0.007879
vt 0.970448 0.014592
vt 0.968669 0.012776
vt 0.987375 0.005011
vt 0.987225 0.016369
vt 0.991898 0.015530
vt 0.992027 0.005736
vt 0.994367 0.014907
vt 0.996884 0.010699
vt 0.996193 0.013138
vt 0.994479 0.006424
vt 0.996258 0.008241
vt 0.733953 0.138845
vt 0.727589 0.134064
vt 0.729176 0.140663
vt 0.732692 0.133470
vt 0.735670 0.137593
vt 0.734766 0.133794
vt 0.736006 0.135501
vt 0.732534 0.132107
vt 0.734839 0.133220
vt 0.734681 0.131857
vt 0.727430 0.132700
vt 0.732527 0.126586
vt 0.734478 0.131316
vt 0.734486 0.127411
vt 0.727461 0.125914
vt 0.735293 0.129371
vt 0.736963 0.132974
vt 0.736804 0.131611
vt 0.738938 0.131362
vt 0.739097 0.132725
vt 0.741236 0.132476
vt 0.746382 0.131878
vt 0.741077 0.131113
vt 0.746223 0.130515
vt 0.301064 0.106639
vt 0.307106 0.117504
vt 0.307240 0.106047
vt 0.300955 0.116474
vt 0.296760 0.109088
vt 0.296741 0.114005
vt 0.314555 0.117592
vt 0.314689 0.106135
vt 0.320728 0.116707
vt 0.324999 0.114338
vt 0.320850 0.106873
vt 0.325095 0.109422
vt 0.262993 0.046340
vt 0.269307 0.058624
vt 0.269500 0.046445
vt 0.262792 0.058519
vt 0.252587 0.047151
vt 0.252420 0.056983
vt 0.250105 0.047767
vt 0.247562 0.051983
vt 0.248266 0.049536
vt 0.249960 0.056282
vt 0.248182 0.054452
vt 0.273791 0.046512
vt 0.273608 0.058691
vt 0.280021 0.058784
vt 0.290435 0.057566
vt 0.280192 0.046605
vt 0.290567 0.047733
vt 0.293028 0.048424
vt 0.294749 0.055165
vt 0.294813 0.050248
vt 0.295442 0.052715
vt 0.292916 0.056940
vt 0.308225 0.088127
vt 0.303319 0.090871
vt 0.308219 0.090914
vt 0.313182 0.088103
vt 0.313145 0.090890
vt 0.303289 0.088084
vt 0.298474 0.091027
vt 0.298353 0.088241
vt 0.292267 0.091351
vt 0.289768 0.088686
vt 0.290388 0.101662
vt 0.292661 0.098802
vt 0.298938 0.101537
vt 0.298922 0.098748
vt 0.303812 0.098737
vt 0.303834 0.101526
vt 0.308752 0.101458
vt 0.308729 0.098670
vt 0.313676 0.098624
vt 0.313687 0.101412
vt 0.322272 0.101332
vt 0.319836 0.098608
vt 0.319366 0.091143
vt 0.321699 0.088333
vt 0.826591 0.038567
vt 0.832845 0.041277
vt 0.832862 0.038519
vt 0.826658 0.041348
vt 0.826687 0.043647
vt 0.823921 0.043691
vt 0.823875 0.041346
vt 0.831213 0.043620
vt 0.826670 0.046414
vt 0.831219 0.046398
vt 0.833493 0.045208
vt 0.835153 0.042785
s 1
usemtl mat_1_013
f 2/1/1 4/2/2 1/3/3
f 1/3/3 3/4/4 2/1/1
f 3/4/4 1/3/3 6/5/5
f 5/6/6 1/3/3 4/2/2
f 1/3/3 5/6/6 7/7/7
f 7/7/7 6/5/5 1/3/3
f 6/5/5 7/7/7 9/8/8
f 8/9/9 7/7/7 5/6/6
f 7/7/7 8/9/9 10/10/10
f 10/10/10 9/8/8 7/7/7
f 11/11/11 10/10/10 8/9/9
f 9/8/8 10/10/10 12/12/12
f 10/10/10 11/11/11 13/13/13
f 13/13/13 12/12/12 10/10/10
f 14/14/14 12/12/12 13/13/13
f 13/13/13 15/15/15 14/14/14
f 15/15/15 13/13/13 16/16/16
f 16/16/16 13/13/13 11/11/11
f 16/16/16 17/17/17 15/15/15
f 11/11/11 18/18/18 16/16/16
f 18/18/18 11/11/11 19/19/19
f 19/19/19 20/20/20 18/18/18
f 20/20/20 19/19/19 21/21/21
f 21/21/21 22/22/22 20/20/20
f 22/22/22 21/21/21 23/23/23
f 23/23/23 24/24/24 22/22/22
f 24/24/24 23/23/23 25/25/25
f 25/25/25 26/26/26 24/24/24
f 27/27/27 26/26/26 25/25/25
f 25/25/25 28/28/28 27/27/27
f 27/27/27 28/28/28 29/29/29
f 29/29/29 30/30/30 27/27/27
f 32/31/31 29/29/29 31/32/32
f 29/29/29 28/28/28 31/32/32
f 31/32/32 34/33/33 32/31/31
f 33/34/34 32/31/31 35/35/35
f 32/31/31 34/33/33 35/35/35
f 36/36/36 37/37/37 35/35/35
f 35/35/35 38/38/38 36/36/36
f 35/35/35 37/37/37 33/34/34
f 38/38/38 35/35/35 34/33/33
f 39/39/39 4/2/2 38/38/38
f 38/38/38 40/40/40 39/39/39
f 34/33/33 40/40/40 38/38/38
f 36/36/36 38/38/38 4/2/2
f 41/41/41 39/39/39 40/40/40
f 40/40/40 42/42/42 41/41/41
f 31/32/32 42/42/42 40/40/40
f 40/40/40 34/33/33 31/32/32
f 23/23/23 41/41/41 42/42/42
f 42/42/42 25/25/25 23/23/23
f 42/42/42 31/32/32 28/28/28
f 28/28/28 25/25/25 42/42/42
f 39/39/39 41/41/41 43/43/43
f 21/21/21 43/43/43 41/41/41
f 41/41/41 23/23/23 21/21/21
f 43/43/43 5/6/6 39/39/39
f 43/43/43 21/21/21 19/19/19
f 19/19/19 8/9/9 43/43/43
f 5/6/6 43/43/43 8/9/9
f 4/2/2 39/39/39 5/6/6
f 44/44/44 45/45/45 37/37/37
f 37/37/37 36/36/36 44/44/44
f 33/34/34 37/37/37 45/45/45
f 45/45/45 46/46/46 47/47/47
f 48/48/48 46/46/46 45/45/45
f 45/45/45 44/44/44 48/48/48
f 47/47/47 33/34/34 45/45/45
f 46/46/46 48/48/48 49/49/49
f 49/49/49 48/48/48 50/50/50
f 51/51/51 50/50/50 48/48/48
f 48/48/48 44/44/44 51/51/51
f 51/51/51 2/1/1 3/4/4
f 2/1/1 51/51/51 44/44/44
f 3/4/4 52/52/52 51/51/51
f 50/50/50 51/51/51 52/52/52
f 52/52/52 53/53/53 50/50/50
f 53/53/53 52/52/52 54/54/54
f 55/55/55 54/54/54 52/52/52
f 52/52/52 3/4/4 55/55/55
f 54/54/54 55/55/55 56/56/56
f 55/55/55 6/5/5 57/57/57
f 6/5/5 55/55/55 3/4/4
f 57/57/57 56/56/56 55/55/55
f 56/56/56 57/57/57 58/58/58
f 57/57/57 9/8/8 59/59/59
f 9/8/8 57/57/57 6/5/5
f 59/59/59 58/58/58 57/57/57
f 60/60/60 58/58/58 59/59/59
f 61/61/61 59/59/59 12/12/12
f 12/12/12 59/59/59 9/8/8
f 59/59/59 61/61/61 60/60/60
f 12/12/12 14/14/14 61/61/61
f 61/61/61 14/14/14 62/62/62
f 60/60/60 61/61/61 63/63/63
f 62/62/62 63/63/63 61/61/61
f 63/63/63 64/64/64 60/60/60
f 64/64/64 65/65/65 66/66/66
f 66/66/66 60/60/60 64/64/64
f 58/58/58 60/60/60 66/66/66
f 66/66/66 67/67/67 58/58/58
f 67/67/67 66/66/66 68/68/68
f 68/68/68 66/66/66 65/65/65
f 68/68/68 69/69/69 67/67/67
f 69/69/69 68/68/68 70/70/70
f 70/70/70 68/68/68 71/71/71
f 65/65/65 71/71/71 68/68/68
f 71/71/71 72/72/72 70/70/70
f 73/73/73 70/70/70 72/72/72
f 72/72/72 74/74/74 73/73/73
f 74/74/74 76/75/75 75/76/76
f 75/76/76 73/73/73 74/74/74
f 76/75/75 78/77/77 77/78/78
f 77/78/78 75/76/76 76/75/75
f 78/77/77 80/79/79 79/80/80
f 79/80/80 77/78/78 78/77/77
f 81/81/81 79/80/80 80/79/79
f 80/79/79 82/82/82 81/81/81
f 84/83/83 81/81/81 82/82/82
f 82/82/82 83/84/84 84/83/83
f 85/85/85 81/81/81 84/83/83
f 84/83/83 86/86/86 85/85/85
f 86/86/86 84/83/83 87/87/87
f 87/87/87 84/83/83 83/84/84
f 88/88/88 87/87/87 89/89/89
f 87/87/87 88/88/88 86/86/86
f 89/89/89 87/87/87 90/90/90
f 83/84/84 90/90/90 87/87/87
f 90/90/90 91/91/91 89/89/89
f 93/92/92 89/89/89 91/91/91
f 91/91/91 92/93/93 93/92/92
f 95/94/94 89/89/89 93/92/92
f 93/92/92 94/95/95 95/94/94
f 94/95/95 93/92/92 96/96/96
f 96/96/96 93/92/92 92/93/93
f 96/96/96 97/97/97 94/95/95
f 97/97/97 96/96/96 98/98/98
f 98/98/98 96/96/96 99/99/99
f 92/93/93 99/99/99 96/96/96
f 99/99/99 100/100/100 98/98/98
f 101/101/101 98/98/98 100/100/100
f 100/100/100 102/102/102 101/101/101
f 103/103/17 101/101/101 102/102/102
f 102/102/102 104/104/103 103/103/17
f 105/105/104 101/101/101 103/103/17
f 103/103/17 106/106/16 105/105/104
f 105/105/104 106/106/16 107/107/105
f 107/107/105 109/108/106 105/105/104
f 109/108/106 107/107/105 108/109/107
f 111/110/108 109/108/106 110/111/109
f 108/109/107 110/111/109 109/108/106
f 109/108/106 111/110/108 112/112/110
f 112/112/110 105/105/104 109/108/106
f 97/97/97 112/112/110 111/110/108
f 101/101/101 105/105/104 112/112/110
f 112/112/110 98/98/98 101/101/101
f 98/98/98 112/112/110 97/97/97
f 111/110/108 113/113/111 97/97/97
f 113/113/111 111/110/108 114/114/112
f 110/111/109 114/114/112 111/110/108
f 115/115/113 116/116/114 114/114/112
f 114/114/112 110/111/109 115/115/113
f 117/117/115 114/114/112 116/116/114
f 114/114/112 117/117/115 113/113/111
f 116/116/114 118/118/116 117/117/115
f 119/119/117 117/117/115 118/118/116
f 120/120/118 113/113/111 117/117/115
f 117/117/115 119/119/117 120/120/118
f 113/113/111 120/120/118 94/95/95
f 95/94/94 94/95/95 120/120/118
f 120/120/118 121/121/119 95/94/94
f 121/121/119 120/120/118 119/119/117
f 119/119/117 123/122/120 121/121/119
f 121/121/119 122/123/121 88/88/88
f 122/123/121 121/121/119 123/122/120
f 88/88/88 95/94/94 121/121/119
f 124/124/122 125/125/123 123/122/120
f 123/122/120 119/119/117 124/124/122
f 126/126/124 123/122/120 125/125/123
f 123/122/120 126/126/124 122/123/121
f 125/125/123 127/127/125 126/126/124
f 128/128/126 126/126/124 127/127/125
f 126/126/124 128/128/126 129/129/127
f 129/129/127 122/123/121 126/126/124
f 122/123/121 129/129/127 86/86/86
f 129/129/127 130/130/128 85/85/85
f 130/130/128 129/129/127 128/128/126
f 85/85/85 86/86/86 129/129/127
f 132/131/129 130/130/128 131/132/130
f 128/128/126 131/132/130 130/130/128
f 133/133/131 85/85/85 130/130/128
f 130/130/128 132/131/129 133/133/131
f 134/134/132 133/133/131 132/131/129
f 79/80/80 133/133/131 134/134/132
f 133/133/131 79/80/80 81/81/81
f 81/81/81 85/85/85 133/133/131
f 136/135/133 134/134/132 135/136/134
f 132/131/129 135/136/134 134/134/132
f 134/134/132 77/78/78 79/80/80
f 77/78/78 134/134/132 136/135/133
f 138/137/135 136/135/133 137/138/136
f 135/136/134 137/138/136 136/135/133
f 136/135/133 75/76/76 77/78/78
f 75/76/76 136/135/133 138/137/135
f 138/137/135 73/73/73 75/76/76
f 73/73/73 138/137/135 139/139/137
f 139/139/137 138/137/135 140/140/138
f 137/138/136 140/140/138 138/137/135
f 140/140/138 143/141/139 139/139/137
f 141/142/140 142/143/141 140/140/138
f 140/140/138 137/138/136 141/142/140
f 143/141/139 140/140/138 142/143/141
f 69/69/69 139/139/137 143/141/139
f 145/144/142 143/141/139 144/145/143
f 142/143/141 144/145/143 143/141/139
f 143/141/139 145/144/142 69/69/69
f 144/145/143 54/54/54 145/144/142
f 56/56/56 145/144/142 54/54/54
f 67/67/67 69/69/69 145/144/142
f 145/144/142 56/56/56 67/67/67
f 54/54/54 144/145/143 53/53/53
f 146/146/144 53/53/53 144/145/143
f 144/145/143 142/143/141 146/146/144
f 146/146/144 147/147/145 148/148/146
f 147/147/145 146/146/144 142/143/141
f 148/148/146 149/149/147 146/146/144
f 53/53/53 146/146/144 149/149/147
f 149/149/147 50/50/50 53/53/53
f 50/50/50 149/149/147 49/49/49
f 150/150/148 49/49/49 149/149/147
f 149/149/147 148/148/146 150/150/148
f 153/151/149 150/150/148 148/148/146
f 150/150/148 151/152/150 152/153/151
f 151/152/150 150/150/148 153/151/149
f 152/153/151 49/49/49 150/150/148
f 153/151/149 154/154/152 151/152/150
f 154/154/152 153/151/149 155/155/153
f 155/155/153 153/151/149 156/156/154
f 148/148/146 156/156/154 153/151/149
f 156/156/154 157/157/155 155/155/153
f 157/157/155 156/156/154 158/158/156
f 147/147/145 158/158/156 156/156/154
f 156/156/154 148/148/146 147/147/145
f 159/159/157 158/158/156 160/160/158
f 158/158/156 159/159/157 157/157/155
f 141/142/140 160/160/158 158/158/156
f 158/158/156 147/147/145 141/142/140
f 160/160/158 161/161/159 159/159/157
f 161/161/159 160/160/158 135/136/134
f 137/138/136 135/136/134 160/160/158
f 160/160/158 141/142/140 137/138/136
f 162/162/160 159/159/157 161/161/159
f 135/136/134 132/131/129 161/161/159
f 131/132/130 161/161/159 132/131/129
f 161/161/159 131/132/130 162/162/160
f 162/162/160 163/163/161 164/164/162
f 163/163/161 162/162/160 131/132/130
f 159/159/157 162/162/160 165/165/163
f 164/164/162 165/165/163 162/162/160
f 165/165/163 157/157/155 159/159/157
f 165/165/163 164/164/162 166/166/164
f 166/166/164 167/167/165 165/165/163
f 157/157/155 165/165/163 167/167/165
f 167/167/165 168/168/166 169/169/167
f 168/168/166 167/167/165 166/166/164
f 169/169/167 155/155/153 167/167/165
f 167/167/165 155/155/153 157/157/155
f 155/155/153 169/169/167 154/154/152
f 154/154/152 169/169/167 170/170/168
f 170/170/168 169/169/167 168/168/166
f 170/170/168 171/171/169 154/154/152
f 172/172/170 170/170/168 168/168/166
f 172/172/170 173/173/171 175/174/172
f 168/168/166 173/173/171 172/172/170
f 174/175/173 172/172/170 175/174/172
f 176/176/174 178/177/175 175/174/172
f 175/174/172 177/178/176 176/176/174
f 177/178/176 175/174/172 173/173/171
f 175/174/172 178/177/175 174/175/173
f 178/177/175 176/176/174 179/179/177
f 179/179/177 180/180/178 178/177/175
f 174/175/173 178/177/175 180/180/178
f 181/181/179 174/175/173 180/180/178
f 180/180/178 182/182/180 181/181/179
f 183/183/181 182/182/180 180/180/178
f 180/180/178 179/179/177 183/183/181
f 184/184/182 186/185/183 183/183/181
f 183/183/181 179/179/177 184/184/182
f 182/182/180 183/183/181 185/186/184
f 185/186/184 183/183/181 186/185/183
f 186/185/183 187/187/185 185/186/184
f 187/187/185 186/185/183 118/118/116
f 124/124/122 118/118/116 186/185/183
f 186/185/183 184/184/182 124/124/122
f 187/187/185 188/188/186 189/189/187
f 188/188/186 187/187/185 116/116/114
f 118/118/116 116/116/114 187/187/185
f 189/189/187 185/186/184 187/187/185
f 192/190/188 189/189/187 190/191/26
f 190/191/26 189/189/187 188/188/186
f 191/192/189 185/186/184 189/189/187
f 189/189/187 192/190/188 191/192/189
f 191/192/189 192/190/188 193/193/190
f 193/193/190 192/190/188 194/194/27
f 190/191/26 194/194/27 192/190/188
f 193/193/190 181/181/179 191/192/189
f 185/186/184 191/192/189 182/182/180
f 181/181/179 182/182/180 191/192/189
f 188/188/186 195/195/191 190/191/26
f 195/195/191 188/188/186 115/115/113
f 115/115/113 196/196/192 195/195/191
f 196/196/192 115/115/113 110/111/109
f 110/111/109 108/109/107 196/196/192
f 116/116/114 115/115/113 188/188/186
f 125/125/123 124/124/122 184/184/182
f 184/184/182 197/197/193 125/125/123
f 197/197/193 184/184/182 179/179/177
f 127/127/125 125/125/123 197/197/193
f 197/197/193 198/198/194 127/127/125
f 198/198/194 197/197/193 176/176/174
f 179/179/177 176/176/174 197/197/193
f 163/163/161 127/127/125 198/198/194
f 198/198/194 164/164/162 163/163/161
f 176/176/174 177/178/176 198/198/194
f 164/164/162 198/198/194 177/178/176
f 173/173/171 166/166/164 177/178/176
f 177/178/176 166/166/164 164/164/162
f 166/166/164 173/173/171 168/168/166
f 171/171/169 151/152/150 154/154/152
f 171/171/169 47/47/47 152/153/151
f 152/153/151 151/152/150 171/171/169
f 131/132/130 128/128/126 163/163/161
f 127/127/125 163/163/161 128/128/126
f 49/49/49 152/153/151 46/46/46
f 47/47/47 46/46/46 152/153/151
f 142/143/141 141/142/140 147/147/145
f 70/70/70 139/139/137 69/69/69
f 139/139/137 70/70/70 73/73/73
f 118/118/116 124/124/122 119/119/117
f 86/86/86 88/88/88 122/123/121
f 94/95/95 97/97/97 113/113/111
f 89/89/89 95/94/94 88/88/88
f 58/58/58 67/67/67 56/56/56
f 199/199/195 62/62/62 14/14/14
f 14/14/14 15/15/15 199/199/195
f 200/200/103 199/199/195 15/15/15
f 15/15/15 17/17/17 200/200/103
f 44/44/44 36/36/36 2/1/1
f 4/2/2 2/1/1 36/36/36
f 8/9/9 19/19/19 11/11/11
f 201/201/196 202/202/197 203/203/198
f 202/202/197 201/201/196 204/204/199
f 202/202/197 205/205/200 206/206/201
f 205/205/200 202/202/197 204/204/199
f 207/207/202 208/208/203 209/209/204
f 208/208/203 207/207/202 210/210/205
f 211/211/206 209/209/204 212/212/207
f 209/209/204 211/211/206 207/207/202
f 201/201/196 203/203/198 213/213/208
f 214/214/209 208/208/203 210/210/205
f 208/208/203 214/214/209 215/215/210
f 216/216/211 205/205/200 217/217/212
f 205/205/200 216/216/211 206/206/201
f 215/215/210 218/218/213 219/219/214
f 218/218/213 215/215/210 214/214/209
f 212/212/207 220/220/215 211/211/206
f 219/219/214 216/216/211 217/217/212
f 216/216/211 219/219/214 218/218/213
f 221/221/216 203/203/198 222/222/217
f 203/203/198 221/221/216 213/213/208
f 211/211/206 223/223/218 224/224/219
f 223/223/218 211/211/206 220/220/215
f 221/221/216 222/222/217 225/225/220
f 224/224/219 223/223/218 226/226/221
f 226/226/221 227/227/222 224/224/219
f 222/222/217 228/228/223 225/225/220
f 228/228/223 222/222/217 229/229/224
f 227/227/222 226/226/221 230/230/225
f 230/230/225 231/231/203 227/227/222
f 231/231/203 230/230/225 232/232/205
f 233/233/201 229/229/224 234/234/200
f 229/229/224 233/233/201 228/228/223
f 235/235/226 232/232/205 236/236/227
f 232/232/205 235/235/226 231/231/203
f 237/237/212 233/233/201 234/234/200
f 233/233/201 237/237/212 238/238/211
f 239/239/213 235/235/226 236/236/227
f 235/235/226 239/239/213 240/240/228
f 237/237/212 239/239/213 238/238/211
f 239/239/213 237/237/212 240/240/228
f 241/241/229 243/242/230 242/243/231
f 243/242/230 241/241/229 244/244/232
f 245/245/233 244/244/232 241/241/229
f 246/246/234 247/247/235 245/245/233
f 244/244/232 245/245/233 247/247/235
f 247/247/235 246/246/234 248/248/236
f 249/249/237 247/247/235 248/248/236
f 247/247/235 249/249/237 250/250/238
f 250/250/238 244/244/232 247/247/235
f 244/244/232 250/250/238 251/251/239
f 251/251/239 243/242/230 244/244/232
f 243/242/230 251/251/239 252/252/240
f 253/253/241 252/252/240 251/251/239
f 253/253/241 254/254/242 252/252/240
f 255/255/243 254/254/242 253/253/241
f 255/255/243 256/256/244 254/254/242
f 257/257/245 256/256/244 255/255/243
f 257/257/245 258/258/246 256/256/244
f 259/259/247 258/258/246 257/257/245
f 259/259/247 260/260/248 258/258/246
f 259/259/247 261/261/249 260/260/248
f 260/260/248 261/261/249 262/262/250
f 252/252/240 263/263/251 243/242/230
f 263/263/251 252/252/240 264/264/252
f 264/264/252 265/265/253 263/263/251
f 265/265/253 264/264/252 266/266/254
f 266/266/254 267/267/255 265/265/253
f 267/267/255 266/266/254 268/268/256
f 269/269/257 267/267/255 268/268/256
f 267/267/255 269/269/257 270/270/258
f 269/269/257 271/271/259 270/270/258
f 271/271/259 269/269/257 272/272/260
f 273/273/261 270/270/258 271/271/259
f 270/270/258 273/273/261 274/274/262
f 274/274/262 267/267/255 270/270/258
f 267/267/255 274/274/262 275/275/263
f 275/275/263 265/265/253 267/267/255
f 265/265/253 275/275/263 276/276/264
f 276/276/264 263/263/251 265/265/253
f 263/263/251 276/276/264 277/277/265
f 277/277/265 243/242/230 263/263/251
f 243/242/230 277/277/265 242/243/231
f 248/248/236 278/278/266 249/249/237
f 279/279/267 280/280/268 278/278/266
f 278/278/266 248/248/236 279/279/267
f 281/281/269 282/282/270 280/280/268
f 280/280/268 279/279/267 281/281/269
f 283/283/271 284/284/272 282/282/270
f 282/282/270 281/281/269 283/283/271
f 284/284/272 283/283/271 285/285/273
f 287/286/274 285/285/273 283/283/271
f 285/285/273 287/286/274 286/287/275
f 283/283/271 288/288/276 287/286/274
f 288/288/276 283/283/271 281/281/269
f 281/281/269 289/289/277 288/288/276
f 289/289/277 281/281/269 279/279/267
f 279/279/267 246/246/234 289/289/277
f 246/246/234 279/279/267 248/248/236
f 290/290/278 292/291/279 291/292/280
f 292/291/279 290/290/278 293/293/281
f 290/290/278 294/294/282 293/293/281
f 294/294/282 290/290/278 295/295/283
f 296/296/284 294/294/282 295/295/283
f 294/294/282 296/296/284 297/297/285
f 298/298/286 297/297/285 296/296/284
f 297/297/285 298/298/286 299/299/287
f 300/300/288 299/299/287 298/298/286
f 299/299/287 300/300/288 301/301/289
f 302/302/280 301/301/289 300/300/288
f 301/301/289 302/302/280 303/303/290
f 294/294/282 297/297/285 304/304/291
f 294/294/282 304/304/291 305/305/292
f 294/294/282 305/305/292 306/306/293
f 294/294/282 306/306/293 307/307/294
f 308/308/295 310/309/296 309/310/297
f 310/309/296 308/308/295 311/311/298
f 312/312/299 311/311/298 308/308/295
f 311/311/298 312/312/299 313/313/300
f 314/314/301 313/313/300 312/312/299
f 313/313/300 314/314/301 315/315/302
f 316/316/303 315/315/302 314/314/301
f 315/315/302 316/316/303 317/317/304
f 316/316/303 318/318/305 317/317/304
f 318/318/305 316/316/303 319/319/306
f 320/320/307 322/321/308 321/322/309
f 323/323/310 322/321/308 320/320/307
f 323/323/310 320/320/307 324/324/311
f 324/324/311 320/320/307 325/325/312
f 323/323/310 324/324/311 326/326/313
f 323/323/310 327/327/314 322/321/308
f 328/328/315 327/327/314 323/323/310
f 329/329/316 328/328/315 323/323/310
f 328/328/315 329/329/316 330/330/317
f 329/329/316 331/331/318 330/330/317
f 331/331/318 329/329/316 332/332/319
f 332/332/319 333/333/320 331/331/318
f 333/333/320 332/332/319 334/334/321
f 327/327/314 328/328/315 335/335/322
f 335/335/322 328/328/315 336/336/323
f 335/335/322 336/336/323 337/337/324
f 337/337/324 336/336/323 338/338/325
f 335/335/322 337/337/324 339/339/326
f 339/339/326 337/337/324 340/340/327
f 335/335/322 339/339/326 341/341/328
f 335/335/322 342/342/329 327/327/314
f 342/342/329 335/335/322 343/343/330
f 343/343/330 344/344/331 342/342/329
f 344/344/331 343/343/330 345/345/332
f 345/345/332 346/346/333 344/344/331
f 346/346/333 345/345/332 347/347/334
f 347/347/334 348/348/335 346/346/333
f 348/348/335 347/347/334 349/349/336
f 355/350/337 350/351/338 351/352/339
f 350/351/338 352/353/340 351/352/339
f 352/353/340 350/351/338 353/354/341
f 350/351/338 355/350/337 354/355/342
f 355/350/337 356/356/343 354/355/342
f 356/356/343 355/350/337 357/357/344
f 358/358/345 356/356/343 357/357/344
f 359/359/346 360/360/347 358/358/345
f 356/356/343 358/358/345 360/360/347
f 360/360/347 359/359/346 361/361/348
f 353/354/341 362/362/349 352/353/340
f 362/362/349 353/354/341 363/363/350
f 353/354/341 364/364/351 363/363/350
f 364/364/351 353/354/341 365/365/352
f 366/366/353 365/365/352 353/354/341
f 365/365/352 366/366/353 367/367/354
f 367/367/354 366/366/353 368/368/355
f 362/362/349 369/369/356 352/353/340
f 369/369/356 362/362/349 370/370/357
f 369/369/356 371/371/358 352/353/340
f 371/371/358 369/369/356 372/372/359
f 371/371/358 372/372/359 373/373/360
f 379/350/361 374/351/362 375/352/363
f 374/351/362 376/353/364 375/352/363
f 376/353/364 374/351/362 377/354/365
f 374/351/362 379/350/361 378/355/366
f 379/350/361 380/356/367 378/355/366
f 380/356/367 379/350/361 381/357/368
f 382/358/369 380/356/367 381/357/368
f 383/359/370 384/360/371 382/358/369
f 380/356/367 382/358/369 384/360/371
f 384/360/371 383/359/370 385/361/372
f 377/354/365 386/362/373 376/353/364
f 386/362/373 377/354/365 387/363/374
f 377/354/365 388/364/375 387/363/374
f 388/364/375 377/354/365 389/365/376
f 390/366/377 389/365/376 377/354/365
f 389/365/376 390/366/377 391/367/378
f 391/367/378 390/366/377 392/368/379
f 386/362/373 393/369/380 376/353/364
f 393/369/380 386/362/373 394/370/381
f 393/369/380 395/371/382 376/353/364
f 395/371/382 393/369/380 396/372/383
f 395/371/382 396/372/383 397/373/384
f 398/374/385 400/375/386 399/376/387
f 400/375/386 398/374/385 401/377/388
f 401/377/388 402/378/389 400/375/386
f 402/378/389 401/377/388 403/379/390
f 403/379/390 404/380/391 402/378/389
f 404/380/391 403/379/390 405/381/392
f 405/381/392 406/382/393 404/380/391
f 406/382/393 405/381/392 407/383/394
f 407/383/394 408/384/395 406/382/393
f 408/384/395 407/383/394 409/385/396
f 410/386/385 408/384/395 409/385/396
f 408/384/395 410/386/385 411/387/397
f 412/388/398 414/389/399 413/390/400
f 414/389/399 412/388/398 415/391/401
f 416/392/402 415/391/401 412/388/398
f 415/391/401 416/392/402 417/393/403
f 416/392/402 418/394/404 417/393/403
f 418/394/404 416/392/402 419/395/405
f 420/396/406 413/390/400 414/389/399
f 421/397/403 420/396/406 414/389/399
f 420/396/406 421/397/403 422/398/407
f 423/399/408 420/396/406 422/398/407
f 420/396/406 423/399/408 424/400/409
f 425/401/410 424/400/409 423/399/408
f 426/402/402 427/403/411 425/401/410
f 424/400/409 425/401/410 427/403/411
f 427/403/411 426/402/402 428/404/400
f 413/390/400 420/396/406 429/405/412
f 430/406/413 432/407/280 431/408/414
f 432/407/280 430/406/413 433/409/288
f 434/410/415 433/409/288 430/406/413
f 433/409/288 434/410/415 435/411/416
f 436/412/417 435/411/416 434/410/415
f 435/411/416 436/412/417 437/413/284
f 438/414/418 437/413/284 436/412/417
f 437/413/284 438/414/418 439/415/419
f 440/416/420 439/415/419 438/414/418
f 439/415/419 440/416/420 441/417/278
f 442/418/414 441/417/278 440/416/420
f 441/417/278 442/418/414 443/419/280
f 445/420/421 450/421/422 444/422/423
f 444/422/423 446/423/424 445/420/421
f 446/423/424 444/422/423 447/424/425
f 444/422/423 448/425/426 447/424/425
f 448/425/426 444/422/423 449/426/427
f 444/422/423 451/427/428 449/426/427
f 451/427/428 444/422/423 450/421/422
f 450/421/422 452/428/429 451/427/428
f 452/428/429 450/421/422 453/429/430
f 453/429/430 454/430/431 455/431/432
f 454/430/431 453/429/430 450/421/422
f 450/421/422 445/420/421 454/430/431
f 458/432/433 456/433/434 448/425/426
f 456/433/434 447/424/425 448/425/426
f 457/434/435 458/432/433 448/425/426
f 458/432/433 457/434/435 459/435/436
f 458/432/433 459/435/436 461/436/437
f 456/433/434 458/432/433 460/437/438
f 460/437/438 458/432/433 461/436/437
f 462/438/439 461/436/437 459/435/436
f 460/437/438 461/436/437 462/438/439
f 463/439/440 460/437/438 462/438/439
f 462/438/439 464/440/441 463/439/440
f 464/440/441 462/438/439 459/435/436
f 459/435/436 457/434/435 464/440/441
f 460/437/438 463/439/440 465/441/442
f 465/441/442 456/433/434 460/437/438
f 447/424/425 456/433/434 466/442/443
f 467/443/444 466/442/443 456/433/434
f 466/442/443 467/443/444 468/444/445
f 469/445/440 468/444/445 467/443/444
f 468/444/445 469/445/440 470/446/430
f 470/446/430 471/447/446 468/444/445
f 471/447/446 470/446/430 472/448/432
f 473/449/447 468/444/445 471/447/446
f 446/423/424 466/442/443 473/449/447
f 468/444/445 473/449/447 466/442/443
f 466/442/443 446/423/424 447/424/425
f 474/450/448 476/451/449 475/452/450
f 476/451/449 474/450/448 477/453/451
f 478/454/452 477/453/451 474/450/448
f 477/453/451 478/454/452 479/455/453
f 480/456/454 479/455/453 478/454/452
f 479/455/453 480/456/454 481/457/455
f 482/458/456 481/457/455 480/456/454
f 481/457/455 482/458/456 483/459/457
f 484/460/458 483/459/457 482/458/456
f 483/459/457 484/460/458 485/461/459
f 486/462/460 485/461/459 484/460/458
f 485/461/459 486/462/460 487/463/461
f 488/464/462 487/463/461 486/462/460
f 487/463/461 488/464/462 489/465/463
f 490/466/464 489/465/463 488/464/462
f 489/465/463 490/466/464 491/467/465
f 495/468/466 492/469/467 493/470/468
f 492/469/467 494/471/469 493/470/468
f 495/468/466 496/472/470 492/469/467
f 497/473/471 495/468/466 493/470/468
f 497/473/471 498/474/472 495/468/466
f 499/475/179 497/473/471 493/470/468
f 499/475/179 500/476/473 497/473/471
f 499/475/179 493/470/468 501/477/474
f 505/478/475 502/479/476 503/480/477
f 502/479/476 504/481/478 503/480/477
f 504/481/478 502/479/476 508/482/479
f 505/478/475 506/483/480 502/479/476
f 502/479/476 506/483/480 507/484/481
f 507/484/481 508/482/479 502/479/476
f 510/485/482 508/482/479 509/486/483
f 509/486/483 508/482/479 512/487/484
f 508/482/479 510/485/482 504/481/478
f 508/482/479 507/484/481 511/488/485
f 511/488/485 512/487/484 508/482/479
f 511/488/485 507/484/481 513/489/486
f 514/490/487 513/489/486 507/484/481
f 514/490/487 515/491/488 516/492/489
f 507/484/481 515/491/488 514/490/487
f 517/493/490 516/492/489 515/491/488
f 515/491/488 518/494/491 517/493/490
f 517/493/490 518/494/491 519/495/492
f 520/496/493 519/495/492 518/494/491
f 518/494/491 521/497/494 520/496/493
f 520/496/493 521/497/494 522/498/495
f 523/499/496 522/498/495 521/497/494
f 521/497/494 524/500/497 523/499/496
f 523/499/496 524/500/497 525/501/498
f 526/502/499 525/501/498 524/500/497
f 524/500/497 527/503/500 526/502/499
f 526/502/499 527/503/500 528/504/501
f 529/505/502 528/504/501 527/503/500
f 529/505/502 531/506/503 530/507/504
f 527/503/500 531/506/503 529/505/502
f 534/508/505 531/506/503 532/509/506
f 535/510/507 532/509/506 531/506/503
f 533/511/508 530/507/504 531/506/503
f 531/506/503 527/503/500 535/510/507
f 531/506/503 534/508/505 533/511/508
f 535/510/507 536/512/509 503/480/477
f 535/510/507 537/513/510 536/512/509
f 535/510/507 503/480/477 532/509/506
f 537/513/510 535/510/507 527/503/500
f 536/512/509 537/513/510 524/500/497
f 527/503/500 524/500/497 537/513/510
f 538/514/511 536/512/509 521/497/494
f 536/512/509 538/514/511 505/478/475
f 524/500/497 521/497/494 536/512/509
f 536/512/509 505/478/475 503/480/477
f 521/497/494 518/494/491 538/514/511
f 505/478/475 538/514/511 518/494/491
f 532/509/506 503/480/477 534/508/505
f 510/485/482 534/508/505 503/480/477
f 534/508/505 510/485/482 539/515/512
f 539/515/512 540/516/513 534/508/505
f 533/511/508 534/508/505 540/516/513
f 539/515/512 510/485/482 541/517/514
f 509/486/483 541/517/514 510/485/482
f 518/494/491 515/491/488 505/478/475
f 515/491/488 507/484/481 506/483/480
f 506/483/480 505/478/475 515/491/488
f 503/480/477 504/481/478 510/485/482
f 542/518/515 544/519/516 543/520/198
f 544/519/516 542/518/515 545/521/517
f 545/521/517 542/518/515 546/522/518
f 545/521/517 546/522/518 547/523/519
f 547/523/519 546/522/518 548/524/520
f 545/521/517 547/523/519 549/525/521
f 549/525/521 547/523/519 550/526/227
f 544/519/516 551/527/522 543/520/198
f 551/527/522 544/519/516 552/528/219
f 553/529/523 551/527/522 552/528/219
f 551/527/522 553/529/523 554/530/524
f 554/530/524 553/529/523 555/531/525
f 554/530/524 555/531/525 556/532/526
f 556/532/526 555/531/525 557/533/527
f 554/530/524 556/532/526 558/534/528
f 558/534/528 556/532/526 559/535/529
f 560/536/530 562/537/531 561/538/532
f 562/537/531 560/536/530 563/539/533
f 564/540/534 563/539/533 560/536/530
f 563/539/533 564/540/534 565/541/535
f 565/541/535 564/540/534 566/542/536
f 568/543/537 562/537/531 563/539/533
f 567/544/538 568/543/537 563/539/533
f 568/543/537 567/544/538 569/545/539
f 562/537/531 568/543/537 570/546/540
f 572/547/541 570/546/540 568/543/537
f 571/548/542 572/547/541 568/543/537
f 572/547/541 571/548/542 573/549/543
f 570/546/540 572/547/541 574/550/544
f 573/549/543 571/548/542 575/551/545
f 577/552/546 569/545/539 567/544/538
f 569/545/539 577/552/546 576/553/547
f 577/552/546 578/554/548 576/553/547
f 578/554/548 577/552/546 579/555/549
f 580/556/550 578/554/548 579/555/549
f 581/557/551 582/558/552 580/556/550
f 578/554/548 580/556/550 582/558/552
f 582/558/552 581/557/551 583/559/553
f 584/560/554 586/561/555 585/562/556
f 586/561/555 584/560/554 587/563/557
f 588/564/558 587/563/557 584/560/554
f 587/563/557 588/564/558 589/565/559
f 590/566/560 585/562/556 586/561/555
f 585/562/556 590/566/560 591/567/561
f 592/568/562 591/567/561 590/566/560
f 593/569/563 594/570/564 592/568/562
f 591/567/561 592/568/562 594/570/564
f 594/570/564 593/569/563 595/571/565
f 596/572/566 598/573/567 597/574/568
f 598/573/567 596/572/566 599/575/569
f 600/576/570 599/575/569 596/572/566
f 599/575/569 600/576/570 601/577/571
f 601/577/571 600/576/570 602/578/572
f 601/577/571 602/578/572 603/579/573
f 603/579/573 602/578/572 604/580/574
f 601/577/571 603/579/573 605/581/205
f 605/581/205 603/579/573 606/582/575
f 598/573/567 607/583/576 597/574/568
f 607/583/576 598/573/567 608/584/577
f 609/585/578 607/583/576 608/584/577
f 610/586/579 611/587/580 609/585/578
f 607/583/576 609/585/578 611/587/580
f 611/587/580 610/586/579 612/588/581
f 612/588/581 610/586/579 613/589/582
f 613/589/582 614/590/583 615/591/584
f 613/589/582 610/586/579 614/590/583
f 615/591/584 614/590/583 616/592/585
f 614/590/583 610/586/579 617/593/586
f 623/543/587 618/537/588 619/539/589
f 618/537/588 620/536/590 619/539/589
f 620/536/590 618/537/588 621/538/591
f 618/537/588 623/543/587 622/546/592
f 624/548/593 625/547/594 623/543/587
f 625/547/594 622/546/592 623/543/587
f 623/543/587 626/544/595 627/545/596
f 626/544/595 623/543/587 619/539/589
f 627/545/596 629/552/597 628/553/598
f 629/552/597 627/545/596 626/544/595
f 629/552/597 630/554/599 628/553/598
f 630/554/599 629/552/597 631/555/600
f 632/556/601 630/554/599 631/555/600
f 633/557/602 634/558/603 632/556/601
f 630/554/599 632/556/601 634/558/603
f 634/558/603 633/557/602 635/559/604
f 625/547/594 624/548/593 636/549/605
f 622/546/592 625/547/594 637/550/606
f 636/549/605 624/548/593 638/551/607
f 639/540/608 619/539/589 620/536/590
f 619/539/589 639/540/608 640/541/609
f 640/541/609 639/540/608 641/542/610
f 642/337/611 644/336/612 643/338/613
f 645/335/614 644/336/612 642/337/611
f 645/335/614 642/337/611 646/339/615
f 646/339/615 642/337/611 647/340/616
f 645/335/614 646/339/615 648/341/617
f 645/335/614 652/328/618 644/336/612
f 649/327/619 652/328/618 645/335/614
f 645/335/614 650/342/620 649/327/619
f 650/342/620 645/335/614 651/343/621
f 652/328/618 653/329/622 655/330/623
f 653/329/622 652/328/618 654/323/624
f 652/328/618 649/327/619 654/323/624
f 653/329/622 656/331/625 655/330/623
f 656/331/625 653/329/622 657/332/626
f 657/332/626 658/333/627 656/331/625
f 658/333/627 657/332/626 659/334/628
f 654/323/624 660/320/629 662/324/630
f 654/323/624 661/321/631 660/320/629
f 654/323/624 649/327/619 661/321/631
f 654/323/624 662/324/630 663/326/632
f 662/324/630 660/320/629 664/325/633
f 660/320/629 661/321/631 665/322/634
f 651/343/621 666/344/635 650/342/620
f 666/344/635 651/343/621 667/345/636
f 667/345/636 668/346/637 666/344/635
f 668/346/637 667/345/636 669/347/638
f 669/347/638 670/348/639 668/346/637
f 670/348/639 669/347/638 671/349/640
f 673/594/641 676/595/642 672/596/643
f 672/596/643 674/597/644 673/594/641
f 674/597/644 672/596/643 675/598/645
f 676/595/642 673/594/641 677/599/646
f 677/599/646 678/600/647 676/595/642
f 678/600/647 677/599/646 679/601/648
f 679/601/648 680/602/649 678/600/647
f 680/602/649 679/601/648 681/603/650
f 682/604/651 680/602/649 681/603/650
f 680/602/649 682/604/651 683/605/652
f 685/606/653 683/605/652 682/604/651
f 683/605/652 685/606/653 684/607/654
f 685/606/653 686/608/655 684/607/654
f 686/608/655 685/606/653 687/609/656
f 688/610/657 686/608/655 687/609/656
f 686/608/655 688/610/657 689/611/658
f 688/610/657 690/612/659 689/611/658
f 690/612/659 688/610/657 691/613/660
f 692/614/661 690/612/659 691/613/660
f 690/612/659 692/614/661 693/615/662
f 692/614/661 694/616/663 693/615/662
f 694/616/663 692/614/661 695/617/664
f 674/597/644 694/616/663 695/617/664
f 694/616/663 674/597/644 675/598/645
f 696/374/665 698/375/666 697/376/667
f 698/375/666 696/374/665 699/377/668
f 699/377/668 700/378/669 698/375/666
f 700/378/669 699/377/668 701/379/670
f 701/379/670 702/380/671 700/378/669
f 702/380/671 701/379/670 703/381/672
f 703/381/672 704/382/673 702/380/671
f 704/382/673 703/381/672 705/383/674
f 705/383/674 706/384/675 704/382/673
f 706/384/675 705/383/674 707/385/676
f 708/386/677 706/384/675 707/385/676
f 706/384/675 708/386/677 709/387/678
f 710/618/679 712/619/680 711/620/681
f 712/619/680 710/618/679 713/621/682
f 716/622/683 712/619/680 713/621/682
f 713/621/682 714/623/684 716/622/683
f 714/623/684 713/621/682 715/624/685
f 712/619/680 716/622/683 717/625/686
f 718/626/687 717/625/686 716/622/683
f 717/625/686 718/626/687 719/627/688
f 720/628/688 712/619/680 717/625/686
f 712/619/680 720/628/688 721/629/689
