# Blender 5.2.1 LTS
# www.blender.org
mtllib Plane2.mtl
o Skladka1
v -2.808747 2.668242 -6.029068
v -6.452170 6.282566 -6.243290
v -3.177562 2.357267 -6.018497
v -6.081934 6.591841 -6.253525
v 0.134073 -1.543717 -5.907475
v 0.501458 -1.231062 -5.917934
v -0.080424 -0.492456 14.352158
v 0.501458 -1.231062 -5.917934
v 0.288980 -0.182215 14.341019
v 0.288980 -0.182215 14.341019
v -3.367901 3.438992 14.182743
v -6.680033 7.349688 14.015697
v -6.311812 7.661360 14.004501
v -2.999085 3.749893 14.171356
v -6.081934 6.591841 -6.253525
v -6.311812 7.661360 14.004501
v -2.808747 2.668242 -6.029068
v -6.311812 7.661360 14.004501
v -6.081934 6.591841 -6.253525
v -2.999085 3.749893 14.171356
v 0.288980 -0.182215 14.341019
v 0.501458 -1.231062 -5.917934
vn -0.8064 0.0437 -0.5897
vn 0.0801 0.7836 -0.6161
vn 0.5444 0.4272 -0.7218
vn -0.5418 -0.4854 -0.6862
vn -0.0624 -0.8366 -0.5443
vn 0.8156 -0.0911 -0.5714
vn -0.0759 -0.7861 0.6134
vn 0.8156 -0.0911 -0.5713
vn 0.8098 -0.0436 0.5851
vn -0.5419 -0.4249 0.7251
vn 0.8098 -0.0435 0.5851
vn -0.8173 0.0955 0.5683
vn 0.0631 0.8396 0.5396
vn 0.5406 0.4845 0.6877
vn 0.0633 0.8396 0.5395
vn 0.0632 0.8395 0.5396
vn 0.5405 0.4845 0.6879
vn 0.5444 0.4271 -0.7219
vn 0.0800 0.7836 -0.6160
vt 0.583729 0.079249
vt 0.585945 0.079267
vt 0.585753 0.102695
vt 0.583537 0.102680
vt 0.492067 0.079446
vt 0.583724 0.077033
vt 0.492066 0.077229
vt 0.492133 0.102938
vt 0.489850 0.079455
vt 0.489917 0.102944
vt 0.490551 0.073211
vt 0.490527 0.049721
vt 0.581926 0.049607
vt 0.582210 0.073034
s 1
usemtl mat_1_013
f 2/1/1 4/2/2 1/3/3
f 1/3/3 3/4/4 2/1/1
f 5/1/5 3/4/4 1/3/3
f 1/3/3 6/2/6 5/1/5
f 3/4/4 5/1/5 7/5/7
f 7/5/7 5/1/5 8/6/8
f 8/6/8 9/7/9 7/5/7
f 7/5/7 11/8/10 3/4/4
f 11/8/10 7/5/7 10/9/11
f 3/4/4 11/8/10 12/5/12
f 13/9/13 12/5/12 11/8/10
f 11/8/10 14/10/14 13/9/13
f 10/9/11 14/10/14 11/8/10
f 12/5/12 16/7/15 15/6/2
f 15/6/2 2/1/1 12/5/12
f 12/5/12 2/1/1 3/4/4
f 18/11/16 20/12/17 17/13/18
f 17/13/18 19/14/19 18/11/16
f 17/13/18 20/12/17 21/11/9
f 21/11/9 22/14/6 17/13/18
