# Blender 5.2.1 LTS
# www.blender.org
mtllib Plane3.mtl
o Skladka2
v -0.661900 0.331416 1.889259
v 2.615057 3.725492 -4.519176
v -0.648075 -0.199155 -4.209705
v 0.991365 2.655909 5.021198
v -1.019787 0.109464 -4.231152
v -1.034672 0.638657 1.866524
v 0.619556 2.964344 4.998425
v 2.582017 4.557333 4.872776
v 2.211266 4.867037 4.850246
v 3.803355 6.769075 4.698605
v 5.523570 8.475845 1.248978
v 4.173070 6.458132 4.721630
v 5.892251 8.163763 1.272156
v 5.902985 7.629478 -4.826546
v 5.533225 7.940464 -4.848145
v 2.244320 4.035219 -4.541420
v 5.533225 7.940464 -4.848145
v -1.019787 0.109464 -4.231152
v 2.244320 4.035219 -4.541420
v -1.034672 0.638657 1.866524
v -1.019787 0.109464 -4.231152
v 0.619556 2.964344 4.998425
v 2.211266 4.867037 4.850246
v 3.803355 6.769075 4.698605
v 5.523570 8.475845 1.248978
v 5.533225 7.940464 -4.848145
vn 0.2592 -0.5978 0.7586
vn 0.0332 -0.9415 0.3354
vn 0.5435 -0.5075 -0.6687
vn 0.0750 -0.8568 -0.5102
vn -0.8137 -0.1226 -0.5682
vn -0.9556 -0.1319 0.2636
vn -0.6976 0.1929 0.6900
vn 0.5415 -0.3946 0.7424
vn -0.5443 0.5081 0.6676
vn -0.2580 0.7165 0.6482
vn -0.0179 0.9853 0.1697
vn 0.6925 -0.0803 0.7170
vn 0.9568 0.1601 0.2425
vn 0.8126 0.0220 -0.5824
vn -0.0706 0.7647 -0.6406
vn -0.5425 0.3956 -0.7411
vn -0.0705 0.7646 -0.6406
vn -0.8137 -0.1225 -0.5682
vn -0.6975 0.1928 0.6902
vn -0.5423 0.3954 -0.7413
vn -0.9556 -0.1321 0.2636
vn -0.5442 0.5080 0.6677
vn -0.2579 0.7164 0.6483
vn -0.0177 0.9853 0.1698
vt 0.925872 0.156922
vt 0.937968 0.171631
vt 0.914546 0.199766
vt 0.938315 0.199480
vt 0.940571 0.199276
vt 0.939853 0.170878
vt 0.926816 0.155226
vt 0.914493 0.156625
vt 0.914810 0.154309
vt 0.914564 0.201998
vt 0.938323 0.201729
vt 0.984235 0.130544
vt 0.995198 0.173234
vt 0.971982 0.145341
vt 0.971710 0.172982
vt 0.995647 0.130656
s 1
usemtl mat_1_013
f 4/1/1 1/2/2 2/3/3
f 1/2/2 3/4/4 2/3/3
f 5/5/5 3/4/4 1/2/2
f 6/6/6 1/2/2 4/1/1
f 1/2/2 6/6/6 5/5/5
f 4/1/1 7/7/7 6/6/6
f 7/7/7 4/1/1 8/8/8
f 8/8/8 9/9/9 7/7/7
f 10/7/10 9/9/9 8/8/8
f 11/6/11 10/7/10 12/1/12
f 8/8/8 12/1/12 10/7/10
f 12/1/12 8/8/8 2/3/3
f 13/2/13 12/1/12 2/3/3
f 12/1/12 13/2/13 11/6/11
f 13/2/13 14/4/14 15/5/15
f 14/4/14 13/2/13 2/3/3
f 15/5/15 11/6/11 13/2/13
f 14/4/14 2/3/3 16/10/16
f 16/10/16 17/11/17 14/4/14
f 16/10/16 2/3/3 3/4/4
f 3/4/4 18/11/18 16/10/16
f 8/8/8 4/1/1 2/3/3
f 22/12/19 19/13/20 20/14/21
f 19/13/20 21/15/5 20/14/21
f 22/12/19 23/16/22 19/13/20
f 19/13/20 23/16/22 24/12/23
f 19/13/20 24/12/23 25/14/24
f 26/15/17 19/13/20 25/14/24
