# Blender 5.2.1 LTS
# www.blender.org
mtllib PVO2.mtl
o Head
v 0.589872 0.504097 0.545655
v 0.589873 0.254818 0.546516
v 0.369061 0.254818 0.546516
v 0.369061 0.504097 0.545655
v -0.153447 0.035033 0.547275
v -0.505065 0.822181 0.544557
v -0.898430 0.822181 0.544557
v -0.666261 -0.145112 0.547897
v -1.426937 0.766066 0.544751
v -1.426937 -0.244606 0.548240
v -0.712650 -0.244606 0.548240
v -0.333779 -0.145048 0.547897
v 0.369061 0.035033 0.547275
v 0.152041 0.668511 0.387943
v 0.152041 0.582391 0.482337
v 0.152041 0.668836 0.482039
v 0.152041 0.582066 0.388241
v 0.057884 0.616274 0.388123
v 0.152041 0.668511 0.387943
v 0.057884 0.668511 0.387943
v 0.152041 0.582066 0.388241
v 0.152041 0.668836 0.482039
v 0.057884 0.616599 0.482219
v 0.057884 0.668836 0.482039
v 0.152041 0.582391 0.482337
v 0.152041 0.668836 0.482039
v 0.057884 0.668836 0.482039
v 0.152041 0.668511 0.387943
v 0.057884 0.668511 0.387943
v -1.646924 0.181357 0.452169
v -1.646924 0.568442 0.450833
v -1.532540 0.172074 0.464372
v -1.532540 0.577808 0.462972
v -1.646924 0.568442 0.450833
v -1.646925 0.565260 -0.470853
v -1.532540 0.577808 0.462972
v -1.532540 0.574542 -0.483055
v -1.646924 0.568442 0.450833
v -1.646924 0.181357 0.452169
v -1.646925 0.565260 -0.470853
v -1.646925 0.178175 -0.469516
v -1.646925 0.565260 -0.470853
v -1.646925 0.178175 -0.469516
v -1.532540 0.574542 -0.483055
v -1.532540 0.168808 -0.481655
v -1.646924 0.181357 0.452169
v -1.532540 0.172074 0.464372
v -1.646925 0.178175 -0.469516
v -1.532540 0.168808 -0.481655
v 0.798001 0.438328 -0.540411
v 0.589873 0.438328 -0.540411
v 0.798001 0.251068 -0.539764
v 0.589873 0.251068 -0.539764
v 1.551351 0.130827 0.179413
v 1.177700 0.130827 0.179413
v 1.551351 0.129537 -0.194235
v 1.177701 0.129537 -0.194235
v -0.334756 0.768245 -0.270989
v -0.277926 0.768245 -0.271039
v -0.334756 0.753521 -0.270938
v -0.277926 0.732660 -0.270916
v -0.277926 0.732660 -0.270916
v -0.277926 0.768245 -0.271039
v -0.278026 0.732464 -0.327776
v -0.277940 0.768049 -0.327942
v -0.334756 0.768245 -0.270989
v -0.334866 0.768049 -0.327849
v -0.277926 0.768245 -0.271039
v -0.277940 0.768049 -0.327942
v -0.278026 0.732464 -0.327776
v -0.277940 0.768049 -0.327942
v -0.334866 0.753325 -0.327798
v -0.334866 0.768049 -0.327849
v -0.334866 0.753325 -0.327798
v -0.334866 0.768049 -0.327849
v -0.334756 0.753521 -0.270938
v -0.334756 0.768245 -0.270989
v -1.426937 0.762238 -0.563950
v -1.426937 0.766066 0.544751
v -1.426937 -0.248434 -0.560461
v -1.426937 -0.244606 0.548240
v 1.414209 0.245229 -0.115479
v 1.414319 0.129810 -0.115080
v 1.414209 0.245325 -0.087708
v 1.414320 0.129906 -0.087289
v 1.280915 0.245972 0.099749
v 1.414209 0.245972 0.099749
v 1.280915 0.130553 0.100148
v 1.414320 0.130553 0.100148
v 1.308696 0.291036 0.071923
v 1.308696 0.290484 -0.087986
v 1.445806 0.276308 0.072004
v 1.445806 0.275756 -0.087966
v 1.445806 0.276308 0.072004
v 1.445806 0.275756 -0.087966
v 1.460938 0.130457 0.072357
v 1.460938 0.129906 -0.087309
v 0.146612 0.705656 0.407396
v 0.109689 0.725031 0.407329
v 0.148294 0.663992 0.407540
v 0.076129 0.661079 0.407550
v 0.074447 0.702743 0.407406
v -1.273291 -0.188781 0.548047
v -1.333821 -0.163709 0.547960
v -1.273291 -0.188651 0.585745
v -1.333821 -0.163579 0.585658
v -1.358893 -0.103180 0.547751
v -1.358893 -0.103050 0.585450
v -1.333821 -0.042651 0.547542
v -1.333821 -0.042520 0.585240
v -1.273291 -0.017578 0.547456
v -1.273291 -0.017448 0.585154
v -1.212762 -0.042651 0.547542
v -1.212762 -0.042520 0.585240
v -1.187690 -0.103180 0.547751
v -1.187690 -0.103050 0.585450
v -1.212762 -0.163709 0.547960
v -1.212762 -0.163579 0.585658
v -1.273291 -0.188781 0.548047
v -1.273291 -0.188651 0.585745
v -1.426937 -0.187790 0.461991
v -1.426937 -0.158896 0.411542
v -1.453209 -0.187790 0.461991
v -1.453209 -0.158896 0.411542
v -1.426937 -0.100759 0.411342
v -1.453209 -0.100759 0.411342
v -1.426937 -0.071517 0.461590
v -1.453209 -0.071517 0.461590
v -1.426937 -0.100412 0.512038
v -1.453209 -0.100412 0.512038
v -1.426937 -0.158548 0.512239
v -1.453209 -0.158548 0.512239
v -1.426937 -0.187790 0.461991
v -1.453209 -0.187790 0.461991
v -1.212762 -0.167667 -0.598438
v -1.333821 -0.167667 -0.598438
v -1.273291 -0.192739 -0.598351
v -1.187690 -0.107138 -0.598647
v -1.358893 -0.107138 -0.598647
v -1.333821 -0.046608 -0.598855
v -1.212762 -0.046608 -0.598855
v -1.273291 -0.021536 -0.598942
v -0.306341 0.930734 -0.275557
v -0.281958 0.930650 -0.300055
v -0.306341 0.767839 -0.274994
v -0.281958 0.767755 -0.299493
v -0.306441 0.930565 -0.324498
v -0.306441 0.767671 -0.323936
v -0.330964 0.930650 -0.300005
v -0.330964 0.767755 -0.299443
v -0.306341 0.930734 -0.275557
v -0.306341 0.767839 -0.274994
v -0.910536 -0.381033 -0.005646
v -0.879493 -0.381848 -0.241449
v -0.910690 -0.246522 -0.006110
v -0.879492 -0.247336 -0.241913
v -0.788476 -0.382606 -0.461181
v -0.788475 -0.248094 -0.461645
v -0.712650 -0.248434 -0.560461
v -0.643689 -0.383258 -0.649871
v -0.643689 -0.248748 -0.650335
v -0.666270 -0.148958 -0.560805
v -0.617437 -0.149147 -0.624426
v -0.454999 -0.249248 -0.795121
v -0.436428 -0.149586 -0.763299
v -0.333772 -0.149711 -0.805812
v -0.235265 -0.249562 -0.886137
v -0.214112 -0.030236 -0.807952
v -0.153447 0.030403 -0.793542
v 0.000540 -0.249669 -0.917181
v 0.000540 0.030334 -0.813815
v 0.236344 -0.249562 -0.886137
v 0.209340 0.030428 -0.786326
v 0.456078 -0.249248 -0.795121
v 0.403912 0.030707 -0.705733
v 0.527457 0.031034 -0.610933
v 0.644768 -0.248748 -0.650335
v 0.604400 -0.095593 -0.610496
v 0.675743 -0.248607 -0.609967
v 0.789554 -0.382606 -0.461181
v 0.789554 -0.248095 -0.461646
v 0.644768 -0.383258 -0.649871
v 0.456078 -0.383757 -0.794657
v 0.236344 -0.384071 -0.885673
v 0.000540 -0.384179 -0.916717
v -0.235264 -0.384071 -0.885673
v -0.454999 -0.383757 -0.794657
v 0.880571 -0.381848 -0.241449
v 0.880571 -0.247336 -0.241913
v 0.911616 -0.381033 -0.005646
v 0.911616 -0.246524 -0.006110
v 1.584316 0.106437 -0.234042
v 1.584316 -0.176675 -0.233064
v 1.584316 0.108003 0.219378
v 1.584316 -0.175110 0.220356
v 1.551194 -0.281323 -0.232703
v 1.551194 -0.279757 0.220717
v 0.911616 -0.381033 -0.005646
v 0.880571 -0.381848 -0.241449
v 0.880571 -0.380219 0.230156
v 0.789555 -0.379461 0.449889
v 0.789554 -0.382606 -0.461181
v 0.644768 -0.378809 0.638578
v 0.644768 -0.383258 -0.649871
v 0.456078 -0.378309 0.783365
v 0.456078 -0.383757 -0.794657
v 0.236344 -0.377995 0.874381
v 0.236344 -0.384071 -0.885673
v 0.000540 -0.377888 0.905425
v 0.000540 -0.384179 -0.916717
v -0.235265 -0.377995 0.874381
v -0.235264 -0.384071 -0.885673
v -0.454999 -0.378309 0.783364
v -0.454999 -0.383757 -0.794657
v -0.643689 -0.378809 0.638578
v -0.643689 -0.383258 -0.649871
v -0.788476 -0.379461 0.449889
v -0.788476 -0.382606 -0.461181
v -0.879493 -0.380219 0.230156
v -0.879493 -0.381848 -0.241449
v -0.910536 -0.381033 -0.005646
v -1.263710 0.149531 0.796148
v -1.350707 0.149531 0.796148
v -1.263710 0.160702 0.837273
v -1.350707 0.160702 0.837273
v -1.263710 0.201903 0.848160
v -1.350707 0.201903 0.848160
v -1.263710 0.231932 0.817923
v -1.350707 0.231932 0.817923
v -1.263710 0.220760 0.776798
v -1.350707 0.220760 0.776799
v -1.263710 0.179560 0.765911
v -1.350707 0.179560 0.765911
v -1.263710 0.149531 0.796148
v -1.350707 0.149531 0.796148
v -1.334752 0.162326 0.858741
v -1.334752 0.111680 0.844422
v -1.270560 0.111680 0.844421
v -1.270560 0.215703 0.872847
v -1.351318 0.172093 0.861322
v -1.351318 0.215703 0.872846
v -1.284691 0.229366 0.876457
v -1.337187 0.229366 0.876457
v -1.270560 0.105928 0.863448
v -1.334752 0.105928 0.863448
v -1.334752 0.156574 0.877768
v -1.270560 0.209952 0.891873
v -1.351318 0.166342 0.880349
v -1.351318 0.209952 0.891873
v -1.337187 0.223615 0.895484
v -1.284691 0.223615 0.895484
v 0.148294 0.663992 0.407540
v 0.148294 0.664181 0.462540
v 0.146612 0.705656 0.407396
v 0.146612 0.705846 0.462396
v 0.109689 0.725031 0.407329
v 0.109689 0.725220 0.462329
v 0.074447 0.702743 0.407406
v 0.074447 0.702933 0.462406
v 0.076129 0.661079 0.407550
v 0.076129 0.661268 0.462550
v 0.109689 0.725220 0.462329
v 0.146612 0.705846 0.462396
v 0.148294 0.664181 0.462540
v 0.076129 0.661268 0.462550
v 0.074447 0.702933 0.462406
v -1.532540 0.022919 -0.427226
v -1.431534 0.023011 -0.427226
v -1.532540 0.033544 -0.467417
v -1.431547 0.033635 -0.467418
v -1.532540 0.062840 -0.496913
v -1.431584 0.062931 -0.496914
v -1.532540 0.102972 -0.507811
v -1.431634 0.103068 -0.507811
v -1.532540 0.622029 -0.509603
v -1.431634 0.622029 -0.509603
v -1.532540 0.662235 -0.498982
v -1.431634 0.662235 -0.498982
v -1.532540 0.691732 -0.469687
v -1.431634 0.691732 -0.469687
v -1.532540 0.702630 -0.429568
v -1.431634 0.702630 -0.429568
v -1.431634 0.705531 0.410673
v -1.532540 0.705531 0.410673
v -1.532540 0.694910 0.450867
v -1.431634 0.694910 0.450866
v -1.532540 0.665616 0.480364
v -1.431634 0.665616 0.480364
v -1.532540 0.625484 0.491263
v -1.431634 0.625484 0.491262
v -1.431634 0.106437 0.493054
v -1.532540 0.106329 0.493055
v -1.532540 0.066119 0.482423
v -1.431584 0.066236 0.482442
v -1.532540 0.036629 0.453123
v -1.431547 0.036734 0.453150
v -1.532540 0.025736 0.413004
v -1.431534 0.025836 0.413029
v -1.431534 0.023011 -0.427226
v -1.532540 0.022919 -0.427226
v -1.532540 0.025736 0.413004
v -1.532540 0.022919 -0.427226
v -1.532540 0.033544 -0.467417
v -1.532540 0.036629 0.453123
v -1.532540 0.062840 -0.496913
v -1.532540 0.066119 0.482423
v -1.532540 0.102972 -0.507811
v -1.532540 0.106329 0.493055
v -1.532540 0.172074 0.464372
v -1.532540 0.625484 0.491263
v -1.532540 0.577808 0.462972
v -1.532540 0.622029 -0.509603
v -1.532540 0.662235 -0.498982
v -1.532540 0.665616 0.480364
v -1.532540 0.691732 -0.469687
v -1.532540 0.694910 0.450867
v -1.532540 0.705531 0.410673
v -1.532540 0.702630 -0.429568
v -1.532540 0.574542 -0.483055
v -1.532540 0.168808 -0.481655
v -1.333821 -0.042520 0.585240
v -1.273291 -0.017448 0.585154
v -1.212762 -0.042520 0.585240
v -1.187690 -0.103050 0.585450
v -1.358893 -0.103050 0.585450
v -1.333821 -0.163579 0.585658
v -1.212762 -0.163579 0.585658
v -1.273291 -0.188651 0.585745
v -1.212762 -0.167667 -0.598438
v -1.273291 -0.192739 -0.598351
v -1.273292 -0.192609 -0.560653
v -1.212762 -0.167537 -0.560739
v -1.187690 -0.107138 -0.598647
v -1.187690 -0.107007 -0.560948
v -1.212762 -0.046608 -0.598855
v -1.212762 -0.046478 -0.561157
v -1.273291 -0.021536 -0.598942
v -1.273292 -0.021406 -0.561244
v -1.333821 -0.046608 -0.598855
v -1.333821 -0.046478 -0.561157
v -1.358893 -0.107138 -0.598647
v -1.358893 -0.107007 -0.560948
v -1.333821 -0.167667 -0.598438
v -1.333821 -0.167537 -0.560739
v -1.273291 -0.192739 -0.598351
v -1.273292 -0.192609 -0.560653
v -0.284594 0.759754 -0.154538
v -0.297880 0.743226 -0.154843
v -0.277356 0.735533 -0.233844
v -0.264914 0.752314 -0.230746
v -0.212268 0.711652 -0.303006
v -0.202429 0.729378 -0.297090
v -0.131253 0.703456 -0.317945
v -0.138002 0.684693 -0.324720
v 0.058982 0.613098 -0.324422
v 0.065831 0.631961 -0.317698
v 0.133225 0.586199 -0.302560
v 0.137083 0.606108 -0.296665
v 0.198321 0.562796 -0.233235
v 0.199492 0.583706 -0.230126
v 0.218769 0.555639 -0.154146
v 0.219172 0.576783 -0.153856
v 0.219172 0.577783 0.135884
v 0.218769 0.556642 0.136309
v 0.198346 0.564342 0.215191
v 0.199520 0.585232 0.211963
v 0.133333 0.588223 0.284271
v 0.137193 0.608093 0.278195
v 0.066042 0.633989 0.299029
v 0.059293 0.615184 0.305894
v -0.138304 0.686960 0.305646
v -0.131464 0.705686 0.298782
v -0.212419 0.713771 0.283837
v -0.202605 0.731438 0.277769
v -0.277439 0.737107 0.214595
v -0.264939 0.753840 0.211381
v -0.297880 0.744229 0.135662
v -0.284593 0.760754 0.135253
v -0.284594 0.759754 -0.154538
v -0.297880 0.743226 -0.154843
v 0.066042 0.633989 0.299029
v -0.131464 0.705686 0.298782
v -0.202605 0.731438 0.277769
v 0.137193 0.608093 0.278195
v -0.264939 0.753840 0.211381
v 0.199520 0.585232 0.211963
v -0.284593 0.760754 0.135253
v 0.219172 0.577783 0.135884
v 0.219172 0.576783 -0.153856
v -0.284594 0.759754 -0.154538
v 0.199492 0.583706 -0.230126
v -0.264914 0.752314 -0.230746
v -0.202429 0.729378 -0.297090
v 0.137083 0.606108 -0.296665
v -0.131253 0.703456 -0.317945
v 0.065831 0.631961 -0.317698
v 1.534426 0.109300 0.337881
v 1.478968 0.324725 0.337137
v 1.478968 0.324568 0.291685
v 1.534426 0.108255 0.292432
v 1.534427 -0.174700 0.338862
v 1.534427 -0.175110 0.220356
v 1.534427 0.108003 0.219378
v 1.478968 0.322498 -0.307842
v 1.478969 0.322341 -0.353294
v 1.534426 0.106916 -0.352551
v 1.534426 0.106185 -0.307095
v 1.534427 -0.177084 -0.351570
v 1.534426 -0.176675 -0.233064
v 1.534426 0.106437 -0.234042
v 0.948023 0.433826 0.291308
v 0.589873 0.471411 0.291178
v 0.589873 0.253939 0.291929
v 1.012923 0.324568 0.291685
v 1.127675 0.253939 0.291929
v 1.478968 0.324568 0.291685
v 1.534426 0.108255 0.292432
v 1.127675 0.108255 0.292432
v 0.524543 0.250819 -0.611692
v 0.369061 0.250990 -0.562185
v 0.369061 0.031205 -0.561427
v 0.527457 0.031034 -0.610933
v 1.127675 0.250819 -0.611692
v 0.604400 -0.095593 -0.610496
v 1.127675 -0.248605 -0.609968
v 1.534426 0.106916 -0.352551
v 1.534427 -0.177084 -0.351570
v 0.675743 -0.248607 -0.609967
v -0.910536 -0.381033 -0.005646
v -0.910690 -0.246522 -0.006110
v -0.879493 -0.380219 0.230156
v -0.879492 -0.245708 0.229694
v -0.788476 -0.379461 0.449889
v -0.788474 -0.244949 0.449426
v -0.712650 -0.244606 0.548240
v -0.643689 -0.378809 0.638578
v -0.643689 -0.244300 0.638114
v -0.454999 -0.378309 0.783364
v -0.454999 -0.243800 0.782900
v -0.235265 -0.377995 0.874381
v -0.235265 -0.243486 0.873917
v 0.000540 -0.377888 0.905425
v 0.000540 -0.243378 0.904960
v 0.236344 -0.377995 0.874381
v 0.236344 -0.243486 0.873917
v 0.456078 -0.378309 0.783365
v 0.456078 -0.243800 0.782900
v 0.644768 -0.378809 0.638578
v 0.644768 -0.244300 0.638114
v 0.675743 -0.244437 0.597746
v 0.789555 -0.379461 0.449889
v 0.789555 -0.244949 0.449424
v 0.880571 -0.380219 0.230156
v 0.880571 -0.245708 0.229691
v 0.911616 -0.381033 -0.005646
v 0.911616 -0.246524 -0.006110
v 0.604400 -0.091424 0.597218
v 0.527457 0.035203 0.596782
v 0.403912 0.035530 0.691581
v 0.209340 0.035809 0.772174
v 0.000540 0.035903 0.799663
v -0.153447 0.035834 0.779391
v -0.214112 -0.024705 0.794219
v -0.333772 -0.144192 0.792904
v -0.436428 -0.144361 0.750391
v -0.617437 -0.144880 0.611518
v -0.666261 -0.145112 0.547897
v -0.898430 0.822181 0.544557
v -1.426937 0.766066 0.544751
v -1.426937 0.762238 -0.563950
v -0.898430 0.818354 -0.564144
v -0.505065 0.822181 0.544557
v -0.505065 0.818354 -0.564144
v 0.369061 0.500269 -0.563046
v 0.369061 0.504097 0.545655
v 0.589872 0.504097 0.545655
v 0.589872 0.500269 -0.563046
v 1.414209 0.245877 0.071958
v 1.414209 0.245972 0.099749
v 1.308616 0.245877 0.071958
v 1.280915 0.245972 0.099749
v 1.308616 0.245325 -0.087708
v 1.280915 0.245229 -0.115479
v 1.414209 0.245229 -0.115479
v 1.414209 0.245325 -0.087708
v 1.534426 0.106437 -0.234042
v 1.127675 0.106185 -0.307095
v 1.534426 0.106185 -0.307095
v 1.127675 0.108255 0.292432
v 1.534427 0.108003 0.219378
v 1.584316 0.106437 -0.234042
v 1.584316 0.108003 0.219378
v 1.534426 0.108255 0.292432
v 0.589872 0.500269 -0.563046
v 0.369061 0.250990 -0.562185
v 0.589873 0.250990 -0.562185
v 0.369061 0.500269 -0.563046
v -0.153447 0.031205 -0.561427
v -0.505065 0.818354 -0.564144
v -0.898430 0.818354 -0.564144
v -0.666270 -0.148958 -0.560805
v -1.426937 0.762238 -0.563950
v -1.426937 -0.248434 -0.560461
v -0.712650 -0.248434 -0.560461
v -0.333795 -0.148897 -0.560805
v 0.369061 0.031205 -0.561427
v -1.426937 -0.244606 0.548240
v -0.712650 -0.244606 0.548240
v -0.788474 -0.244949 0.449426
v -0.879492 -0.245708 0.229694
v -0.910690 -0.246522 -0.006110
v -1.426937 -0.248434 -0.560461
v -0.879492 -0.247336 -0.241913
v -0.788475 -0.248094 -0.461645
v -0.712650 -0.248434 -0.560461
v 1.308616 0.245877 0.071958
v 1.308696 0.291036 0.071923
v 1.414209 0.245877 0.071958
v 1.445806 0.276308 0.072004
v 1.460938 0.130457 0.072357
v 1.414320 0.130457 0.072357
v -0.073382 0.696508 -0.438320
v -0.073382 0.571722 -0.437889
v 0.001982 0.571462 -0.513253
v 0.001982 0.696248 -0.513683
v -0.038588 0.710702 -0.438369
v 0.001982 0.710562 -0.478938
v -0.038588 0.784921 -0.438626
v 0.001982 0.784781 -0.479195
v -0.021412 0.799115 -0.438675
v 0.001982 0.799034 -0.462068
v -0.017148 0.957923 -0.439223
v 0.001969 0.957857 -0.458340
v 0.025376 0.799115 -0.438675
v 0.021087 0.957923 -0.439223
v 0.001982 0.799196 -0.415281
v 0.001969 0.957989 -0.420105
v -0.021412 0.799115 -0.438675
v -0.017148 0.957923 -0.439223
v -0.038588 0.784921 -0.438626
v -0.038588 0.710702 -0.438369
v 0.001982 0.785061 -0.398056
v 0.001982 0.710842 -0.397800
v 0.042551 0.784921 -0.438626
v 0.042551 0.710702 -0.438369
v 0.001982 0.696768 -0.362957
v 0.077345 0.696508 -0.438320
v 0.077345 0.571722 -0.437889
v 0.001982 0.571982 -0.362526
v -0.073382 0.571722 -0.437889
v -0.073382 0.696508 -0.438320
v -1.453209 -0.191023 -0.474224
v -1.470022 -0.132886 -0.474425
v -1.453209 -0.161780 -0.423977
v -1.453210 -0.162128 -0.524673
v -1.453209 -0.103991 -0.524873
v -1.453209 -0.074749 -0.474626
v -1.453209 -0.103644 -0.424177
v -0.311617 0.747155 -0.431057
v -0.266064 0.788728 -0.431200
v -0.283421 0.736864 -0.358350
v -0.245580 0.780887 -0.483969
v -0.283421 0.736362 -0.503691
v -0.196128 0.762322 -0.505774
v -0.215352 0.710809 -0.533705
v -0.146676 0.743909 -0.483842
v -0.147283 0.685462 -0.503516
v -0.126192 0.736432 -0.431020
v -0.119088 0.675172 -0.430808
v -0.147283 0.685964 -0.358174
v -0.146676 0.744273 -0.378251
v -0.196128 0.762838 -0.356446
v -0.245580 0.781252 -0.378379
v -0.215352 0.711518 -0.328160
v 0.057884 0.668511 0.387943
v 0.057884 0.668836 0.482039
v 0.057884 0.616274 0.388123
v 0.057884 0.616599 0.482219
v 0.921176 0.270284 -0.164721
v 0.921176 0.270370 -0.140068
v 0.920975 0.412702 -0.165213
v 0.921076 0.412776 -0.140560
v 0.801471 0.438783 0.123586
v 0.801471 0.437871 -0.140672
v 0.947660 0.422348 0.123693
v 0.947660 0.421436 -0.140640
v 0.921176 0.271367 0.148817
v 0.920975 0.413785 0.148326
v 0.921176 0.271282 0.124164
v 0.921076 0.413688 0.123673
v 0.947660 0.422348 0.123693
v 0.947660 0.421436 -0.140640
v 0.964317 0.271282 0.124215
v 0.964317 0.270369 -0.140118
v 0.001969 0.957989 -0.420105
v -0.017148 0.957923 -0.439223
v 0.021087 0.957923 -0.439223
v 0.001969 0.957857 -0.458340
v 0.798001 0.254096 0.337382
v 0.798001 0.254740 0.524095
v 0.798001 0.441356 0.336735
v 0.798001 0.442000 0.523448
v 0.798001 0.442000 0.523448
v 0.589873 0.442000 0.523449
v 0.798001 0.441356 0.336735
v 0.589873 0.441356 0.336685
v 0.798001 0.251712 -0.353051
v 0.798001 0.438972 -0.353698
v 0.798001 0.251068 -0.539764
v 0.798001 0.438328 -0.540411
v 0.798001 0.438328 -0.540411
v 0.798001 0.438972 -0.353698
v 0.589873 0.438328 -0.540411
v 0.589873 0.438972 -0.353647
v 1.177700 0.130827 0.179413
v 1.177700 0.107865 0.179492
v 1.177701 0.129537 -0.194235
v 1.177701 0.106575 -0.194156
v 1.551351 0.107865 0.179492
v 1.551351 0.130827 0.179413
v 1.551351 0.106575 -0.194156
v 1.551351 0.129537 -0.194235
v 1.551351 0.129537 -0.194235
v 1.177701 0.129537 -0.194235
v 1.551351 0.106575 -0.194156
v 1.177701 0.106575 -0.194156
v 1.551351 0.107865 0.179492
v 1.177700 0.107865 0.179492
v 1.551351 0.130827 0.179413
v 1.177700 0.130827 0.179413
v -0.330964 0.930650 -0.300005
v -0.306441 0.930565 -0.324498
v -0.306341 0.930734 -0.275557
v -0.281958 0.930650 -0.300055
v 0.801371 0.428533 -0.140664
v 0.801471 0.439989 -0.140704
v 0.643400 0.453366 -0.140750
v 0.643501 0.464822 -0.140790
v 0.643501 0.465734 0.123493
v 0.643501 0.464822 -0.140790
v 0.801471 0.440902 0.123579
v 0.801471 0.439989 -0.140704
v 0.643400 0.454278 0.123533
v 0.801371 0.428533 -0.140664
v 0.643400 0.453366 -0.140750
v 0.801371 0.429445 0.123618
v 0.643400 0.454278 0.123533
v 0.643400 0.453366 -0.140750
v 0.643501 0.465734 0.123493
v 0.643501 0.464822 -0.140790
v 0.801371 0.429445 0.123618
v 0.643400 0.454278 0.123533
v 0.801471 0.440902 0.123579
v 0.643501 0.465734 0.123493
v 1.551194 -0.281323 -0.232703
v 1.127675 -0.281323 -0.232703
v 1.551194 -0.279757 0.220717
v 1.127675 -0.279757 0.220717
v 1.127675 -0.281323 -0.232703
v 1.127675 -0.247303 -0.232821
v 1.127675 -0.279757 0.220717
v 1.127675 -0.245737 0.220600
v 1.127675 0.251869 -0.307598
v 1.127675 0.106185 -0.307095
v 1.127675 0.253939 0.291929
v 1.127675 0.108255 0.292432
v 0.589873 0.251869 -0.307598
v 1.127675 0.251869 -0.307598
v 0.589873 0.253939 0.291929
v 1.127675 0.253939 0.291929
v 1.280915 0.245229 -0.115479
v 1.280915 0.129810 -0.115080
v 1.414209 0.245229 -0.115479
v 1.414319 0.129810 -0.115080
v 1.308696 0.291036 0.071923
v 1.308616 0.245877 0.071958
v 1.308696 0.290484 -0.087986
v 1.308616 0.245325 -0.087708
v 1.414209 0.245972 0.099749
v 1.414209 0.245877 0.071958
v 1.414320 0.130553 0.100148
v 1.414320 0.130457 0.072357
v 1.280915 0.245972 0.099749
v 1.280915 0.130553 0.100148
v 1.280915 0.245229 -0.115479
v 1.280915 0.129810 -0.115080
v 1.534426 0.109300 0.337881
v 1.127675 0.254096 0.337382
v 1.478968 0.324725 0.337137
v 1.012923 0.324725 0.337138
v 0.589873 0.254096 0.337382
v 0.948023 0.433983 0.336761
v 0.589873 0.471568 0.336631
v 0.948023 0.431756 -0.308219
v 0.589873 0.251869 -0.307598
v 0.589873 0.469341 -0.308349
v 1.012922 0.322498 -0.307842
v 1.127675 0.251869 -0.307598
v 1.478968 0.322498 -0.307842
v 1.534426 0.106185 -0.307095
v 1.127675 0.106185 -0.307095
v 0.524543 0.250819 -0.611692
v 0.589873 0.250990 -0.562185
v 0.369061 0.250990 -0.562185
v 1.127675 0.250819 -0.611692
v 0.589873 0.251712 -0.353051
v 1.127675 0.251712 -0.353051
v 1.534426 0.106916 -0.352551
v 0.589873 0.469184 -0.353802
v 0.948023 0.431599 -0.353672
v 0.589873 0.469341 -0.308349
v 0.948023 0.431756 -0.308219
v 1.012922 0.322341 -0.353295
v 1.012922 0.322498 -0.307842
v 1.478969 0.322341 -0.353294
v 1.478968 0.322498 -0.307842
v 0.804951 0.425921 -0.165203
v 0.801371 0.426414 -0.140551
v 0.773469 0.429614 -0.134628
v 0.921076 0.412776 -0.140560
v 0.920975 0.412702 -0.165213
v 0.804951 0.270284 -0.164721
v 0.921176 0.270284 -0.164721
v 0.920975 0.412702 -0.165213
v 0.804951 0.425921 -0.165203
v 0.773469 0.270390 -0.134134
v 0.773469 0.429614 -0.134628
v 0.921076 0.413688 0.123673
v 0.920975 0.413785 0.148326
v 0.804951 0.427004 0.148280
v 0.801371 0.427327 0.123626
v 0.773469 0.430485 0.117680
v 0.920975 0.413785 0.148326
v 0.921176 0.271367 0.148817
v 0.804951 0.271367 0.148817
v 0.804951 0.427004 0.148280
v 0.773469 0.271261 0.118230
v 0.773469 0.430485 0.117680
v 0.773469 0.429614 -0.134628
v 0.773469 0.270390 -0.134134
v -1.426937 -0.191023 -0.474224
v -1.453209 -0.191023 -0.474224
v -1.426937 -0.161780 -0.423977
v -1.453209 -0.161780 -0.423977
v -1.426937 -0.103644 -0.424177
v -1.453209 -0.103644 -0.424177
v -1.426937 -0.074749 -0.474626
v -1.453209 -0.074749 -0.474626
v -1.426937 -0.103991 -0.524873
v -1.453209 -0.103991 -0.524873
v -1.426937 -0.162128 -0.524673
v -1.453210 -0.162128 -0.524673
v -1.426937 -0.191023 -0.474224
v -1.453209 -0.191023 -0.474224
v 0.369061 0.035033 0.547275
v 0.369061 0.254818 0.546516
v 0.524543 0.254989 0.596023
v 0.527457 0.035203 0.596782
v 1.127676 0.254989 0.596023
v 0.604400 -0.091424 0.597218
v 1.127675 -0.244435 0.597747
v 0.675743 -0.244437 0.597746
v 1.534426 0.109300 0.337881
v 1.534427 -0.174700 0.338862
v 0.524543 0.254989 0.596023
v 0.369061 0.254818 0.546516
v 0.589873 0.254818 0.546516
v 1.127676 0.254989 0.596023
v 0.589873 0.254096 0.337382
v 1.127675 0.254096 0.337382
v 1.534426 0.109300 0.337881
v 1.534426 0.106916 -0.352551
v 1.478969 0.322341 -0.353294
v 1.127675 0.251712 -0.353051
v 1.012922 0.322341 -0.353295
v 0.589873 0.251712 -0.353051
v 0.948023 0.431599 -0.353672
v 0.589873 0.469184 -0.353802
v 1.012923 0.324568 0.291685
v 1.478968 0.324568 0.291685
v 1.478968 0.324725 0.337137
v 1.012923 0.324725 0.337138
v 0.948023 0.433826 0.291308
v 0.948023 0.433983 0.336761
v 0.589873 0.471411 0.291178
v 0.589873 0.471568 0.336631
v 0.921076 0.412776 -0.140560
v 0.921176 0.270370 -0.140068
v 0.964317 0.270369 -0.140118
v 0.947660 0.421436 -0.140640
v 0.801471 0.437871 -0.140672
v 0.801371 0.426414 -0.140551
v 0.921176 0.271282 0.124164
v 0.921076 0.413688 0.123673
v 0.964317 0.271282 0.124215
v 0.947660 0.422348 0.123693
v 0.801471 0.438783 0.123586
v 0.801371 0.427327 0.123626
v 0.589873 0.250990 -0.562185
v 0.589873 0.251712 -0.353051
v 0.589872 0.500269 -0.563046
v 0.589873 0.469184 -0.353802
v 0.589873 0.469341 -0.308349
v 0.589872 0.504097 0.545655
v 0.589873 0.254818 0.546516
v 0.589873 0.254096 0.337382
v 0.589873 0.471568 0.336631
v 0.589873 0.471411 0.291178
v 0.589873 0.251869 -0.307598
v 0.589873 0.253939 0.291929
v 0.789555 -0.244949 0.449424
v 0.675743 -0.244437 0.597746
v 1.127675 -0.244435 0.597747
v 0.880571 -0.245708 0.229691
v 1.127675 -0.245737 0.220600
v 0.911616 -0.246524 -0.006110
v 1.127675 -0.247303 -0.232821
v 0.880571 -0.247336 -0.241913
v 1.127675 -0.248605 -0.609968
v 0.789554 -0.248095 -0.461646
v 0.675743 -0.248607 -0.609967
v 1.534427 -0.177084 -0.351570
v 1.534426 -0.176675 -0.233064
v 1.534427 -0.174700 0.338862
v 1.534427 -0.175110 0.220356
v 1.308696 0.290484 -0.087986
v 1.308616 0.245325 -0.087708
v 1.414209 0.245325 -0.087708
v 1.445806 0.275756 -0.087966
v 1.460938 0.129906 -0.087309
v 1.414320 0.129906 -0.087289
v 1.534427 0.108003 0.219378
v 1.584316 0.108003 0.219378
v 1.534427 -0.175110 0.220356
v 1.584316 -0.175110 0.220356
v 1.551194 -0.279757 0.220717
v 1.127675 -0.279757 0.220717
v 1.127675 -0.245737 0.220600
v 1.534426 0.106437 -0.234042
v 1.534426 -0.176675 -0.233064
v 1.584316 0.106437 -0.234042
v 1.584316 -0.176675 -0.233064
v 1.551194 -0.281323 -0.232703
v 1.127675 -0.281323 -0.232703
v 1.127675 -0.247303 -0.232821
v -1.453209 -0.187790 0.461991
v -1.453209 -0.158896 0.411542
v -1.470022 -0.129654 0.461790
v -1.453209 -0.158548 0.512239
v -1.453209 -0.100412 0.512038
v -1.453209 -0.071517 0.461590
v -1.453209 -0.100759 0.411342
v 0.715814 0.253392 0.133572
v 0.715814 0.252415 -0.149403
v 0.723642 0.268085 -0.146148
v 0.723642 0.269039 0.130209
v 0.739632 0.253472 0.156707
v 0.742809 0.269103 0.148825
v 0.974436 0.253472 0.156757
v 0.971241 0.269103 0.148874
v 0.990225 0.269039 0.130279
v 0.998053 0.253392 0.133623
v 0.998053 0.252415 -0.149403
v 0.974436 0.252336 -0.172538
v 0.990225 0.268084 -0.146167
v 0.971240 0.268020 -0.164764
v 0.739632 0.252336 -0.172538
v 0.742808 0.268020 -0.164764
v 0.798001 0.442000 0.523448
v 0.798001 0.254740 0.524095
v 0.589873 0.442000 0.523449
v 0.589873 0.254740 0.524095
v 0.000540 0.030334 -0.813815
v -0.153447 0.031205 -0.561427
v -0.153447 0.030403 -0.793542
v 0.209340 0.030428 -0.786326
v 0.369061 0.031205 -0.561427
v 0.403912 0.030707 -0.705733
v 0.527457 0.031034 -0.610933
v -0.153447 0.035834 0.779391
v -0.214112 -0.024705 0.794219
v -0.153447 0.035033 0.547275
v -0.333779 -0.145048 0.547897
v -0.333772 -0.144192 0.792904
v -0.436428 -0.144361 0.750391
v -0.617437 -0.144880 0.611518
v -0.666261 -0.145112 0.547897
v -0.153447 0.030403 -0.793542
v -0.153447 0.031205 -0.561427
v -0.214112 -0.030236 -0.807952
v -0.333795 -0.148897 -0.560805
v -0.333772 -0.149711 -0.805812
v -0.436428 -0.149586 -0.763299
v -0.617437 -0.149147 -0.624426
v -0.666270 -0.148958 -0.560805
v 0.369061 0.035033 0.547275
v 0.527457 0.035203 0.596782
v 0.403912 0.035530 0.691581
v 0.209340 0.035809 0.772174
v -0.153447 0.035033 0.547275
v 0.000540 0.035903 0.799663
v -0.153447 0.035834 0.779391
vn -0.0079 -0.0044 1.0000
vn 0.9999 -0.0079 -0.0078
vn -0.0078 -0.0112 -0.9999
vn -0.0079 0.9999 -0.0113
vn -0.1104 -0.0045 0.9939
vn -0.0870 0.9961 -0.0114
vn -0.9999 -0.0078 -0.0078
vn -0.1087 -0.0112 -0.9940
vn -0.0856 -0.9963 -0.0043
vn -0.0080 -0.0045 1.0000
vn -0.0079 -0.0045 1.0000
vn 0.9999 -0.0079 -0.0079
vn 0.9999 -0.0080 -0.0079
vn -0.0078 -0.0113 -0.9999
vn -0.9999 -0.0079 -0.0078
vn 0.1026 0.9947 -0.0113
vn 0.9955 0.0948 -0.0082
vn -0.0079 -1.0000 -0.0044
vn -0.0079 -1.0000 -0.0043
vn -0.7071 -0.7071 -0.0053
vn -0.7149 0.6991 -0.0103
vn 0.7071 0.7071 -0.0104
vn 0.6992 -0.7149 -0.0054
vn -0.0077 -1.0000 -0.0044
vn -0.0078 -1.0000 -0.0044
vn -0.0078 -0.5083 -0.8612
vn -0.0078 -0.5083 -0.8611
vn -0.0078 0.4906 -0.8714
vn -0.0078 0.4906 -0.8713
vn -0.0079 0.5034 0.8640
vn -0.0079 -0.5092 0.8606
vn -0.0078 -1.0000 -0.0043
vn -0.0081 -0.0045 1.0000
vn -0.0078 -0.0045 1.0000
vn -0.9999 -0.0078 -0.0079
vn -0.9644 -0.0087 -0.2644
vn -0.8716 -0.0095 -0.4902
vn -0.8849 -0.0094 -0.4657
vn -0.7932 0.0524 -0.6067
vn -0.6684 0.1374 -0.7310
vn -0.6954 -0.0102 -0.7185
vn -0.7464 0.3324 -0.5765
vn -0.6222 0.3320 -0.7089
vn -0.5043 0.1289 -0.8539
vn -0.5050 0.3391 -0.7937
vn -0.3672 0.3330 -0.8685
vn -0.2260 0.3397 -0.9130
vn -0.2342 0.1919 -0.9531
vn -0.1322 0.3311 -0.9343
vn -0.0000 0.2226 -0.9749
vn 0.0156 0.3410 -0.9399
vn 0.2350 0.3416 -0.9100
vn 0.2431 0.2320 -0.9418
vn 0.4789 0.2247 -0.8486
vn 0.4448 0.3405 -0.8284
vn 0.5648 0.3347 -0.7543
vn 0.5821 0.3357 -0.7406
vn 0.6115 0.2168 -0.7610
vn 0.7841 0.0371 -0.6196
vn 0.6912 -0.0103 -0.7226
vn 0.8677 -0.0096 -0.4970
vn 0.8643 -0.0096 -0.5028
vn 0.4936 -0.0108 -0.8696
vn 0.2499 -0.0111 -0.9682
vn -0.2644 -0.0111 -0.9643
vn -0.5053 -0.0107 -0.8629
vn 0.9633 -0.0088 -0.2684
vn 0.9999 -0.0079 -0.0080
vn 0.9955 -0.0948 -0.0076
vn 0.9518 -0.3068 -0.0068
vn -0.0078 -0.9653 -0.2611
vn -0.0078 -0.7125 0.7017
vn -0.0077 -0.9653 -0.2611
vn -0.0079 -0.7125 0.7016
vn -0.0079 0.2571 0.9664
vn -0.0079 0.2570 0.9664
vn -0.0079 0.9681 0.2504
vn -0.0079 0.6967 -0.7173
vn -0.0078 0.6967 -0.7173
vn -0.0078 -0.2677 -0.9635
vn -0.0077 -0.2677 -0.9635
vn -0.0156 0.2538 -0.9671
vn -0.0078 0.2611 -0.9653
vn -0.0078 0.2465 -0.9691
vn -0.0000 -0.2725 0.9622
vn -0.0000 -0.2724 0.9622
vn -0.0079 -0.2797 0.9601
vn -0.0079 -0.2651 0.9642
vn 0.9995 0.0317 -0.0080
vn 0.8475 0.5307 -0.0097
vn 0.8475 0.5307 -0.0098
vn -0.0476 0.9988 -0.0114
vn -0.8913 0.4534 -0.0094
vn -0.8912 0.4534 -0.0094
vn -0.9989 -0.0469 -0.0077
vn -0.0078 -0.9998 -0.0201
vn -0.0078 -0.8646 -0.5023
vn -0.0078 -0.0270 -0.9996
vn -0.0078 0.0045 -1.0000
vn -0.0079 0.8571 -0.5151
vn -0.0079 0.9996 -0.0274
vn -0.0079 1.0000 0.0046
vn -0.0079 0.8675 0.4974
vn -0.0079 0.0115 0.9999
vn -0.0079 -0.0205 0.9998
vn -0.0078 -0.8679 0.4966
vn -0.0078 -0.9999 0.0114
vn -0.0078 -0.9998 -0.0200
vn -0.7831 0.6185 -0.0649
vn -0.6572 0.5616 -0.5027
vn -0.6546 0.5594 -0.5085
vn -0.3658 0.4564 -0.8111
vn -0.3591 0.4577 -0.8134
vn 0.0313 0.3175 -0.9477
vn 0.0391 0.3174 -0.9475
vn 0.1648 0.2635 -0.9505
vn 0.1724 0.2632 -0.9492
vn 0.5700 0.1221 -0.8125
vn 0.5706 0.1144 -0.8132
vn 0.8676 0.0141 -0.4970
vn 0.8643 0.0140 -0.5029
vn 0.9977 -0.0240 -0.0633
vn 0.9986 -0.0236 0.0477
vn 0.9986 -0.0236 0.0476
vn 0.8710 0.0175 0.4909
vn 0.8657 0.0176 0.5003
vn 0.5720 0.1299 0.8099
vn 0.5773 0.1293 0.8062
vn 0.1751 0.2737 0.9457
vn 0.1669 0.2815 0.9449
vn 0.0397 0.3288 0.9436
vn 0.0317 0.3289 0.9438
vn -0.3704 0.4678 0.8024
vn -0.3728 0.4708 0.7996
vn -0.6619 0.5769 0.4787
vn -0.6594 0.5747 0.4847
vn -0.7838 0.6194 0.0449
vn -0.7831 0.6185 -0.0647
vn 0.3398 0.9404 -0.0111
vn 0.3398 0.9404 -0.0112
vn 0.3328 0.9429 -0.0112
vn 0.9947 0.1026 -0.0082
vn 0.9692 0.2462 -0.0088
vn 0.9988 0.0476 -0.0081
vn 0.9988 0.0475 -0.0081
vn -0.0701 -0.0112 -0.9975
vn -0.3022 -0.0111 -0.9532
vn -0.3116 -0.0111 -0.9502
vn -0.0546 -0.0112 -0.9984
vn 0.2644 -0.0111 -0.9643
vn 0.2426 -0.0112 -0.9701
vn 0.5237 -0.0108 -0.8519
vn -0.9999 -0.0078 -0.0077
vn -0.9682 -0.0069 0.2499
vn -0.9999 -0.0078 -0.0076
vn -0.8782 -0.0062 0.4783
vn -0.8912 -0.0062 0.4535
vn -0.8007 0.0570 0.5964
vn -0.7032 -0.0053 0.7110
vn -0.6760 0.1440 0.7227
vn -0.5122 -0.0049 0.8589
vn -0.5110 0.1366 0.8486
vn -0.2685 -0.0046 0.9633
vn -0.2377 0.2014 0.9502
vn -0.0000 0.2328 0.9725
vn 0.2537 -0.0046 0.9673
vn 0.2467 0.2420 0.9384
vn 0.5004 -0.0049 0.8658
vn 0.6991 -0.0055 0.7150
vn 0.4853 0.2336 0.8425
vn 0.6188 0.2246 0.7527
vn 0.7917 0.0417 0.6095
vn 0.8711 -0.0062 0.4910
vn 0.8745 -0.0063 0.4850
vn 0.9672 -0.0070 0.2538
vn 0.9672 -0.0070 0.2537
vn 0.9999 -0.0079 -0.0077
vn 0.5889 0.3447 0.7310
vn 0.5716 0.3439 0.7450
vn 0.4506 0.3507 0.8210
vn 0.2384 0.3529 0.9048
vn 0.0159 0.3526 0.9357
vn -0.1341 0.3425 0.9299
vn -0.2292 0.3510 0.9079
vn -0.3723 0.3436 0.8622
vn -0.5113 0.3488 0.7854
vn -0.6291 0.3406 0.6987
vn -0.7531 0.3393 0.5637
vn -0.0713 0.9974 -0.0114
vn -0.1104 0.9938 -0.0113
vn -0.0712 0.9974 -0.0114
vn 0.2370 0.9715 -0.0113
vn 0.2369 0.9715 -0.0112
vn 0.2777 0.9606 -0.0112
vn -0.9931 0.1163 -0.0158
vn -0.9999 -0.0079 -0.0077
vn -0.0000 0.1131 -0.9936
vn -0.8324 0.5494 -0.0726
vn 0.0550 0.5475 -0.8350
vn -0.9938 0.1086 -0.0235
vn 0.0078 0.1055 -0.9944
vn -0.9827 0.1792 -0.0473
vn 0.0312 0.1762 -0.9839
vn -0.9996 0.0155 -0.0234
vn 0.0078 0.0122 -0.9999
vn 0.9827 0.1825 0.0310
vn 0.9998 0.0159 0.0079
vn -0.0475 0.1857 0.9815
vn -0.0238 0.0193 0.9995
vn -0.9826 0.1793 -0.0476
vn -0.9996 0.0155 -0.0236
vn -0.9938 0.1086 -0.0238
vn -0.8324 0.5494 -0.0727
vn -0.0236 0.1140 0.9932
vn -0.0716 0.5599 0.8255
vn 0.9938 0.1106 0.0074
vn 0.8282 0.5578 0.0537
vn 0.9930 0.1184 -0.0004
vn -0.0158 0.1218 0.9924
vn -0.9999 -0.0079 -0.0079
vn -0.9931 0.1162 -0.0161
vn -0.9571 -0.1487 -0.2485
vn -0.9597 -0.2809 -0.0068
vn -0.9608 -0.1476 0.2348
vn -0.9592 0.1317 -0.2500
vn -0.9638 0.2664 -0.0087
vn -0.9629 0.1339 0.2344
vn -0.0869 0.9231 -0.3745
vn -0.6831 0.7302 0.0132
vn -0.4248 0.9051 0.0205
vn -0.4242 0.6386 0.6420
vn -0.4539 0.6396 -0.6204
vn 0.2832 0.8241 -0.4906
vn 0.1254 0.4280 -0.8950
vn 0.7229 0.2020 -0.6607
vn 0.6347 0.6570 -0.4069
vn 0.9104 0.4117 -0.0409
vn 0.9934 0.1103 -0.0319
vn 0.7677 0.2000 0.6088
vn 0.6357 0.7081 0.3075
vn 0.3329 0.8495 0.4094
vn 0.1754 0.4177 0.8915
vn 0.0078 0.9416 0.3367
vn 0.9998 -0.0080 -0.0158
vn 1.0000 -0.0079 -0.0000
vn 0.1503 0.9886 -0.0113
vn -0.1631 -0.9866 -0.0044
vn -1.0000 -0.0000 -0.0078
vn 0.1182 0.9929 -0.0113
vn 0.1426 0.9897 -0.0113
vn 0.0948 0.9954 -0.0113
vn 0.3259 0.9453 -0.0112
vn 0.1977 0.9802 -0.0113
vn -0.2171 -0.0111 -0.9761
vn -0.2335 -0.0111 -0.9723
vn -0.9932 -0.0082 -0.1162
vn -0.9941 -0.0082 -0.1086
vn -0.2204 -0.0045 0.9754
vn -0.2371 -0.0045 0.9715
vn -0.9948 -0.0074 0.1012
vn -0.9956 -0.0075 0.0935
vn -0.9941 -0.0081 -0.1086
vn -0.3068 -0.0046 0.9518
vn -0.0713 -0.0045 0.9974
vn -0.3162 -0.0046 0.9487
vn -0.0555 -0.0045 0.9984
vn 0.2684 -0.0046 0.9633
vn 0.2463 -0.0046 0.9692
vn 0.5307 -0.0050 0.8476
vn 0.5307 -0.0050 0.8475
vn 0.3328 0.9429 -0.0111
vn -0.0078 -0.0191 -0.9998
vn 0.0856 -0.9963 -0.0043
vn 0.0701 -0.9975 -0.0044
vn 0.1631 -0.9866 -0.0043
vn -0.8927 0.4466 0.0612
vn -0.4564 0.8888 -0.0426
vn -0.8917 0.4456 -0.0799
vn -0.4185 0.9080 0.0207
vn -0.0795 0.4553 0.8868
vn -0.0159 0.9989 0.0441
vn 0.0637 0.4557 0.8878
vn -0.0001 0.9990 0.0441
vn 0.4120 0.9110 0.0207
vn 0.8894 0.4529 0.0621
vn 0.8884 0.4519 -0.0810
vn 0.0628 0.4433 -0.8942
vn 0.4438 0.8951 -0.0428
vn -0.0001 0.9978 -0.0668
vn -0.0784 0.4428 -0.8932
vn -0.0158 0.9976 -0.0668
vn -0.7149 0.6992 -0.0103
vn -0.4565 0.8897 -0.0109
vn -0.5270 0.8498 -0.0108
vn -0.0079 0.9999 -0.0114
vt 0.293945 0.313477
vt 0.256104 0.279785
vt 0.256104 0.313477
vt 0.293945 0.279785
vt 0.222534 0.200073
vt 0.342529 0.146484
vt 0.342529 0.086548
vt 0.195068 0.121948
vt 0.333984 0.005978
vt 0.179932 0.005993
vt 0.179932 0.114868
vt 0.195068 0.172607
vt 0.222534 0.279785
vt 0.003925 0.568359
vt 0.035339 0.568359
vt 0.035339 0.539551
vt 0.003925 0.539551
vt 0.137939 0.568359
vt 0.166748 0.568359
vt 0.155396 0.537109
vt 0.137939 0.537109
vt 0.077271 0.537109
vt 0.065857 0.568359
vt 0.094727 0.568359
vt 0.094727 0.537109
vt 0.101990 0.568359
vt 0.133423 0.568359
vt 0.101990 0.537109
vt 0.133423 0.537109
vt 0.766113 0.385986
vt 0.783203 0.385986
vt 0.766113 0.327148
vt 0.783203 0.327148
vt 0.806641 0.315674
vt 0.824219 0.315674
vt 0.806641 0.175415
vt 0.824219 0.175415
vt 0.801270 0.315674
vt 0.801270 0.175415
vt 0.742676 0.315674
vt 0.742676 0.175415
vt 0.760742 0.327148
vt 0.743164 0.327148
vt 0.760742 0.385986
vt 0.743164 0.385986
vt 0.736816 0.315674
vt 0.736816 0.175415
vt 0.719238 0.315674
vt 0.719238 0.175415
vt 0.489014 0.536133
vt 0.460449 0.536133
vt 0.489014 0.504395
vt 0.460449 0.504395
vt 0.406006 0.234253
vt 0.406006 0.291016
vt 0.463135 0.234253
vt 0.463135 0.291016
vt 0.220581 0.358398
vt 0.220581 0.353516
vt 0.201538 0.358398
vt 0.201538 0.346680
vt 0.406738 0.317627
vt 0.425537 0.317627
vt 0.406738 0.305664
vt 0.425781 0.305664
vt 0.692383 0.540527
vt 0.692383 0.559570
vt 0.711426 0.540527
vt 0.711426 0.559570
vt 0.431152 0.309326
vt 0.449951 0.302490
vt 0.431152 0.297607
vt 0.449951 0.297607
vt 0.716797 0.589355
vt 0.735840 0.589355
vt 0.716797 0.584473
vt 0.735840 0.584473
vt 0.173584 0.160034
vt 0.173584 0.005978
vt 0.004585 0.160034
vt 0.004566 0.005997
vt 0.817871 0.140015
vt 0.822754 0.140015
vt 0.817871 0.160767
vt 0.822754 0.160767
vt 0.616699 0.253906
vt 0.599121 0.253906
vt 0.616699 0.274170
vt 0.599121 0.274170
vt 0.581055 0.253906
vt 0.560059 0.253906
vt 0.581055 0.278320
vt 0.560059 0.278320
vt 0.588379 0.302490
vt 0.588379 0.324707
vt 0.612793 0.302490
vt 0.612793 0.324707
vt 0.702637 0.244629
vt 0.716309 0.244629
vt 0.695312 0.256592
vt 0.716309 0.268799
vt 0.702637 0.268799
vt 0.493408 0.551270
vt 0.493408 0.563965
vt 0.515137 0.551270
vt 0.515137 0.563965
vt 0.537109 0.551270
vt 0.537109 0.563965
vt 0.559082 0.551270
vt 0.559082 0.563965
vt 0.581055 0.551270
vt 0.581055 0.563965
vt 0.603027 0.551270
vt 0.603027 0.563965
vt 0.624512 0.551270
vt 0.624512 0.563965
vt 0.646484 0.551270
vt 0.646484 0.563965
vt 0.668457 0.551270
vt 0.668457 0.563965
vt 0.429688 0.638184
vt 0.429688 0.629395
vt 0.410400 0.638184
vt 0.410400 0.629395
vt 0.390869 0.638184
vt 0.390869 0.629395
vt 0.371582 0.638184
vt 0.371582 0.629395
vt 0.352051 0.638184
vt 0.352051 0.629395
vt 0.332764 0.638184
vt 0.332764 0.629395
vt 0.313232 0.638184
vt 0.313232 0.629395
vt 0.551758 0.380371
vt 0.503418 0.400391
vt 0.511719 0.380371
vt 0.531738 0.371826
vt 0.560547 0.400391
vt 0.551758 0.420654
vt 0.511719 0.420654
vt 0.531738 0.429199
vt 0.697266 0.322266
vt 0.697266 0.268066
vt 0.685547 0.322266
vt 0.685547 0.268066
vt 0.674316 0.322266
vt 0.674316 0.268066
vt 0.662598 0.322266
vt 0.662598 0.268066
vt 0.651367 0.322266
vt 0.651367 0.268066
vt 0.253174 0.369873
vt 0.253174 0.348877
vt 0.290283 0.369873
vt 0.290283 0.348877
vt 0.327637 0.369873
vt 0.327637 0.348877
vt 0.347168 0.348877
vt 0.364258 0.348877
vt 0.364258 0.369873
vt 0.352051 0.333252
vt 0.364258 0.333252
vt 0.400146 0.348877
vt 0.400146 0.333252
vt 0.417969 0.333252
vt 0.435547 0.314453
vt 0.435547 0.348877
vt 0.445801 0.304932
vt 0.470215 0.348877
vt 0.470215 0.304932
vt 0.504395 0.304932
vt 0.504883 0.348877
vt 0.539551 0.348877
vt 0.539551 0.304932
vt 0.564453 0.304932
vt 0.574707 0.324707
vt 0.574707 0.348877
vt 0.582031 0.348877
vt 0.574707 0.369873
vt 0.611816 0.348877
vt 0.611816 0.369873
vt 0.539551 0.369873
vt 0.504883 0.369873
vt 0.470215 0.369873
vt 0.435547 0.369873
vt 0.400146 0.369873
vt 0.648926 0.369873
vt 0.648926 0.348877
vt 0.686035 0.369873
vt 0.686035 0.348877
vt 0.994141 0.422119
vt 0.925293 0.422119
vt 0.994141 0.465088
vt 0.925293 0.465088
vt 0.994141 0.481934
vt 0.925293 0.481934
vt 0.504395 0.427002
vt 0.502930 0.414062
vt 0.502930 0.440186
vt 0.497803 0.401855
vt 0.489746 0.391357
vt 0.497803 0.452393
vt 0.489746 0.462891
vt 0.479248 0.383301
vt 0.479248 0.470947
vt 0.467041 0.378174
vt 0.467041 0.475830
vt 0.454102 0.376465
vt 0.440918 0.378174
vt 0.454102 0.477539
vt 0.440918 0.475830
vt 0.428711 0.383301
vt 0.428711 0.470947
vt 0.418213 0.391357
vt 0.418213 0.462891
vt 0.410156 0.401855
vt 0.405029 0.414062
vt 0.410156 0.452393
vt 0.405029 0.440186
vt 0.403320 0.427002
vt 0.376709 0.902344
vt 0.390869 0.902344
vt 0.376709 0.875488
vt 0.390869 0.875488
vt 0.405029 0.902344
vt 0.405029 0.875488
vt 0.419434 0.902344
vt 0.419434 0.875488
vt 0.433594 0.902344
vt 0.433594 0.875488
vt 0.447754 0.902344
vt 0.447754 0.875488
vt 0.462158 0.902344
vt 0.462158 0.875488
vt 0.893066 0.404541
vt 0.914551 0.422119
vt 0.893066 0.422119
vt 0.914551 0.385986
vt 0.887695 0.401123
vt 0.887695 0.385986
vt 0.910156 0.381348
vt 0.892578 0.381348
vt 0.458496 0.551758
vt 0.444580 0.551758
vt 0.458496 0.569824
vt 0.444580 0.569824
vt 0.430664 0.551758
vt 0.430664 0.569824
vt 0.416748 0.551758
vt 0.416748 0.569824
vt 0.402832 0.551758
vt 0.402832 0.569824
vt 0.968750 0.997070
vt 0.968750 0.990723
vt 0.943359 0.997070
vt 0.943359 0.990723
vt 0.968750 0.984375
vt 0.943359 0.984375
vt 0.968750 0.978027
vt 0.968750 0.900391
vt 0.943359 0.978027
vt 0.943359 0.900391
vt 0.968750 0.894531
vt 0.943359 0.894531
vt 0.968750 0.888184
vt 0.943359 0.888184
vt 0.968750 0.881836
vt 0.943359 0.756348
vt 0.943359 0.881836
vt 0.968750 0.756348
vt 0.968750 0.750000
vt 0.943359 0.750000
vt 0.968750 0.743652
vt 0.943359 0.743652
vt 0.968750 0.737793
vt 0.943359 0.660156
vt 0.943359 0.737793
vt 0.968750 0.660156
vt 0.968750 0.653809
vt 0.943359 0.653809
vt 0.968750 0.647461
vt 0.943359 0.647461
vt 0.968750 0.641602
vt 0.943359 0.515625
vt 0.943359 0.641602
vt 0.968750 0.515625
vt 0.823242 0.332031
vt 0.821289 0.466064
vt 0.823242 0.459961
vt 0.821289 0.325928
vt 0.816895 0.470459
vt 0.816895 0.321533
vt 0.811035 0.472168
vt 0.811035 0.319824
vt 0.800781 0.324219
vt 0.731934 0.319824
vt 0.739258 0.324219
vt 0.731934 0.472168
vt 0.725586 0.470459
vt 0.725586 0.321533
vt 0.721191 0.466064
vt 0.721191 0.325928
vt 0.719727 0.332031
vt 0.719727 0.459961
vt 0.739258 0.468018
vt 0.800781 0.468018
vt 0.927246 0.601074
vt 0.935059 0.613770
vt 0.935059 0.601074
vt 0.927246 0.613770
vt 0.927246 0.628906
vt 0.935059 0.628906
vt 0.927246 0.641602
vt 0.935059 0.641602
vt 0.935059 0.673828
vt 0.927246 0.674316
vt 0.935059 0.686035
vt 0.927246 0.686035
vt 0.935059 0.699707
vt 0.927246 0.699707
vt 0.935059 0.710938
vt 0.927246 0.710938
vt 0.927246 0.751953
vt 0.935059 0.751465
vt 0.935059 0.762695
vt 0.927246 0.762695
vt 0.935059 0.776855
vt 0.927246 0.776855
vt 0.927246 0.789062
vt 0.935059 0.789062
vt 0.935059 0.821289
vt 0.927246 0.821289
vt 0.935059 0.833496
vt 0.927246 0.833496
vt 0.935059 0.847656
vt 0.927246 0.847656
vt 0.935059 0.859863
vt 0.927246 0.859863
vt 0.927246 0.902832
vt 0.935059 0.902832
vt 0.587891 0.374268
vt 0.632324 0.377686
vt 0.620605 0.374268
vt 0.576172 0.377686
vt 0.642578 0.388672
vt 0.565918 0.388672
vt 0.645996 0.401367
vt 0.562500 0.401367
vt 0.562500 0.449219
vt 0.565918 0.461914
vt 0.645996 0.449219
vt 0.642578 0.461914
vt 0.632324 0.472900
vt 0.576172 0.472900
vt 0.620605 0.476562
vt 0.587891 0.476562
vt 0.407227 0.185181
vt 0.414307 0.151245
vt 0.407227 0.151245
vt 0.414307 0.185303
vt 0.407227 0.228516
vt 0.425293 0.228516
vt 0.425293 0.185303
vt 0.185669 0.256592
vt 0.213135 0.201904
vt 0.179932 0.201904
vt 0.202271 0.266357
vt 0.202271 0.337402
vt 0.213135 0.283936
vt 0.235352 0.345947
vt 0.235352 0.283936
vt 0.351318 0.402344
vt 0.317627 0.377441
vt 0.351318 0.377441
vt 0.317627 0.402588
vt 0.351318 0.494385
vt 0.298340 0.414551
vt 0.275146 0.494385
vt 0.329102 0.567871
vt 0.285889 0.567871
vt 0.275146 0.425293
vt 0.004597 0.247681
vt 0.173584 0.166626
vt 0.004585 0.166748
vt 0.173584 0.247681
vt 0.004604 0.307617
vt 0.173584 0.307617
vt 0.173584 0.449463
vt 0.004620 0.449463
vt 0.004623 0.483154
vt 0.173584 0.483154
vt 0.376221 0.377441
vt 0.392334 0.377441
vt 0.376221 0.373047
vt 0.396484 0.373047
vt 0.392334 0.401855
vt 0.396484 0.406006
vt 0.376221 0.406006
vt 0.376221 0.401855
vt 0.271240 0.499023
vt 0.179932 0.499023
vt 0.260254 0.561035
vt 0.271240 0.561035
vt 0.191040 0.561035
vt 0.260254 0.568359
vt 0.191040 0.568359
vt 0.179932 0.561035
vt 0.332764 0.318115
vt 0.338623 0.280518
vt 0.332764 0.275879
vt 0.351562 0.285889
vt 0.365479 0.287598
vt 0.398193 0.318115
vt 0.392334 0.280518
vt 0.379395 0.285889
vt 0.398193 0.275879
vt 0.441406 0.227661
vt 0.441406 0.211548
vt 0.434570 0.227661
vt 0.436768 0.206787
vt 0.458984 0.204468
vt 0.458984 0.211548
vt 0.490723 0.248657
vt 0.469238 0.230347
vt 0.469238 0.248657
vt 0.490723 0.230347
vt 0.497070 0.248657
vt 0.497070 0.230347
vt 0.520508 0.248657
vt 0.520508 0.230347
vt 0.528320 0.248657
vt 0.528320 0.230347
vt 0.625000 0.248657
vt 0.625000 0.230347
vt 0.528320 0.212036
vt 0.625000 0.212036
vt 0.528320 0.193726
vt 0.625000 0.193726
vt 0.528320 0.175415
vt 0.625000 0.175415
vt 0.520508 0.175415
vt 0.497070 0.175415
vt 0.520508 0.193726
vt 0.497070 0.193726
vt 0.520508 0.212036
vt 0.497070 0.212036
vt 0.490723 0.212036
vt 0.490723 0.193726
vt 0.469238 0.212036
vt 0.469238 0.193726
vt 0.469238 0.175415
vt 0.490723 0.175415
vt 0.498535 0.087280
vt 0.481201 0.097290
vt 0.481201 0.077332
vt 0.463867 0.087280
vt 0.498535 0.067322
vt 0.481201 0.057373
vt 0.463867 0.067322
vt 0.679688 0.235840
vt 0.709961 0.230957
vt 0.691895 0.222534
vt 0.709961 0.197388
vt 0.686523 0.254639
vt 0.661133 0.236450
vt 0.652832 0.254639
vt 0.628906 0.230957
vt 0.647949 0.224121
vt 0.646973 0.205811
vt 0.628906 0.197388
vt 0.652832 0.173584
vt 0.659668 0.192505
vt 0.677734 0.191772
vt 0.686523 0.173584
vt 0.691406 0.204224
vt 0.042572 0.568359
vt 0.060028 0.568359
vt 0.042572 0.537109
vt 0.060028 0.537109
vt 0.241699 0.324951
vt 0.241699 0.288330
vt 0.248047 0.324951
vt 0.248047 0.288330
vt 0.676270 0.443848
vt 0.698730 0.443848
vt 0.676270 0.403564
vt 0.698730 0.403564
vt 0.558594 0.449463
vt 0.535156 0.449463
vt 0.558594 0.489746
vt 0.535156 0.489746
vt 0.677734 0.553223
vt 0.677734 0.562500
vt 0.686523 0.553711
vt 0.686523 0.562500
vt 0.558105 0.532715
vt 0.558105 0.504395
vt 0.529297 0.532715
vt 0.529297 0.504395
vt 0.496094 0.536133
vt 0.524414 0.536133
vt 0.496094 0.504395
vt 0.524414 0.504395
vt 0.887695 0.546875
vt 0.887695 0.603516
vt 0.891113 0.546875
vt 0.891113 0.603516
vt 0.794434 0.385986
vt 0.794434 0.328857
vt 0.791016 0.385986
vt 0.791016 0.328857
vt 0.526367 0.299072
vt 0.526367 0.295654
vt 0.469238 0.299072
vt 0.469238 0.295654
vt 0.186646 0.138062
vt 0.183228 0.138062
vt 0.186646 0.195068
vt 0.183228 0.195068
vt 0.329102 0.242554
vt 0.322510 0.234863
vt 0.322510 0.250000
vt 0.315918 0.242554
vt 0.535156 0.297363
vt 0.559570 0.297363
vt 0.535156 0.299072
vt 0.559570 0.299072
vt 0.325928 0.277832
vt 0.301514 0.277832
vt 0.325928 0.318115
vt 0.301514 0.318115
vt 0.256104 0.343994
vt 0.296387 0.343994
vt 0.296387 0.319580
vt 0.256104 0.319580
vt 0.248047 0.334229
vt 0.244995 0.334229
vt 0.248047 0.374512
vt 0.244995 0.374512
vt 0.305420 0.377197
vt 0.278564 0.377197
vt 0.305420 0.402100
vt 0.278564 0.402100
vt 0.356934 0.113708
vt 0.356934 0.062073
vt 0.349121 0.113708
vt 0.349121 0.062073
vt 0.271240 0.470215
vt 0.179932 0.470215
vt 0.271240 0.492432
vt 0.179932 0.492432
vt 0.271240 0.382324
vt 0.179932 0.382324
vt 0.271240 0.464355
vt 0.179932 0.464355
vt 0.586914 0.253906
vt 0.586914 0.278320
vt 0.593750 0.253906
vt 0.593750 0.278320
vt 0.301758 0.343994
vt 0.334717 0.343994
vt 0.301758 0.326172
vt 0.334717 0.326172
vt 0.348877 0.150024
vt 0.381592 0.141479
vt 0.370850 0.087952
vt 0.381592 0.070435
vt 0.370850 0.005978
vt 0.398193 0.060577
vt 0.404053 0.005978
vt 0.358643 0.493164
vt 0.358643 0.401123
vt 0.366211 0.411133
vt 0.366211 0.377441
vt 0.397949 0.411133
vt 0.397949 0.493164
vt 0.397949 0.558594
vt 0.407227 0.005978
vt 0.414307 0.005978
vt 0.407227 0.060883
vt 0.414307 0.060883
vt 0.414307 0.080261
vt 0.407227 0.080261
vt 0.674805 0.537109
vt 0.670898 0.519043
vt 0.674805 0.518555
vt 0.675781 0.514648
vt 0.670898 0.537109
vt 0.646484 0.277832
vt 0.625000 0.260010
vt 0.646484 0.260010
vt 0.623047 0.277832
vt 0.646484 0.284424
vt 0.622559 0.284424
vt 0.622559 0.322998
vt 0.646484 0.322998
vt 0.317627 0.402832
vt 0.660645 0.542969
vt 0.653809 0.520996
vt 0.660645 0.520996
vt 0.656738 0.544434
vt 0.678711 0.546875
vt 0.678711 0.544922
vt 0.173584 0.530273
vt 0.173584 0.492188
vt 0.141724 0.530273
vt 0.141724 0.497070
vt 0.134766 0.497070
vt 0.004623 0.492188
vt 0.004627 0.530273
vt 0.036499 0.530273
vt 0.036499 0.497070
vt 0.043427 0.497070
vt 0.134766 0.530273
vt 0.043427 0.530273
vt 0.338623 0.214966
vt 0.329834 0.194946
vt 0.329834 0.221680
vt 0.351562 0.209595
vt 0.352051 0.194946
vt 0.365479 0.207764
vt 0.378906 0.194946
vt 0.379395 0.209595
vt 0.401123 0.194946
vt 0.392334 0.214966
vt 0.401123 0.221680
vt 0.385986 0.170654
vt 0.378906 0.170654
vt 0.345215 0.170532
vt 0.352051 0.170654
vt 0.239136 0.363037
vt 0.195923 0.363037
vt 0.239136 0.370605
vt 0.195923 0.370605
vt 0.179932 0.365723
vt 0.179932 0.301025
vt 0.185059 0.301025
vt 0.451416 0.493408
vt 0.448730 0.539062
vt 0.451416 0.540039
vt 0.448730 0.494385
vt 0.446533 0.488770
vt 0.445557 0.491455
vt 0.407715 0.488770
vt 0.408691 0.491455
vt 0.405518 0.494385
vt 0.402832 0.493408
vt 0.402832 0.540039
vt 0.407715 0.544922
vt 0.405762 0.539062
vt 0.408691 0.541992
vt 0.446777 0.544922
vt 0.445557 0.541992
vt 0.420654 0.120544
vt 0.423828 0.097046
vt 0.459229 0.097046
vt 0.425049 0.152466
vt 0.459229 0.176758
vt 0.437256 0.182129
vt 0.451660 0.201050
vt 0.423828 0.093384
vt 0.459229 0.093384
vt 0.421631 0.080322
vt 0.459229 0.054504
vt 0.421875 0.054504
vt 0.428467 0.038849
vt 0.449707 0.011238
vt 0.459229 0.003788
s 1
usemtl Missile
f 1/1/1 3/2/1 2/3/1
f 3/2/1 1/1/1 4/4/1
f 5/5/1 4/4/1 6/6/1
f 3/2/1 4/4/1 5/5/1
f 5/5/1 6/6/1 7/7/1
f 8/8/1 5/5/1 7/7/1
f 8/8/1 7/7/1 9/9/1
f 9/9/1 10/10/1 8/8/1
f 11/11/1 8/8/1 10/10/1
f 5/5/1 8/8/1 12/12/1
f 5/5/1 13/13/1 3/2/1
f 15/14/2 17/15/2 14/16/2
f 14/16/2 16/17/2 15/14/2
f 19/18/3 21/19/3 18/20/3
f 18/20/3 20/21/3 19/18/3
f 23/22/1 25/23/1 22/24/1
f 22/24/1 24/25/1 23/22/1
f 26/26/4 28/27/4 27/28/4
f 27/28/4 28/27/4 29/29/4
f 30/30/5 32/31/5 31/32/5
f 31/32/5 32/31/5 33/33/5
f 34/34/6 36/35/6 35/36/6
f 35/36/6 36/35/6 37/37/6
f 38/38/7 40/39/7 39/40/7
f 39/40/7 40/39/7 41/41/7
f 42/42/8 44/43/8 43/44/8
f 43/44/8 44/43/8 45/45/8
f 46/46/9 48/47/9 47/48/9
f 47/48/9 48/47/9 49/49/9
f 50/50/3 52/51/3 51/52/3
f 51/52/3 52/51/3 53/53/3
f 54/54/4 56/55/4 55/56/4
f 55/56/4 56/55/4 57/57/4
f 58/58/10 60/59/11 59/60/11
f 59/60/11 60/59/11 61/61/11
f 62/62/12 64/63/12 63/64/12
f 63/64/12 64/63/12 65/65/13
f 66/66/4 68/67/4 67/68/4
f 67/68/4 68/67/4 69/69/4
f 70/70/14 72/71/14 71/72/14
f 71/72/14 72/71/14 73/73/14
f 74/74/7 76/75/7 75/76/7
f 75/76/7 76/75/7 77/77/15
f 78/78/7 80/79/7 79/80/7
f 79/80/7 80/79/7 81/81/7
f 82/82/13 84/83/13 83/84/13
f 83/84/13 84/83/13 85/85/13
f 86/86/1 88/87/1 87/88/1
f 87/88/1 88/87/1 89/89/1
f 90/90/16 92/91/16 91/92/16
f 91/92/16 92/91/16 93/93/16
f 94/94/17 96/95/17 95/96/17
f 95/96/17 96/95/17 97/97/17
f 98/98/3 100/99/3 99/100/3
f 99/100/3 100/99/3 101/101/3
f 101/101/3 102/102/3 99/100/3
f 103/103/18 105/104/19 104/105/20
f 104/105/20 105/104/19 106/106/20
f 104/105/20 106/106/20 107/107/7
f 107/107/7 106/106/20 108/108/7
f 109/109/21 108/108/7 110/110/21
f 107/107/7 108/108/7 109/109/21
f 109/109/21 110/110/21 111/111/4
f 111/111/4 110/110/21 112/112/4
f 111/111/4 112/112/4 113/113/22
f 113/113/22 112/112/4 114/114/22
f 113/113/22 114/114/22 115/115/2
f 115/115/2 114/114/22 116/116/2
f 117/117/23 116/116/2 118/118/23
f 115/115/2 116/116/2 117/117/23
f 117/117/23 118/118/23 119/119/24
f 119/119/24 118/118/23 120/120/24
f 121/121/25 123/122/25 122/123/26
f 122/123/26 123/122/25 124/124/27
f 125/125/28 124/124/27 126/126/29
f 122/123/26 124/124/27 125/125/28
f 125/125/28 126/126/29 127/127/4
f 127/127/4 126/126/29 128/128/4
f 127/127/4 128/128/4 129/129/30
f 129/129/30 128/128/4 130/130/30
f 129/129/30 130/130/30 131/131/31
f 131/131/31 130/130/30 132/132/31
f 133/133/32 132/132/31 134/134/32
f 131/131/31 132/132/31 133/133/32
f 136/135/3 138/136/3 135/137/3
f 135/137/3 137/138/14 136/135/3
f 139/139/3 138/136/3 136/135/3
f 139/139/3 140/140/3 138/136/3
f 138/136/3 140/140/3 141/141/3
f 140/140/3 142/142/14 141/141/3
f 143/143/33 145/144/33 144/145/13
f 144/145/13 145/144/33 146/146/13
f 144/145/13 146/146/13 147/147/14
f 147/147/14 146/146/13 148/148/14
f 149/149/7 148/148/14 150/150/15
f 147/147/14 148/148/14 149/149/7
f 149/149/7 150/150/15 151/151/34
f 151/151/34 150/150/15 152/152/34
f 153/153/35 155/154/35 154/155/36
f 154/155/36 155/154/35 156/156/36
f 154/155/36 156/156/36 157/157/37
f 157/157/37 156/156/36 158/158/38
f 158/158/38 159/159/39 157/157/37
f 159/159/39 161/160/40 160/161/41
f 157/157/37 159/159/39 160/161/41
f 159/159/39 162/162/42 161/160/40
f 161/160/40 162/162/42 163/163/43
f 163/163/43 164/164/44 161/160/40
f 165/165/45 164/164/44 163/163/43
f 166/166/46 164/164/44 165/165/45
f 166/166/46 168/167/47 167/168/48
f 167/168/48 164/164/44 166/166/46
f 167/168/48 168/167/47 169/169/49
f 167/168/48 169/169/49 170/170/50
f 170/170/50 169/169/49 171/171/51
f 173/172/52 172/173/53 171/171/51
f 171/171/51 172/173/53 170/170/50
f 172/173/53 173/172/52 174/174/54
f 174/174/54 173/172/52 175/175/55
f 175/175/55 176/176/56 174/174/54
f 176/176/56 178/177/57 177/178/58
f 174/174/54 176/176/56 177/178/58
f 179/179/59 177/178/58 178/177/57
f 179/179/59 182/180/60 177/178/58
f 181/181/61 180/182/62 179/179/59
f 179/179/59 180/182/62 182/180/60
f 183/183/63 174/174/54 182/180/60
f 182/180/60 174/174/54 177/178/58
f 184/184/64 172/173/53 183/183/63
f 183/183/63 172/173/53 174/174/54
f 184/184/64 170/170/50 172/173/53
f 185/185/3 170/170/50 184/184/64
f 186/186/65 167/168/48 185/185/3
f 185/185/3 167/168/48 170/170/50
f 186/186/65 164/164/44 167/168/48
f 187/187/66 164/164/44 186/186/65
f 160/161/41 161/160/40 187/187/66
f 187/187/66 161/160/40 164/164/44
f 181/181/61 188/188/67 180/182/62
f 189/189/67 188/188/67 181/181/61
f 189/189/67 190/190/68 188/188/67
f 191/191/68 190/190/68 189/189/67
f 192/192/2 194/193/2 193/194/69
f 193/194/69 194/193/2 195/195/69
f 193/194/69 195/195/69 196/196/70
f 196/196/70 195/195/69 197/197/70
f 198/198/32 200/199/32 199/200/32
f 200/199/32 201/201/32 199/200/32
f 201/201/32 203/202/32 202/203/32
f 199/200/32 201/201/32 202/203/32
f 202/203/32 203/202/32 204/204/32
f 203/202/32 205/205/32 204/204/32
f 204/204/32 205/205/32 206/206/32
f 205/205/32 207/207/32 206/206/32
f 206/206/32 207/207/32 208/208/32
f 207/207/32 209/209/32 208/208/32
f 209/209/32 211/210/32 210/211/32
f 208/208/32 209/209/32 210/211/32
f 210/211/32 211/210/32 212/212/32
f 211/210/32 213/213/32 212/212/32
f 212/212/32 213/213/32 214/214/32
f 213/213/32 215/215/32 214/214/32
f 214/214/32 215/215/32 216/216/32
f 215/215/32 217/217/32 216/216/32
f 217/217/32 219/218/32 218/219/32
f 216/216/32 217/217/32 218/219/32
f 218/219/32 219/218/32 220/220/32
f 219/218/32 221/221/32 220/220/32
f 222/222/71 224/223/72 223/224/73
f 223/224/73 224/223/72 225/225/74
f 224/223/72 226/226/75 225/225/74
f 225/225/74 226/226/75 227/227/76
f 226/226/75 228/228/77 227/227/76
f 227/227/76 228/228/77 229/229/77
f 228/228/77 230/230/78 229/229/77
f 229/229/77 230/230/78 231/231/79
f 230/230/78 232/232/80 231/231/79
f 231/231/79 232/232/80 233/233/81
f 232/232/80 234/234/71 233/233/81
f 233/233/81 234/234/71 235/235/71
f 236/236/82 238/237/82 237/238/83
f 239/239/82 238/237/82 236/236/82
f 239/239/82 236/236/82 240/240/84
f 239/239/82 240/240/84 241/241/84
f 239/239/82 241/241/84 242/242/84
f 242/242/84 241/241/84 243/243/84
f 244/237/85 246/236/86 245/238/87
f 247/239/86 246/236/86 244/237/85
f 246/236/86 247/239/86 248/240/88
f 248/240/88 247/239/86 249/241/88
f 249/241/88 247/239/86 250/243/88
f 250/243/88 247/239/86 251/242/88
f 252/244/89 254/245/90 253/246/89
f 253/246/89 254/245/90 255/247/91
f 254/245/90 256/248/92 255/247/91
f 255/247/91 256/248/92 257/249/92
f 256/248/92 258/250/93 257/249/92
f 257/249/92 258/250/93 259/251/94
f 258/250/93 260/252/95 259/251/94
f 259/251/94 260/252/95 261/253/95
f 262/100/1 264/99/1 263/98/1
f 265/101/1 264/99/1 262/100/1
f 265/101/1 262/100/1 266/102/1
f 267/254/96 269/255/97 268/256/96
f 268/256/96 269/255/97 270/257/97
f 269/255/97 271/258/27 270/257/97
f 270/257/97 271/258/27 272/259/26
f 271/258/27 273/260/98 272/259/26
f 273/260/98 275/261/99 274/262/98
f 272/259/26 273/260/98 274/262/98
f 274/262/98 275/261/99 276/263/99
f 275/261/99 277/264/28 276/263/99
f 276/263/99 277/264/28 278/265/29
f 277/264/28 279/266/100 278/265/29
f 278/265/29 279/266/100 280/267/100
f 279/266/100 281/268/101 280/267/100
f 281/268/101 283/269/102 282/270/101
f 280/267/100 281/268/101 282/270/101
f 284/271/102 283/269/102 281/268/101
f 284/271/102 285/272/103 283/269/102
f 283/269/102 285/272/103 286/273/103
f 285/272/103 287/274/30 286/273/103
f 286/273/103 287/274/30 288/275/30
f 287/274/30 289/276/104 288/275/30
f 289/276/104 291/277/105 290/278/104
f 288/275/30 289/276/104 290/278/104
f 292/279/105 291/277/105 289/276/104
f 293/280/31 291/277/105 292/279/105
f 294/281/31 291/277/105 293/280/31
f 295/282/106 294/281/31 293/280/31
f 296/283/106 294/281/31 295/282/106
f 297/284/107 296/283/106 295/282/106
f 297/284/107 299/285/108 298/286/107
f 298/286/107 296/283/106 297/284/107
f 300/287/108 299/285/108 297/284/107
f 301/288/7 303/289/7 302/290/7
f 304/291/7 303/289/7 301/288/7
f 304/291/7 305/292/7 303/289/7
f 306/293/7 305/292/7 304/291/7
f 306/293/7 307/294/7 305/292/7
f 308/295/7 307/294/7 306/293/7
f 308/295/7 309/296/7 307/294/7
f 310/297/7 309/296/7 308/295/7
f 311/298/7 309/296/7 310/297/7
f 312/299/7 311/298/7 310/297/7
f 310/297/7 313/300/7 312/299/7
f 314/301/7 313/300/7 310/297/7
f 314/301/7 315/302/7 313/300/7
f 316/303/7 315/302/7 314/301/7
f 317/304/7 315/302/7 316/303/7
f 318/305/7 315/302/7 317/304/7
f 319/306/15 311/298/7 312/299/7
f 312/299/7 320/307/15 319/306/15
f 307/294/7 320/307/15 312/299/7
f 307/294/7 309/296/7 320/307/15
f 321/140/1 323/141/1 322/142/1
f 321/140/1 324/136/1 323/141/1
f 325/139/1 324/136/1 321/140/1
f 325/139/1 326/135/1 324/136/1
f 324/136/1 326/135/1 327/137/1
f 327/137/1 326/135/1 328/138/1
f 329/118/23 331/119/24 330/120/24
f 332/117/23 331/119/24 329/118/23
f 333/116/2 332/117/23 329/118/23
f 334/115/2 332/117/23 333/116/2
f 335/114/22 334/115/2 333/116/2
f 336/113/22 334/115/2 335/114/22
f 337/112/4 336/113/22 335/114/22
f 338/111/4 336/113/22 337/112/4
f 339/110/21 338/111/4 337/112/4
f 341/108/7 340/109/21 339/110/21
f 340/109/21 338/111/4 339/110/21
f 342/107/7 340/109/21 341/108/7
f 343/106/20 342/107/7 341/108/7
f 344/105/20 342/107/7 343/106/20
f 345/104/18 344/105/20 343/106/20
f 346/103/19 344/105/20 345/104/18
f 347/308/109 349/309/110 348/310/109
f 350/311/111 349/309/110 347/308/109
f 352/312/112 351/313/113 350/311/111
f 350/311/111 351/313/113 349/309/110
f 353/314/114 351/313/113 352/312/112
f 354/315/115 351/313/113 353/314/114
f 353/314/114 355/316/116 354/315/115
f 356/317/117 355/316/116 353/314/114
f 356/317/117 357/318/118 355/316/116
f 358/319/119 357/318/118 356/317/117
f 358/319/119 359/320/120 357/318/118
f 360/321/121 359/320/120 358/319/119
f 360/321/121 361/322/122 359/320/120
f 362/323/122 361/322/122 360/321/121
f 362/323/122 363/324/123 361/322/122
f 361/322/122 363/324/123 364/325/124
f 363/324/123 365/326/125 364/325/124
f 366/327/126 365/326/125 363/324/123
f 366/327/126 367/328/127 365/326/125
f 368/329/128 367/328/127 366/327/126
f 369/330/129 367/328/127 368/329/128
f 370/331/130 367/328/127 369/330/129
f 369/330/129 371/332/131 370/331/130
f 372/333/132 371/332/131 369/330/129
f 372/333/132 373/334/133 371/332/131
f 374/335/134 373/334/133 372/333/132
f 374/335/134 375/336/135 373/334/133
f 376/337/136 375/336/135 374/335/134
f 376/337/136 377/338/137 375/336/135
f 378/339/137 377/338/137 376/337/136
f 379/340/138 377/338/137 378/339/137
f 380/341/138 377/338/137 379/340/138
f 381/342/139 383/343/139 382/344/139
f 384/345/140 383/343/139 381/342/139
f 384/345/140 385/346/139 383/343/139
f 386/347/139 385/346/139 384/345/140
f 386/347/139 387/348/140 385/346/139
f 388/349/140 387/348/140 386/347/139
f 389/350/140 387/348/140 388/349/140
f 391/351/140 390/352/139 389/350/140
f 390/352/139 387/348/140 389/350/140
f 392/353/140 390/352/139 391/351/140
f 392/353/140 391/351/140 393/354/139
f 393/354/139 391/351/140 394/355/140
f 393/354/139 394/355/140 395/356/139
f 395/356/139 394/355/140 396/357/141
f 397/358/142 399/359/143 398/360/143
f 400/361/144 399/359/143 397/358/142
f 401/362/2 400/361/144 397/358/142
f 402/363/2 400/361/144 401/362/2
f 402/363/2 403/364/2 400/361/144
f 404/359/143 406/358/142 405/360/143
f 407/361/145 406/358/142 404/359/143
f 407/361/145 408/362/2 406/358/142
f 409/363/2 408/362/2 407/361/145
f 409/363/2 407/361/145 410/364/2
f 411/365/3 413/366/3 412/367/3
f 414/368/3 413/366/3 411/365/3
f 416/369/3 415/370/3 414/368/3
f 415/370/3 413/366/3 414/368/3
f 417/371/3 415/370/3 416/369/3
f 418/372/3 415/370/3 417/371/3
f 419/373/146 421/374/147 420/375/148
f 422/376/149 421/374/147 419/373/146
f 422/376/149 419/373/146 423/377/150
f 423/377/150 424/378/14 422/376/149
f 425/379/151 424/378/14 423/377/150
f 425/379/151 423/377/150 426/380/152
f 426/380/152 427/381/152 425/379/151
f 428/382/14 424/378/14 425/379/151
f 429/153/153 431/155/154 430/154/155
f 430/154/155 431/155/154 432/156/154
f 431/155/154 433/157/156 432/156/154
f 432/156/154 433/157/156 434/158/157
f 433/157/156 435/159/158 434/158/157
f 436/161/159 435/159/158 433/157/156
f 435/159/158 436/161/159 437/160/160
f 436/161/159 438/187/161 437/160/160
f 437/160/160 438/187/161 439/164/162
f 438/187/161 440/186/163 439/164/162
f 439/164/162 440/186/163 441/168/164
f 440/186/163 442/185/1 441/168/164
f 441/168/164 442/185/1 443/170/165
f 442/185/1 444/184/166 443/170/165
f 443/170/165 444/184/166 445/173/167
f 444/184/166 446/183/168 445/173/167
f 446/183/168 448/180/169 447/174/170
f 445/173/167 446/183/168 447/174/170
f 447/174/170 448/180/169 449/178/171
f 450/179/172 449/178/171 448/180/169
f 451/182/173 450/179/172 448/180/169
f 452/181/174 450/179/172 451/182/173
f 453/188/175 452/181/174 451/182/173
f 454/189/176 452/181/174 453/188/175
f 455/190/177 454/189/176 453/188/175
f 456/191/177 454/189/176 455/190/177
f 450/179/172 457/177/178 449/178/171
f 458/176/179 449/178/171 457/177/178
f 449/178/171 458/176/179 447/174/170
f 447/174/170 458/176/179 459/175/180
f 460/172/181 447/174/170 459/175/180
f 445/173/167 447/174/170 460/172/181
f 460/172/181 461/171/182 445/173/167
f 461/171/182 462/169/183 443/170/165
f 445/173/167 461/171/182 443/170/165
f 443/170/165 462/169/183 441/168/164
f 441/168/164 462/169/183 463/167/184
f 464/166/185 441/168/164 463/167/184
f 464/166/185 439/164/162 441/168/164
f 465/165/186 439/164/162 464/166/185
f 465/165/186 466/163/187 439/164/162
f 439/164/162 466/163/187 437/160/160
f 466/163/187 467/162/188 437/160/160
f 437/160/160 467/162/188 435/159/158
f 468/383/189 470/384/190 469/385/190
f 471/386/191 470/384/190 468/383/189
f 472/387/192 471/386/191 468/383/189
f 473/388/193 471/386/191 472/387/192
f 472/387/192 474/389/194 473/388/193
f 475/390/194 474/389/194 472/387/192
f 476/391/4 474/389/194 475/390/194
f 477/392/4 474/389/194 476/391/4
f 478/393/4 480/394/4 479/395/4
f 479/395/4 480/394/4 481/396/4
f 482/397/4 481/396/4 480/394/4
f 483/398/4 481/396/4 482/397/4
f 483/398/4 482/397/4 484/399/4
f 484/399/4 482/397/4 485/400/4
f 487/401/4 489/402/4 486/403/4
f 486/403/4 488/404/4 487/401/4
f 486/403/4 489/402/4 490/405/4
f 486/403/4 490/405/4 491/406/4
f 491/406/4 490/405/4 492/407/4
f 490/405/4 489/402/4 493/408/4
f 495/2/3 497/4/3 494/1/3
f 494/1/3 496/3/3 495/2/3
f 495/2/3 498/5/3 497/4/3
f 497/4/3 498/5/3 499/6/3
f 498/5/3 500/7/3 499/6/3
f 501/8/3 500/7/3 498/5/3
f 501/8/3 502/9/3 500/7/3
f 503/10/3 502/9/3 501/8/3
f 504/11/3 503/10/3 501/8/3
f 498/5/3 505/12/3 501/8/3
f 498/5/3 495/2/3 506/13/3
f 507/409/32 509/410/25 508/411/25
f 507/409/32 510/412/32 509/410/25
f 507/409/32 511/413/32 510/412/32
f 507/409/32 512/414/32 511/413/32
f 512/414/32 514/415/25 513/416/32
f 512/414/32 513/416/32 511/413/32
f 512/414/32 515/417/25 514/415/25
f 516/418/11 518/419/10 517/420/11
f 517/420/11 518/419/10 519/421/11
f 518/419/10 520/422/11 519/421/11
f 521/423/1 520/422/11 518/419/10
f 522/424/195 524/425/14 523/426/196
f 525/427/197 524/425/14 522/424/195
f 526/428/198 525/427/197 522/424/195
f 527/429/199 525/427/197 526/428/198
f 528/430/200 527/429/199 526/428/198
f 529/431/201 527/429/199 528/430/200
f 530/432/202 529/431/201 528/430/200
f 531/433/203 529/431/201 530/432/202
f 532/434/204 531/433/203 530/432/202
f 533/435/205 531/433/203 532/434/204
f 533/435/205 534/436/206 531/433/203
f 535/437/207 534/436/206 533/435/205
f 535/437/207 536/438/208 534/436/206
f 537/439/209 536/438/208 535/437/207
f 537/439/209 538/440/210 536/438/208
f 539/441/211 538/440/210 537/439/209
f 538/440/210 540/442/212 536/438/208
f 540/442/212 541/443/213 542/444/214
f 536/438/208 540/442/212 542/444/214
f 542/444/214 543/445/215 544/446/216
f 542/444/214 541/443/213 543/445/215
f 534/436/206 542/444/214 544/446/216
f 536/438/208 542/444/214 534/436/206
f 544/446/216 543/445/215 545/447/217
f 534/436/206 544/446/216 531/433/203
f 531/433/203 544/446/216 529/431/201
f 544/446/216 545/447/217 529/431/201
f 529/431/201 545/447/217 527/429/199
f 545/447/217 547/448/218 527/429/199
f 543/445/215 546/449/219 545/447/217
f 545/447/217 546/449/219 547/448/218
f 527/429/199 547/448/218 525/427/197
f 547/448/218 548/450/12 525/427/197
f 547/448/218 549/451/1 548/450/12
f 546/449/219 549/451/1 547/448/218
f 546/449/219 550/452/220 549/451/1
f 551/453/221 550/452/220 546/449/219
f 543/445/215 551/453/221 546/449/219
f 541/443/213 551/453/221 543/445/215
f 525/427/197 548/450/12 524/425/14
f 555/454/222 552/455/223 553/456/7
f 552/455/223 554/457/224 553/456/7
f 556/458/225 555/454/222 553/456/7
f 557/459/226 556/458/225 553/456/7
f 558/460/227 557/459/226 553/456/7
f 554/457/224 558/460/227 553/456/7
f 562/461/228 559/462/229 560/463/230
f 559/462/229 561/464/231 560/463/230
f 563/465/232 559/462/229 562/461/228
f 564/466/233 563/465/232 562/461/228
f 565/467/234 563/465/232 564/466/233
f 567/468/235 565/467/234 566/469/236
f 566/469/236 565/467/234 564/466/233
f 568/470/237 567/468/235 566/469/236
f 569/471/238 567/468/235 568/470/237
f 570/472/239 569/471/238 571/473/240
f 571/473/240 569/471/238 568/470/237
f 572/474/241 570/472/239 571/473/240
f 572/474/241 571/473/240 564/466/233
f 566/469/236 571/473/240 568/470/237
f 564/466/233 571/473/240 566/469/236
f 574/475/242 570/472/239 572/474/241
f 572/474/241 564/466/233 573/476/243
f 573/476/243 574/475/242 572/474/241
f 561/464/231 574/475/242 573/476/243
f 560/463/230 561/464/231 573/476/243
f 573/476/243 562/461/228 560/463/230
f 573/476/243 564/466/233 562/461/228
f 575/477/7 577/478/7 576/479/7
f 576/479/7 577/478/7 578/480/7
f 579/481/12 581/482/13 580/483/12
f 580/483/12 581/482/13 582/484/244
f 583/485/16 585/486/16 584/487/16
f 584/487/16 585/486/16 586/488/16
f 587/481/13 589/483/13 588/482/13
f 588/482/13 589/483/13 590/484/245
f 591/489/142 593/490/142 592/491/142
f 592/491/142 593/490/142 594/492/142
f 595/493/4 597/494/4 596/495/4
f 596/495/4 597/494/4 598/496/4
f 599/497/2 601/498/2 600/499/2
f 600/499/2 601/498/2 602/500/2
f 603/501/4 605/502/4 604/503/4
f 604/503/4 605/502/4 606/504/4
f 607/497/2 609/499/2 608/498/2
f 608/498/2 609/499/2 610/500/2
f 611/501/4 613/503/4 612/502/4
f 612/502/4 613/503/4 614/504/4
f 615/505/7 617/506/7 616/507/7
f 616/507/7 617/506/7 618/508/7
f 619/509/2 621/510/2 620/511/2
f 620/511/2 621/510/2 622/512/2
f 623/513/3 625/514/3 624/515/3
f 624/515/3 625/514/3 626/516/3
f 627/517/1 629/518/1 628/519/1
f 628/519/1 629/518/1 630/520/1
f 631/521/4 633/522/4 632/523/4
f 632/523/4 633/522/4 634/524/4
f 635/525/14 637/526/3 636/527/3
f 636/527/3 637/526/3 638/528/3
f 639/529/246 641/530/246 640/531/246
f 640/531/246 641/530/246 642/532/246
f 644/533/247 646/534/247 643/535/247
f 643/535/247 645/536/247 644/533/247
f 647/537/248 649/538/248 648/539/248
f 648/539/248 649/538/248 650/540/248
f 651/525/1 653/527/1 652/526/1
f 652/526/1 653/527/1 654/528/1
f 655/541/32 657/542/32 656/543/32
f 656/543/32 657/542/32 658/544/32
f 659/545/15 661/546/7 660/547/7
f 660/547/7 661/546/7 662/548/7
f 663/549/2 665/550/2 664/551/2
f 664/551/2 665/550/2 666/552/2
f 667/553/4 669/554/4 668/555/4
f 668/555/4 669/554/4 670/556/4
f 671/86/3 673/88/3 672/87/3
f 672/87/3 673/88/3 674/89/14
f 675/557/7 677/558/7 676/559/7
f 676/559/7 677/558/7 678/560/7
f 679/82/12 681/84/13 680/83/13
f 680/83/13 681/84/13 682/85/12
f 683/561/7 685/562/7 684/563/7
f 684/563/7 685/562/7 686/564/7
f 687/565/1 689/566/1 688/567/1
f 688/567/1 689/566/1 690/568/1
f 690/568/1 691/569/1 688/567/1
f 692/570/1 691/569/1 690/568/1
f 691/569/1 692/570/1 693/571/1
f 697/368/1 694/365/1 695/366/1
f 694/365/1 696/367/1 695/366/1
f 698/370/1 697/368/1 695/366/1
f 699/369/1 697/368/1 698/370/1
f 700/371/1 699/369/1 698/370/1
f 701/372/1 700/371/1 698/370/1
f 705/572/249 702/573/4 703/574/4
f 702/573/4 704/575/4 703/574/4
f 703/574/4 706/576/4 705/572/249
f 706/576/4 707/577/250 705/572/249
f 708/578/141 705/572/249 707/577/250
f 709/579/251 711/580/251 710/581/252
f 710/581/252 711/580/251 712/582/252
f 714/583/253 713/584/253 712/582/252
f 712/582/252 713/584/253 710/581/252
f 713/584/253 714/583/253 715/360/4
f 715/360/4 714/583/253 716/359/4
f 720/585/16 717/586/16 718/587/16
f 717/586/16 719/588/16 718/587/16
f 721/589/16 717/586/16 720/585/16
f 722/590/254 724/591/14 723/592/3
f 725/593/255 724/591/14 722/590/254
f 726/594/256 725/593/255 722/590/254
f 727/595/257 725/593/255 726/594/256
f 728/585/16 730/586/16 729/589/16
f 731/587/16 730/586/16 728/585/16
f 730/586/16 731/587/16 732/588/16
f 733/591/1 735/590/258 734/592/1
f 736/593/259 735/590/258 733/591/1
f 737/594/260 736/593/259 738/595/261
f 735/590/258 736/593/259 737/594/260
f 739/596/262 737/594/260 738/595/261
f 740/597/256 737/594/260 739/596/262
f 741/121/25 743/123/31 742/122/25
f 742/122/25 743/123/31 744/124/31
f 743/123/31 745/125/30 744/124/31
f 744/124/31 745/125/30 746/126/30
f 745/125/30 747/127/4 746/126/30
f 746/126/30 747/127/4 748/128/4
f 747/127/4 749/129/29 748/128/4
f 749/129/29 751/131/26 750/130/28
f 748/128/4 749/129/29 750/130/28
f 750/130/28 751/131/26 752/132/26
f 751/131/26 753/133/32 752/132/26
f 752/132/26 753/133/32 754/134/32
f 755/374/263 757/373/264 756/375/265
f 758/598/266 757/373/264 755/374/263
f 758/598/266 760/378/1 759/377/267
f 758/598/266 759/377/267 757/373/264
f 759/377/267 760/378/1 761/379/268
f 761/379/268 760/378/1 762/382/1
f 761/379/268 763/380/269 759/377/267
f 763/380/269 761/379/268 764/381/270
f 765/573/4 767/574/4 766/575/4
f 768/572/249 767/574/4 765/573/4
f 767/574/4 768/572/249 769/576/4
f 769/576/4 768/572/249 770/577/250
f 771/578/271 770/577/250 768/572/249
f 772/565/3 774/567/3 773/566/3
f 774/567/3 775/568/3 773/566/3
f 775/568/3 774/567/3 776/569/3
f 777/570/3 775/568/3 776/569/3
f 776/569/3 778/571/3 777/570/3
f 779/583/253 781/360/4 780/359/4
f 782/584/253 781/360/4 779/583/253
f 783/582/252 782/584/253 779/583/253
f 784/581/252 782/584/253 783/582/252
f 785/580/251 784/581/252 783/582/252
f 786/579/251 784/581/252 785/580/251
f 787/599/14 789/600/3 788/601/14
f 790/602/14 789/600/3 787/599/14
f 790/602/14 787/599/14 791/603/272
f 791/603/272 787/599/14 792/604/272
f 793/601/11 795/600/11 794/599/11
f 794/599/11 795/600/11 796/602/11
f 796/602/11 797/603/1 794/599/11
f 794/599/11 797/603/1 798/604/1
f 799/605/2 801/606/2 800/607/2
f 801/606/2 802/608/12 800/607/2
f 801/606/2 803/609/2 802/608/12
f 801/606/2 804/610/2 803/609/2
f 805/611/2 806/612/2 804/610/2
f 804/610/2 806/612/2 807/613/2
f 808/614/2 804/610/2 807/613/2
f 803/609/2 804/610/2 808/614/2
f 809/615/2 808/614/2 810/616/2
f 803/609/2 808/614/2 809/615/2
f 811/617/25 813/618/273 812/619/25
f 814/620/25 813/618/273 811/617/25
f 814/620/25 815/621/274 813/618/273
f 816/622/25 815/621/274 814/620/25
f 816/622/25 817/623/274 815/621/274
f 816/622/25 818/624/32 817/623/274
f 818/624/32 819/625/273 817/623/274
f 820/626/32 819/625/273 818/624/32
f 820/626/32 821/627/32 819/625/273
f 822/628/275 817/623/274 819/625/273
f 823/629/275 817/623/274 822/628/275
f 824/630/275 815/621/274 825/631/275
f 813/618/273 815/621/274 824/630/275
f 826/420/14 828/419/14 827/418/14
f 829/421/14 828/419/14 826/420/14
f 830/422/14 828/419/14 829/421/14
f 831/423/3 828/419/14 830/422/14
f 832/632/1 834/633/1 833/634/1
f 833/634/1 834/633/1 835/635/1
f 834/633/1 836/636/1 835/635/1
f 836/636/1 834/633/1 837/637/1
f 837/637/1 834/633/1 838/638/1
f 839/632/3 841/634/3 840/633/3
f 840/633/3 841/634/3 842/635/3
f 840/633/3 842/635/3 843/636/3
f 843/636/3 844/637/3 840/633/3
f 840/633/3 844/637/3 845/638/3
f 846/455/223 848/456/7 847/457/222
f 849/454/224 848/456/7 846/455/223
f 850/458/227 848/456/7 849/454/224
f 851/459/226 848/456/7 850/458/227
f 852/460/225 848/456/7 851/459/226
f 847/457/222 848/456/7 852/460/225
f 853/639/276 855/640/277 854/641/278
f 856/642/279 855/640/277 853/639/276
f 857/643/280 856/642/279 853/639/276
f 858/644/281 856/642/279 857/643/280
f 859/645/282 858/644/281 857/643/280
f 860/646/283 859/645/282 861/647/284
f 860/646/283 858/644/281 859/645/282
f 861/647/284 859/645/282 862/648/285
f 863/649/286 861/647/284 862/648/285
f 864/650/287 865/651/288 863/649/286
f 865/651/288 861/647/284 863/649/286
f 866/652/289 865/651/288 864/650/287
f 866/652/289 861/647/284 865/651/288
f 867/653/290 866/652/289 864/650/287
f 860/646/283 861/647/284 866/652/289
f 866/652/289 868/654/291 860/646/283
f 868/654/291 866/652/289 867/653/290
f 856/642/279 868/654/291 855/640/277
f 868/654/291 867/653/290 855/640/277
f 858/644/281 868/654/291 856/642/279
f 860/646/283 868/654/291 858/644/281
f 855/640/277 867/653/290 854/641/278
f 869/50/1 871/52/1 870/51/1
f 870/51/1 871/52/1 872/53/1
f 873/655/4 875/656/4 874/657/4
f 873/655/4 874/657/4 876/658/4
f 876/658/4 874/657/4 877/659/4
f 876/658/4 877/659/4 878/660/4
f 877/659/4 879/661/4 878/660/4
f 880/662/292 882/663/21 881/664/21
f 881/664/21 882/663/21 883/665/293
f 881/664/21 883/665/293 884/666/294
f 883/665/293 885/667/4 884/666/294
f 886/668/4 885/667/4 883/665/293
f 886/668/4 883/665/293 887/669/4
f 888/662/292 890/664/292 889/663/292
f 890/664/292 891/665/293 889/663/292
f 890/664/292 892/666/294 891/665/293
f 891/665/293 892/666/294 893/667/4
f 894/668/4 891/665/293 893/667/4
f 894/668/4 895/669/295 891/665/293
f 896/659/4 898/660/4 897/661/4
f 899/658/4 898/660/4 896/659/4
f 896/659/4 900/657/4 899/658/4
f 899/658/4 900/657/4 901/655/4
f 901/655/4 900/657/4 902/656/4
