# Blender 5.2.1 LTS
# www.blender.org
mtllib PVO3.mtl
o Radar1
v -0.145324 0.171614 -0.114527
v -0.173179 0.171973 -0.010571
v -0.173179 0.037909 -0.010109
v -0.145324 0.037550 -0.114064
v -0.069223 0.171351 -0.190627
v -0.069223 0.037287 -0.190164
v 0.034732 0.171255 -0.218482
v 0.034732 0.037194 -0.218019
v 0.138688 0.171351 -0.190627
v 0.138688 0.037290 -0.190164
v 0.214789 0.171614 -0.114527
v 0.214789 0.037553 -0.114064
v 0.242644 0.171973 -0.010571
v 0.242644 0.037911 -0.010109
v 0.214789 0.172331 0.093384
v 0.214789 0.038270 0.093846
v 0.138688 0.172594 0.169484
v 0.138688 0.038533 0.169947
v 0.034732 0.172690 0.197339
v 0.034732 0.038629 0.197801
v -0.069223 0.172594 0.169484
v -0.069223 0.038531 0.169947
v -0.145324 0.172331 0.093384
v -0.145324 0.038268 0.093846
v -0.173179 0.171973 -0.010571
v -0.173179 0.037909 -0.010109
v 0.218244 0.460717 -0.024021
v 0.202538 0.417611 -0.023872
v 0.258301 0.446109 -0.023970
v 0.242660 0.403069 -0.023822
v 0.218244 0.460804 0.001123
v 0.258301 0.446196 0.001174
v 0.202538 0.417698 0.001272
v 0.242660 0.403156 0.001322
v 0.218244 0.460717 -0.024021
v 0.258301 0.446109 -0.023970
v 0.218244 0.460804 0.001123
v 0.258301 0.446196 0.001174
v 0.202538 0.417698 0.001272
v 0.242660 0.403156 0.001322
v 0.202538 0.417611 -0.023872
v 0.242660 0.403069 -0.023822
v 0.258301 0.446196 0.001174
v 0.258301 0.446109 -0.023970
v 0.242660 0.403156 0.001322
v 0.242660 0.403069 -0.023822
v 0.041430 0.256674 0.023756
v 0.197470 0.256596 0.023756
v 0.041430 0.256436 -0.045204
v 0.197470 0.256358 -0.045204
v 0.218326 0.460865 -0.045910
v 0.218326 0.461103 0.023050
v 0.196135 0.468908 -0.045937
v 0.196135 0.469146 0.023022
v 0.041430 0.256436 -0.045204
v 0.041430 0.239188 -0.045144
v 0.041430 0.256674 0.023756
v 0.041430 0.239426 0.023815
v 0.083437 0.443444 0.023111
v 0.109502 0.514843 -0.046096
v 0.109502 0.515081 0.022864
v 0.083437 0.443206 -0.045849
v 0.215918 0.454171 -0.001643
v 0.109502 0.515081 0.022864
v 0.215918 0.454103 -0.021189
v 0.109502 0.514843 -0.046096
v 0.204021 0.421363 -0.021076
v 0.083437 0.443206 -0.045849
v 0.204021 0.421430 -0.001529
v 0.083437 0.443444 0.023111
v 0.204021 0.421430 -0.001529
v 0.083437 0.443444 0.023111
v 0.215918 0.454171 -0.001643
v 0.109502 0.515081 0.022864
v 0.204021 0.421363 -0.021076
v 0.215918 0.454103 -0.021189
v 0.083437 0.443206 -0.045849
v 0.109502 0.514843 -0.046096
v -0.180311 0.416435 0.094036
v -0.235298 0.445509 0.055281
v -0.180311 0.731846 0.092947
v -0.235298 0.702505 0.054393
v -0.180311 0.731846 0.092947
v -0.235298 0.702505 0.054393
v -0.180311 0.731119 -0.117707
v -0.235298 0.702045 -0.078952
v -0.235298 0.445509 0.055281
v -0.235298 0.445049 -0.078065
v -0.235298 0.702505 0.054393
v -0.235298 0.702045 -0.078952
v -0.180311 0.731119 -0.117707
v -0.235298 0.702045 -0.078952
v -0.180311 0.415707 -0.116618
v -0.235298 0.445049 -0.078065
v -0.180311 0.415707 -0.116618
v -0.235298 0.445049 -0.078065
v -0.180311 0.416435 0.094036
v -0.235298 0.445509 0.055281
v 0.155030 0.383630 0.048928
v 0.144795 0.383630 0.048928
v 0.155030 0.383529 0.019569
v 0.144795 0.383529 0.019569
v 0.144795 0.383630 0.048928
v 0.144795 0.373395 0.048963
v 0.144795 0.383529 0.019569
v 0.144795 0.373294 0.019604
v 0.144795 0.373395 0.048963
v 0.155030 0.373395 0.048963
v 0.144795 0.373294 0.019604
v 0.155030 0.373294 0.019604
v 0.155030 0.373395 0.048963
v 0.155030 0.383630 0.048928
v 0.155030 0.373294 0.019604
v 0.155030 0.383529 0.019569
v 0.155030 0.373395 0.048963
v 0.144795 0.373395 0.048963
v 0.155030 0.383630 0.048928
v 0.144795 0.383630 0.048928
v 0.147784 0.364632 0.048994
v 0.137549 0.364632 0.048994
v 0.147784 0.364531 0.019635
v 0.137549 0.364531 0.019635
v 0.137549 0.364632 0.048994
v 0.137549 0.354398 0.049029
v 0.137549 0.364531 0.019635
v 0.137549 0.354296 0.019670
v 0.137549 0.354398 0.049029
v 0.147784 0.354398 0.049029
v 0.137549 0.354296 0.019670
v 0.147784 0.354296 0.019670
v 0.147784 0.354398 0.049029
v 0.147784 0.364632 0.048994
v 0.147784 0.354296 0.019670
v 0.147784 0.364531 0.019635
v 0.147784 0.354398 0.049029
v 0.137549 0.354398 0.049029
v 0.147784 0.364632 0.048994
v 0.137549 0.364632 0.048994
v 0.064002 0.205624 0.055509
v -0.142761 0.205624 0.055509
v -0.142761 0.205700 0.077470
v 0.064002 0.205700 0.077470
v 0.165165 0.489303 0.032336
v 0.170998 0.487221 0.032343
v 0.165165 0.489387 0.056755
v 0.170998 0.487305 0.056762
v 0.142305 0.426506 0.056972
v 0.148141 0.424393 0.056979
v 0.142305 0.426421 0.032553
v 0.148141 0.424309 0.032561
v 0.183746 0.523014 0.056639
v 0.183746 0.523042 0.064780
v 0.177913 0.525097 0.056631
v 0.177913 0.525125 0.064773
v 0.129249 0.390935 0.065236
v 0.135085 0.388823 0.065244
v 0.129249 0.390907 0.057095
v 0.135085 0.388795 0.057102
v 0.135085 0.388710 0.032683
v 0.135085 0.388682 0.024542
v 0.129249 0.390823 0.032676
v 0.129249 0.390795 0.024535
v 0.183746 0.523042 0.064780
v 0.135085 0.388823 0.065244
v 0.177913 0.525125 0.064773
v 0.129249 0.390935 0.065236
v 0.183746 0.522902 0.024078
v 0.177913 0.524984 0.024071
v 0.135085 0.388682 0.024542
v 0.129249 0.390795 0.024535
v 0.170998 0.487305 0.056762
v 0.183746 0.523014 0.056639
v 0.165165 0.489387 0.056755
v 0.177913 0.525097 0.056631
v 0.148141 0.424393 0.056979
v 0.142305 0.426506 0.056972
v 0.135085 0.388795 0.057102
v 0.129249 0.390907 0.057095
v 0.148141 0.424309 0.032561
v 0.135085 0.388710 0.032683
v 0.142305 0.426421 0.032553
v 0.129249 0.390823 0.032676
v 0.165165 0.489303 0.032336
v 0.177913 0.525012 0.032213
v 0.170998 0.487221 0.032343
v 0.183746 0.522930 0.032220
v 0.165165 0.489000 -0.055323
v 0.165165 0.488916 -0.079741
v 0.170998 0.486918 -0.055315
v 0.170998 0.486834 -0.079734
v 0.142305 0.426034 -0.079524
v 0.142305 0.426119 -0.055105
v 0.148141 0.423922 -0.079517
v 0.148141 0.424006 -0.055098
v 0.183746 0.522543 -0.079857
v 0.177913 0.524625 -0.079864
v 0.183746 0.522515 -0.087999
v 0.177913 0.524597 -0.088006
v 0.129249 0.390408 -0.087542
v 0.129249 0.390436 -0.079401
v 0.135085 0.388296 -0.087535
v 0.135085 0.388324 -0.079394
v 0.135085 0.388408 -0.054975
v 0.129249 0.390520 -0.054982
v 0.135085 0.388436 -0.046834
v 0.129249 0.390548 -0.046841
v 0.177913 0.524738 -0.047304
v 0.177913 0.524710 -0.055446
v 0.183746 0.522655 -0.047297
v 0.183746 0.522627 -0.055439
v 0.183746 0.522515 -0.087999
v 0.177913 0.524597 -0.088006
v 0.135085 0.388296 -0.087535
v 0.129249 0.390408 -0.087542
v 0.183746 0.522655 -0.047297
v 0.135085 0.388436 -0.046834
v 0.177913 0.524738 -0.047304
v 0.129249 0.390548 -0.046841
v 0.170998 0.486834 -0.079734
v 0.165165 0.488916 -0.079741
v 0.183746 0.522543 -0.079857
v 0.177913 0.524625 -0.079864
v 0.129249 0.390436 -0.079401
v 0.142305 0.426034 -0.079524
v 0.135085 0.388324 -0.079394
v 0.148141 0.423922 -0.079517
v 0.148141 0.424006 -0.055098
v 0.142305 0.426119 -0.055105
v 0.135085 0.388408 -0.054975
v 0.129249 0.390520 -0.054982
v 0.165165 0.489000 -0.055323
v 0.170998 0.486918 -0.055315
v 0.177913 0.524710 -0.055446
v 0.183746 0.522627 -0.055439
v -0.235298 0.445509 0.055281
v -0.175719 0.315808 0.055062
v -0.235298 0.445049 -0.078065
v -0.175719 0.315352 -0.076934
v -0.175719 0.315808 0.055062
v -0.086368 0.273719 0.055208
v -0.175719 0.315352 -0.076934
v -0.086368 0.273263 -0.076789
v -0.086368 0.273719 0.055208
v -0.086368 0.218021 0.055400
v -0.086368 0.273263 -0.076789
v -0.086368 0.217565 -0.076597
v -0.086368 0.218021 0.055400
v 0.064002 0.218021 0.055400
v -0.086368 0.217565 -0.076597
v 0.064002 0.217565 -0.076597
v -0.060580 0.318059 -0.076944
v -0.060580 0.318515 0.055053
v -0.077823 0.318059 -0.076944
v -0.077823 0.318515 0.055053
v -0.060580 0.239079 -0.076671
v -0.060580 0.239535 0.055326
v -0.060580 0.318059 -0.076944
v -0.060580 0.318515 0.055053
v -0.060580 0.239535 0.055326
v -0.060580 0.239079 -0.076671
v 0.053246 0.239535 0.055326
v 0.053246 0.239079 -0.076671
v 0.053246 0.239535 0.055326
v 0.053246 0.239079 -0.076671
v 0.064002 0.218021 0.055400
v 0.064002 0.217565 -0.076597
v 0.130496 0.518316 0.049516
v 0.130496 0.518281 0.039384
v 0.118999 0.486832 0.049625
v 0.118999 0.486797 0.039493
v 0.097137 0.426597 0.039701
v 0.097137 0.426632 0.049833
v 0.108568 0.458082 0.039592
v 0.108568 0.458117 0.049724
v 0.079491 0.432945 0.039663
v 0.112916 0.524788 0.049527
v 0.079491 0.432980 0.049844
v 0.112916 0.524753 0.039346
v 0.118999 0.486832 0.049625
v 0.118999 0.486797 0.039493
v 0.142860 0.478163 0.049589
v 0.142861 0.478128 0.039507
v 0.127753 0.436688 0.049732
v 0.127753 0.436654 0.039650
v 0.132430 0.449441 0.049688
v 0.132430 0.449406 0.039606
v 0.147537 0.490881 0.039463
v 0.147537 0.490916 0.049545
v 0.142861 0.478128 0.039507
v 0.142860 0.478163 0.049589
v 0.079491 0.432945 0.039663
v 0.079491 0.432980 0.049844
v 0.097137 0.426597 0.039701
v 0.097137 0.426632 0.049833
v 0.165117 0.484409 0.039485
v 0.165117 0.484444 0.049534
v 0.147537 0.490881 0.039463
v 0.147537 0.490916 0.049545
v 0.145399 0.430307 0.039672
v 0.127753 0.436654 0.039650
v 0.145399 0.430342 0.049721
v 0.127753 0.436688 0.049732
v 0.108568 0.458117 0.049724
v 0.132430 0.449441 0.049688
v 0.108568 0.458082 0.039592
v 0.132430 0.449406 0.039606
v 0.112916 0.524788 0.049527
v 0.112916 0.524753 0.039346
v 0.130496 0.518316 0.049516
v 0.130496 0.518281 0.039384
v 0.130496 0.517894 -0.072703
v 0.118999 0.486410 -0.072594
v 0.130496 0.517929 -0.062571
v 0.118999 0.486445 -0.062462
v 0.097137 0.426245 -0.062254
v 0.108568 0.457730 -0.062363
v 0.097137 0.426210 -0.072386
v 0.108568 0.457695 -0.072495
v 0.079491 0.432593 -0.062260
v 0.079491 0.432558 -0.072441
v 0.112916 0.524366 -0.072758
v 0.112916 0.524401 -0.062577
v 0.142861 0.477777 -0.062416
v 0.118999 0.486445 -0.062462
v 0.142861 0.477742 -0.072498
v 0.118999 0.486410 -0.072594
v 0.127753 0.436267 -0.072355
v 0.132430 0.449020 -0.072399
v 0.127753 0.436302 -0.062273
v 0.132430 0.449054 -0.062317
v 0.147537 0.490529 -0.062460
v 0.142861 0.477777 -0.062416
v 0.147537 0.490494 -0.072542
v 0.142861 0.477742 -0.072498
v 0.079491 0.432593 -0.062260
v 0.097137 0.426245 -0.062254
v 0.079491 0.432558 -0.072441
v 0.097137 0.426210 -0.072386
v 0.147537 0.490494 -0.072542
v 0.165117 0.484023 -0.072487
v 0.147537 0.490529 -0.062460
v 0.165117 0.484057 -0.062437
v 0.145399 0.429955 -0.062251
v 0.145399 0.429920 -0.072300
v 0.127753 0.436302 -0.062273
v 0.127753 0.436267 -0.072355
v 0.108568 0.457695 -0.072495
v 0.108568 0.457730 -0.062363
v 0.132430 0.449020 -0.072399
v 0.132430 0.449054 -0.062317
v 0.112916 0.524366 -0.072758
v 0.130496 0.517894 -0.072703
v 0.112916 0.524401 -0.062577
v 0.130496 0.517929 -0.062571
v 0.064002 0.205168 -0.076554
v -0.142761 0.205092 -0.098515
v -0.142761 0.205168 -0.076554
v 0.064002 0.205092 -0.098515
v 0.150681 0.344401 0.019704
v 0.126681 0.353135 0.019674
v 0.165453 0.384928 0.019564
v 0.141387 0.393662 0.019534
v 0.150681 0.344189 -0.041758
v 0.126681 0.352923 -0.041788
v 0.150681 0.344401 0.019704
v 0.126681 0.353135 0.019674
v 0.141387 0.393450 -0.041928
v 0.141387 0.393662 0.019534
v 0.126681 0.352923 -0.041788
v 0.126681 0.353135 0.019674
v 0.165453 0.384928 0.019564
v 0.141387 0.393662 0.019534
v 0.165453 0.384716 -0.041898
v 0.141387 0.393450 -0.041928
v 0.150681 0.344189 -0.041758
v 0.165453 0.384716 -0.041898
v 0.126681 0.352923 -0.041788
v 0.141387 0.393450 -0.041928
v 0.130624 0.456461 0.048378
v 0.144529 0.456461 0.048378
v 0.130624 0.456048 -0.071183
v 0.144530 0.456048 -0.071183
v 0.144529 0.470366 0.048330
v 0.144530 0.469954 -0.071231
v 0.130624 0.470366 0.048330
v 0.130624 0.469954 -0.071231
v 0.130624 0.456461 0.048378
v 0.130624 0.456048 -0.071183
v 0.218326 0.461103 0.023050
v 0.171796 0.333250 0.023492
v 0.196135 0.469146 0.023022
v 0.144873 0.328480 0.023508
v 0.206512 0.272259 0.023702
v 0.111188 0.318447 0.023543
v 0.096851 0.297119 0.023616
v 0.197470 0.256596 0.023756
v 0.094241 0.277368 0.023684
v 0.041430 0.256674 0.023756
v 0.041430 0.277374 0.023684
v 0.026182 0.271899 0.023703
v 0.020673 0.256674 0.023756
v 0.041430 0.239426 0.023815
v 0.020672 0.239427 0.023815
v -0.118562 0.231323 -0.076644
v -0.137304 0.335202 -0.077003
v -0.118562 0.231248 -0.098605
v -0.137304 0.335127 -0.098964
v -0.144539 0.341194 -0.077024
v -0.144539 0.341118 -0.098984
v -0.157388 0.340117 -0.098981
v -0.157388 0.340193 -0.077020
v -0.163404 0.332978 -0.076995
v -0.163404 0.332902 -0.098956
v -0.142761 0.205092 -0.098515
v -0.142761 0.205168 -0.076554
v 0.218326 0.460865 -0.045910
v 0.196135 0.468908 -0.045937
v 0.171796 0.333012 -0.045468
v 0.144873 0.328242 -0.045452
v 0.206512 0.272021 -0.045258
v 0.111188 0.318209 -0.045417
v 0.096851 0.296881 -0.045344
v 0.197470 0.256358 -0.045204
v 0.094241 0.277130 -0.045275
v 0.041430 0.256436 -0.045204
v 0.041430 0.277136 -0.045275
v 0.026182 0.271661 -0.045256
v 0.020673 0.256436 -0.045204
v 0.041430 0.239188 -0.045144
v 0.020672 0.239189 -0.045144
v 0.197470 0.256358 -0.045204
v 0.197470 0.256596 0.023756
v 0.206512 0.272021 -0.045258
v 0.206512 0.272259 0.023702
v 0.171796 0.333012 -0.045468
v 0.171796 0.333250 0.023492
v 0.218326 0.460865 -0.045910
v 0.218326 0.461103 0.023050
v 0.196135 0.468908 -0.045937
v 0.196135 0.469146 0.023022
v 0.144873 0.328242 -0.045452
v 0.144873 0.328480 0.023508
v 0.111188 0.318209 -0.045417
v 0.111188 0.318447 0.023543
v 0.096851 0.296881 -0.045344
v 0.096851 0.297119 0.023616
v 0.094241 0.277130 -0.045275
v 0.094241 0.277368 0.023684
v 0.041430 0.277374 0.023684
v 0.041430 0.277136 -0.045275
v 0.026182 0.271899 0.023703
v 0.026182 0.271661 -0.045256
v 0.020673 0.256436 -0.045204
v 0.020673 0.256674 0.023756
v 0.020672 0.239427 0.023815
v 0.020672 0.239189 -0.045144
v -0.064039 0.326735 0.192978
v -0.077823 0.319007 0.197761
v -0.064039 0.342556 0.252359
v -0.077823 0.335150 0.259037
v -0.064039 0.390111 0.307581
v -0.077823 0.382807 0.314182
v -0.077823 0.440758 0.340203
v -0.064039 0.446205 0.333180
v -0.077823 0.709222 0.339276
v -0.064039 0.703727 0.332291
v -0.064039 0.759643 0.306305
v -0.077823 0.766992 0.312856
v -0.077823 0.814268 0.257383
v -0.064039 0.806814 0.250756
v -0.077823 0.829987 0.195997
v -0.064039 0.822225 0.191267
v -0.064039 0.820817 -0.216649
v -0.077823 0.828546 -0.221432
v -0.064039 0.804996 -0.276031
v -0.077823 0.812403 -0.282708
v -0.064039 0.757442 -0.331253
v -0.077823 0.764746 -0.337853
v -0.077823 0.706794 -0.363874
v -0.064039 0.701348 -0.356851
v -0.064039 0.443826 -0.355962
v -0.077823 0.438330 -0.362947
v -0.064039 0.387910 -0.329977
v -0.077823 0.380560 -0.336526
v -0.077823 0.333285 -0.281054
v -0.064039 0.340738 -0.274429
v -0.077823 0.317566 -0.219668
v -0.064039 0.325326 -0.214938
v -0.064039 0.326735 0.192978
v -0.077823 0.319007 0.197761
v 0.047362 0.231855 0.077379
v -0.118562 0.231855 0.077379
v -0.118562 0.231780 0.055419
v 0.047362 0.231780 0.055419
v 0.064002 0.205700 0.077470
v 0.064002 0.205624 0.055509
v -0.118562 0.231780 0.055419
v -0.118562 0.231855 0.077379
v -0.137304 0.335659 0.055060
v -0.137304 0.335734 0.077021
v -0.144539 0.341650 0.055039
v -0.144539 0.341726 0.077000
v -0.157388 0.340725 0.077003
v -0.157388 0.340649 0.055043
v -0.163404 0.333434 0.055068
v -0.163404 0.333510 0.077028
v -0.142761 0.205700 0.077470
v -0.142761 0.205624 0.055509
v 0.158139 0.308463 -0.029960
v 0.136248 0.329638 -0.030033
v 0.105799 0.327503 -0.030026
v 0.089955 0.308397 -0.029960
v 0.158672 0.283576 -0.029874
v 0.132426 0.211423 -0.029625
v 0.054817 0.211423 -0.029625
v 0.054817 0.211555 0.008456
v 0.054817 0.211423 -0.029625
v 0.089955 0.308397 -0.029960
v 0.089955 0.308529 0.008121
v 0.105799 0.327503 -0.030026
v 0.105799 0.327635 0.008055
v 0.136248 0.329638 -0.030033
v 0.136248 0.329769 0.008048
v 0.158139 0.308463 -0.029960
v 0.158139 0.308594 0.008121
v 0.158672 0.283576 -0.029874
v 0.158672 0.283707 0.008207
v 0.132426 0.211555 0.008456
v 0.132426 0.211423 -0.029625
v 0.158139 0.308594 0.008121
v 0.105799 0.327635 0.008055
v 0.136248 0.329769 0.008048
v 0.089955 0.308529 0.008121
v 0.158672 0.283707 0.008207
v 0.132426 0.211555 0.008456
v 0.054817 0.211555 0.008456
v -0.180311 0.415841 -0.077784
v -0.235298 0.445049 -0.078065
v -0.180376 0.399102 -0.077648
v -0.175719 0.315352 -0.076934
v -0.077823 0.318059 -0.076944
v -0.086368 0.273263 -0.076789
v -0.060580 0.318059 -0.076944
v -0.060580 0.239079 -0.076671
v -0.086368 0.217565 -0.076597
v 0.064002 0.217565 -0.076597
v 0.053246 0.239079 -0.076671
v -0.235298 0.445509 0.055281
v -0.180311 0.416301 0.055206
v -0.180376 0.399561 0.055187
v -0.175719 0.315808 0.055062
v -0.077823 0.318515 0.055053
v -0.086368 0.273719 0.055208
v -0.060580 0.318515 0.055053
v -0.060580 0.239535 0.055326
v -0.086368 0.218021 0.055400
v 0.064002 0.218021 0.055400
v 0.053246 0.239535 0.055326
v -0.173179 0.037909 -0.010109
v -0.210031 0.037909 -0.010109
v -0.145324 0.037550 -0.114064
v -0.177239 0.037487 -0.132489
v -0.069223 0.037287 -0.190164
v -0.087649 0.037177 -0.222078
v 0.034732 0.037194 -0.218019
v 0.034732 0.037066 -0.254870
v 0.138688 0.037290 -0.190164
v 0.157114 0.037179 -0.222078
v 0.214789 0.037553 -0.114064
v 0.246703 0.037489 -0.132489
v 0.242644 0.037911 -0.010109
v 0.279495 0.037911 -0.010109
v 0.214789 0.038270 0.093846
v 0.246703 0.038334 0.112272
v 0.138688 0.038533 0.169947
v 0.157114 0.038643 0.201861
v 0.034732 0.038629 0.197801
v 0.034732 0.038756 0.234653
v -0.069223 0.038531 0.169947
v -0.087649 0.038641 0.201861
v -0.145324 0.038268 0.093846
v -0.177239 0.038332 0.112272
v -0.173179 0.037909 -0.010109
v -0.210031 0.037909 -0.010109
v -0.210031 0.037909 -0.010109
v -0.210031 -0.057269 -0.009780
v -0.177239 0.037487 -0.132489
v -0.177239 -0.057692 -0.132161
v -0.087649 0.037177 -0.222078
v -0.087649 -0.058001 -0.221750
v 0.034732 0.037066 -0.254870
v 0.034732 -0.058112 -0.254542
v 0.157114 0.037179 -0.222078
v 0.157114 -0.057999 -0.221750
v 0.246703 0.037489 -0.132489
v 0.246703 -0.057689 -0.132161
v 0.279495 0.037911 -0.010109
v 0.279495 -0.057267 -0.009780
v 0.246703 0.038334 0.112272
v 0.246703 -0.056844 0.112601
v 0.157114 0.038643 0.201861
v 0.157114 -0.056535 0.202189
v 0.034732 0.038756 0.234653
v 0.034732 -0.056422 0.234981
v -0.087649 0.038641 0.201861
v -0.087649 -0.056537 0.202189
v -0.177239 0.038332 0.112272
v -0.177239 -0.056847 0.112601
v -0.210031 0.037909 -0.010109
v -0.210031 -0.057269 -0.009780
v -0.118562 0.231323 -0.076644
v -0.118562 0.231248 -0.098605
v 0.047362 0.231248 -0.098605
v 0.047362 0.231323 -0.076644
v 0.064002 0.205092 -0.098515
v 0.064002 0.205168 -0.076554
v 0.047362 0.231780 0.055419
v -0.118562 0.231780 0.055419
v 0.064002 0.205624 0.055509
v -0.142761 0.205624 0.055509
v -0.163404 0.333434 0.055068
v -0.137304 0.335659 0.055060
v -0.118562 0.231855 0.077379
v 0.047362 0.231855 0.077379
v 0.064002 0.205700 0.077470
v -0.142761 0.205700 0.077470
v -0.163404 0.333510 0.077028
v -0.137304 0.335734 0.077021
v -0.144539 0.341726 0.077000
v -0.157388 0.340725 0.077003
v 0.170998 0.487221 0.032343
v 0.183746 0.522930 0.032220
v 0.183746 0.522902 0.024078
v 0.135085 0.388682 0.024542
v 0.148141 0.424309 0.032561
v 0.170998 0.487305 0.056762
v 0.148141 0.424393 0.056979
v 0.135085 0.388823 0.065244
v 0.183746 0.523042 0.064780
v 0.183746 0.523014 0.056639
v 0.135085 0.388795 0.057102
v 0.135085 0.388710 0.032683
v 0.165165 0.489303 0.032336
v 0.177913 0.524984 0.024071
v 0.177913 0.525012 0.032213
v 0.129249 0.390795 0.024535
v 0.142305 0.426421 0.032553
v 0.165165 0.489387 0.056755
v 0.142305 0.426506 0.056972
v 0.129249 0.390935 0.065236
v 0.177913 0.525125 0.064773
v 0.177913 0.525097 0.056631
v 0.129249 0.390907 0.057095
v 0.129249 0.390823 0.032676
v 0.170998 0.486918 -0.055315
v 0.183746 0.522655 -0.047297
v 0.183746 0.522627 -0.055439
v 0.135085 0.388436 -0.046834
v 0.148141 0.424006 -0.055098
v 0.170998 0.486834 -0.079734
v 0.148141 0.423922 -0.079517
v 0.135085 0.388296 -0.087535
v 0.183746 0.522515 -0.087999
v 0.183746 0.522543 -0.079857
v 0.135085 0.388324 -0.079394
v 0.135085 0.388408 -0.054975
v 0.165165 0.489000 -0.055323
v 0.177913 0.524710 -0.055446
v 0.177913 0.524738 -0.047304
v 0.129249 0.390548 -0.046841
v 0.142305 0.426119 -0.055105
v 0.165165 0.488916 -0.079741
v 0.142305 0.426034 -0.079524
v 0.129249 0.390408 -0.087542
v 0.177913 0.524597 -0.088006
v 0.177913 0.524625 -0.079864
v 0.129249 0.390436 -0.079401
v 0.129249 0.390520 -0.054982
v 0.147537 0.490881 0.039463
v 0.142861 0.478128 0.039507
v 0.165117 0.484409 0.039485
v 0.145399 0.430307 0.039672
v 0.132430 0.449406 0.039606
v 0.127753 0.436654 0.039650
v 0.118999 0.486797 0.039493
v 0.108568 0.458082 0.039592
v 0.112916 0.524753 0.039346
v 0.079491 0.432945 0.039663
v 0.097137 0.426597 0.039701
v 0.130496 0.518281 0.039384
v 0.147537 0.490916 0.049545
v 0.165117 0.484444 0.049534
v 0.142860 0.478163 0.049589
v 0.145399 0.430342 0.049721
v 0.132430 0.449441 0.049688
v 0.118999 0.486832 0.049625
v 0.108568 0.458117 0.049724
v 0.112916 0.524788 0.049527
v 0.130496 0.518316 0.049516
v 0.079491 0.432980 0.049844
v 0.097137 0.426632 0.049833
v 0.127753 0.436688 0.049732
v 0.147537 0.490529 -0.062460
v 0.165117 0.484057 -0.062437
v 0.142861 0.477777 -0.062416
v 0.145399 0.429955 -0.062251
v 0.132430 0.449054 -0.062317
v 0.118999 0.486445 -0.062462
v 0.108568 0.457730 -0.062363
v 0.112916 0.524401 -0.062577
v 0.130496 0.517929 -0.062571
v 0.079491 0.432593 -0.062260
v 0.097137 0.426245 -0.062254
v 0.127753 0.436302 -0.062273
v 0.147537 0.490494 -0.072542
v 0.142861 0.477742 -0.072498
v 0.165117 0.484023 -0.072487
v 0.145399 0.429920 -0.072300
v 0.132430 0.449020 -0.072399
v 0.127753 0.436267 -0.072355
v 0.118999 0.486410 -0.072594
v 0.108568 0.457695 -0.072495
v 0.112916 0.524366 -0.072758
v 0.079491 0.432558 -0.072441
v 0.097137 0.426210 -0.072386
v 0.130496 0.517894 -0.072703
v -0.118562 0.231323 -0.076644
v 0.047362 0.231323 -0.076644
v 0.064002 0.205168 -0.076554
v -0.142761 0.205168 -0.076554
v -0.163404 0.332978 -0.076995
v -0.137304 0.335202 -0.077003
v 0.047362 0.231248 -0.098605
v -0.118562 0.231248 -0.098605
v 0.064002 0.205092 -0.098515
v -0.142761 0.205092 -0.098515
v -0.163404 0.332902 -0.098956
v -0.137304 0.335127 -0.098964
v -0.144539 0.341118 -0.098984
v -0.157388 0.340117 -0.098981
v -0.180311 0.731119 -0.117707
v -0.180376 0.747542 -0.209100
v -0.180376 0.748900 0.184224
v -0.180311 0.731846 0.092947
v -0.180376 0.727667 0.229101
v -0.180376 0.690820 0.253854
v -0.180311 0.416435 0.094036
v -0.180376 0.458570 0.254656
v -0.180376 0.421552 0.230158
v -0.180376 0.400011 0.185429
v -0.180376 0.398652 -0.207895
v -0.180311 0.415707 -0.116618
v -0.180376 0.419886 -0.252772
v -0.180376 0.419886 -0.252772
v -0.180376 0.456733 -0.277524
v -0.180311 0.415707 -0.116618
v -0.180376 0.688982 -0.278326
v -0.180311 0.731119 -0.117707
v -0.180376 0.726000 -0.253828
v -0.180376 0.747542 -0.209100
v -0.064039 0.387910 -0.329977
v -0.128769 0.506554 -0.127346
v -0.064039 0.443826 -0.355962
v -0.064039 0.340738 -0.274429
v -0.064039 0.325326 -0.214938
v -0.128770 0.507353 0.104136
v -0.064039 0.326735 0.192978
v -0.064039 0.342556 0.252359
v -0.064039 0.390111 0.307581
v -0.064039 0.446205 0.333180
v -0.128770 0.640998 0.103675
v -0.064039 0.703727 0.332291
v -0.064039 0.759643 0.306305
v -0.064039 0.806814 0.250756
v -0.064039 0.822225 0.191267
v -0.064039 0.820817 -0.216649
v -0.064039 0.804996 -0.276031
v -0.128770 0.640199 -0.127807
v -0.064039 0.701348 -0.356851
v -0.064039 0.757442 -0.331253
v -0.077823 0.333285 -0.281054
v -0.077823 0.380560 -0.336526
v -0.180376 0.419886 -0.252772
v -0.077823 0.317566 -0.219668
v -0.180376 0.398652 -0.207895
v -0.180376 0.400011 0.185429
v -0.077823 0.319007 0.197761
v -0.077823 0.335150 0.259037
v -0.180376 0.421552 0.230158
v -0.077823 0.382807 0.314182
v -0.180376 0.458570 0.254656
v -0.077823 0.440758 0.340203
v -0.077823 0.709222 0.339276
v -0.180376 0.690820 0.253854
v -0.077823 0.766992 0.312856
v -0.180376 0.727667 0.229101
v -0.077823 0.814268 0.257383
v -0.180376 0.748900 0.184224
v -0.077823 0.829987 0.195997
v -0.077823 0.828546 -0.221432
v -0.180376 0.747542 -0.209100
v -0.077823 0.812403 -0.282708
v -0.180376 0.726000 -0.253828
v -0.077823 0.764746 -0.337853
v -0.077823 0.706794 -0.363874
v -0.180376 0.456733 -0.277524
v -0.077823 0.438330 -0.362947
v -0.180376 0.688982 -0.278326
v -0.138486 0.205483 -0.010687
v -0.173179 0.171973 -0.010571
v -0.145324 0.171614 -0.114527
v -0.115279 0.205184 -0.097296
v -0.115279 0.205782 0.075921
v -0.145324 0.172331 0.093384
v -0.051877 0.204966 -0.160697
v -0.051877 0.206002 0.139323
v -0.069223 0.172594 0.169484
v 0.034733 0.204885 -0.183904
v 0.034733 0.206082 0.162530
v 0.034732 0.172690 0.197339
v 0.121341 0.206002 0.139323
v 0.138688 0.172594 0.169484
v 0.184743 0.205184 -0.097296
v 0.184743 0.205782 0.075921
v 0.121342 0.204966 -0.160697
v 0.138688 0.171351 -0.190627
v 0.214789 0.171614 -0.114527
v 0.242644 0.171973 -0.010571
v 0.207950 0.205483 -0.010687
v 0.214789 0.172331 0.093384
v 0.034732 0.171255 -0.218482
v -0.069223 0.171351 -0.190627
v 0.177913 0.524984 0.024071
v 0.183746 0.522902 0.024078
v 0.177913 0.525012 0.032213
v 0.183746 0.522930 0.032220
vn -0.8528 0.1609 -0.4968
vn -0.9999 -0.0078 -0.0079
vn -0.9866 0.1630 -0.0085
vn -0.8629 -0.0095 -0.5053
vn -0.4903 0.1603 -0.8567
vn -0.5053 -0.0107 -0.8629
vn -0.0078 0.1596 -0.9872
vn -0.0078 -0.0113 -0.9999
vn 0.4844 0.1610 -0.8599
vn 0.4936 -0.0108 -0.8696
vn 0.8519 0.1638 -0.4975
vn 0.8589 -0.0096 -0.5121
vn 0.9862 0.1655 -0.0084
vn 0.9999 -0.0079 -0.0078
vn 0.8552 0.1678 0.4904
vn 0.8658 -0.0062 0.5004
vn 0.4849 0.1697 0.8579
vn 0.5004 -0.0049 0.8658
vn -0.0079 0.1689 0.9856
vn -0.0079 -0.0044 1.0000
vn -0.5028 0.1677 0.8480
vn -0.5122 -0.0049 0.8589
vn -0.8626 0.1662 0.4778
vn -0.8697 -0.0061 0.4936
vn -0.9866 0.1631 -0.0082
vn -0.9999 -0.0078 -0.0077
vn -0.0078 -0.0112 -0.9999
vn 0.3398 0.9404 -0.0112
vn -0.3417 -0.9398 -0.0045
vn 0.9353 -0.3537 -0.0066
vn -0.0078 -1.0000 -0.0044
vn 0.0856 -0.9963 -0.0043
vn 0.3328 0.9429 -0.0112
vn -0.9422 0.3348 -0.0089
vn -0.9422 0.3348 -0.0090
vn 0.4910 0.8711 -0.0109
vn -0.1871 -0.9823 -0.0044
vn 0.1818 -0.0757 0.9804
vn 0.1818 -0.0756 0.9804
vn 0.1790 -0.0812 -0.9805
vn -0.5835 -0.0051 0.8121
vn -0.4783 0.8781 -0.0109
vn -0.9999 -0.0078 -0.0078
vn -0.5761 -0.0106 -0.8173
vn -0.4718 -0.8817 -0.0047
vn -0.0079 0.9999 -0.0113
vn -0.0078 -1.0000 -0.0043
vn -0.9999 -0.0079 -0.0078
vn 0.3328 0.9429 -0.0111
vn -0.9079 -0.4191 -0.0063
vn -0.7560 -0.6545 -0.0055
vn -0.7558 -0.6547 -0.0055
vn -0.4284 -0.9036 -0.0047
vn 0.8960 0.4440 -0.0095
vn 0.3398 0.9404 -0.0111
vn -0.3486 -0.9373 -0.0045
vn -0.3485 -0.9373 -0.0045
vn -0.9447 0.3279 -0.0089
vn -0.7072 -0.7070 -0.0053
vn -0.7072 -0.7070 -0.0054
vn 0.6992 -0.7149 -0.0054
vn 0.7071 0.7071 -0.0104
vn -0.7149 0.6991 -0.0103
vn -0.7070 -0.7072 -0.0053
vn -0.7070 -0.7072 -0.0054
vn 0.9846 0.1747 -0.0085
vn 0.9750 0.2221 -0.0087
vn 0.2370 0.9715 -0.0112
vn 0.2370 0.9714 -0.0112
vn -0.4091 0.9124 -0.0110
vn -0.4090 0.9124 -0.0110
vn -0.9932 -0.1163 -0.0074
vn -0.9866 -0.1631 -0.0072
vn -0.9866 -0.1632 -0.0072
vn 0.9511 0.3089 -0.0090
vn 0.0856 -0.9963 -0.0044
vn 0.9974 -0.0712 -0.0076
vn 0.9974 -0.0712 -0.0077
vn -0.8748 0.4844 -0.0095
vn -0.5565 0.8308 -0.0107
vn -0.9274 0.3740 -0.0091
vn -0.3469 0.9378 -0.0111
vn -0.0870 0.9961 -0.0113
vn -0.7149 0.6992 -0.0103
vn -0.9878 0.1555 -0.0083
vn -0.9878 0.1556 -0.0083
vn 0.4843 -0.8747 0.0187
vn 0.5652 -0.7366 0.3715
vn 0.4934 -0.8691 0.0345
vn 0.5734 -0.7133 0.4030
vn 0.5691 -0.5036 0.6499
vn 0.5703 -0.5205 0.6355
vn 0.4767 -0.0924 0.8742
vn 0.4684 -0.0605 0.8814
vn 0.4771 0.0906 0.8742
vn 0.4688 0.0508 0.8818
vn 0.5737 0.4962 0.6516
vn 0.5798 0.7083 0.4026
vn 0.5750 0.5133 0.6371
vn 0.5718 0.7319 0.3707
vn 0.5002 0.8654 0.0289
vn 0.4910 0.8711 0.0129
vn 0.4908 0.8706 -0.0347
vn 0.4999 0.8646 -0.0506
vn 0.5683 0.7249 -0.3893
vn 0.5677 0.4866 -0.6640
vn 0.5761 0.7009 -0.4206
vn 0.5692 0.5036 -0.6499
vn 0.4705 0.0833 -0.8784
vn 0.4624 0.0440 -0.8856
vn 0.4619 -0.0657 -0.8845
vn 0.4702 -0.0972 -0.8772
vn 0.5633 -0.5030 -0.6555
vn 0.5697 -0.7116 -0.4111
vn 0.5646 -0.5197 -0.6412
vn 0.5619 -0.7349 -0.3798
vn 0.4931 -0.8689 -0.0440
vn 0.4841 -0.8746 -0.0282
vn 0.4843 -0.8747 0.0186
vn 0.4934 -0.8691 0.0343
vn 0.1349 0.9908 -0.0113
vn 0.8475 0.5307 -0.0098
vn 0.2369 0.9715 -0.0113
vn -0.9207 0.3902 -0.0091
vn -0.9207 0.3903 -0.0091
vn -0.4250 0.9051 -0.0110
vn 0.9006 0.4345 -0.0094
vn 0.9633 -0.2683 -0.0070
vn 0.9633 -0.2684 -0.0070
vn -0.0078 -0.0191 -0.9998
vn -0.0079 -0.0124 0.9999
vn -0.0079 -0.0045 1.0000
vn 0.9377 -0.3468 -0.0224
vn 0.9378 -0.3468 -0.0146
vn 0.9379 -0.3468 -0.0067
vn 0.9352 -0.3537 -0.0145
vn 0.9379 -0.3467 0.0091
vn 0.9354 -0.3537 0.0012
vn 0.9379 -0.3468 0.0012
vn -0.9447 0.3279 -0.0011
vn -0.9423 0.3349 -0.0012
vn -0.9447 0.3279 0.0067
vn -0.9423 0.3349 -0.0011
vn -0.9444 0.3278 -0.0245
vn -0.9422 0.3347 -0.0167
vn -0.9422 0.3348 -0.0167
vn -0.9446 0.3278 -0.0167
vn -0.9421 0.3348 -0.0167
vn -0.9447 0.3280 0.0067
vn -0.0078 -0.0044 1.0000
vn 0.9607 0.2387 0.1421
vn 0.9657 0.1590 0.2053
vn 0.9854 0.1355 0.1029
vn 0.9652 0.0168 0.2610
vn 0.9455 0.3255 0.0067
vn 0.9787 0.1891 -0.0796
vn 0.9452 0.3256 -0.0250
vn 0.9584 0.2371 -0.1592
vn 0.9625 0.1570 -0.2214
vn 0.9611 0.0148 -0.2756
vn 0.9781 -0.1817 -0.1019
vn 0.9608 -0.0325 -0.2755
vn 0.9599 -0.1739 -0.2197
vn 0.9546 -0.2530 -0.1569
vn 0.9402 -0.3398 -0.0225
vn 0.9405 -0.3398 0.0091
vn 0.9569 -0.2526 0.1433
vn 0.9829 -0.1662 0.0798
vn 0.9648 -0.0308 0.2611
vn 0.9632 -0.1730 0.2059
vn -0.6588 -0.6678 -0.3465
vn -0.6567 -0.5965 -0.4615
vn -0.6492 -0.4658 -0.6013
vn -0.6289 -0.7766 -0.0361
vn -0.6202 -0.7832 -0.0440
vn -0.6291 -0.7766 0.0339
vn -0.6208 -0.7837 0.0183
vn -0.6447 -0.6746 0.3597
vn -0.6701 -0.5750 0.4695
vn -0.6553 -0.4660 0.5945
vn -0.6607 -0.0684 0.7475
vn -0.6524 -0.0681 0.7548
vn -0.6530 0.0578 0.7551
vn -0.6600 0.4578 0.5956
vn -0.6611 0.0657 0.7474
vn -0.6761 0.5677 0.4697
vn -0.6515 0.6685 0.3588
vn -0.6368 0.7705 0.0289
vn -0.6284 0.7778 0.0130
vn -0.6280 0.7771 -0.0419
vn -0.6364 0.7697 -0.0499
vn -0.6478 0.6621 -0.3769
vn -0.6647 0.5457 -0.5102
vn -0.6628 0.4346 -0.6097
vn -0.6537 0.0520 -0.7550
vn -0.6531 -0.0727 -0.7538
vn -0.6450 0.0597 -0.7618
vn -0.6447 -0.0725 -0.7610
vn -0.4566 0.8895 -0.0188
vn -0.9866 0.1630 -0.0083
vn -0.1818 0.9798 0.0836
vn -0.8528 0.1610 -0.4967
vn -0.2436 0.9578 -0.1526
vn -0.0869 0.9855 -0.1456
vn -0.0793 0.9910 0.1077
vn -0.5028 0.1678 0.8479
vn -0.0079 0.9942 0.1071
vn -0.0079 0.9892 -0.1461
vn 0.0635 0.9913 0.1156
vn 0.2293 0.9645 0.1311
vn 0.1662 0.9803 -0.1063
vn 0.0713 0.9879 -0.1380
vn 0.8518 0.1638 -0.4975
vn 0.9862 0.1655 -0.0085
vn 0.4440 0.8960 -0.0031
vn 0.8552 0.1679 0.4904
vn -0.4903 0.1604 -0.8567
vt 0.330811 0.624512
vt 0.313232 0.604004
vt 0.313232 0.624512
vt 0.330811 0.604004
vt 0.348389 0.624512
vt 0.348389 0.604004
vt 0.365967 0.624512
vt 0.365967 0.604004
vt 0.383545 0.624512
vt 0.383545 0.604004
vt 0.401123 0.624512
vt 0.401123 0.604004
vt 0.418213 0.624512
vt 0.418213 0.604004
vt 0.435547 0.624512
vt 0.435547 0.604004
vt 0.452881 0.624512
vt 0.452881 0.604004
vt 0.470459 0.624512
vt 0.470459 0.604004
vt 0.488037 0.624512
vt 0.488037 0.604004
vt 0.505371 0.624512
vt 0.505371 0.604004
vt 0.522949 0.624512
vt 0.522949 0.604004
vt 0.843262 0.532227
vt 0.821289 0.532227
vt 0.843262 0.508789
vt 0.821289 0.508789
vt 0.686523 0.626953
vt 0.686523 0.613770
vt 0.665527 0.626953
vt 0.665527 0.613770
vt 0.911621 0.777832
vt 0.924805 0.777832
vt 0.911621 0.756836
vt 0.924805 0.756836
vt 0.869141 0.598633
vt 0.846191 0.598633
vt 0.869141 0.611816
vt 0.846191 0.611816
vt 0.846680 0.481934
vt 0.882324 0.481934
vt 0.846680 0.402100
vt 0.882324 0.402100
vt 0.259766 0.771484
vt 0.247803 0.771484
vt 0.259766 0.806641
vt 0.247803 0.806641
vt 0.739258 0.002083
vt 0.704102 0.002083
vt 0.739258 0.010895
vt 0.704102 0.010895
vt 0.884277 0.580078
vt 0.884277 0.541016
vt 0.849121 0.541016
vt 0.849121 0.580078
vt 0.911133 0.375000
vt 0.911133 0.364990
vt 0.848145 0.387695
vt 0.848145 0.352295
vt 0.910645 0.308105
vt 0.910645 0.298096
vt 0.848145 0.320557
vt 0.848145 0.285400
vt 0.848145 0.327148
vt 0.848145 0.344971
vt 0.911133 0.316650
vt 0.911133 0.355713
vt 0.744141 0.652832
vt 0.817871 0.652832
vt 0.750977 0.637207
vt 0.811035 0.637207
vt 0.865723 0.637207
vt 0.816895 0.637207
vt 0.856934 0.651855
vt 0.825684 0.651855
vt 0.815918 0.808594
vt 0.815918 0.868652
vt 0.847168 0.808594
vt 0.847168 0.868652
vt 0.863281 0.651855
vt 0.912109 0.651855
vt 0.872070 0.637207
vt 0.903320 0.637207
vt 0.847168 0.976562
vt 0.832031 0.976562
vt 0.847168 0.981934
vt 0.832031 0.981934
vt 0.923828 0.901855
vt 0.923828 0.892090
vt 0.913574 0.901855
vt 0.913574 0.892090
vt 0.830078 0.222046
vt 0.841309 0.116455
vt 0.830078 0.116455
vt 0.841309 0.222046
vt 0.970215 0.226074
vt 0.957520 0.226074
vt 0.970215 0.229248
vt 0.957520 0.229248
vt 0.957520 0.237305
vt 0.970215 0.237305
vt 0.957520 0.234131
vt 0.970215 0.234131
vt 0.945801 0.229248
vt 0.945801 0.226196
vt 0.941406 0.229248
vt 0.941406 0.226196
vt 0.941406 0.237305
vt 0.945801 0.237305
vt 0.941406 0.234131
vt 0.945801 0.234131
vt 0.949707 0.234131
vt 0.949707 0.237305
vt 0.953613 0.234131
vt 0.953613 0.237305
vt 0.992676 0.244995
vt 0.992676 0.241821
vt 0.919922 0.244995
vt 0.919922 0.241821
vt 0.992676 0.275391
vt 0.919922 0.275391
vt 0.992676 0.278564
vt 0.919922 0.278564
vt 0.973145 0.226074
vt 0.973145 0.229248
vt 0.992676 0.226074
vt 0.992676 0.229248
vt 0.938965 0.226074
vt 0.919922 0.226074
vt 0.938965 0.229248
vt 0.919922 0.229248
vt 0.938965 0.237305
vt 0.938965 0.234131
vt 0.919922 0.237305
vt 0.919922 0.234131
vt 0.973145 0.234131
vt 0.973145 0.237305
vt 0.992676 0.234131
vt 0.992676 0.237305
vt 0.953613 0.226196
vt 0.953613 0.229248
vt 0.949707 0.226196
vt 0.949707 0.229248
vt 0.631836 0.906250
vt 0.631836 0.974121
vt 0.703613 0.906250
vt 0.703613 0.974121
vt 0.517090 0.906250
vt 0.517090 0.973633
vt 0.567871 0.906250
vt 0.567871 0.973633
vt 0.419434 0.906250
vt 0.419434 0.973633
vt 0.447998 0.906250
vt 0.447998 0.973633
vt 0.994141 0.351807
vt 0.994141 0.284424
vt 0.917480 0.351807
vt 0.917480 0.284424
vt 0.652344 0.616699
vt 0.652344 0.607910
vt 0.584961 0.616699
vt 0.584961 0.607910
vt 0.587891 0.973633
vt 0.628418 0.973633
vt 0.587891 0.906250
vt 0.628418 0.906250
vt 0.511719 0.906250
vt 0.453857 0.906250
vt 0.511719 0.973633
vt 0.453857 0.973633
vt 0.583496 0.906250
vt 0.571289 0.906250
vt 0.583496 0.973633
vt 0.571289 0.973633
vt 0.912598 0.278564
vt 0.912598 0.261475
vt 0.907715 0.278564
vt 0.907715 0.261475
vt 0.907715 0.228760
vt 0.907715 0.245972
vt 0.912598 0.228760
vt 0.912598 0.245972
vt 0.898438 0.278564
vt 0.903320 0.278564
vt 0.903320 0.228760
vt 0.898438 0.228760
vt 0.877441 0.228760
vt 0.877441 0.241699
vt 0.882812 0.228760
vt 0.882812 0.241699
vt 0.852051 0.244263
vt 0.852051 0.251221
vt 0.856934 0.244263
vt 0.856934 0.251221
vt 0.856934 0.264648
vt 0.856934 0.257812
vt 0.852051 0.264648
vt 0.852051 0.257812
vt 0.872070 0.228760
vt 0.862305 0.228760
vt 0.872070 0.234009
vt 0.862305 0.234009
vt 0.856934 0.278564
vt 0.856934 0.269043
vt 0.852051 0.278564
vt 0.852051 0.269043
vt 0.852051 0.238403
vt 0.856934 0.238403
vt 0.852051 0.228760
vt 0.856934 0.228760
vt 0.882324 0.265625
vt 0.877441 0.265625
vt 0.882324 0.278564
vt 0.877441 0.278564
vt 0.872070 0.273438
vt 0.862305 0.273438
vt 0.872070 0.278564
vt 0.862305 0.278564
vt 0.625977 0.482666
vt 0.604004 0.482666
vt 0.625977 0.495605
vt 0.604004 0.495605
vt 0.636719 0.663086
vt 0.636719 0.631836
vt 0.623535 0.663086
vt 0.623535 0.631836
vt 0.597656 0.663086
vt 0.619629 0.663086
vt 0.597656 0.631836
vt 0.619629 0.631836
vt 0.580078 0.631836
vt 0.580078 0.663086
vt 0.593262 0.631836
vt 0.593262 0.663086
vt 0.741211 0.634766
vt 0.680176 0.634766
vt 0.741211 0.642090
vt 0.680176 0.642090
vt 0.741211 0.648926
vt 0.680176 0.648926
vt 0.741211 0.656250
vt 0.680176 0.656250
vt 0.741211 0.663086
vt 0.680176 0.663086
vt 0.811523 0.500488
vt 0.799805 0.496338
vt 0.787598 0.565430
vt 0.773926 0.567871
vt 0.756348 0.573242
vt 0.805176 0.596680
vt 0.749023 0.583984
vt 0.800781 0.604980
vt 0.748047 0.594238
vt 0.721191 0.604980
vt 0.721191 0.594238
vt 0.713379 0.597168
vt 0.710449 0.604980
vt 0.721191 0.613770
vt 0.710449 0.613770
vt 0.830078 0.231323
vt 0.841309 0.231323
vt 0.830078 0.285156
vt 0.841309 0.285156
vt 0.830078 0.290039
vt 0.841309 0.290039
vt 0.841309 0.296631
vt 0.830078 0.296631
vt 0.830078 0.301270
vt 0.841309 0.301270
vt 0.841309 0.367432
vt 0.830078 0.367432
vt 0.195312 0.661621
vt 0.204468 0.661621
vt 0.195312 0.626465
vt 0.204468 0.626465
vt 0.240356 0.661621
vt 0.240356 0.626465
vt 0.309814 0.661621
vt 0.309814 0.626465
vt 0.881348 0.219604
vt 0.881348 0.143066
vt 0.846191 0.219604
vt 0.846191 0.143066
vt 0.881348 0.125122
vt 0.846191 0.125122
vt 0.881348 0.112061
vt 0.881348 0.101868
vt 0.846191 0.112061
vt 0.846191 0.101868
vt 0.846191 0.074890
vt 0.881348 0.074890
vt 0.846191 0.066589
vt 0.881348 0.066589
vt 0.881348 0.058350
vt 0.846191 0.058350
vt 0.846191 0.049561
vt 0.881348 0.049561
vt 0.976562 0.514648
vt 0.976562 0.528320
vt 0.993164 0.514648
vt 0.993164 0.528320
vt 0.976562 0.543457
vt 0.993164 0.543457
vt 0.993164 0.555664
vt 0.976562 0.555664
vt 0.993164 0.607910
vt 0.976562 0.607910
vt 0.976562 0.620605
vt 0.993164 0.635254
vt 0.993164 0.620605
vt 0.976562 0.635254
vt 0.993164 0.648438
vt 0.976562 0.648438
vt 0.976562 0.740723
vt 0.993164 0.740723
vt 0.976562 0.754883
vt 0.976562 0.770996
vt 0.993164 0.754883
vt 0.993164 0.770996
vt 0.993164 0.785156
vt 0.976562 0.785156
vt 0.976562 0.849121
vt 0.993164 0.849121
vt 0.976562 0.863770
vt 0.993164 0.880859
vt 0.993164 0.863770
vt 0.976562 0.880859
vt 0.993164 0.896484
vt 0.976562 0.896484
vt 0.976562 0.997070
vt 0.993164 0.997070
vt 0.841309 0.021805
vt 0.830078 0.106567
vt 0.841309 0.106567
vt 0.830078 0.021805
vt 0.841309 0.005978
vt 0.830078 0.005978
vt 0.716797 0.472412
vt 0.688477 0.472412
vt 0.702637 0.466064
vt 0.684082 0.484375
vt 0.721191 0.484375
vt 0.721191 0.523438
vt 0.684082 0.537109
vt 0.461914 0.642090
vt 0.409180 0.661621
vt 0.461914 0.661621
vt 0.409180 0.642090
vt 0.396484 0.661621
vt 0.396484 0.642090
vt 0.380859 0.661621
vt 0.380859 0.642090
vt 0.365234 0.661621
vt 0.365234 0.642090
vt 0.352539 0.661621
vt 0.352539 0.642090
vt 0.313232 0.642090
vt 0.313232 0.661621
vt 0.615723 0.507812
vt 0.624023 0.507812
vt 0.601074 0.535645
vt 0.666504 0.505371
vt 0.665039 0.456299
vt 0.687500 0.460693
vt 0.665039 0.447754
vt 0.704590 0.447754
vt 0.715332 0.460693
vt 0.715332 0.385010
vt 0.704590 0.390381
vt 0.313232 0.600098
vt 0.330811 0.600098
vt 0.313232 0.594238
vt 0.330811 0.594238
vt 0.348389 0.600098
vt 0.348389 0.594238
vt 0.365967 0.600098
vt 0.365967 0.594238
vt 0.383545 0.600098
vt 0.383545 0.594238
vt 0.401123 0.600098
vt 0.401123 0.594238
vt 0.418213 0.600098
vt 0.418213 0.594238
vt 0.435547 0.600098
vt 0.435547 0.594238
vt 0.452881 0.600098
vt 0.452881 0.594238
vt 0.470459 0.600098
vt 0.470459 0.594238
vt 0.488037 0.600098
vt 0.488037 0.594238
vt 0.505371 0.600098
vt 0.505371 0.594238
vt 0.522949 0.600098
vt 0.522949 0.594238
vt 0.313232 0.588867
vt 0.330811 0.588867
vt 0.313232 0.574219
vt 0.330811 0.574219
vt 0.348389 0.588867
vt 0.348389 0.574219
vt 0.365967 0.588867
vt 0.365967 0.574219
vt 0.383545 0.588867
vt 0.383545 0.574219
vt 0.401123 0.588867
vt 0.401123 0.574219
vt 0.418213 0.588867
vt 0.418213 0.574219
vt 0.435547 0.588867
vt 0.435547 0.574219
vt 0.452881 0.588867
vt 0.452881 0.574219
vt 0.470459 0.588867
vt 0.470459 0.574219
vt 0.488037 0.588867
vt 0.488037 0.574219
vt 0.505371 0.588867
vt 0.505371 0.574219
vt 0.522949 0.588867
vt 0.522949 0.574219
vt 0.723145 0.763672
vt 0.736328 0.754883
vt 0.723145 0.848145
vt 0.736328 0.860840
vt 0.671387 0.871094
vt 0.669922 0.857910
vt 0.666992 0.861816
vt 0.667480 0.868164
vt 0.973145 0.265625
vt 0.992676 0.269775
vt 0.992676 0.265625
vt 0.919922 0.269775
vt 0.938965 0.265625
vt 0.973145 0.253174
vt 0.938965 0.253174
vt 0.919922 0.249023
vt 0.992676 0.249023
vt 0.992676 0.253174
vt 0.919922 0.253174
vt 0.919922 0.265625
vt 0.872070 0.268311
vt 0.862305 0.268311
vt 0.872070 0.261475
vt 0.862305 0.239014
vt 0.872070 0.245972
vt 0.872070 0.239014
vt 0.884766 0.261475
vt 0.884766 0.245972
vt 0.894531 0.278564
vt 0.894531 0.228760
vt 0.884766 0.228760
vt 0.884766 0.278564
vt 0.854492 0.873047
vt 0.788574 0.876953
vt 0.874512 0.876953
vt 0.808594 0.873047
vt 0.773438 0.863770
vt 0.778809 0.872070
vt 0.808594 0.803711
vt 0.773438 0.812988
vt 0.778809 0.805176
vt 0.788574 0.800293
vt 0.874512 0.800293
vt 0.854492 0.803711
vt 0.884277 0.805176
vt 0.890137 0.812988
vt 0.890137 0.863770
vt 0.884277 0.872070
vt 0.886719 0.766113
vt 0.898926 0.755371
vt 0.853027 0.729004
vt 0.904785 0.742676
vt 0.873047 0.770020
vt 0.800781 0.729004
vt 0.780762 0.770020
vt 0.767090 0.766113
vt 0.754395 0.755371
vt 0.749023 0.742676
vt 0.800781 0.698730
vt 0.749023 0.684570
vt 0.754395 0.671875
vt 0.767090 0.661133
vt 0.780762 0.657715
vt 0.873047 0.657715
vt 0.886719 0.661133
vt 0.853027 0.698730
vt 0.904785 0.684570
vt 0.898926 0.671875
vt 0.763672 0.898926
vt 0.772949 0.875977
vt 0.749512 0.887207
vt 0.778809 0.903320
vt 0.783691 0.880859
vt 0.879395 0.880859
vt 0.884277 0.903320
vt 0.899902 0.898926
vt 0.890625 0.875977
vt 0.914062 0.887207
vt 0.896484 0.866699
vt 0.920410 0.872559
vt 0.920410 0.804688
vt 0.914062 0.790039
vt 0.896484 0.810547
vt 0.890625 0.801270
vt 0.899902 0.778320
vt 0.879395 0.796387
vt 0.884277 0.773926
vt 0.778809 0.773926
vt 0.783691 0.796387
vt 0.763672 0.778320
vt 0.772949 0.801270
vt 0.749512 0.790039
vt 0.742676 0.804688
vt 0.767090 0.866699
vt 0.767090 0.810547
vt 0.742676 0.872559
vt 0.358887 0.273926
vt 0.357178 0.281006
vt 0.372559 0.273926
vt 0.342041 0.272461
vt 0.347168 0.267090
vt 0.374512 0.281006
vt 0.340576 0.255371
vt 0.384521 0.267090
vt 0.389648 0.272461
vt 0.391357 0.255371
vt 0.340576 0.241699
vt 0.398438 0.257324
vt 0.391357 0.241821
vt 0.398438 0.239868
vt 0.384521 0.230103
vt 0.359131 0.223145
vt 0.347412 0.229980
vt 0.342041 0.224854
vt 0.357178 0.216064
vt 0.374512 0.216064
vt 0.372803 0.223267
vt 0.389648 0.224854
vt 0.333252 0.239868
vt 0.333252 0.257324
s 1
usemtl Missile
f 1/1/1 3/2/2 2/3/3
f 4/4/4 3/2/2 1/1/1
f 5/5/5 4/4/4 1/1/1
f 6/6/6 4/4/4 5/5/5
f 7/7/7 6/6/6 5/5/5
f 8/8/8 6/6/6 7/7/7
f 9/9/9 8/8/8 7/7/7
f 10/10/10 8/8/8 9/9/9
f 11/11/11 10/10/10 9/9/9
f 12/12/12 10/10/10 11/11/11
f 13/13/13 12/12/12 11/11/11
f 14/14/14 12/12/12 13/13/13
f 15/15/15 14/14/14 13/13/13
f 16/16/16 14/14/14 15/15/15
f 17/17/17 16/16/16 15/15/15
f 18/18/18 16/16/16 17/17/17
f 19/19/19 18/18/18 17/17/17
f 20/20/20 18/18/18 19/19/19
f 21/21/21 20/20/20 19/19/19
f 22/22/22 20/20/20 21/21/21
f 23/23/23 22/22/22 21/21/21
f 24/24/24 22/22/22 23/23/23
f 25/25/25 24/24/24 23/23/23
f 26/26/26 24/24/24 25/25/25
f 27/27/27 29/28/27 28/29/27
f 28/29/27 29/28/27 30/30/27
f 31/27/20 33/29/20 32/28/20
f 32/28/20 33/29/20 34/30/20
f 35/31/28 37/32/28 36/33/28
f 36/33/28 37/32/28 38/34/28
f 39/35/29 41/36/29 40/37/29
f 40/37/29 41/36/29 42/38/29
f 43/39/30 45/40/30 44/41/30
f 44/41/30 45/40/30 46/42/30
f 47/43/31 49/44/31 48/45/32
f 48/45/32 49/44/31 50/46/32
f 51/47/33 53/48/33 52/49/33
f 52/49/33 53/48/33 54/50/33
f 55/51/14 57/52/14 56/53/14
f 56/53/14 57/52/14 58/54/14
f 60/55/34 62/56/34 59/57/34
f 59/57/34 61/58/35 60/55/34
f 63/59/36 65/60/36 64/61/36
f 64/61/36 65/60/36 66/62/36
f 67/63/37 69/64/37 68/65/37
f 68/65/37 69/64/37 70/66/37
f 71/67/38 73/68/39 72/69/38
f 72/69/38 73/68/39 74/70/38
f 75/67/40 77/69/40 76/68/40
f 76/68/40 77/69/40 78/70/40
f 79/71/41 81/72/41 80/73/41
f 80/73/41 81/72/41 82/74/41
f 83/75/42 85/76/42 84/77/42
f 84/77/42 85/76/42 86/78/42
f 87/79/43 89/80/43 88/81/43
f 88/81/43 89/80/43 90/82/43
f 91/72/44 93/71/44 92/74/44
f 92/74/44 93/71/44 94/73/44
f 95/83/45 97/84/45 96/85/45
f 96/85/45 97/84/45 98/86/45
f 99/87/46 101/88/46 100/89/46
f 100/89/46 101/88/46 102/90/46
f 103/87/43 105/88/43 104/89/43
f 104/89/43 105/88/43 106/90/43
f 107/87/47 109/88/47 108/89/47
f 108/89/47 109/88/47 110/90/47
f 111/87/14 113/88/14 112/89/14
f 112/89/14 113/88/14 114/90/14
f 115/91/20 117/92/20 116/93/20
f 116/93/20 117/92/20 118/94/20
f 119/87/46 121/88/46 120/89/46
f 120/89/46 121/88/46 122/90/46
f 123/87/48 125/88/48 124/89/48
f 124/89/48 125/88/48 126/90/48
f 127/87/47 129/88/47 128/89/47
f 128/89/47 129/88/47 130/90/47
f 131/87/14 133/88/14 132/89/14
f 132/89/14 133/88/14 134/90/14
f 135/91/20 137/92/20 136/93/20
f 136/93/20 137/92/20 138/94/20
f 139/95/47 141/96/47 140/97/47
f 141/96/47 139/95/47 142/98/47
f 143/99/33 145/100/33 144/101/33
f 144/101/33 145/100/33 146/102/33
f 147/103/29 149/104/29 148/105/29
f 148/105/29 149/104/29 150/106/29
f 151/107/49 153/108/49 152/109/33
f 152/109/33 153/108/49 154/110/33
f 155/111/29 157/112/29 156/113/29
f 156/113/29 157/112/29 158/114/29
f 159/115/29 161/116/29 160/117/29
f 160/117/29 161/116/29 162/118/29
f 163/119/20 165/120/20 164/121/20
f 164/121/20 165/120/20 166/122/20
f 167/123/27 169/124/8 168/125/27
f 168/125/27 169/124/8 170/126/8
f 171/127/27 173/128/27 172/129/27
f 172/129/27 173/128/27 174/130/27
f 175/131/8 177/132/8 176/133/8
f 176/133/8 177/132/8 178/134/8
f 179/135/20 181/136/20 180/137/20
f 180/137/20 181/136/20 182/138/20
f 183/139/20 185/140/20 184/141/20
f 184/141/20 185/140/20 186/142/20
f 187/99/33 189/101/33 188/100/33
f 188/100/33 189/101/33 190/102/33
f 191/103/29 193/105/29 192/104/29
f 192/104/29 193/105/29 194/106/29
f 195/107/49 197/109/33 196/108/33
f 196/108/33 197/109/33 198/110/49
f 199/111/29 201/113/29 200/112/29
f 200/112/29 201/113/29 202/114/29
f 203/115/29 205/117/29 204/116/29
f 204/116/29 205/117/29 206/118/29
f 207/143/33 209/144/33 208/145/33
f 208/145/33 209/144/33 210/146/49
f 211/119/27 213/121/8 212/120/27
f 212/120/27 213/121/8 214/122/8
f 215/123/20 217/125/20 216/124/20
f 216/124/20 217/125/20 218/126/20
f 219/127/20 221/129/20 220/128/20
f 220/128/20 221/129/20 222/130/20
f 223/134/20 225/132/20 224/133/20
f 224/133/20 225/132/20 226/131/20
f 227/135/8 229/137/8 228/136/8
f 228/136/8 229/137/8 230/138/8
f 231/139/27 233/141/27 232/140/27
f 232/140/27 233/141/27 234/142/27
f 235/147/50 237/148/50 236/149/51
f 236/149/51 237/148/50 238/150/51
f 239/151/52 241/152/52 240/153/53
f 240/153/53 241/152/52 242/154/53
f 243/155/43 245/156/43 244/157/43
f 244/157/43 245/156/43 246/158/43
f 247/159/47 249/160/47 248/161/47
f 248/161/47 249/160/47 250/162/47
f 251/163/46 253/164/46 252/165/46
f 252/165/46 253/164/46 254/166/46
f 255/167/14 257/168/14 256/169/14
f 256/169/14 257/168/14 258/170/14
f 259/171/46 261/172/46 260/173/46
f 260/173/46 261/172/46 262/174/46
f 263/175/54 265/176/54 264/177/54
f 264/177/54 265/176/54 266/178/54
f 267/179/30 269/180/30 268/181/30
f 268/181/30 269/180/30 270/182/30
f 271/183/30 273/184/30 272/185/30
f 272/185/30 273/184/30 274/186/30
f 276/187/34 278/188/34 275/189/34
f 275/189/34 277/190/34 276/187/34
f 279/191/28 281/192/55 280/193/28
f 280/193/28 281/192/55 282/194/28
f 283/195/34 285/196/34 284/197/34
f 284/197/34 285/196/34 286/198/34
f 287/199/34 289/200/34 288/201/34
f 288/201/34 289/200/34 290/202/34
f 291/203/29 293/204/29 292/205/29
f 292/205/29 293/204/29 294/206/29
f 295/207/28 297/208/28 296/209/28
f 296/209/28 297/208/28 298/210/55
f 299/211/29 301/212/29 300/213/29
f 300/213/29 301/212/29 302/214/29
f 303/215/56 305/216/57 304/217/56
f 304/217/56 305/216/57 306/218/56
f 307/219/28 309/220/28 308/221/28
f 308/221/28 309/220/28 310/222/55
f 311/179/30 313/181/30 312/180/30
f 312/180/30 313/181/30 314/182/30
f 315/183/30 317/185/30 316/184/30
f 316/184/30 317/185/30 318/186/30
f 319/189/34 321/187/34 320/190/35
f 321/187/34 319/189/34 322/188/34
f 323/194/28 325/192/28 324/193/28
f 324/193/28 325/192/28 326/191/28
f 327/195/34 329/197/34 328/196/34
f 328/196/34 329/197/34 330/198/34
f 331/199/34 333/201/34 332/200/34
f 332/200/34 333/201/34 334/202/34
f 335/203/29 337/205/29 336/204/29
f 336/204/29 337/205/29 338/206/29
f 339/210/28 341/208/28 340/209/28
f 340/209/28 341/208/28 342/207/28
f 343/211/29 345/213/29 344/212/29
f 344/212/29 345/213/29 346/214/29
f 347/215/57 349/217/56 348/216/57
f 348/216/57 349/217/56 350/218/57
f 351/219/28 353/221/28 352/220/55
f 352/220/55 353/221/28 354/222/55
f 356/96/47 358/98/47 355/95/47
f 355/95/47 357/97/31 356/96/47
f 359/223/20 361/224/20 360/225/20
f 360/225/20 361/224/20 362/226/20
f 363/227/56 365/228/56 364/229/56
f 364/229/56 365/228/56 366/230/56
f 367/231/58 369/232/58 368/233/58
f 368/233/58 369/232/58 370/234/58
f 371/235/33 373/236/33 372/237/33
f 372/237/33 373/236/33 374/238/28
f 375/223/27 377/225/27 376/224/27
f 376/224/27 377/225/27 378/226/27
f 379/239/59 381/240/60 380/241/61
f 380/241/61 381/240/60 382/242/61
f 380/241/61 382/242/61 383/243/62
f 383/243/62 382/242/61 384/244/62
f 383/243/62 384/244/62 385/245/63
f 385/245/63 384/244/62 386/246/63
f 385/245/63 386/246/63 387/247/64
f 387/247/64 386/246/63 388/248/65
f 389/249/20 391/250/20 390/251/20
f 390/251/20 391/250/20 392/252/20
f 392/252/20 394/253/20 393/254/20
f 392/252/20 393/254/20 390/251/20
f 394/253/20 395/255/20 393/254/20
f 395/255/20 396/256/20 393/254/20
f 397/257/20 396/256/20 395/255/20
f 397/257/20 398/258/20 396/256/20
f 399/259/20 398/258/20 397/257/20
f 400/260/20 398/258/20 399/259/20
f 401/261/20 398/258/20 400/260/20
f 402/262/20 401/261/20 403/263/20
f 398/258/20 401/261/20 402/262/20
f 404/264/66 406/265/66 405/266/67
f 405/266/67 406/265/66 407/267/67
f 408/268/68 407/267/67 409/269/69
f 405/266/67 407/267/67 408/268/68
f 409/269/69 410/270/70 408/268/68
f 408/268/68 410/270/70 411/271/71
f 411/271/71 410/270/70 412/272/72
f 412/272/72 410/270/70 413/273/72
f 414/274/73 412/272/72 413/273/72
f 415/275/74 412/272/72 414/274/73
f 416/249/27 418/251/27 417/250/27
f 417/250/27 418/251/27 419/252/27
f 419/252/27 418/251/27 420/254/27
f 419/252/27 420/254/27 421/253/27
f 421/253/27 420/254/27 422/255/27
f 420/254/27 423/256/27 422/255/27
f 422/255/27 423/256/27 424/257/27
f 425/258/27 424/257/27 423/256/27
f 426/259/27 424/257/27 425/258/27
f 425/258/27 427/260/27 426/259/27
f 428/261/27 427/260/27 425/258/27
f 425/258/27 429/262/27 428/261/27
f 428/261/27 429/262/27 430/263/27
f 431/276/32 433/277/75 432/278/76
f 432/278/76 433/277/75 434/279/75
f 433/277/75 435/280/77 434/279/75
f 434/279/75 435/280/77 436/281/78
f 435/280/77 437/282/30 436/281/78
f 436/281/78 437/282/30 438/283/30
f 439/284/34 441/285/79 440/286/34
f 440/286/34 441/285/79 442/287/79
f 441/285/79 443/288/80 442/287/79
f 442/287/79 443/288/80 444/289/80
f 443/288/80 445/290/81 444/289/80
f 445/290/81 447/291/82 446/292/81
f 444/289/80 445/290/81 446/292/81
f 446/292/81 447/291/82 448/293/82
f 448/293/82 447/291/82 449/294/83
f 449/294/83 447/291/82 450/295/83
f 449/294/83 450/295/83 451/296/63
f 451/296/63 450/295/83 452/297/84
f 452/297/84 453/298/85 451/296/63
f 454/299/86 453/298/85 455/300/48
f 451/296/63 453/298/85 454/299/86
f 455/300/48 453/298/85 456/301/48
f 457/302/87 459/303/88 458/304/89
f 458/304/89 459/303/88 460/305/90
f 459/303/88 461/306/91 460/305/90
f 460/305/90 461/306/91 462/307/92
f 462/307/92 461/306/91 463/308/93
f 463/308/93 461/306/91 464/309/94
f 464/309/94 465/310/95 463/308/93
f 466/311/96 465/310/95 464/309/94
f 467/312/97 465/310/95 466/311/96
f 467/312/97 469/313/98 468/314/99
f 468/314/99 465/310/95 467/312/97
f 470/315/100 469/313/98 467/312/97
f 470/315/100 471/316/101 469/313/98
f 472/317/102 471/316/101 470/315/100
f 472/317/102 473/318/103 471/316/101
f 471/316/101 473/318/103 474/319/104
f 473/318/103 475/320/105 474/319/104
f 475/320/105 477/321/106 476/322/107
f 474/319/104 475/320/105 476/322/107
f 476/322/107 477/321/106 478/323/108
f 478/323/108 477/321/106 479/324/109
f 479/324/109 477/321/106 480/325/110
f 480/325/110 481/326/111 479/324/109
f 479/324/109 481/326/111 482/327/112
f 483/328/113 482/327/112 481/326/111
f 483/328/113 485/329/114 484/330/115
f 484/330/115 482/327/112 483/328/113
f 486/331/116 485/329/114 483/328/113
f 486/331/116 487/332/117 485/329/114
f 488/333/118 487/332/117 486/331/116
f 488/333/118 489/334/119 487/332/117
f 487/332/117 489/334/119 490/335/120
f 491/336/121 493/337/46 492/338/46
f 494/339/121 493/337/46 491/336/121
f 491/336/121 495/340/122 494/339/121
f 494/339/121 495/340/122 496/341/122
f 497/264/66 499/266/67 498/265/66
f 498/265/66 499/266/67 500/267/67
f 499/266/67 501/268/69 500/267/67
f 500/267/67 501/268/69 502/269/123
f 502/269/123 501/268/69 503/270/70
f 503/270/70 501/268/69 504/271/70
f 504/271/70 505/272/72 503/270/70
f 505/272/72 507/274/74 506/273/72
f 503/270/70 505/272/72 506/273/72
f 508/275/74 507/274/74 505/272/72
f 509/342/27 511/343/27 510/344/27
f 509/342/27 512/345/27 511/343/27
f 513/346/27 512/345/27 509/342/27
f 513/346/27 514/347/27 512/345/27
f 512/345/27 514/347/27 515/348/8
f 516/349/58 518/350/124 517/351/58
f 519/352/125 518/350/124 516/349/58
f 520/353/126 519/352/125 521/354/126
f 518/350/124 519/352/125 520/353/126
f 520/353/126 521/354/126 522/355/55
f 522/355/55 521/354/126 523/356/55
f 522/355/55 523/356/55 524/357/127
f 524/357/127 523/356/55 525/358/127
f 524/357/127 525/358/127 526/359/128
f 526/359/128 525/358/127 527/360/129
f 527/360/129 528/361/30 526/359/128
f 526/359/128 528/361/30 529/362/30
f 533/345/20 530/342/20 531/343/20
f 530/342/20 532/344/20 531/343/20
f 534/346/20 530/342/20 533/345/20
f 533/345/20 535/347/20 534/346/20
f 536/348/20 535/347/20 533/345/20
f 537/363/130 539/364/130 538/365/130
f 538/365/130 539/364/130 540/366/130
f 539/364/130 541/367/8 540/366/130
f 540/366/130 541/367/8 542/368/27
f 541/367/8 543/369/27 542/368/27
f 542/368/27 543/369/27 544/370/27
f 545/371/27 542/368/27 544/370/27
f 545/371/27 544/370/27 546/372/27
f 546/372/27 544/370/27 547/373/27
f 548/365/131 550/364/131 549/363/131
f 551/366/131 550/364/131 548/365/131
f 550/364/131 551/366/131 552/367/132
f 552/367/132 551/366/131 553/368/20
f 554/369/20 553/368/20 555/370/20
f 552/367/132 553/368/20 554/369/20
f 556/371/20 555/370/20 553/368/20
f 556/371/20 557/372/20 555/370/20
f 555/370/20 557/372/20 558/373/20
f 559/374/46 561/375/46 560/376/46
f 560/376/46 561/375/46 562/377/46
f 561/375/46 563/378/46 562/377/46
f 562/377/46 563/378/46 564/379/46
f 563/378/46 565/380/46 564/379/46
f 564/379/46 565/380/46 566/381/46
f 565/380/46 567/382/46 566/381/46
f 566/381/46 567/382/46 568/383/46
f 567/382/46 569/384/46 568/383/46
f 568/383/46 569/384/46 570/385/46
f 569/384/46 571/386/46 570/385/46
f 570/385/46 571/386/46 572/387/46
f 571/386/46 573/388/46 572/387/46
f 572/387/46 573/388/46 574/389/46
f 573/388/46 575/390/46 574/389/46
f 574/389/46 575/390/46 576/391/46
f 575/390/46 577/392/46 576/391/46
f 576/391/46 577/392/46 578/393/46
f 577/392/46 579/394/46 578/393/46
f 578/393/46 579/394/46 580/395/46
f 579/394/46 581/396/46 580/395/46
f 580/395/46 581/396/46 582/397/46
f 581/396/46 583/398/46 582/397/46
f 582/397/46 583/398/46 584/399/46
f 585/400/2 587/401/4 586/402/2
f 586/402/2 587/401/4 588/403/4
f 587/401/4 589/404/6 588/403/4
f 588/403/4 589/404/6 590/405/6
f 589/404/6 591/406/8 590/405/6
f 590/405/6 591/406/8 592/407/27
f 591/406/8 593/408/10 592/407/27
f 592/407/27 593/408/10 594/409/10
f 593/408/10 595/410/12 594/409/10
f 594/409/10 595/410/12 596/411/12
f 595/410/12 597/412/14 596/411/12
f 596/411/12 597/412/14 598/413/14
f 597/412/14 599/414/16 598/413/14
f 598/413/14 599/414/16 600/415/16
f 599/414/16 601/416/18 600/415/16
f 600/415/16 601/416/18 602/417/18
f 601/416/18 603/418/20 602/417/18
f 602/417/18 603/418/20 604/419/20
f 603/418/20 605/420/22 604/419/20
f 604/419/20 605/420/22 606/421/22
f 605/420/22 607/422/24 606/421/22
f 606/421/22 607/422/24 608/423/24
f 607/422/24 609/424/26 608/423/24
f 608/423/24 609/424/26 610/425/26
f 611/337/46 613/336/121 612/338/46
f 614/339/121 613/336/121 611/337/46
f 615/340/122 614/339/121 616/341/122
f 613/336/121 614/339/121 615/340/122
f 617/426/27 619/427/27 618/428/27
f 618/428/27 619/427/27 620/429/27
f 621/430/27 618/428/27 620/429/27
f 622/431/8 618/428/27 621/430/27
f 623/428/20 625/427/20 624/426/20
f 626/429/20 625/427/20 623/428/20
f 623/428/20 627/430/20 626/429/20
f 628/431/20 627/430/20 623/428/20
f 628/431/20 629/432/20 627/430/20
f 627/430/20 629/432/20 630/433/20
f 631/434/133 633/435/134 632/436/135
f 633/435/134 631/434/133 634/437/136
f 634/437/136 631/434/133 635/438/136
f 636/439/137 635/438/136 631/434/133
f 637/440/138 636/439/137 638/441/138
f 637/440/138 635/438/136 636/439/137
f 638/441/138 636/439/137 639/442/139
f 639/442/139 636/439/137 640/443/135
f 637/440/138 638/441/138 641/444/30
f 634/437/136 635/438/136 642/445/30
f 644/435/140 646/437/141 643/434/142
f 643/434/142 645/436/58 644/435/140
f 643/434/142 646/437/141 647/438/143
f 647/438/143 648/439/144 643/434/142
f 649/440/145 648/439/144 647/438/143
f 649/440/145 650/441/146 648/439/144
f 648/439/144 650/441/146 651/442/147
f 651/442/147 652/443/58 648/439/144
f 649/440/145 653/444/34 650/441/146
f 646/437/141 654/445/34 647/438/143
f 656/435/139 658/437/138 655/434/137
f 655/434/137 657/436/135 656/435/139
f 655/434/137 658/437/138 659/438/138
f 659/438/138 660/439/133 655/434/137
f 661/440/136 662/441/136 660/439/133
f 661/440/136 660/439/133 659/438/138
f 660/439/133 662/441/136 663/442/134
f 663/442/134 664/443/135 660/439/133
f 661/440/136 665/444/30 662/441/136
f 658/437/138 666/445/30 659/438/138
f 667/434/144 669/435/147 668/436/58
f 669/435/147 667/434/144 670/437/146
f 670/437/146 667/434/144 671/438/148
f 672/439/149 671/438/148 667/434/144
f 673/440/143 671/438/148 672/439/149
f 673/440/143 672/439/149 674/441/141
f 674/441/141 672/439/149 675/442/140
f 675/442/140 672/439/149 676/443/58
f 673/440/143 674/441/141 677/444/34
f 670/437/146 671/438/148 678/445/34
f 679/446/27 681/447/27 680/448/27
f 681/447/27 682/449/27 680/448/27
f 680/448/27 682/449/27 683/450/27
f 683/450/27 682/449/27 684/451/27
f 685/452/8 683/450/27 686/453/8
f 680/448/27 683/450/27 685/452/8
f 685/452/8 686/453/8 687/454/8
f 687/454/8 686/453/8 688/455/8
f 686/453/8 689/456/8 688/455/8
f 685/452/8 687/454/8 690/457/8
f 691/446/132 693/448/132 692/447/132
f 692/447/132 693/448/132 694/449/132
f 694/449/132 693/448/132 695/450/132
f 693/448/132 696/452/132 695/450/132
f 695/450/132 696/452/132 697/453/132
f 696/452/132 698/454/132 697/453/132
f 696/452/132 699/457/132 698/454/132
f 697/453/132 698/454/132 700/455/132
f 697/453/132 700/455/132 701/456/132
f 695/450/132 702/451/132 694/449/132
f 703/446/20 705/448/20 704/447/20
f 704/447/20 705/448/20 706/449/20
f 706/449/20 705/448/20 707/450/20
f 705/448/20 708/452/150 707/450/20
f 707/450/20 708/452/150 709/453/132
f 708/452/150 710/454/132 709/453/132
f 708/452/150 711/457/132 710/454/132
f 709/453/132 710/454/132 712/455/132
f 709/453/132 712/455/132 713/456/132
f 707/450/20 714/451/20 706/449/20
f 715/446/8 717/447/8 716/448/8
f 717/447/8 718/449/8 716/448/8
f 716/448/8 718/449/8 719/450/8
f 719/450/8 718/449/8 720/451/8
f 716/448/8 719/450/8 721/452/8
f 721/452/8 719/450/8 722/453/8
f 721/452/8 722/453/8 723/454/8
f 723/454/8 722/453/8 724/455/8
f 722/453/8 725/456/8 724/455/8
f 721/452/8 723/454/8 726/457/8
f 727/428/20 729/427/20 728/426/20
f 730/429/20 729/427/20 727/428/20
f 727/428/20 731/430/20 730/429/20
f 732/431/20 731/430/20 727/428/20
f 733/426/27 735/427/27 734/428/27
f 734/428/27 735/427/27 736/429/27
f 737/430/27 734/428/27 736/429/27
f 738/431/27 734/428/27 737/430/27
f 738/431/27 737/430/27 739/432/27
f 739/432/27 737/430/27 740/433/27
f 741/458/43 743/459/43 742/460/43
f 744/461/43 743/459/43 741/458/43
f 744/461/43 746/462/43 745/463/48
f 744/461/43 745/463/48 743/459/43
f 747/464/43 746/462/43 744/461/43
f 748/465/48 746/462/43 747/464/43
f 748/465/48 747/464/43 749/466/43
f 749/466/43 747/464/43 750/467/48
f 750/467/48 747/464/43 751/468/48
f 751/468/48 747/464/43 752/469/43
f 751/468/48 752/469/43 753/470/43
f 754/470/48 756/469/43 755/471/43
f 755/471/43 756/469/43 757/472/48
f 757/472/48 756/469/43 758/458/43
f 757/472/48 758/458/43 759/473/48
f 759/473/48 758/458/43 760/460/43
f 764/474/151 761/475/152 762/476/153
f 761/475/152 763/477/154 762/476/153
f 762/476/153 765/478/155 764/474/151
f 762/476/153 766/479/156 765/478/155
f 765/478/155 766/479/156 767/480/157
f 768/481/158 767/480/157 766/479/156
f 769/482/159 768/481/158 766/479/156
f 766/479/156 770/483/160 769/482/159
f 766/479/156 771/484/161 770/483/160
f 770/483/160 771/484/161 772/485/162
f 773/486/163 772/485/162 771/484/161
f 774/487/164 773/486/163 771/484/161
f 771/484/161 775/488/165 774/487/164
f 775/488/165 771/484/161 776/489/166
f 777/490/167 776/489/166 778/491/168
f 776/489/166 771/484/161 778/491/168
f 762/476/153 778/491/168 766/479/156
f 778/491/168 762/476/153 779/492/169
f 778/491/168 779/492/169 780/493/170
f 780/493/170 777/490/167 778/491/168
f 771/484/161 766/479/156 778/491/168
f 779/492/169 762/476/153 763/477/154
f 781/494/171 783/495/172 782/496/173
f 781/494/171 784/497/174 783/495/172
f 785/498/175 784/497/174 786/499/176
f 783/495/172 784/497/174 785/498/175
f 786/499/176 784/497/174 787/500/177
f 788/501/178 786/499/176 787/500/177
f 789/502/179 788/501/178 790/503/180
f 789/502/179 786/499/176 788/501/178
f 790/503/180 791/504/181 789/502/179
f 792/505/182 791/504/181 790/503/180
f 792/505/182 793/506/183 791/504/181
f 793/506/183 795/507/184 794/508/185
f 791/504/181 793/506/183 794/508/185
f 794/508/185 795/507/184 796/509/186
f 795/507/184 797/510/187 796/509/186
f 797/510/187 798/511/188 796/509/186
f 799/512/189 798/511/188 797/510/187
f 799/512/189 800/513/190 798/511/188
f 798/511/188 800/513/190 801/514/191
f 802/515/192 801/514/191 800/513/190
f 803/516/193 801/514/191 802/515/192
f 803/516/193 802/515/192 804/517/194
f 805/518/195 803/516/193 804/517/194
f 805/518/195 806/519/196 808/520/197
f 807/521/198 806/519/196 805/518/195
f 808/520/197 803/516/193 805/518/195
f 782/496/173 806/519/196 807/521/198
f 783/495/172 806/519/196 782/496/173
f 809/522/199 810/523/200 813/524/201
f 809/522/199 811/525/202 810/523/200
f 812/526/203 811/525/202 809/522/199
f 813/524/201 812/526/203 809/522/199
f 813/524/201 810/523/200 814/527/23
f 813/524/201 815/528/204 812/526/203
f 813/524/201 814/527/23 816/529/205
f 816/529/205 815/528/204 813/524/201
f 816/529/205 817/530/206 819/531/207
f 816/529/205 814/527/23 817/530/206
f 819/531/207 818/532/208 816/529/205
f 816/529/205 818/532/208 815/528/204
f 819/531/207 817/530/206 820/533/19
f 819/531/207 821/534/209 818/532/208
f 819/531/207 820/533/19 821/534/209
f 821/534/209 822/535/17 824/536/210
f 821/534/209 820/533/19 822/535/17
f 823/537/211 821/534/209 824/536/210
f 825/538/212 821/534/209 823/537/211
f 818/532/208 821/534/209 825/538/212
f 825/538/212 826/539/9 818/532/208
f 825/538/212 827/540/213 826/539/9
f 823/537/211 827/540/213 825/538/212
f 823/537/211 828/541/214 827/540/213
f 829/542/215 828/541/214 823/537/211
f 829/542/215 830/543/216 828/541/214
f 824/536/210 822/535/17 830/543/216
f 824/536/210 830/543/216 829/542/215
f 823/537/211 824/536/210 829/542/215
f 818/532/208 826/539/9 831/544/7
f 831/544/7 815/528/204 818/532/208
f 832/545/217 815/528/204 831/544/7
f 812/526/203 832/545/217 811/525/202
f 815/528/204 832/545/217 812/526/203
f 833/143/33 835/145/33 834/144/33
f 834/144/33 835/145/33 836/146/49
