# Blender 5.2.2 LTS
# www.blender.org
mtllib Tank4.mtl
o Turret2
v 0.990194 -0.022549 0.023885
v 0.990094 -0.003449 0.012885
v 0.988794 0.002551 0.015185
v 0.988894 -0.022549 0.029785
v 0.990094 -0.003649 -0.008815
v 0.988794 0.002451 -0.013315
v 0.989994 -0.022849 -0.019515
v 0.988694 -0.022849 -0.027315
v 0.990094 -0.041849 -0.008415
v 0.988794 -0.047949 -0.012715
v 0.990194 -0.041749 0.013285
v 0.988894 -0.047749 0.015785
v 0.990094 -0.003449 0.012885
v 0.990194 -0.022549 0.023885
v 0.754394 -0.022849 0.003085
v 0.990094 -0.003649 -0.008815
v 0.989994 -0.022849 -0.019515
v 0.990094 -0.041849 -0.008415
v 0.990194 -0.041749 0.013285
v 0.988894 -0.022549 0.029785
v 0.988794 0.002551 0.015185
v 0.837994 -0.009349 0.009785
v 0.837994 -0.022749 0.017585
v 0.988794 0.002451 -0.013315
v 0.837894 -0.009349 -0.005515
v 0.988694 -0.022849 -0.027315
v 0.837894 -0.022849 -0.012915
v 0.988794 -0.047949 -0.012715
v 0.837994 -0.036349 -0.005215
v 0.988894 -0.047749 0.015785
v 0.837994 -0.036249 0.010085
v 0.837994 -0.022749 0.017585
v 0.837994 -0.009349 0.009785
v 0.276794 -0.009649 0.009385
v 0.276894 -0.023049 0.017085
v 0.837894 -0.009349 -0.005515
v 0.276794 -0.009749 -0.005915
v 0.837894 -0.022849 -0.012915
v 0.276794 -0.023249 -0.013415
v 0.837994 -0.036349 -0.005215
v 0.276794 -0.036649 -0.005615
v 0.837994 -0.036249 0.010085
v 0.276894 -0.036549 0.009685
v -0.086006 -0.077249 0.061385
v -0.086006 -0.077249 -0.050815
v 0.140594 -0.077249 -0.092815
v 0.140594 -0.077249 0.103385
v 0.415194 -0.077249 -0.092815
v 0.415194 -0.077249 0.103385
v 0.625594 -0.066349 -0.047715
v 0.625594 -0.066349 0.058285
v -0.086006 0.058551 0.061385
v 0.140594 0.096951 0.103385
v 0.140594 0.096951 -0.092815
v -0.086006 0.058551 -0.050815
v 0.415194 0.096951 0.103385
v 0.415194 0.096951 -0.092815
v 0.625594 0.027851 0.058285
v 0.625594 0.027851 -0.047715
v -0.086006 -0.077249 0.061385
v 0.140594 -0.077249 0.103385
v 0.140594 0.096951 0.103385
v -0.086006 0.058551 0.061385
v 0.415194 -0.077249 0.103385
v 0.415194 0.096951 0.103385
v 0.625594 -0.066349 0.058285
v 0.625594 0.027851 0.058285
v 0.625594 -0.066349 0.058285
v 0.625594 -0.066349 -0.047715
v 0.625594 0.027851 -0.047715
v 0.625594 0.027851 0.058285
v 0.625594 -0.066349 -0.047715
v 0.415194 -0.077249 -0.092815
v 0.415194 0.096951 -0.092815
v 0.625594 0.027851 -0.047715
v 0.140594 -0.077249 -0.092815
v 0.140594 0.096951 -0.092815
v -0.086006 -0.077249 -0.050815
v -0.086006 0.058551 -0.050815
v -0.086006 -0.077249 -0.050815
v -0.086006 -0.077249 0.061385
v -0.086006 0.058551 0.061385
v -0.086006 0.058551 -0.050815
vn 0.9766 0.0055 0.2152
vn 0.9791 0.1678 0.1147
vn 0.9799 0.1772 0.0917
vn 0.9765 0.0038 0.2154
vn 0.9853 0.1508 -0.0800
vn 0.9855 0.1429 -0.0916
vn 0.9864 -0.0031 -0.1646
vn 0.9864 -0.0015 -0.1646
vn 0.9849 -0.1533 -0.0809
vn 0.9852 -0.1450 -0.0916
vn 0.9797 -0.1646 0.1141
vn 0.9805 -0.1731 0.0928
vn 0.0917 -0.8646 -0.4940
vn 0.0879 -0.0081 -0.9961
vn 1.0000 0.0007 -0.0037
vn 0.0954 -0.8562 0.5078
vn 0.0955 0.0098 0.9954
vn 0.0938 0.8653 0.4924
vn 0.0906 0.8565 -0.5081
vn -0.0806 0.0092 0.9967
vn -0.0857 0.8653 0.4939
vn -0.0859 0.8628 0.4982
vn -0.0806 0.0098 0.9967
vn -0.0935 0.8564 -0.5078
vn -0.0936 0.8568 -0.5070
vn -0.0946 -0.0101 -0.9955
vn -0.0946 -0.0076 -0.9955
vn -0.0910 -0.8650 -0.4935
vn -0.0919 -0.8633 -0.4963
vn -0.0845 -0.8576 0.5073
vn -0.0846 -0.8560 0.5100
vn -0.0008 0.0101 0.9999
vn -0.0009 0.8663 0.4995
vn -0.0009 0.8678 0.4969
vn -0.0008 0.0110 0.9999
vn -0.0002 0.8612 -0.5082
vn -0.0001 0.8601 -0.5102
vn 0.0008 -0.0095 -1.0000
vn 0.0008 -0.0103 -0.9999
vn 0.0008 -0.8670 -0.4983
vn 0.0010 -0.8678 -0.4968
vn -0.0000 -0.8600 0.5102
vn 0.0001 -0.8595 0.5111
vn -0.0000 -1.0000 -0.0000
vn 0.0240 -0.9997 -0.0000
vn 0.0517 -0.9987 -0.0000
vn -0.1671 0.9859 -0.0000
vn -0.0787 0.9969 -0.0000
vn 0.1472 0.9891 -0.0000
vn 0.3120 0.9501 -0.0000
vn -0.1822 -0.0000 0.9833
vn -0.0915 -0.0000 0.9958
vn -0.0864 -0.0000 0.9963
vn 0.1037 -0.0000 0.9946
vn 0.0938 -0.0000 0.9956
vn 0.2096 -0.0000 0.9778
vn 1.0000 -0.0000 -0.0000
vn 0.2096 -0.0000 -0.9778
vn 0.1037 -0.0000 -0.9946
vn 0.0938 -0.0000 -0.9956
vn -0.0915 -0.0000 -0.9958
vn -0.0864 -0.0000 -0.9963
vn -0.1822 -0.0000 -0.9833
vn -1.0000 -0.0000 -0.0000
vt 0.660600 0.011700
vt 0.660600 0.005300
vt 0.660300 0.003300
vt 0.660300 0.011600
vt 0.660600 0.005400
vt 0.660300 0.011800
vt 0.660600 0.018100
vt 0.660300 0.020100
vt 0.603900 0.011800
vt 0.624000 0.007200
vt 0.624000 0.011700
vt 0.624000 0.007300
vt 0.624000 0.011800
vt 0.624000 0.016200
vt 0.489000 0.007400
vt 0.489000 0.011800
vt 0.489000 0.011900
vt 0.489000 0.016400
vt 0.489000 0.016300
vt 0.495000 0.121900
vt 0.495000 0.096600
vt 0.550300 0.087200
vt 0.550300 0.131300
vt 0.617300 0.087200
vt 0.617300 0.131300
vt 0.668700 0.097300
vt 0.668700 0.121200
vt 0.494200 0.079100
vt 0.548800 0.079100
vt 0.548800 0.021000
vt 0.494200 0.033800
vt 0.614800 0.079100
vt 0.614800 0.021000
vt 0.665500 0.075400
vt 0.665500 0.044000
s 1
usemtl t_90am_turret_6
f 1/1/1 2/2/2 3/3/3
f 3/3/3 4/4/4 1/1/1
f 2/2/2 5/5/5 6/3/6
f 6/3/6 3/3/3 2/2/2
f 5/5/5 7/1/7 8/6/8
f 8/6/8 6/3/6 5/5/5
f 7/1/7 9/7/9 10/8/10
f 10/8/10 8/6/8 7/1/7
f 9/7/9 11/7/11 12/8/12
f 12/8/12 10/8/10 9/7/9
f 11/7/11 1/1/1 4/4/4
f 4/4/4 12/8/12 11/7/11
f 13/2/13 14/1/14 15/9/15
f 16/5/16 13/2/13 15/9/15
f 17/1/17 16/5/16 15/9/15
f 18/7/18 17/1/17 15/9/15
f 19/7/19 18/7/18 15/9/15
f 14/1/14 19/7/19 15/9/15
f 20/4/20 21/3/21 22/10/22
f 22/10/22 23/11/23 20/4/20
f 21/3/21 24/3/24 25/12/25
f 25/12/25 22/10/22 21/3/21
f 24/3/24 26/6/26 27/13/27
f 27/13/27 25/12/25 24/3/24
f 26/6/26 28/8/28 29/14/29
f 29/14/29 27/13/27 26/6/26
f 28/8/28 30/8/30 31/14/31
f 31/14/31 29/14/29 28/8/28
f 30/8/30 20/4/20 23/11/23
f 23/11/23 31/14/31 30/8/30
f 32/11/32 33/10/33 34/15/34
f 34/15/34 35/16/35 32/11/32
f 33/10/33 36/12/36 37/15/37
f 37/15/37 34/15/34 33/10/33
f 36/12/36 38/13/38 39/17/39
f 39/17/39 37/15/37 36/12/36
f 38/13/38 40/14/40 41/18/41
f 41/18/41 39/17/39 38/13/38
f 40/14/40 42/14/42 43/19/43
f 43/19/43 41/18/41 40/14/40
f 42/14/42 32/11/32 35/16/35
f 35/16/35 43/19/43 42/14/42
f 44/20/44 45/21/44 46/22/44
f 46/22/44 47/23/44 44/20/44
f 47/23/44 46/22/44 48/24/45
f 48/24/45 49/25/45 47/23/44
f 49/25/45 48/24/45 50/26/46
f 50/26/46 51/27/46 49/25/45
f 52/20/47 53/23/48 54/22/48
f 54/22/48 55/21/47 52/20/47
f 53/23/48 56/25/49 57/24/49
f 57/24/49 54/22/48 53/23/48
f 56/25/49 58/27/50 59/26/50
f 59/26/50 57/24/49 56/25/49
f 60/28/51 61/29/52 62/30/53
f 62/30/53 63/31/51 60/28/51
f 61/29/52 64/32/54 65/33/55
f 65/33/55 62/30/53 61/29/52
f 64/32/54 66/34/56 67/35/56
f 67/35/56 65/33/55 64/32/54
f 68/34/57 69/34/57 70/35/57
f 70/35/57 71/35/57 68/34/57
f 72/34/58 73/32/59 74/33/60
f 74/33/60 75/35/58 72/34/58
f 73/32/59 76/29/61 77/30/62
f 77/30/62 74/33/60 73/32/59
f 76/29/61 78/28/63 79/31/63
f 79/31/63 77/30/62 76/29/61
f 80/28/64 81/28/64 82/31/64
f 82/31/64 83/31/64 80/28/64
