# Blender 5.2.2 LTS
# www.blender.org
mtllib Tank3.mtl
o Turret
v 2.363300 0.040536 0.034400
v 2.363400 -0.014664 0.068300
v 4.862899 -0.006864 0.073000
v 4.862799 0.048336 0.039000
v 2.363300 0.061036 -0.027100
v 4.862799 0.068936 -0.022500
v 2.363500 0.037236 -0.087500
v 4.862999 0.045036 -0.082800
v 2.363700 -0.019764 -0.118400
v 4.863299 -0.011964 -0.113700
v 2.363900 -0.083364 -0.105400
v 4.863400 -0.075464 -0.100700
v 2.363900 -0.123664 -0.054600
v 4.863499 -0.115864 -0.049900
v 2.363800 -0.121864 0.010300
v 4.863299 -0.114064 0.014900
v 2.363600 -0.078864 0.058800
v 4.863100 -0.071064 0.063400
v 1.520500 0.055536 0.046800
v 1.520600 -0.012864 0.088800
v 1.520600 0.080936 -0.029300
v 1.520800 0.051436 -0.103900
v 1.521100 -0.019064 -0.142200
v 1.521300 -0.097764 -0.126100
v 1.521300 -0.147664 -0.063200
v 1.521200 -0.145464 0.017000
v 1.520900 -0.092164 0.077000
v -0.052300 -0.006664 0.139900
v 0.382600 -0.005864 0.138200
v 0.382400 0.093136 0.077400
v -0.052500 0.093836 0.078200
v 0.382500 0.116136 -0.032500
v -0.052300 0.117336 -0.033400
v 0.382800 0.087236 -0.140900
v -0.052000 0.087836 -0.143400
v 0.383200 -0.014964 -0.196200
v -0.051600 -0.015964 -0.199600
v 0.383500 -0.128764 -0.173000
v -0.051300 -0.131464 -0.176000
v 0.383600 -0.200964 -0.082000
v -0.051200 -0.204864 -0.083600
v 0.383400 -0.197864 0.034200
v -0.051500 -0.201664 0.034300
v 0.383000 -0.120764 0.121100
v -0.051900 -0.123364 0.122600
v 3.275500 0.058836 -0.102300
v 3.275300 0.088936 -0.026100
v 3.275300 0.062936 0.051600
v 3.275399 -0.006864 0.094500
v 3.275700 -0.087864 0.082500
v 3.275900 -0.142264 0.021100
v 3.276099 -0.144464 -0.060800
v 3.276099 -0.093564 -0.125000
v 3.275800 -0.013264 -0.141400
v 2.442900 0.060336 0.050100
v 2.443100 -0.009464 0.093000
v 3.275399 -0.006864 0.094500
v 3.275300 0.062936 0.051600
v 2.443000 0.086336 -0.027700
v 3.275300 0.088936 -0.026100
v 2.443200 0.056236 -0.103900
v 3.275500 0.058836 -0.102300
v 2.443500 -0.015864 -0.142900
v 3.275800 -0.013264 -0.141400
v 2.443800 -0.096164 -0.126500
v 3.276099 -0.093564 -0.125000
v 2.443800 -0.147064 -0.062300
v 3.276099 -0.144464 -0.060800
v 2.443600 -0.144864 0.019600
v 3.275900 -0.142264 0.021100
v 2.443400 -0.090464 0.080900
v 3.275700 -0.087864 0.082500
v 2.448500 0.065936 -0.112500
v 2.448200 0.099336 -0.028000
v 2.448100 0.070536 0.058200
v 2.448300 -0.006864 0.105700
v 2.448600 -0.096664 0.092400
v 2.448900 -0.156964 0.024400
v 2.449100 -0.159464 -0.066400
v 2.449000 -0.102964 -0.137600
v 2.448800 -0.013964 -0.155800
v 2.416600 0.070436 0.058100
v 2.416700 -0.006964 0.105600
v 2.448300 -0.006864 0.105700
v 2.448100 0.070536 0.058200
v 2.416700 0.099236 -0.028100
v 2.448200 0.099336 -0.028000
v 2.416900 0.065836 -0.112600
v 2.448500 0.065936 -0.112500
v 2.417200 -0.014064 -0.155800
v 2.448800 -0.013964 -0.155800
v 2.417500 -0.103064 -0.137600
v 2.449000 -0.102964 -0.137600
v 2.417500 -0.159464 -0.066500
v 2.449100 -0.159464 -0.066400
v 2.417400 -0.157064 0.024300
v 2.448900 -0.156964 0.024400
v 2.417000 -0.096764 0.092300
v 2.448600 -0.096664 0.092400
v 2.417200 -0.014064 -0.155800
v 2.417500 -0.103064 -0.137600
v 2.417500 -0.159464 -0.066500
v 2.417400 -0.157064 0.024300
v 2.417000 -0.096764 0.092300
v 2.416700 -0.006964 0.105600
v 2.416600 0.070436 0.058100
v 2.416700 0.099236 -0.028100
v 2.416900 0.065836 -0.112600
v 4.075200 0.058136 -0.023800
v 3.375900 0.055936 -0.025100
v 3.375799 0.090736 -0.026000
v 4.075099 0.092936 -0.024700
v 4.075200 0.058136 -0.023700
v 4.075099 0.092936 -0.024700
v 3.375799 0.090736 -0.026000
v 3.375900 0.055936 -0.025000
v 4.726699 0.060136 -0.022600
v 4.139100 0.058336 -0.023600
v 4.138999 0.093136 -0.024600
v 4.726500 0.094936 -0.023500
v 4.726699 0.060136 -0.022500
v 4.726500 0.094936 -0.023400
v 4.138999 0.093136 -0.024500
v 4.139100 0.058336 -0.023600
v 2.340200 0.052736 -0.027000
v 1.561100 0.068136 -0.028900
v 1.561000 0.102936 -0.029900
v 2.340100 0.087436 -0.027900
v 2.340200 0.052736 -0.026900
v 2.340100 0.087436 -0.027900
v 1.561000 0.102936 -0.029800
v 1.561100 0.068136 -0.028900
v 1.465700 0.065536 -0.029000
v 0.686600 0.073336 -0.030700
v 0.686500 0.108036 -0.031700
v 1.465600 0.100336 -0.030000
v 1.465700 0.065536 -0.029000
v 1.465600 0.100336 -0.029900
v 0.686500 0.108136 -0.031600
v 0.686600 0.073336 -0.030700
v 4.862999 -0.011064 0.052700
v 4.862899 0.032136 0.026200
v 4.862799 0.048336 0.039000
v 4.862899 -0.006864 0.073000
v 4.863100 -0.061164 0.045300
v 4.863100 -0.071064 0.063400
v 4.863299 -0.094864 0.007300
v 4.863299 -0.114064 0.014900
v 4.863400 -0.096164 -0.043400
v 4.863499 -0.115864 -0.049900
v 4.863400 -0.064664 -0.083100
v 4.863400 -0.075464 -0.100700
v 4.863199 -0.014964 -0.093300
v 4.863299 -0.011964 -0.113700
v 4.863100 0.029536 -0.069100
v 4.862999 0.045036 -0.082800
v 4.862899 0.048236 -0.021900
v 4.862799 0.068936 -0.022500
v 4.862899 0.032136 0.026200
v 4.862999 -0.011064 0.052700
v 3.311599 -0.030764 -0.022800
v 4.862999 -0.011064 0.052700
v 4.863100 -0.061164 0.045300
v 3.311599 -0.030764 -0.022800
v 4.863100 -0.061164 0.045300
v 4.863299 -0.094864 0.007300
v 3.311599 -0.030764 -0.022800
v 4.863299 -0.094864 0.007300
v 4.863400 -0.096164 -0.043400
v 3.311599 -0.030764 -0.022800
v 4.863400 -0.096164 -0.043400
v 4.863400 -0.064664 -0.083100
v 3.311599 -0.030764 -0.022800
v 4.863400 -0.064664 -0.083100
v 4.863199 -0.014964 -0.093300
v 3.311599 -0.030764 -0.022800
v 4.863199 -0.014964 -0.093300
v 4.863100 0.029536 -0.069100
v 3.311599 -0.030764 -0.022800
v 4.863100 0.029536 -0.069100
v 4.862899 0.048236 -0.021900
v 3.311599 -0.030764 -0.022800
v 4.862899 0.048236 -0.021900
v 4.862899 0.032136 0.026200
v 3.311599 -0.030764 -0.022800
v 4.833200 0.049236 0.035200
v 4.832999 0.130036 0.006900
v 4.806399 0.129936 0.006900
v 4.806600 0.049136 0.035200
v 4.833499 0.046136 -0.079200
v 4.806900 0.046036 -0.079200
v 4.806600 0.128236 -0.055900
v 4.833200 0.128336 -0.055800
v 4.806600 0.049136 0.035200
v 4.806399 0.129936 0.006900
v 4.806600 0.128236 -0.055900
v 4.806900 0.046036 -0.079200
v 4.832999 0.130036 0.006900
v 4.833200 0.049236 0.035200
v 4.833499 0.046136 -0.079200
v 4.833200 0.128336 -0.055800
v 4.834599 0.101336 0.002800
v 4.834499 0.129936 0.008600
v 4.784199 0.129736 0.008500
v 4.784299 0.101136 0.002700
v 4.834499 0.152336 -0.010200
v 4.784199 0.152136 -0.010300
v 4.834499 0.151636 -0.039400
v 4.784199 0.151436 -0.039500
v 4.834599 0.128336 -0.057000
v 4.784299 0.128236 -0.057100
v 4.834700 0.100036 -0.049800
v 4.784400 0.099936 -0.049900
v 4.834700 0.088036 -0.023200
v 4.784400 0.087836 -0.023300
v 4.834599 0.101336 0.002800
v 4.834700 0.088036 -0.023200
v 4.834700 0.100036 -0.049800
v 4.834599 0.128336 -0.057000
v 4.834499 0.151636 -0.039400
v 4.834499 0.152336 -0.010200
v 4.834499 0.129936 0.008600
v 4.784400 0.087836 -0.023300
v 4.784299 0.101136 0.002700
v 4.784199 0.129736 0.008500
v 4.784199 0.152136 -0.010300
v 4.784199 0.151436 -0.039500
v 4.784299 0.128236 -0.057100
v 4.784400 0.099936 -0.049900
v 4.821700 -0.127364 0.001900
v 4.821700 -0.114064 -0.009400
v 4.779200 -0.114164 -0.009500
v 4.779200 -0.127564 0.001900
v 4.821700 -0.114564 -0.027000
v 4.821799 -0.128664 -0.037500
v 4.779299 -0.128764 -0.037500
v 4.779200 -0.114764 -0.027000
v 4.821899 -0.145664 -0.033000
v 4.779299 -0.145764 -0.033100
v 4.821799 -0.152764 -0.017000
v 4.779299 -0.152864 -0.017100
v 4.821799 -0.144664 -0.001400
v 4.779299 -0.144764 -0.001500
v 4.821700 -0.127364 0.001900
v 4.821799 -0.144664 -0.001400
v 4.821799 -0.152764 -0.017000
v 4.821899 -0.145664 -0.033000
v 4.821799 -0.128664 -0.037500
v 4.821700 -0.114564 -0.027000
v 4.821700 -0.114064 -0.009400
v 4.779299 -0.144764 -0.001500
v 4.779200 -0.127564 0.001900
v 4.779200 -0.114164 -0.009500
v 4.779200 -0.114764 -0.027000
v 4.779299 -0.128764 -0.037500
v 4.779299 -0.145764 -0.033100
v 4.779299 -0.152864 -0.017100
v 0.663200 0.059736 0.050700
v 0.663400 -0.013764 0.095800
v 0.663300 0.087036 -0.031100
v 0.663600 0.055336 -0.111400
v 0.663900 -0.020464 -0.152400
v 0.664100 -0.104964 -0.135200
v 0.664100 -0.158664 -0.067600
v 0.664000 -0.156264 0.018600
v 0.663700 -0.099064 0.083200
v 0.649500 0.065836 0.055500
v 0.649700 -0.012264 0.103400
v 0.649600 0.094836 -0.031400
v 0.649900 0.061136 -0.116600
v 0.650200 -0.019364 -0.160200
v 0.650400 -0.109164 -0.141800
v 0.650500 -0.166064 -0.070100
v 0.650300 -0.163564 0.021500
v 0.650000 -0.102864 0.090000
v 0.725500 0.022236 -0.336700
v 0.771700 0.022336 -0.136600
v 0.706000 -0.005064 -0.156200
v 0.725500 0.022236 0.360600
v 0.163200 0.234936 0.360600
v 0.235000 -0.237264 0.360600
v 0.287600 -0.231664 0.360600
v 0.235000 -0.237264 -0.336700
v 0.163200 0.234936 -0.336700
v 0.725500 0.022236 -0.336700
v 0.287600 -0.231664 -0.336700
v 0.287600 -0.231664 0.360600
v 0.235000 -0.237264 0.360600
v 0.235000 -0.237264 0.135600
v 0.287600 -0.231664 0.135600
v 0.163200 0.234936 0.011900
v 0.026900 0.234736 0.011900
v -0.024900 0.234636 0.360600
v 0.163200 0.234936 0.360600
v -0.024900 0.234636 0.360600
v 0.030100 -0.101064 0.360600
v 0.030100 -0.101064 -0.336700
v -0.024900 0.234636 -0.336700
v 0.725500 0.022236 0.360600
v 0.768700 0.022336 0.085000
v 0.734000 0.041636 0.082200
v 0.382900 -0.173364 0.135600
v 0.522500 -0.094064 0.135600
v 0.287600 -0.231664 0.360600
v 0.287600 -0.231664 0.135600
v 0.287600 -0.231664 -0.177300
v 0.235000 -0.237264 -0.177300
v 0.235000 -0.237264 -0.336700
v 0.287600 -0.231664 -0.336700
v 0.124800 -0.163964 -0.218600
v 0.030100 -0.101064 -0.336700
v 0.235000 -0.237264 -0.336700
v 0.235000 -0.237264 -0.177300
v 0.235000 -0.237264 0.135600
v 0.124800 -0.163964 0.171000
v 0.124800 -0.163964 -0.023800
v 0.426500 0.009936 -0.169400
v 0.426400 0.057036 -0.152200
v 0.426400 0.095536 -0.120000
v 0.382600 0.120536 -0.076500
v 0.382600 0.129236 -0.027100
v 0.382600 0.120536 0.022300
v 0.426400 0.095536 0.065800
v 0.426400 0.057036 0.098000
v 0.426500 0.009936 0.115200
v 0.382800 -0.040264 -0.169400
v 0.382800 -0.040264 0.115200
v 0.382800 -0.094264 -0.169400
v 0.522500 -0.094064 -0.156200
v 0.617500 -0.039964 -0.156200
v 0.617500 -0.039964 -0.156200
v 0.382800 -0.040264 -0.169400
v 0.382800 -0.094264 -0.169400
v 0.382800 -0.040264 0.115200
v 0.382800 -0.094264 0.115200
v 0.382800 -0.094264 -0.169400
v 0.382800 -0.040264 -0.169400
v 0.124700 -0.094564 -0.177300
v 0.155600 -0.163964 -0.177300
v 0.235000 -0.237264 -0.177300
v 0.287600 -0.231664 -0.177300
v 0.617500 -0.039964 -0.156200
v 0.706000 -0.005064 -0.156200
v 0.426500 0.009936 -0.169400
v 0.382800 -0.040264 -0.169400
v 0.426500 0.009936 0.115200
v 0.706000 -0.005064 0.099700
v 0.617500 -0.039964 0.099700
v 0.382800 -0.040264 0.115200
v 0.426400 0.057036 0.098000
v 0.734000 0.041636 0.082200
v 0.768700 0.022336 0.085000
v 0.382800 -0.040264 0.115200
v 0.522500 -0.094064 0.099700
v 0.522500 -0.094064 0.099700
v 0.382800 -0.094264 0.115200
v 0.382800 -0.040264 0.115200
v 0.522500 -0.094064 0.135600
v 0.382900 -0.173364 0.135600
v 0.382800 -0.094264 0.135600
v 0.382800 -0.094264 0.135600
v 0.382800 -0.094264 0.115200
v 0.522500 -0.094064 0.099700
v 0.522500 -0.094064 0.135600
v 0.382800 -0.094264 -0.177300
v 0.522500 -0.094864 -0.176700
v 0.522500 -0.094064 -0.156200
v 0.382800 -0.094264 -0.169400
v 0.522500 -0.094864 -0.176700
v 0.382800 -0.094264 -0.177300
v 0.287600 -0.231664 0.135600
v 0.124700 -0.094564 0.135600
v 0.426400 0.057036 -0.152200
v 0.771700 0.022336 -0.136600
v 0.734000 0.042036 -0.135500
v 0.677100 0.068636 -0.128300
v 0.426400 0.095536 -0.120000
v 0.382600 0.120536 -0.076500
v 0.633300 0.085336 -0.091000
v 0.382600 0.129236 -0.027100
v 0.618100 0.099836 -0.027100
v 0.382600 0.120536 0.022300
v 0.634000 0.084936 0.037400
v 0.426400 0.095536 0.065800
v 0.677100 0.068536 0.073700
v 0.124700 -0.094564 0.135600
v 0.155600 -0.163964 0.135600
v 0.155600 -0.163964 -0.177300
v 0.124700 -0.094564 -0.177300
v 0.522500 -0.094064 -0.156200
v 0.522500 -0.094864 -0.176700
v 0.287600 -0.231664 -0.177300
v 0.287600 -0.231664 -0.336700
v 0.634000 0.084936 0.037400
v 0.618100 0.099836 -0.027100
v 0.163200 0.234936 0.360600
v 0.677100 0.068536 0.073700
v 0.633300 0.085336 -0.091000
v 0.163200 0.234936 -0.336700
v 0.163200 0.234936 0.011900
v 0.677100 0.068636 -0.128300
v 0.734000 0.042036 -0.135500
v 0.725500 0.022236 -0.336700
v 0.771700 0.022336 -0.136600
v 0.725500 0.022236 0.360600
v 0.522500 -0.094064 0.099700
v 0.706000 -0.005064 0.099700
v 0.768700 0.022336 0.085000
v 0.030100 -0.101064 0.011900
v 0.235000 -0.237264 0.360600
v 0.030100 -0.101064 0.360600
v 0.235000 -0.237264 0.135600
v 0.155600 -0.163964 0.135600
v 0.124700 -0.094564 0.135600
v 0.124700 -0.094564 -0.177300
v 0.163200 0.234936 -0.336700
v -0.024900 0.234636 -0.336700
v 0.030100 -0.101064 -0.336700
v 0.030100 -0.101064 0.011900
v 0.026900 0.234736 0.011900
v -0.024900 0.234636 -0.336700
v 0.026900 0.234736 0.011900
v 0.030100 -0.101064 0.360600
v -0.024900 0.234636 0.360600
v 0.503300 0.261037 -0.098400
v 0.212900 0.261037 -0.098400
v 0.212900 0.261037 0.043200
v 0.503300 0.261037 0.043200
v 0.503300 0.136436 -0.098400
v 0.212900 0.136436 -0.098400
v 0.212900 0.261037 -0.098400
v 0.503300 0.261037 -0.098400
v 0.212900 0.136436 -0.098400
v 0.212900 0.136436 0.043200
v 0.212900 0.261037 0.043200
v 0.212900 0.261037 -0.098400
v 0.212900 0.136436 0.043200
v 0.503300 0.136436 0.043200
v 0.503300 0.261037 0.043200
v 0.212900 0.261037 0.043200
v 0.503300 0.136436 0.043200
v 0.503300 0.136436 -0.098400
v 0.503300 0.261037 -0.098400
v 0.503300 0.261037 0.043200
v 0.498300 0.253936 -0.027500
v 0.498300 0.223236 0.014800
v 0.546500 0.223236 0.014800
v 0.546500 0.253936 -0.027500
v 0.498300 0.173536 -0.001400
v 0.546500 0.173536 -0.001400
v 0.498300 0.173536 -0.053600
v 0.546500 0.173536 -0.053600
v 0.498300 0.223236 -0.069800
v 0.546500 0.223236 -0.069800
v 0.546500 0.223236 -0.069800
v 0.546500 0.253936 -0.027500
v 0.546500 0.223236 0.014800
v 0.546500 0.173536 -0.001400
v 0.546500 0.173536 -0.053600
vn 0.0098 0.7832 0.6217
vn 0.0109 0.2006 0.9796
vn -0.0024 0.2005 0.9797
vn -0.0036 0.7832 0.6218
vn 0.0103 0.9996 -0.0268
vn -0.0031 0.9996 -0.0270
vn 0.0123 0.7487 -0.6628
vn -0.0011 0.7479 -0.6638
vn 0.0148 0.1471 -0.9890
vn 0.0014 0.1469 -0.9892
vn 0.0166 -0.5234 -0.8520
vn 0.0032 -0.5231 -0.8523
vn 0.0170 -0.9486 -0.3159
vn 0.0036 -0.9486 -0.3165
vn 0.0156 -0.9298 0.3677
vn 0.0022 -0.9300 0.3677
vn 0.0132 -0.4760 0.8793
vn -0.0002 -0.4767 0.8791
vn 0.0148 0.7830 0.6218
vn 0.0160 0.2001 0.9796
vn 0.0154 0.9995 -0.0272
vn 0.0173 0.7485 -0.6629
vn 0.0198 0.1474 -0.9889
vn 0.0216 -0.5234 -0.8518
vn 0.0220 -0.9485 -0.3160
vn 0.0207 -0.9296 0.3680
vn 0.0183 -0.4758 0.8793
vn 0.0035 0.2004 0.9797
vn 0.0665 0.2000 0.9775
vn 0.0651 0.8156 0.5750
vn 0.0025 0.8174 0.5761
vn 0.0488 0.9986 -0.0211
vn 0.0027 0.9996 -0.0271
vn 0.0594 0.7799 -0.6231
vn 0.0047 0.7848 -0.6197
vn 0.0702 0.1468 -0.9867
vn 0.0073 0.1468 -0.9891
vn 0.0721 -0.5218 -0.8500
vn 0.0092 -0.5231 -0.8522
vn 0.0724 -0.9461 -0.3157
vn 0.0096 -0.9485 -0.3165
vn 0.0712 -0.9276 0.3667
vn 0.0082 -0.9300 0.3675
vn 0.0687 -0.4749 0.8773
vn 0.0058 -0.4762 0.8793
vn 1.0000 0.0037 0.0011
vn 1.0000 0.0036 0.0012
vn 1.0000 0.0031 0.0017
vn 1.0000 0.0028 0.0017
vn 1.0000 0.0037 -0.0000
vn 1.0000 0.0028 0.0019
vn 1.0000 0.0030 0.0024
vn 1.0000 0.0032 0.0017
vn 1.0000 0.0039 0.0006
vn -0.0036 0.7831 0.6218
vn -0.0025 0.2002 0.9798
vn -0.0024 0.2007 0.9797
vn -0.0036 0.7830 0.6220
vn -0.0031 0.9996 -0.0268
vn -0.0031 0.9996 -0.0265
vn -0.0011 0.7481 -0.6636
vn -0.0011 0.7485 -0.6632
vn 0.0014 0.1468 -0.9892
vn 0.0013 0.1471 -0.9891
vn 0.0032 -0.5234 -0.8521
vn 0.0032 -0.5235 -0.8520
vn 0.0035 -0.9487 -0.3161
vn 0.0035 -0.9486 -0.3163
vn 0.0022 -0.9300 0.3675
vn 0.0022 -0.9301 0.3672
vn -0.0002 -0.4766 0.8791
vn -0.0001 -0.4762 0.8793
vn 1.0000 0.0027 0.0022
vn 1.0000 0.0033 0.0023
vn 1.0000 0.0031 0.0018
vn 1.0000 0.0033 0.0013
vn 1.0000 0.0034 0.0017
vn 1.0000 0.0044 0.0021
vn 1.0000 0.0032 0.0020
vn 1.0000 0.0027 0.0020
vn -0.0045 0.7830 0.6220
vn -0.0037 0.2003 0.9797
vn -0.0037 0.2002 0.9797
vn -0.0045 0.7828 0.6223
vn -0.0031 0.9996 -0.0273
vn -0.0003 0.7478 -0.6640
vn -0.0006 0.7482 -0.6635
vn -0.0001 0.1469 -0.9892
vn -0.0005 0.1470 -0.9891
vn 0.0017 -0.5237 -0.8519
vn 0.0016 -0.5233 -0.8522
vn 0.0011 -0.9484 -0.3171
vn 0.0014 -0.9487 -0.3160
vn 0.0014 -0.9301 0.3673
vn 0.0018 -0.9299 0.3679
vn -0.0013 -0.4761 0.8794
vn -0.0013 -0.4759 0.8795
vn -1.0000 -0.0031 -0.0016
vn -1.0000 -0.0040 -0.0032
vn -1.0000 -0.0034 -0.0018
vn -1.0000 -0.0039 -0.0013
vn -1.0000 -0.0028 -0.0034
vn -1.0000 -0.0029 -0.0022
vn -1.0000 -0.0025 -0.0020
vn -1.0000 -0.0028 -0.0018
vn -1.0000 -0.0031 -0.0011
vn 0.0019 -0.0258 -0.9997
vn -0.0019 0.0287 0.9996
vn 0.0019 -0.0260 -0.9997
vn 0.0018 -0.0287 -0.9996
vn 0.0018 -0.0286 -0.9996
vn 0.0020 -0.0258 -0.9997
vn -0.0020 0.0258 0.9997
vn 0.0020 -0.0260 -0.9997
vn 0.0019 -0.0287 -0.9996
vn 0.0019 -0.0286 -0.9996
vn 0.0021 -0.0259 -0.9997
vn -0.0019 0.0288 0.9996
vn -0.0020 0.0259 0.9997
vn -0.0021 0.0258 0.9997
vn 0.0019 -0.0288 -0.9996
vn -0.0019 0.0258 0.9997
vn 1.0000 0.0028 0.0042
vn 1.0000 0.0044 0.0022
vn 1.0000 0.0045 0.0024
vn 1.0000 0.0030 0.0039
vn 1.0000 0.0031 0.0021
vn 1.0000 0.0030 0.0020
vn 1.0000 0.0012 0.0024
vn 1.0000 0.0014 0.0026
vn 1.0000 0.0038 0.0030
vn 1.0000 0.0037 0.0025
vn 1.0000 0.0027 -0.0012
vn 1.0000 0.0024 -0.0005
vn 1.0000 0.0012 0.0044
vn 1.0000 0.0019 0.0043
vn 1.0000 0.0061 0.0007
vn 1.0000 0.0063 0.0002
vn 1.0000 0.0051 0.0015
vn 1.0000 0.0049 0.0015
vn 0.0481 -0.5222 -0.8515
vn 0.0462 0.1461 -0.9882
vn 0.0437 0.7476 -0.6627
vn 0.0418 0.9988 -0.0255
vn 0.0412 0.7827 0.6210
vn 0.0424 0.2010 0.9787
vn 0.0447 -0.4772 0.8777
vn 0.0471 -0.9286 0.3681
vn 0.0484 -0.9472 -0.3170
vn -0.0012 0.3306 0.9438
vn -0.0003 0.2729 -0.9620
vn -0.0010 0.2727 -0.9621
vn 0.0019 0.2736 -0.9618
vn 0.0026 0.2738 -0.9618
vn -1.0000 -0.0032 -0.0028
vn -1.0000 -0.0036 -0.0031
vn -1.0000 -0.0029 -0.0025
vn 1.0000 0.0031 0.0028
vn 1.0000 0.0034 0.0025
vn 1.0000 0.0028 0.0031
vn 0.0008 -0.6043 0.7968
vn -0.0029 0.2469 0.9690
vn -0.0029 0.2461 0.9692
vn 0.0008 -0.6045 0.7966
vn -0.0044 0.9113 0.4117
vn -0.0044 0.9113 0.4116
vn -0.0022 0.8902 -0.4557
vn -0.0026 0.8900 -0.4559
vn 0.0016 0.1972 -0.9804
vn 0.0011 0.1987 -0.9801
vn 0.0035 -0.6427 -0.7661
vn 0.0028 -0.6412 -0.7674
vn 0.0039 -0.9997 0.0246
vn 0.0033 -0.9997 0.0234
vn 1.0000 0.0035 0.0017
vn 1.0000 0.0040 0.0018
vn 1.0000 0.0037 0.0016
vn 1.0000 0.0037 0.0008
vn 1.0000 0.0028 0.0012
vn 1.0000 -0.0000 -0.0000
vn 1.0000 0.0026 0.0012
vn -1.0000 -0.0035 -0.0017
vn -1.0000 -0.0030 -0.0023
vn -1.0000 -0.0027 -0.0014
vn -1.0000 -0.0000 -0.0000
vn -1.0000 -0.0029 -0.0011
vn -1.0000 -0.0037 -0.0008
vn -1.0000 -0.0036 -0.0014
vn -0.0013 0.2555 0.9668
vn -0.0033 0.6475 0.7621
vn -0.0031 0.6479 0.7618
vn -0.0023 0.2526 0.9676
vn -0.0018 0.5979 -0.8015
vn 0.0005 0.1891 -0.9820
vn -0.0010 0.1937 -0.9811
vn -0.0028 0.6000 -0.8000
vn 0.0033 -0.6487 -0.7610
vn 0.0024 -0.6473 -0.7623
vn 0.0023 -0.9995 0.0304
vn 0.0023 -0.9995 0.0300
vn 0.0007 -0.5980 0.8015
vn -0.0005 -0.6000 0.8000
vn 1.0000 0.0030 0.0013
vn 1.0000 0.0064 -0.0032
vn 1.0000 0.0042 0.0028
vn 0.9999 0.0086 0.0101
vn 1.0000 0.0044 0.0034
vn 1.0000 0.0072 -0.0002
vn 1.0000 0.0031 0.0019
vn -1.0000 -0.0024 -0.0018
vn -1.0000 -0.0047 -0.0055
vn -1.0000 -0.0046 -0.0020
vn -1.0000 -0.0073 0.0002
vn -1.0000 -0.0029 -0.0006
vn 0.2732 0.7532 0.5984
vn 0.2731 0.1937 0.9423
vn 0.2745 0.9613 -0.0249
vn 0.2750 0.7200 -0.6371
vn 0.2784 0.1418 -0.9500
vn 0.2777 -0.5012 -0.8195
vn 0.2794 -0.9110 -0.3033
vn 0.2782 -0.8932 0.3533
vn 0.2754 -0.4566 0.8460
vn 0.2959 0.7533 0.5874
vn 0.3056 0.1916 0.9327
vn 0.2909 0.9566 -0.0176
vn 0.3073 0.7127 -0.6306
vn 0.3105 0.1402 -0.9402
vn 0.3104 -0.4975 -0.8100
vn 0.3115 -0.9015 -0.3004
vn 0.3105 -0.8837 0.3504
vn 0.3077 -0.4524 0.8370
vn 0.4574 -0.8874 -0.0577
vn 0.4069 -0.9087 -0.0935
vn 0.4265 -0.9004 -0.0865
vn -0.0000 -0.0000 1.0000
vn -0.0000 -0.0000 -1.0000
vn 0.1059 -0.9944 -0.0000
vn -0.0015 1.0000 -0.0000
vn -0.0016 1.0000 -0.0000
vn 0.3666 0.9268 0.0818
vn 0.4800 0.8740 0.0756
vn 0.4466 0.8915 0.0758
vn 0.5038 -0.8637 -0.0104
vn 0.4703 -0.8825 0.0078
vn 0.5055 -0.8628 -0.0067
vn 0.5218 -0.8530 -0.0000
vn -0.5536 -0.8328 0.0001
vn -0.5534 -0.8329 0.0002
vn -0.5537 -0.8327 0.0002
vn -0.5538 -0.8326 -0.0000
vn -0.5538 -0.8327 -0.0001
vn -0.5536 -0.8328 -0.0002
vn -0.5536 -0.8328 -0.0000
vn 0.9331 -0.3507 0.0797
vn 1.0000 0.0038 -0.0045
vn 0.8880 -0.1418 0.4374
vn 0.3632 0.9176 -0.1616
vn 0.9046 0.4264 -0.0000
vn 0.3632 0.9176 0.1616
vn 0.8880 -0.1418 -0.4374
vn 1.0000 0.0038 0.0045
vn 0.9331 -0.3507 -0.0797
vn 0.7543 -0.6566 -0.0000
vn 0.7542 -0.6566 -0.0000
vn -0.0930 0.1634 0.9822
vn -0.0562 -0.0000 0.9984
vn -0.0007 0.0005 1.0000
vn -0.0427 0.0996 0.9941
vn -0.0786 -0.3630 0.9285
vn -0.0593 -0.1142 0.9917
vn -0.0561 0.0489 0.9972
vn -0.0682 -0.1085 -0.9917
vn -0.0681 -0.2806 -0.9574
vn -0.0525 0.1164 -0.9918
vn -0.0659 0.0573 -0.9962
vn -0.0590 -0.4921 -0.8685
vn -0.0631 -0.2771 -0.9588
vn -0.0668 -0.3028 -0.9507
vn -0.0656 0.1152 -0.9912
vn -0.0524 0.1164 -0.9918
vn -0.1103 -0.0000 -0.9939
vn 0.0013 -1.0000 -0.0000
vn 0.0014 -1.0000 -0.0000
vn 0.0010 -1.0000 0.0018
vn -0.0045 -0.9992 0.0390
vn -0.0042 -0.9993 0.0375
vn 0.0012 -1.0000 -0.0000
vn -0.0043 0.0030 1.0000
vn -0.0030 0.0021 1.0000
vn -0.0555 -0.4938 0.8678
vn -0.0757 -0.3300 0.9409
vn -0.0630 -0.2039 0.9770
vn -0.0795 -0.5441 0.8352
vn -0.0687 -0.8167 0.5729
vn -0.1158 -0.9620 0.2474
vn -0.1188 -0.9595 0.2554
vn -0.1261 -0.9920 0.0016
vn -0.1260 -0.9920 -0.0000
vn -0.1174 -0.9608 -0.2513
vn -0.1040 -0.9536 -0.2827
vn -0.0822 -0.8251 -0.5590
vn -0.0747 -0.5681 -0.8195
vn 0.9135 0.4067 -0.0000
vn 0.9135 0.4068 -0.0000
vn 0.4361 -0.8992 0.0351
vn 0.4738 -0.8806 -0.0007
vn 0.5033 -0.8641 -0.0000
vn 0.5027 -0.8645 0.0011
vn 0.3515 0.9303 0.1046
vn 0.3411 0.9400 -0.0047
vn 0.3165 0.9478 0.0381
vn 0.3215 0.9419 0.0978
vn 0.3405 0.9367 -0.0811
vn 0.3102 0.9498 -0.0411
vn 0.2847 0.9586 -0.0000
vn 0.3700 0.9103 -0.1859
vn 0.4082 0.9043 -0.1254
vn 0.3645 0.9251 -0.1064
vn 0.4581 0.8825 -0.1062
vn 0.4662 -0.8841 0.0314
vn 0.4364 -0.8998 -0.0000
vn 0.4284 -0.9017 0.0591
vn 0.4122 -0.9088 0.0643
vn -0.5533 -0.8330 -0.0000
vn -0.5535 -0.8328 -0.0001
vn -0.9933 -0.0875 0.0752
vn -1.0000 -0.0095 -0.0000
vn -0.9939 -0.0840 0.0718
vn -0.9764 -0.1600 0.1451
vn -0.9939 -0.0840 -0.0718
vn -0.9933 -0.0876 -0.0752
vn -0.9764 -0.1600 -0.1451
vn -0.0000 1.0000 -0.0000
vn -0.0000 0.3088 0.9511
vn -0.0000 -0.8093 0.5874
vn -0.0000 -0.8093 -0.5874
vn -0.0000 0.3088 -0.9511
vt 0.416800 0.368300
vt 0.416800 0.377600
vt 0.013400 0.377600
vt 0.013400 0.368300
vt 0.416800 0.364700
vt 0.013400 0.364700
vt 0.416800 0.388100
vt 0.013400 0.388100
vt 0.416800 0.395000
vt 0.013400 0.395000
vt 0.552800 0.365500
vt 0.552800 0.376900
vt 0.552800 0.361000
vt 0.552800 0.390000
vt 0.552800 0.398400
vt 0.779600 0.376600
vt 0.744800 0.376600
vt 0.744800 0.364100
vt 0.779600 0.363900
vt 0.744800 0.359200
vt 0.779600 0.358900
vt 0.744800 0.390800
vt 0.779600 0.391000
vt 0.744800 0.400100
vt 0.779600 0.400400
vt 0.269600 0.365200
vt 0.269600 0.360600
vt 0.269600 0.376900
vt 0.269600 0.390200
vt 0.269600 0.398800
vt 0.404000 0.365200
vt 0.404000 0.376900
vt 0.404000 0.360600
vt 0.404000 0.390200
vt 0.404000 0.398800
vt 0.403100 0.363600
vt 0.403100 0.358400
vt 0.403100 0.376500
vt 0.403100 0.391200
vt 0.403100 0.400800
vt 0.408200 0.363600
vt 0.408200 0.376500
vt 0.408200 0.358400
vt 0.408200 0.391200
vt 0.408200 0.400800
vt 0.140500 0.366100
vt 0.253400 0.366100
vt 0.253400 0.360300
vt 0.140500 0.360300
vt 0.035400 0.366100
vt 0.130200 0.366100
vt 0.130200 0.360300
vt 0.035400 0.360300
vt 0.420600 0.366100
vt 0.546300 0.363100
vt 0.546300 0.357400
vt 0.420600 0.360300
vt 0.561700 0.363500
vt 0.687400 0.361800
vt 0.687400 0.356100
vt 0.561700 0.357800
vt 0.013400 0.378200
vt 0.013400 0.370900
vt 0.013400 0.386400
vt 0.013400 0.391800
vt 0.013400 0.368100
vt 0.987400 0.715100
vt 0.991000 0.715200
vt 0.992000 0.553600
vt 0.995100 0.715200
vt 0.997800 0.715100
vt 0.997900 0.715100
vt 0.995200 0.715100
vt 0.991000 0.715100
vt 0.986000 0.715100
vt 0.018200 0.368200
vt 0.018200 0.354700
vt 0.022500 0.354700
vt 0.022500 0.368200
vt 0.017900 0.359500
vt 0.017900 0.354800
vt 0.026100 0.354800
vt 0.026100 0.359500
vt 0.017900 0.351000
vt 0.026100 0.351000
vt 0.017900 0.354700
vt 0.026100 0.354700
vt 0.017900 0.359400
vt 0.026100 0.359400
vt 0.017900 0.361500
vt 0.026100 0.361500
vt 0.020100 0.397100
vt 0.020100 0.394800
vt 0.027000 0.394800
vt 0.027000 0.397100
vt 0.020100 0.399900
vt 0.027000 0.399900
vt 0.020100 0.401200
vt 0.027000 0.401200
vt 0.708200 0.364400
vt 0.708200 0.376700
vt 0.708200 0.359500
vt 0.708200 0.390700
vt 0.708200 0.399800
vt 0.709900 0.364400
vt 0.709900 0.376700
vt 0.709900 0.359500
vt 0.709900 0.390700
vt 0.709900 0.399800
vt 0.990900 0.720100
vt 0.997800 0.748500
vt 0.988000 0.745700
vt 1.002100 0.883500
vt 0.875900 0.927900
vt 0.892000 0.829200
vt 0.903800 0.830400
vt 0.925400 0.819200
vt 0.917500 0.819200
vt 0.917500 0.787200
vt 0.925400 0.787200
vt 0.906700 0.769600
vt 0.886300 0.769600
vt 0.878600 0.819200
vt 0.906700 0.819200
vt 0.833700 0.927900
vt 0.846000 0.857700
vt 0.990900 0.819200
vt 0.997400 0.780000
vt 0.992200 0.779600
vt 0.939600 0.787200
vt 0.960500 0.787200
vt 0.925400 0.742700
vt 0.917500 0.742700
vt 0.917500 0.720100
vt 0.925400 0.720100
vt 0.901000 0.736900
vt 0.886800 0.720100
vt 0.901000 0.792200
vt 0.901000 0.764600
vt 0.883200 0.648100
vt 0.887000 0.637600
vt 0.894400 0.629000
vt 0.904200 0.623400
vt 0.915400 0.621400
vt 0.926600 0.623400
vt 0.936500 0.629000
vt 0.943800 0.637600
vt 0.947700 0.648100
vt 0.883200 0.659400
vt 0.947700 0.659400
vt 0.939600 0.743900
vt 0.960500 0.745700
vt 0.974700 0.745700
vt 0.947700 0.671400
vt 0.883200 0.671400
vt 0.901000 0.742700
vt 0.905600 0.742700
vt 0.946100 0.743900
vt 0.946100 0.784300
vt 0.988000 0.782100
vt 0.974700 0.782100
vt 0.939600 0.784300
vt 0.946100 0.781900
vt 0.960500 0.782100
vt 0.939600 0.742700
vt 0.960500 0.742800
vt 0.901000 0.787200
vt 0.946100 0.746300
vt 0.992200 0.748700
vt 0.983700 0.749700
vt 0.946100 0.750900
vt 0.939600 0.757100
vt 0.977100 0.755000
vt 0.939600 0.764100
vt 0.974800 0.764100
vt 0.939600 0.771100
vt 0.977200 0.773300
vt 0.946100 0.777300
vt 0.983700 0.778400
vt 0.905600 0.787200
vt 0.906700 0.720100
vt 0.886800 0.769600
vt 0.886800 0.819200
vt 0.878600 0.720100
vt 0.957600 0.753900
vt 0.914200 0.753900
vt 0.914200 0.774100
vt 0.957600 0.774100
vt 0.952200 0.907400
vt 0.887100 0.907400
vt 0.887100 0.933400
vt 0.952200 0.933400
vt 0.971000 0.649300
vt 0.956200 0.649300
vt 0.956200 0.634500
vt 0.971000 0.634500
vt 0.956900 0.764000
vt 0.956900 0.770000
vt 0.964100 0.770000
vt 0.964100 0.764000
vt 0.956900 0.767700
vt 0.964100 0.767700
vt 0.956900 0.760300
vt 0.964100 0.760300
vt 0.956900 0.758000
vt 0.964100 0.758000
vt 0.959200 0.639000
vt 0.963600 0.635300
vt 0.968000 0.639000
vt 0.966300 0.644900
vt 0.960900 0.644900
s 1
usemtl t_90am_turret_6
f 1/1/1 2/2/2 3/3/3
f 3/3/3 4/4/4 1/1/1
f 5/5/5 1/1/1 4/4/4
f 4/4/4 6/6/6 5/5/5
f 7/1/7 5/5/5 6/6/6
f 6/6/6 8/4/8 7/1/7
f 9/2/9 7/1/7 8/4/8
f 8/4/8 10/3/10 9/2/9
f 11/7/11 9/2/9 10/3/10
f 10/3/10 12/8/12 11/7/11
f 13/9/13 11/7/11 12/8/12
f 12/8/12 14/10/14 13/9/13
f 15/9/15 13/9/13 14/10/14
f 14/10/14 16/10/16 15/9/15
f 17/7/17 15/9/15 16/10/16
f 16/10/16 18/8/18 17/7/17
f 2/2/2 17/7/17 18/8/18
f 18/8/18 3/3/3 2/2/2
f 2/2/2 1/1/1 19/11/19
f 19/11/19 20/12/20 2/2/2
f 1/1/1 5/5/5 21/13/21
f 21/13/21 19/11/19 1/1/1
f 5/5/5 7/1/7 22/11/22
f 22/11/22 21/13/21 5/5/5
f 7/1/7 9/2/9 23/12/23
f 23/12/23 22/11/22 7/1/7
f 9/2/9 11/7/11 24/14/24
f 24/14/24 23/12/23 9/2/9
f 11/7/11 13/9/13 25/15/25
f 25/15/25 24/14/24 11/7/11
f 13/9/13 15/9/15 26/15/26
f 26/15/26 25/15/25 13/9/13
f 15/9/15 17/7/17 27/14/27
f 27/14/27 26/15/26 15/9/15
f 17/7/17 2/2/2 20/12/20
f 20/12/20 27/14/27 17/7/17
f 28/16/28 29/17/29 30/18/30
f 30/18/30 31/19/31 28/16/28
f 31/19/31 30/18/30 32/20/32
f 32/20/32 33/21/33 31/19/31
f 33/21/33 32/20/32 34/18/34
f 34/18/34 35/19/35 33/21/33
f 35/19/35 34/18/34 36/17/36
f 36/17/36 37/16/37 35/19/35
f 37/16/37 36/17/36 38/22/38
f 38/22/38 39/23/39 37/16/37
f 39/23/39 38/22/38 40/24/40
f 40/24/40 41/25/41 39/23/39
f 41/25/41 40/24/40 42/24/42
f 42/24/42 43/25/43 41/25/41
f 43/25/43 42/24/42 44/22/44
f 44/22/44 45/23/45 43/25/43
f 45/23/45 44/22/44 29/17/29
f 29/17/29 28/16/28 45/23/45
f 46/26/46 47/27/47 48/26/48
f 49/28/49 50/29/50 51/30/51
f 48/26/48 49/28/49 51/30/51
f 51/30/51 52/30/52 53/29/53
f 48/26/48 51/30/51 53/29/53
f 46/26/46 48/26/48 53/29/53
f 46/26/46 53/29/53 54/28/54
f 55/31/55 56/32/56 57/28/57
f 57/28/57 58/26/58 55/31/55
f 59/33/59 55/31/55 58/26/58
f 58/26/58 60/27/60 59/33/59
f 61/31/61 59/33/59 60/27/60
f 60/27/60 62/26/62 61/31/61
f 63/32/63 61/31/61 62/26/62
f 62/26/62 64/28/64 63/32/63
f 65/34/65 63/32/63 64/28/64
f 64/28/64 66/29/66 65/34/65
f 67/35/67 65/34/65 66/29/66
f 66/29/66 68/30/68 67/35/67
f 69/35/69 67/35/67 68/30/68
f 68/30/68 70/30/70 69/35/69
f 71/34/71 69/35/69 70/30/70
f 70/30/70 72/29/72 71/34/71
f 56/32/56 71/34/71 72/29/72
f 72/29/72 57/28/57 56/32/56
f 73/36/73 74/37/74 75/36/75
f 76/38/76 77/39/48 78/40/77
f 75/36/75 76/38/76 78/40/77
f 78/40/77 79/40/78 80/39/79
f 75/36/75 78/40/77 80/39/79
f 73/36/73 75/36/75 80/39/79
f 73/36/73 80/39/79 81/38/80
f 82/41/81 83/42/82 84/38/83
f 84/38/83 85/36/84 82/41/81
f 86/43/85 82/41/81 85/36/84
f 85/36/84 87/37/59 86/43/85
f 88/41/86 86/43/85 87/37/59
f 87/37/59 89/36/87 88/41/86
f 90/42/88 88/41/86 89/36/87
f 89/36/87 91/38/89 90/42/88
f 92/44/90 90/42/88 91/38/89
f 91/38/89 93/39/91 92/44/90
f 94/45/92 92/44/90 93/39/91
f 93/39/91 95/40/93 94/45/92
f 96/45/94 94/45/92 95/40/93
f 95/40/93 97/40/95 96/45/94
f 98/44/96 96/45/94 97/40/95
f 97/40/95 99/39/97 98/44/96
f 83/42/82 98/44/96 99/39/97
f 99/39/97 84/38/83 83/42/82
f 100/42/98 101/44/99 102/45/100
f 103/45/101 104/44/102 105/42/103
f 102/45/100 103/45/101 105/42/103
f 105/42/103 106/41/104 107/43/105
f 102/45/100 105/42/103 107/43/105
f 100/42/98 102/45/100 107/43/105
f 100/42/98 107/43/105 108/41/106
f 109/46/107 110/47/107 111/48/107
f 111/48/107 112/49/107 109/46/107
f 113/46/108 114/49/108 115/48/108
f 115/48/108 116/47/108 113/46/108
f 117/50/109 118/51/110 119/52/111
f 119/52/111 120/53/112 117/50/109
f 121/50/113 122/53/113 123/52/113
f 123/52/113 124/51/113 121/50/113
f 125/54/114 126/55/115 127/56/116
f 127/56/116 128/57/117 125/54/114
f 129/54/108 130/57/118 131/56/119
f 131/56/119 132/55/120 129/54/108
f 133/58/115 134/59/121 135/60/121
f 135/60/121 136/61/115 133/58/115
f 137/58/122 138/61/122 139/60/122
f 139/60/122 140/59/122 137/58/122
f 141/62/123 142/63/124 143/4/125
f 143/4/125 144/3/126 141/62/123
f 145/64/127 141/62/123 144/3/126
f 144/3/126 146/8/128 145/64/127
f 147/65/129 145/64/127 146/8/128
f 146/8/128 148/10/130 147/65/129
f 149/65/131 147/65/129 148/10/130
f 148/10/130 150/10/132 149/65/131
f 151/64/133 149/65/131 150/10/132
f 150/10/132 152/8/134 151/64/133
f 153/62/135 151/64/133 152/8/134
f 152/8/134 154/3/136 153/62/135
f 155/63/137 153/62/135 154/3/136
f 154/3/136 156/4/138 155/63/137
f 157/66/139 155/63/137 156/4/138
f 156/4/138 158/6/140 157/66/139
f 142/63/124 157/66/139 158/6/140
f 158/6/140 143/4/125 142/63/124
f 159/67/141 160/68/141 161/69/141
f 162/68/142 163/70/142 164/69/142
f 165/70/143 166/71/143 167/69/143
f 168/71/144 169/72/144 170/69/144
f 171/72/145 172/73/145 173/69/145
f 174/73/146 175/74/146 176/69/146
f 177/74/147 178/67/147 179/69/147
f 180/67/148 181/75/148 182/69/148
f 183/75/149 184/67/149 185/69/149
f 186/76/150 187/77/150 188/78/150
f 188/78/150 189/79/150 186/76/150
f 190/76/151 191/79/152 192/78/153
f 192/78/153 193/77/154 190/76/151
f 194/79/155 195/78/156 196/78/155
f 196/78/155 197/79/157 194/79/155
f 198/77/158 199/76/159 200/76/158
f 200/76/158 201/77/160 198/77/158
f 202/80/161 203/81/162 204/82/163
f 204/82/163 205/83/164 202/80/161
f 203/81/162 206/84/165 207/85/166
f 207/85/166 204/82/163 203/81/162
f 206/84/165 208/84/167 209/85/168
f 209/85/168 207/85/166 206/84/165
f 208/84/167 210/86/169 211/87/170
f 211/87/170 209/85/168 208/84/167
f 210/86/169 212/88/171 213/89/172
f 213/89/172 211/87/170 210/86/169
f 212/88/171 214/90/173 215/91/174
f 215/91/174 213/89/172 212/88/171
f 214/90/173 202/80/161 205/83/164
f 205/83/164 215/91/174 214/90/173
f 216/80/175 217/90/176 218/88/177
f 218/88/177 219/86/178 220/84/179
f 216/80/175 218/88/177 220/84/179
f 220/84/179 221/84/180 222/81/181
f 216/80/175 220/84/179 222/81/181
f 223/91/182 224/83/183 225/82/184
f 225/82/184 226/85/185 227/85/186
f 223/91/182 225/82/184 227/85/186
f 227/85/186 228/87/187 229/89/188
f 223/91/182 227/85/186 229/89/188
f 230/92/189 231/93/190 232/94/191
f 232/94/191 233/95/192 230/92/189
f 234/93/193 235/92/194 236/95/195
f 236/95/195 237/94/196 234/93/193
f 235/92/194 238/96/197 239/97/198
f 239/97/198 236/95/195 235/92/194
f 238/96/197 240/98/199 241/99/200
f 241/99/200 239/97/198 238/96/197
f 240/98/199 242/96/201 243/97/202
f 243/97/202 241/99/200 240/98/199
f 242/96/201 230/92/189 233/95/192
f 233/95/192 243/97/202 242/96/201
f 244/92/203 245/96/204 246/98/205
f 246/98/205 247/96/206 248/92/207
f 244/92/203 246/98/205 248/92/207
f 248/92/207 249/93/208 250/93/209
f 244/92/203 248/92/207 250/93/209
f 251/97/210 252/95/211 253/94/212
f 253/94/212 254/94/213 255/95/214
f 251/97/210 253/94/212 255/95/214
f 255/95/214 256/97/185 257/99/185
f 251/97/210 255/95/214 257/99/185
f 20/12/20 19/11/19 258/100/215
f 258/100/215 259/101/216 20/12/20
f 19/11/19 21/13/21 260/102/217
f 260/102/217 258/100/215 19/11/19
f 21/13/21 22/11/22 261/100/218
f 261/100/218 260/102/217 21/13/21
f 22/11/22 23/12/23 262/101/219
f 262/101/219 261/100/218 22/11/22
f 23/12/23 24/14/24 263/103/220
f 263/103/220 262/101/219 23/12/23
f 24/14/24 25/15/25 264/104/221
f 264/104/221 263/103/220 24/14/24
f 25/15/25 26/15/26 265/104/222
f 265/104/222 264/104/221 25/15/25
f 26/15/26 27/14/27 266/103/223
f 266/103/223 265/104/222 26/15/26
f 27/14/27 20/12/20 259/101/216
f 259/101/216 266/103/223 27/14/27
f 259/101/216 258/100/215 267/105/224
f 267/105/224 268/106/225 259/101/216
f 258/100/215 260/102/217 269/107/226
f 269/107/226 267/105/224 258/100/215
f 260/102/217 261/100/218 270/105/227
f 270/105/227 269/107/226 260/102/217
f 261/100/218 262/101/219 271/106/228
f 271/106/228 270/105/227 261/100/218
f 262/101/219 263/103/220 272/108/229
f 272/108/229 271/106/228 262/101/219
f 263/103/220 264/104/221 273/109/230
f 273/109/230 272/108/229 263/103/220
f 264/104/221 265/104/222 274/109/231
f 274/109/231 273/109/230 264/104/221
f 265/104/222 266/103/223 275/108/232
f 275/108/232 274/109/231 265/104/222
f 266/103/223 259/101/216 268/106/225
f 268/106/225 275/108/232 266/103/223
f 268/106/225 267/105/224 30/18/30
f 30/18/30 29/17/29 268/106/225
f 267/105/224 269/107/226 32/20/32
f 32/20/32 30/18/30 267/105/224
f 269/107/226 270/105/227 34/18/34
f 34/18/34 32/20/32 269/107/226
f 270/105/227 271/106/228 36/17/36
f 36/17/36 34/18/34 270/105/227
f 271/106/228 272/108/229 38/22/38
f 38/22/38 36/17/36 271/106/228
f 272/108/229 273/109/230 40/24/40
f 40/24/40 38/22/38 272/108/229
f 273/109/230 274/109/231 42/24/42
f 42/24/42 40/24/40 273/109/230
f 274/109/231 275/108/232 44/22/44
f 44/22/44 42/24/42 274/109/231
f 275/108/232 268/106/225 29/17/29
f 29/17/29 44/22/44 275/108/232
f 276/110/233 277/111/234 278/112/235
f 279/113/236 280/114/236 281/115/236
f 281/115/236 282/116/236 279/113/236
f 283/115/237 284/114/237 285/113/237
f 285/113/237 286/116/237 283/115/237
f 287/117/238 288/118/238 289/119/238
f 289/119/238 290/120/238 287/117/238
f 291/121/239 292/122/239 293/123/240
f 293/123/240 294/124/240 291/121/239
f 280/114/236 295/125/236 296/126/236
f 296/126/236 281/115/236 280/114/236
f 284/114/237 283/115/237 297/126/237
f 297/126/237 298/125/237 284/114/237
f 299/127/241 300/128/242 301/129/243
f 302/130/244 303/131/245 304/117/246
f 304/117/246 305/120/247 302/130/244
f 306/132/238 307/133/238 308/134/238
f 308/134/238 309/135/238 306/132/238
f 310/136/248 311/137/249 312/134/250
f 312/134/250 313/133/251 310/136/248
f 314/119/252 315/138/253 316/139/254
f 314/119/252 316/139/254 310/136/248
f 313/133/251 314/119/252 310/136/248
f 317/140/255 318/141/256 319/142/257
f 319/142/257 320/143/258 321/144/259
f 317/140/255 319/142/257 321/144/259
f 321/144/259 322/145/260 323/146/261
f 323/146/261 324/147/262 325/148/263
f 321/144/259 323/146/261 325/148/263
f 317/140/255 321/144/259 325/148/263
f 326/149/264 317/140/255 325/148/263
f 327/150/265 326/149/264 325/148/263
f 328/151/266 329/152/266 330/153/266
f 331/153/267 332/151/267 333/151/267
f 334/150/180 335/154/180 336/155/180
f 336/155/180 337/149/180 334/150/180
f 338/156/236 339/157/236 340/133/236
f 340/133/236 341/132/268 338/156/236
f 342/153/269 343/112/270 344/158/271
f 344/158/271 345/151/272 342/153/269
f 346/159/273 347/160/274 348/161/275
f 348/161/275 349/162/276 346/159/273
f 350/163/277 351/129/278 352/128/279
f 350/163/277 352/128/279 347/160/274
f 350/163/277 347/160/274 346/159/273
f 353/162/280 348/161/281 354/164/280
f 355/164/282 356/162/282 357/162/282
f 358/131/237 359/130/237 360/130/237
f 361/130/283 362/162/283 363/164/284
f 363/164/284 364/131/284 361/130/283
f 365/165/285 366/166/286 367/152/287
f 367/152/287 368/151/288 365/165/285
f 341/132/268 369/166/289 370/165/290
f 371/120/237 372/167/237 360/130/237
f 360/130/237 359/130/237 371/120/237
f 373/168/291 344/158/271 343/112/270
f 373/168/291 343/112/270 374/111/292
f 373/168/291 374/111/292 375/169/293
f 373/168/291 375/169/293 376/170/294
f 376/170/294 377/171/295 373/168/291
f 378/172/296 377/171/295 376/170/294
f 376/170/294 379/173/297 378/172/296
f 380/174/298 378/172/296 379/173/297
f 379/173/297 381/175/299 380/174/298
f 382/176/300 380/174/298 381/175/299
f 381/175/299 383/177/301 382/176/300
f 384/178/302 382/176/300 383/177/301
f 383/177/301 385/179/303 384/178/302
f 350/163/277 384/178/302 385/179/303
f 385/179/303 351/129/278 350/163/277
f 386/167/304 387/180/304 388/157/305
f 388/157/305 389/156/305 386/167/304
f 278/112/235 390/152/306 391/166/307
f 391/166/307 392/132/308 393/135/309
f 391/166/307 393/135/309 276/110/233
f 278/112/235 391/166/307 276/110/233
f 394/177/310 395/175/311 396/124/312
f 301/129/243 397/179/313 299/127/241
f 394/177/310 396/124/312 299/127/241
f 299/127/241 397/179/313 394/177/310
f 395/175/311 398/173/314 399/181/315
f 395/175/311 399/181/315 400/121/316
f 395/175/311 400/121/316 396/124/312
f 398/173/314 401/170/317 399/181/315
f 402/169/318 403/110/319 399/181/315
f 399/181/315 401/170/317 402/169/318
f 402/169/318 404/111/320 403/110/319
f 303/131/245 405/127/321 304/117/246
f 303/131/245 406/164/322 407/160/323
f 407/160/323 405/127/321 303/131/245
f 407/160/323 408/128/324 405/127/321
f 310/136/248 316/139/254 409/182/325
f 409/182/325 311/137/249 310/136/248
f 314/119/252 410/118/254 411/183/326
f 411/183/326 315/138/253 314/119/252
f 341/132/268 370/165/290 338/156/236
f 412/119/237 413/180/237 372/167/237
f 372/167/237 371/120/237 412/119/237
f 362/162/283 361/130/283 414/167/288
f 414/167/288 415/156/288 365/165/285
f 414/167/288 365/165/285 368/151/288
f 362/162/283 414/167/288 368/151/288
f 416/181/240 417/184/240 292/122/239
f 292/122/239 291/121/239 416/181/240
f 315/138/253 411/183/326 409/182/325
f 409/182/325 316/139/254 315/138/253
f 418/137/327 419/182/328 420/122/329
f 420/122/329 421/184/330 418/137/327
f 422/122/331 419/182/328 423/183/332
f 423/183/332 424/123/333 422/122/331
f 425/185/334 426/186/334 427/187/334
f 427/187/334 428/188/334 425/185/334
f 429/189/237 430/190/237 431/191/237
f 431/191/237 432/192/237 429/189/237
f 433/186/185 434/187/185 435/187/185
f 435/187/185 436/186/185 433/186/185
f 437/190/236 438/189/236 439/192/236
f 439/192/236 440/191/236 437/190/236
f 441/193/180 442/194/180 443/195/180
f 443/195/180 444/196/180 441/193/180
f 445/197/334 446/198/335 447/199/335
f 447/199/335 448/200/334 445/197/334
f 446/198/335 449/201/336 450/202/336
f 450/202/336 447/199/335 446/198/335
f 449/201/336 451/203/337 452/204/337
f 452/204/337 450/202/336 449/201/336
f 451/203/337 453/205/338 454/206/338
f 454/206/338 452/204/337 451/203/337
f 453/205/338 445/197/334 448/200/334
f 448/200/334 454/206/338 453/205/338
f 455/207/180 456/208/180 457/209/180
f 455/207/180 457/209/180 458/210/180
f 455/207/180 458/210/180 459/211/180
